%
M48
M72
T01C0.0315
T02C0.0320
T03C0.0551
T04C0.0709
%
T01
X1125Y7518
X1100Y13118
X1425Y17268
X7600Y15906
X7600Y15118
X7600Y14331
X8125Y6293
X8175Y5043
X7575Y4143
X6975Y5043
X7025Y6293
X7575Y3293
X14025Y7518
X14050Y13118
X13725Y17268
T02
X12475Y23218
X12475Y24218
X7575Y11968
X7575Y8968
X2675Y23193
X2675Y24193
T03
X7600Y16732
X7600Y13504
T04
X3521Y21493
X11829Y21493
M30
