G75*
G70*
%OFA0B0*%
%FSLAX24Y24*%
%IPPOS*%
%LPD*%
%AMOC8*
5,1,8,0,0,1.08239X$1,22.5*
%
%ADD10C,0.0070*%
%ADD11R,0.0401X0.0025*%
%ADD12R,0.0399X0.0025*%
%ADD13R,0.0800X0.0025*%
%ADD14R,0.1024X0.0025*%
%ADD15R,0.1026X0.0025*%
%ADD16R,0.1226X0.0025*%
%ADD17R,0.1224X0.0025*%
%ADD18R,0.1376X0.0025*%
%ADD19R,0.1374X0.0025*%
%ADD20R,0.1526X0.0025*%
%ADD21R,0.1524X0.0025*%
%ADD22R,0.1650X0.0025*%
%ADD23R,0.1801X0.0025*%
%ADD24R,0.1800X0.0025*%
%ADD25R,0.1875X0.0025*%
%ADD26R,0.1876X0.0025*%
%ADD27R,0.1975X0.0025*%
%ADD28R,0.2050X0.0025*%
%ADD29R,0.2176X0.0025*%
%ADD30R,0.2174X0.0025*%
%ADD31R,0.4475X0.0025*%
%ADD32R,0.4574X0.0025*%
%ADD33R,0.4674X0.0025*%
%ADD34R,0.4774X0.0025*%
%ADD35R,0.4875X0.0025*%
%ADD36R,0.4975X0.0025*%
%ADD37R,0.5075X0.0025*%
%ADD38R,0.5176X0.0025*%
%ADD39R,0.5226X0.0025*%
%ADD40R,0.5326X0.0025*%
%ADD41R,0.5376X0.0025*%
%ADD42R,0.5476X0.0025*%
%ADD43R,0.5525X0.0025*%
%ADD44R,0.5625X0.0025*%
%ADD45R,0.5675X0.0025*%
%ADD46R,0.1725X0.0025*%
%ADD47R,0.1175X0.0025*%
%ADD48R,0.1724X0.0025*%
%ADD49R,0.1575X0.0025*%
%ADD50R,0.1025X0.0025*%
%ADD51R,0.1500X0.0025*%
%ADD52R,0.0925X0.0025*%
%ADD53R,0.1450X0.0025*%
%ADD54R,0.0825X0.0025*%
%ADD55R,0.1449X0.0025*%
%ADD56R,0.1375X0.0025*%
%ADD57R,0.0775X0.0025*%
%ADD58R,0.1324X0.0025*%
%ADD59R,0.0725X0.0025*%
%ADD60R,0.1326X0.0025*%
%ADD61R,0.1300X0.0025*%
%ADD62R,0.0675X0.0025*%
%ADD63R,0.1299X0.0025*%
%ADD64R,0.1275X0.0025*%
%ADD65R,0.0625X0.0025*%
%ADD66R,0.1225X0.0025*%
%ADD67R,0.1200X0.0025*%
%ADD68R,0.0575X0.0025*%
%ADD69R,0.1176X0.0025*%
%ADD70R,0.0549X0.0025*%
%ADD71R,0.1174X0.0025*%
%ADD72R,0.1151X0.0025*%
%ADD73R,0.0525X0.0025*%
%ADD74R,0.1150X0.0025*%
%ADD75R,0.1126X0.0025*%
%ADD76R,0.0475X0.0025*%
%ADD77R,0.1124X0.0025*%
%ADD78R,0.1101X0.0025*%
%ADD79R,0.1099X0.0025*%
%ADD80R,0.1076X0.0025*%
%ADD81R,0.1075X0.0025*%
%ADD82R,0.1051X0.0025*%
%ADD83R,0.1050X0.0025*%
%ADD84R,0.1000X0.0025*%
%ADD85R,0.0626X0.0025*%
%ADD86R,0.0876X0.0025*%
%ADD87R,0.0875X0.0025*%
%ADD88R,0.0999X0.0025*%
%ADD89R,0.0975X0.0025*%
%ADD90R,0.1074X0.0025*%
%ADD91R,0.0974X0.0025*%
%ADD92R,0.1350X0.0025*%
%ADD93R,0.0949X0.0025*%
%ADD94R,0.1476X0.0025*%
%ADD95R,0.1474X0.0025*%
%ADD96R,0.0924X0.0025*%
%ADD97R,0.1574X0.0025*%
%ADD98R,0.1576X0.0025*%
%ADD99R,0.3825X0.0025*%
%ADD100R,0.3925X0.0025*%
%ADD101R,0.0926X0.0025*%
%ADD102R,0.0899X0.0025*%
%ADD103R,0.4075X0.0025*%
%ADD104R,0.0900X0.0025*%
%ADD105R,0.4175X0.0025*%
%ADD106R,0.0901X0.0025*%
%ADD107R,0.4275X0.0025*%
%ADD108R,0.4375X0.0025*%
%ADD109R,0.0874X0.0025*%
%ADD110R,0.4925X0.0025*%
%ADD111R,0.0851X0.0025*%
%ADD112R,0.5025X0.0025*%
%ADD113R,0.0850X0.0025*%
%ADD114R,0.0826X0.0025*%
%ADD115R,0.5574X0.0025*%
%ADD116R,0.0799X0.0025*%
%ADD117R,0.0824X0.0025*%
%ADD118R,0.5724X0.0025*%
%ADD119R,0.5774X0.0025*%
%ADD120R,0.5825X0.0025*%
%ADD121R,0.0801X0.0025*%
%ADD122R,0.5924X0.0025*%
%ADD123R,0.0774X0.0025*%
%ADD124R,0.5974X0.0025*%
%ADD125R,0.6025X0.0025*%
%ADD126R,0.6075X0.0025*%
%ADD127R,0.6124X0.0025*%
%ADD128R,0.0776X0.0025*%
%ADD129R,0.6174X0.0025*%
%ADD130R,0.6225X0.0025*%
%ADD131R,0.6275X0.0025*%
%ADD132R,0.6325X0.0025*%
%ADD133R,0.6375X0.0025*%
%ADD134R,0.0750X0.0025*%
%ADD135R,0.6426X0.0025*%
%ADD136R,0.0751X0.0025*%
%ADD137R,0.6476X0.0025*%
%ADD138R,0.6526X0.0025*%
%ADD139R,0.6575X0.0025*%
%ADD140R,0.0749X0.0025*%
%ADD141R,0.6625X0.0025*%
%ADD142R,0.6676X0.0025*%
%ADD143R,0.6726X0.0025*%
%ADD144R,0.6775X0.0025*%
%ADD145R,0.6824X0.0025*%
%ADD146R,0.6875X0.0025*%
%ADD147R,0.6925X0.0025*%
%ADD148R,0.6974X0.0025*%
%ADD149R,0.0726X0.0025*%
%ADD150R,0.7024X0.0025*%
%ADD151R,0.7075X0.0025*%
%ADD152R,0.7125X0.0025*%
%ADD153R,0.7174X0.0025*%
%ADD154R,0.7224X0.0025*%
%ADD155R,0.7275X0.0025*%
%ADD156R,0.7325X0.0025*%
%ADD157R,0.1825X0.0025*%
%ADD158R,0.3175X0.0025*%
%ADD159R,0.1850X0.0025*%
%ADD160R,0.1749X0.0025*%
%ADD161R,0.3075X0.0025*%
%ADD162R,0.2975X0.0025*%
%ADD163R,0.1774X0.0025*%
%ADD164R,0.2901X0.0025*%
%ADD165R,0.1750X0.0025*%
%ADD166R,0.2849X0.0025*%
%ADD167R,0.1700X0.0025*%
%ADD168R,0.2801X0.0025*%
%ADD169R,0.1726X0.0025*%
%ADD170R,0.1699X0.0025*%
%ADD171R,0.2750X0.0025*%
%ADD172R,0.2701X0.0025*%
%ADD173R,0.0724X0.0025*%
%ADD174R,0.0700X0.0025*%
%ADD175R,0.1674X0.0025*%
%ADD176R,0.2676X0.0025*%
%ADD177R,0.0699X0.0025*%
%ADD178R,0.2650X0.0025*%
%ADD179R,0.1701X0.0025*%
%ADD180R,0.2600X0.0025*%
%ADD181R,0.2575X0.0025*%
%ADD182R,0.1751X0.0025*%
%ADD183R,0.0701X0.0025*%
%ADD184R,0.2550X0.0025*%
%ADD185R,0.2525X0.0025*%
%ADD186R,0.1775X0.0025*%
%ADD187R,0.2500X0.0025*%
%ADD188R,0.1776X0.0025*%
%ADD189R,0.1826X0.0025*%
%ADD190R,0.1900X0.0025*%
%ADD191R,0.0676X0.0025*%
%ADD192R,0.0551X0.0025*%
%ADD193R,0.0624X0.0025*%
%ADD194R,0.0674X0.0025*%
%ADD195R,0.0476X0.0025*%
%ADD196R,0.0950X0.0025*%
%ADD197R,0.0450X0.0025*%
%ADD198R,0.0425X0.0025*%
%ADD199R,0.0451X0.0025*%
%ADD200R,0.0400X0.0025*%
%ADD201R,0.0426X0.0025*%
%ADD202R,0.0375X0.0025*%
%ADD203R,0.0374X0.0025*%
%ADD204R,0.0376X0.0025*%
%ADD205R,0.0849X0.0025*%
%ADD206R,0.0424X0.0025*%
%ADD207R,0.0449X0.0025*%
%ADD208R,0.0474X0.0025*%
%ADD209R,0.0499X0.0025*%
%ADD210R,0.0550X0.0025*%
%ADD211R,0.1599X0.0025*%
%ADD212R,0.1475X0.0025*%
%ADD213R,0.1550X0.0025*%
%ADD214R,0.1549X0.0025*%
%ADD215R,0.1425X0.0025*%
%ADD216R,0.1426X0.0025*%
%ADD217R,0.1401X0.0025*%
%ADD218R,0.1624X0.0025*%
%ADD219R,0.1600X0.0025*%
%ADD220R,0.1649X0.0025*%
%ADD221R,0.1400X0.0025*%
%ADD222R,0.1351X0.0025*%
%ADD223R,0.1399X0.0025*%
%ADD224R,0.0101X0.0025*%
%ADD225R,0.0100X0.0025*%
%ADD226R,0.1349X0.0025*%
%ADD227R,0.1325X0.0025*%
%ADD228R,0.5151X0.0025*%
%ADD229R,0.5251X0.0025*%
%ADD230R,0.1001X0.0025*%
%ADD231R,0.5351X0.0025*%
%ADD232R,0.5499X0.0025*%
%ADD233R,0.5624X0.0025*%
%ADD234R,0.5725X0.0025*%
%ADD235R,0.5824X0.0025*%
%ADD236R,0.1199X0.0025*%
%ADD237R,0.1251X0.0025*%
%ADD238R,0.1274X0.0025*%
%ADD239R,0.5925X0.0025*%
%ADD240R,0.1250X0.0025*%
%ADD241R,0.6024X0.0025*%
%ADD242R,0.1301X0.0025*%
%ADD243R,0.6149X0.0025*%
%ADD244R,0.6250X0.0025*%
%ADD245R,0.1249X0.0025*%
%ADD246R,0.1424X0.0025*%
%ADD247R,0.1276X0.0025*%
%ADD248R,0.0600X0.0025*%
%ADD249R,0.0650X0.0025*%
%ADD250R,0.0649X0.0025*%
%ADD251R,0.0599X0.0025*%
%ADD252R,0.6600X0.0025*%
%ADD253R,0.6701X0.0025*%
%ADD254R,0.0500X0.0025*%
%ADD255R,0.0601X0.0025*%
%ADD256R,0.0501X0.0025*%
%ADD257R,0.2675X0.0025*%
%ADD258R,0.2674X0.0025*%
%ADD259R,0.2700X0.0025*%
%ADD260R,0.2699X0.0025*%
%ADD261R,0.2001X0.0025*%
%ADD262R,0.1925X0.0025*%
%ADD263R,0.1625X0.0025*%
%ADD264R,0.1926X0.0025*%
%ADD265R,0.1901X0.0025*%
%ADD266R,0.1675X0.0025*%
%ADD267R,0.1851X0.0025*%
%ADD268R,0.1924X0.0025*%
%ADD269R,0.3250X0.0025*%
%ADD270R,0.3226X0.0025*%
%ADD271R,0.3225X0.0025*%
%ADD272R,0.3176X0.0025*%
%ADD273R,0.3126X0.0025*%
%ADD274R,0.3125X0.0025*%
%ADD275R,0.3101X0.0025*%
%ADD276R,0.3100X0.0025*%
%ADD277R,0.3076X0.0025*%
%ADD278R,0.3025X0.0025*%
%ADD279R,0.2974X0.0025*%
%ADD280R,0.2924X0.0025*%
%ADD281R,0.0651X0.0025*%
%ADD282R,0.2925X0.0025*%
%ADD283R,0.2900X0.0025*%
%ADD284R,0.2899X0.0025*%
%ADD285R,0.2949X0.0025*%
%ADD286R,0.2976X0.0025*%
%ADD287R,0.3701X0.0025*%
%ADD288R,0.3699X0.0025*%
%ADD289R,0.3675X0.0025*%
%ADD290R,0.3650X0.0025*%
%ADD291R,0.3626X0.0025*%
%ADD292R,0.3625X0.0025*%
%ADD293R,0.3600X0.0025*%
%ADD294R,0.3599X0.0025*%
%ADD295R,0.3550X0.0025*%
%ADD296R,0.3526X0.0025*%
%ADD297R,0.3525X0.0025*%
%ADD298R,0.3500X0.0025*%
%ADD299R,0.3476X0.0025*%
%ADD300R,0.3474X0.0025*%
%ADD301R,0.3450X0.0025*%
%ADD302R,0.3401X0.0025*%
%ADD303R,0.3376X0.0025*%
%ADD304R,0.3350X0.0025*%
%ADD305R,0.3325X0.0025*%
%ADD306R,0.3301X0.0025*%
%ADD307R,0.3275X0.0025*%
%ADD308R,0.3276X0.0025*%
%ADD309R,0.3201X0.0025*%
%ADD310R,0.3200X0.0025*%
%ADD311R,0.3150X0.0025*%
%ADD312R,0.3151X0.0025*%
%ADD313R,0.3050X0.0025*%
%ADD314R,0.3000X0.0025*%
%ADD315R,0.2999X0.0025*%
%ADD316R,0.2951X0.0025*%
%ADD317R,0.2950X0.0025*%
%ADD318R,0.2825X0.0025*%
%ADD319R,0.2800X0.0025*%
%ADD320R,0.2776X0.0025*%
%ADD321R,0.2775X0.0025*%
%ADD322R,0.2749X0.0025*%
%ADD323R,0.2725X0.0025*%
%ADD324R,0.2649X0.0025*%
%ADD325R,0.2601X0.0025*%
%ADD326R,0.1799X0.0025*%
%ADD327R,0.1676X0.0025*%
%ADD328R,0.1626X0.0025*%
%ADD329R,0.1525X0.0025*%
%ADD330R,0.1201X0.0025*%
%ADD331R,0.1149X0.0025*%
%ADD332R,0.1125X0.0025*%
%ADD333R,0.1049X0.0025*%
%ADD334R,0.1824X0.0025*%
%ADD335R,0.1849X0.0025*%
%ADD336R,0.1899X0.0025*%
%ADD337R,0.1950X0.0025*%
%ADD338R,0.1974X0.0025*%
%ADD339R,0.1999X0.0025*%
%ADD340R,0.2000X0.0025*%
%ADD341R,0.2025X0.0025*%
%ADD342R,0.2024X0.0025*%
%ADD343R,0.2049X0.0025*%
%ADD344R,0.0576X0.0025*%
%ADD345R,0.0526X0.0025*%
%ADD346R,0.1100X0.0025*%
%ADD347R,0.2100X0.0025*%
%ADD348R,0.2076X0.0025*%
%ADD349R,0.2075X0.0025*%
%ADD350R,0.2051X0.0025*%
%ADD351R,0.2026X0.0025*%
%ADD352R,0.1951X0.0025*%
%ADD353R,0.1651X0.0025*%
%ADD354R,0.3249X0.0025*%
%ADD355R,0.1949X0.0025*%
%ADD356R,0.2126X0.0025*%
%ADD357R,0.2151X0.0025*%
%ADD358R,0.3149X0.0025*%
%ADD359R,0.2175X0.0025*%
%ADD360R,0.2225X0.0025*%
%ADD361R,0.2226X0.0025*%
%ADD362R,0.2275X0.0025*%
%ADD363R,0.2276X0.0025*%
%ADD364R,0.2300X0.0025*%
%ADD365R,0.2325X0.0025*%
%ADD366R,0.2375X0.0025*%
%ADD367R,0.2376X0.0025*%
%ADD368R,0.2400X0.0025*%
%ADD369R,0.2426X0.0025*%
%ADD370R,0.2425X0.0025*%
%ADD371R,0.2451X0.0025*%
%ADD372R,0.2524X0.0025*%
%ADD373R,0.2626X0.0025*%
%ADD374R,0.2625X0.0025*%
%ADD375R,0.2774X0.0025*%
%ADD376R,0.2826X0.0025*%
%ADD377R,0.3024X0.0025*%
%ADD378R,0.3099X0.0025*%
%ADD379R,0.3300X0.0025*%
%ADD380R,0.3299X0.0025*%
%ADD381R,0.3375X0.0025*%
%ADD382R,0.3374X0.0025*%
%ADD383R,0.3676X0.0025*%
%ADD384R,0.3750X0.0025*%
%ADD385R,0.4499X0.0025*%
%ADD386R,0.4501X0.0025*%
%ADD387R,0.4525X0.0025*%
%ADD388R,0.4549X0.0025*%
%ADD389R,0.4550X0.0025*%
%ADD390R,0.4576X0.0025*%
%ADD391R,0.4600X0.0025*%
%ADD392R,0.4601X0.0025*%
%ADD393R,0.4624X0.0025*%
%ADD394R,0.4649X0.0025*%
%ADD395R,0.4675X0.0025*%
%ADD396R,0.4725X0.0025*%
%ADD397R,0.4726X0.0025*%
%ADD398R,0.4049X0.0025*%
%ADD399R,0.4050X0.0025*%
%ADD400R,0.4101X0.0025*%
%ADD401R,0.4099X0.0025*%
%ADD402R,0.4199X0.0025*%
%ADD403R,0.3001X0.0025*%
%ADD404R,0.4201X0.0025*%
%ADD405R,0.2624X0.0025*%
%ADD406R,0.8424X0.0025*%
%ADD407R,0.8399X0.0025*%
%ADD408R,0.8375X0.0025*%
%ADD409R,0.8325X0.0025*%
%ADD410R,0.8274X0.0025*%
%ADD411R,0.8224X0.0025*%
%ADD412R,0.8175X0.0025*%
%ADD413R,0.8125X0.0025*%
%ADD414R,0.8075X0.0025*%
%ADD415R,0.8025X0.0025*%
%ADD416R,0.7951X0.0025*%
%ADD417R,0.7901X0.0025*%
%ADD418R,0.0976X0.0025*%
%ADD419R,0.8000X0.0025*%
%ADD420R,0.8249X0.0025*%
%ADD421R,0.8300X0.0025*%
%ADD422R,0.8350X0.0025*%
%ADD423R,0.8474X0.0025*%
%ADD424R,0.8500X0.0025*%
%ADD425R,0.5800X0.0025*%
%ADD426R,0.0574X0.0025*%
%ADD427R,0.5475X0.0025*%
%ADD428R,0.5375X0.0025*%
%ADD429R,0.5276X0.0025*%
%ADD430R,0.5426X0.0025*%
%ADD431R,0.5576X0.0025*%
%ADD432R,0.5650X0.0025*%
%ADD433R,0.5699X0.0025*%
%ADD434R,0.5749X0.0025*%
%ADD435R,0.5874X0.0025*%
%ADD436R,0.5975X0.0025*%
%ADD437R,0.6074X0.0025*%
%ADD438R,0.6175X0.0025*%
%ADD439R,0.6300X0.0025*%
%ADD440R,0.6349X0.0025*%
%ADD441R,0.6401X0.0025*%
%ADD442R,0.6451X0.0025*%
%ADD443R,0.6525X0.0025*%
%ADD444R,0.6626X0.0025*%
%ADD445R,0.6725X0.0025*%
%ADD446R,0.6826X0.0025*%
%ADD447R,0.6900X0.0025*%
%ADD448R,0.6949X0.0025*%
%ADD449R,0.6999X0.0025*%
%ADD450R,0.7050X0.0025*%
%ADD451R,0.7124X0.0025*%
%ADD452R,0.7225X0.0025*%
%ADD453R,0.7374X0.0025*%
%ADD454R,0.7425X0.0025*%
%ADD455R,0.7500X0.0025*%
%ADD456R,0.7550X0.0025*%
%ADD457R,0.7599X0.0025*%
%ADD458R,0.7650X0.0025*%
%ADD459R,0.7701X0.0025*%
%ADD460R,0.7775X0.0025*%
%ADD461R,0.7826X0.0025*%
%ADD462R,0.7876X0.0025*%
%ADD463R,0.7926X0.0025*%
%ADD464R,0.7975X0.0025*%
%ADD465R,0.8076X0.0025*%
%ADD466R,0.8150X0.0025*%
%ADD467R,0.8199X0.0025*%
%ADD468R,0.8275X0.0025*%
%ADD469R,0.8475X0.0025*%
%ADD470R,0.8574X0.0025*%
%ADD471R,0.8649X0.0025*%
%ADD472R,0.8775X0.0025*%
%ADD473R,1.0425X0.0025*%
%ADD474R,1.0475X0.0025*%
%ADD475R,1.0499X0.0025*%
%ADD476R,1.0524X0.0025*%
%ADD477R,1.0549X0.0025*%
%ADD478R,1.0574X0.0025*%
%ADD479R,1.0600X0.0025*%
%ADD480R,1.0625X0.0025*%
%ADD481R,1.0675X0.0025*%
%ADD482R,1.0699X0.0025*%
%ADD483R,1.0724X0.0025*%
%ADD484R,1.0800X0.0025*%
%ADD485R,1.1025X0.0025*%
%ADD486R,1.1124X0.0025*%
%ADD487R,1.1174X0.0025*%
%ADD488R,1.1225X0.0025*%
%ADD489R,1.1275X0.0025*%
%ADD490R,1.1325X0.0025*%
%ADD491R,1.1375X0.0025*%
%ADD492R,0.9601X0.0025*%
%ADD493R,0.9474X0.0025*%
%ADD494R,0.9376X0.0025*%
%ADD495R,0.9325X0.0025*%
%ADD496R,0.9275X0.0025*%
%ADD497R,0.9226X0.0025*%
%ADD498R,0.9176X0.0025*%
%ADD499R,0.9126X0.0025*%
%ADD500R,0.9075X0.0025*%
%ADD501R,0.9051X0.0025*%
%ADD502R,0.9201X0.0025*%
%ADD503R,0.9400X0.0025*%
%ADD504R,0.9500X0.0025*%
%ADD505R,0.9551X0.0025*%
%ADD506R,0.9425X0.0025*%
%ADD507R,0.9351X0.0025*%
%ADD508R,0.9050X0.0025*%
%ADD509R,0.9026X0.0025*%
%ADD510R,0.0351X0.0025*%
%ADD511R,0.0350X0.0025*%
%ADD512R,0.0325X0.0025*%
%ADD513R,0.0326X0.0025*%
%ADD514R,0.0299X0.0025*%
%ADD515C,0.0063*%
%ADD516C,0.0050*%
D10*
X008774Y013510D02*
X009061Y013510D01*
X009132Y013582D01*
X009132Y013725D01*
X009061Y013797D01*
X008774Y013797D01*
X008702Y013725D01*
X008702Y013582D01*
X008774Y013510D01*
X008702Y013970D02*
X008702Y014257D01*
X008702Y014431D02*
X008702Y014718D01*
X008917Y014574D02*
X008917Y014431D01*
X009132Y014431D02*
X008702Y014431D01*
X008917Y014114D02*
X008917Y013970D01*
X009132Y013970D02*
X008702Y013970D01*
X008206Y023041D02*
X008206Y023471D01*
X008349Y023471D02*
X008062Y023471D01*
X007889Y023471D02*
X007602Y023471D01*
X007745Y023471D02*
X007745Y023041D01*
X007428Y023041D02*
X007428Y023328D01*
X007285Y023471D01*
X007141Y023328D01*
X007141Y023041D01*
X006968Y023113D02*
X006896Y023041D01*
X006681Y023041D01*
X006681Y023471D01*
X006896Y023471D01*
X006968Y023399D01*
X006968Y023328D01*
X006896Y023256D01*
X006681Y023256D01*
X006896Y023256D02*
X006968Y023184D01*
X006968Y023113D01*
X007141Y023256D02*
X007428Y023256D01*
D11*
X003163Y024468D03*
X003138Y024493D03*
X002088Y024043D03*
X002088Y024018D03*
X002088Y023993D03*
X002088Y023293D03*
X002088Y023268D03*
X002088Y023243D03*
X002088Y023218D03*
X002088Y023193D03*
X002088Y023168D03*
X002088Y023143D03*
X000788Y017293D03*
X000788Y017268D03*
X000788Y017243D03*
X000788Y017218D03*
X001138Y006618D03*
X006738Y002393D03*
X012313Y018693D03*
X012413Y018893D03*
X012413Y018918D03*
X011988Y024493D03*
D12*
X012963Y024493D03*
X012338Y018743D03*
X012338Y018718D03*
X014638Y013168D03*
X014638Y013143D03*
X014638Y013118D03*
X014638Y013093D03*
X014638Y013068D03*
X014638Y007568D03*
X014638Y007543D03*
X014638Y007518D03*
X014638Y007493D03*
X014638Y007468D03*
X014013Y006618D03*
X009763Y006043D03*
X008413Y002393D03*
X005338Y006018D03*
D13*
X003937Y004268D03*
X003962Y004243D03*
X003713Y006068D03*
X003688Y006093D03*
X003688Y006118D03*
X003663Y006143D03*
X006688Y002418D03*
X008463Y002418D03*
X011238Y004318D03*
X011287Y004368D03*
X011338Y004443D03*
X011487Y006168D03*
X012913Y017318D03*
D14*
X013175Y013293D03*
X013175Y013268D03*
X013175Y013243D03*
X013175Y013218D03*
X013175Y013043D03*
X013175Y013018D03*
X013175Y012993D03*
X013175Y012968D03*
X006650Y002443D03*
X001950Y012893D03*
X001950Y012918D03*
X001950Y012943D03*
X001975Y012968D03*
X001975Y012993D03*
X001975Y013018D03*
X001975Y013043D03*
X001975Y013218D03*
X001975Y013243D03*
X001975Y013268D03*
X001975Y013293D03*
X003825Y017643D03*
D15*
X008500Y002443D03*
D16*
X008550Y003643D03*
X006625Y002468D03*
X013250Y013518D03*
D17*
X006600Y003643D03*
X008525Y002468D03*
X002375Y009643D03*
X002375Y009668D03*
X002375Y009693D03*
X002350Y009743D03*
D18*
X002475Y009318D03*
X002475Y009293D03*
X003100Y006543D03*
X003125Y006493D03*
X003150Y006443D03*
X006600Y002493D03*
X012075Y006618D03*
D19*
X012050Y006568D03*
X012675Y009293D03*
X012675Y009318D03*
X008550Y002493D03*
X001150Y006968D03*
X001425Y017818D03*
D20*
X011850Y006193D03*
X006575Y002518D03*
D21*
X008575Y002518D03*
X009150Y006243D03*
X012700Y009218D03*
D22*
X012737Y009143D03*
X013513Y012293D03*
X008588Y002543D03*
X006563Y002543D03*
X005988Y006468D03*
D23*
X004463Y005643D03*
X004463Y005618D03*
X006538Y002568D03*
X010663Y005593D03*
X003038Y015443D03*
X001688Y013943D03*
D24*
X002388Y009068D03*
X008613Y002568D03*
X010363Y005168D03*
X010638Y005543D03*
X010313Y007268D03*
X009088Y006568D03*
X013588Y012368D03*
X013463Y013943D03*
X012113Y015443D03*
D25*
X012150Y015493D03*
X013525Y013893D03*
X013625Y012443D03*
X012775Y009043D03*
X006525Y002593D03*
X002375Y009043D03*
X001525Y012443D03*
X003000Y015493D03*
D26*
X001625Y013893D03*
X002500Y007443D03*
X008625Y002593D03*
X010700Y005693D03*
D27*
X008650Y002618D03*
X006500Y002618D03*
X005000Y007218D03*
X001550Y013793D03*
X013600Y013793D03*
X013675Y012543D03*
D28*
X008663Y002643D03*
X006488Y002643D03*
X001488Y013668D03*
X002938Y015593D03*
D29*
X002875Y015693D03*
X006475Y002668D03*
D30*
X008675Y002668D03*
D31*
X007575Y002693D03*
X007575Y003893D03*
D32*
X007575Y003918D03*
X007575Y002718D03*
X003100Y016618D03*
D33*
X012075Y016693D03*
X012075Y016718D03*
X007575Y003943D03*
X007575Y002743D03*
D34*
X007575Y002768D03*
X007575Y003968D03*
D35*
X007575Y003993D03*
X007575Y002793D03*
D36*
X007575Y002818D03*
X007550Y006643D03*
D37*
X007550Y006693D03*
X007575Y004068D03*
X007575Y002843D03*
D38*
X007575Y002868D03*
X007575Y004093D03*
D39*
X007575Y004118D03*
X007575Y002893D03*
D40*
X007575Y002918D03*
X007575Y004143D03*
X007600Y017718D03*
X007600Y017818D03*
D41*
X007575Y004168D03*
X007575Y002943D03*
D42*
X007575Y002968D03*
X007575Y004193D03*
D43*
X007575Y004218D03*
X007575Y002993D03*
X007600Y017943D03*
D44*
X007575Y003018D03*
D45*
X007575Y003043D03*
X007575Y004268D03*
D46*
X006000Y006518D03*
X004700Y005218D03*
X004525Y005468D03*
X005550Y003068D03*
X009125Y006543D03*
X010400Y007293D03*
X010550Y005368D03*
X010525Y005343D03*
X010525Y005318D03*
X010500Y005293D03*
X003075Y015393D03*
D47*
X001925Y013468D03*
X007575Y003068D03*
X011075Y005743D03*
X012475Y024668D03*
D48*
X012075Y015393D03*
X013425Y013968D03*
X009600Y003068D03*
X004725Y005193D03*
X004675Y005243D03*
D49*
X005975Y006193D03*
X005975Y006218D03*
X005975Y006243D03*
X005975Y006343D03*
X005975Y006368D03*
X005975Y006393D03*
X005450Y003093D03*
X009700Y003093D03*
X012725Y009193D03*
X013475Y012268D03*
X002425Y009193D03*
D50*
X002200Y010418D03*
X002200Y010443D03*
X002200Y010468D03*
X002200Y010493D03*
X004650Y003543D03*
X004675Y003518D03*
X007575Y003093D03*
X007575Y006018D03*
X007575Y007268D03*
X010475Y003518D03*
X010500Y003543D03*
X011175Y005793D03*
X012950Y010418D03*
X012950Y010443D03*
X012950Y010468D03*
X012950Y010493D03*
X013200Y012893D03*
X013200Y012918D03*
X012475Y024743D03*
D51*
X009162Y006343D03*
X009162Y006318D03*
X009162Y006293D03*
X009162Y006268D03*
X009763Y003118D03*
X005388Y003118D03*
D52*
X007575Y003118D03*
X007575Y007318D03*
X010775Y003793D03*
X011275Y005893D03*
X011300Y005918D03*
X012850Y017218D03*
X013725Y018043D03*
X012475Y024793D03*
X002750Y015343D03*
X002300Y017218D03*
X002125Y011043D03*
X002125Y011018D03*
X002125Y010993D03*
X002125Y010968D03*
X002125Y010943D03*
D53*
X002463Y009268D03*
X003263Y006243D03*
X005313Y003143D03*
X011912Y006318D03*
X011938Y006343D03*
X011963Y006393D03*
X012688Y009268D03*
X013413Y012243D03*
X013713Y017768D03*
X001437Y017768D03*
D54*
X002775Y015293D03*
X007575Y007368D03*
X007575Y006543D03*
X006425Y006093D03*
X007575Y003143D03*
X011100Y004143D03*
X011125Y004168D03*
X011150Y004193D03*
X011175Y004218D03*
X011225Y004293D03*
X011450Y006118D03*
X011475Y006143D03*
X012375Y015293D03*
X012900Y017293D03*
X012475Y024843D03*
X003725Y006043D03*
X003750Y006018D03*
X003975Y004218D03*
D55*
X009838Y003143D03*
X001738Y012243D03*
D56*
X005250Y003168D03*
X009900Y003168D03*
X012025Y006518D03*
X014000Y006968D03*
X013725Y017818D03*
D57*
X012375Y015268D03*
X012425Y015168D03*
X007575Y007418D03*
X007575Y007393D03*
X007575Y006518D03*
X007575Y006068D03*
X008625Y006043D03*
X007575Y003168D03*
X003775Y004493D03*
X003750Y004518D03*
X003750Y004543D03*
X003725Y004568D03*
X003700Y004593D03*
X003675Y004643D03*
X003625Y004718D03*
X003650Y006168D03*
X003625Y006218D03*
X002775Y015268D03*
X003675Y017668D03*
D58*
X001425Y017843D03*
X001150Y006943D03*
X003000Y006768D03*
X003025Y006718D03*
X003025Y006693D03*
X003050Y006668D03*
X003050Y006643D03*
X005200Y003193D03*
X012700Y009393D03*
X012700Y009418D03*
D59*
X011675Y010493D03*
X011700Y010743D03*
X011700Y010768D03*
X011700Y010793D03*
X011700Y010818D03*
X011725Y011043D03*
X011725Y011068D03*
X011725Y011093D03*
X011725Y011118D03*
X011725Y011143D03*
X011725Y011168D03*
X011725Y011193D03*
X011725Y011218D03*
X011750Y011418D03*
X011750Y011443D03*
X011750Y011468D03*
X011750Y011493D03*
X011750Y011518D03*
X011750Y011543D03*
X011750Y011568D03*
X011750Y011593D03*
X011750Y011618D03*
X011750Y011643D03*
X011750Y011668D03*
X011750Y011693D03*
X011750Y011718D03*
X011750Y011743D03*
X011750Y011768D03*
X011750Y011793D03*
X011775Y011993D03*
X011775Y012018D03*
X011775Y012043D03*
X011775Y012068D03*
X011775Y012093D03*
X011775Y012118D03*
X011775Y012143D03*
X011775Y012168D03*
X011775Y012193D03*
X011775Y012218D03*
X011775Y012243D03*
X011775Y012268D03*
X011775Y012293D03*
X011775Y012318D03*
X011775Y012343D03*
X011775Y012368D03*
X011775Y012393D03*
X011775Y012418D03*
X011775Y012443D03*
X011775Y012468D03*
X011775Y012493D03*
X011775Y012518D03*
X011775Y012543D03*
X011775Y012568D03*
X011775Y012593D03*
X011775Y012618D03*
X011775Y012643D03*
X011775Y012668D03*
X011775Y012693D03*
X011775Y012718D03*
X011775Y012743D03*
X011775Y012768D03*
X011775Y012793D03*
X011775Y012818D03*
X011775Y012843D03*
X011775Y012868D03*
X011775Y012893D03*
X011775Y012918D03*
X011775Y012943D03*
X011775Y012968D03*
X011750Y013218D03*
X011750Y013243D03*
X011750Y013268D03*
X011750Y013293D03*
X011750Y013318D03*
X011750Y013343D03*
X011750Y013368D03*
X011750Y013393D03*
X011750Y013418D03*
X011750Y013443D03*
X011750Y013468D03*
X011750Y013493D03*
X011750Y013518D03*
X011725Y013793D03*
X011725Y013818D03*
X011725Y013843D03*
X011725Y013868D03*
X012525Y014968D03*
X012525Y014993D03*
X012550Y014918D03*
X012575Y014868D03*
X012600Y014818D03*
X012475Y015068D03*
X012450Y015118D03*
X012950Y017368D03*
X012975Y017393D03*
X008875Y013118D03*
X008875Y013093D03*
X008875Y013068D03*
X008875Y013043D03*
X008875Y013018D03*
X008875Y012993D03*
X008875Y012968D03*
X008875Y012943D03*
X008875Y012918D03*
X008875Y012893D03*
X008875Y012868D03*
X008875Y012843D03*
X008875Y012818D03*
X008875Y012793D03*
X008875Y012768D03*
X008875Y012743D03*
X008875Y012718D03*
X008875Y012693D03*
X008875Y012668D03*
X008875Y012643D03*
X008875Y012618D03*
X008875Y012593D03*
X008875Y012568D03*
X008875Y012543D03*
X008875Y012518D03*
X008875Y012493D03*
X008875Y012468D03*
X008875Y012443D03*
X008875Y012418D03*
X008875Y012393D03*
X008875Y012368D03*
X008875Y012343D03*
X008875Y012318D03*
X008875Y012293D03*
X008875Y012268D03*
X008875Y012243D03*
X008875Y012218D03*
X008875Y012193D03*
X008875Y012168D03*
X008875Y012143D03*
X008875Y012118D03*
X008875Y012093D03*
X008875Y012068D03*
X008875Y012043D03*
X008875Y012018D03*
X008875Y011993D03*
X008875Y011968D03*
X008875Y011943D03*
X008875Y011918D03*
X008875Y011893D03*
X008875Y011868D03*
X008875Y011843D03*
X008875Y011818D03*
X008875Y011793D03*
X008875Y011768D03*
X008875Y011743D03*
X010275Y010793D03*
X007575Y007468D03*
X007575Y007443D03*
X007575Y006093D03*
X007575Y003193D03*
X011650Y004918D03*
X011675Y004968D03*
X011700Y005018D03*
X011725Y005043D03*
X011750Y005093D03*
X011775Y005143D03*
X011800Y005168D03*
X011800Y005193D03*
X011825Y005218D03*
X011825Y005243D03*
X011850Y005268D03*
X011850Y005293D03*
X011900Y005368D03*
X011925Y005418D03*
X013625Y007018D03*
X006275Y011693D03*
X006275Y011718D03*
X006275Y011743D03*
X006275Y011768D03*
X006275Y011793D03*
X006275Y011818D03*
X006275Y011843D03*
X006275Y011868D03*
X006275Y011893D03*
X006275Y011918D03*
X006275Y011943D03*
X006275Y011968D03*
X006275Y011993D03*
X006275Y012018D03*
X006275Y012043D03*
X006275Y012068D03*
X006275Y012093D03*
X006275Y012118D03*
X006275Y012143D03*
X006275Y012168D03*
X006275Y012193D03*
X006275Y012218D03*
X006275Y012243D03*
X006275Y012268D03*
X006275Y012293D03*
X006275Y012318D03*
X006275Y012343D03*
X006275Y012368D03*
X006275Y012393D03*
X006275Y012418D03*
X006275Y012443D03*
X006275Y012468D03*
X006275Y012493D03*
X006275Y012518D03*
X006275Y012543D03*
X006275Y012568D03*
X006275Y012593D03*
X006275Y012618D03*
X006275Y012643D03*
X006275Y012668D03*
X006275Y012693D03*
X006275Y012718D03*
X006275Y012743D03*
X006275Y012768D03*
X006275Y012793D03*
X006275Y012818D03*
X006275Y012843D03*
X006275Y012868D03*
X006275Y012893D03*
X006275Y012918D03*
X006275Y012943D03*
X006275Y012968D03*
X006275Y012993D03*
X006275Y013018D03*
X006275Y013043D03*
X006275Y013068D03*
X006275Y013093D03*
X006275Y013118D03*
X004825Y012868D03*
X004825Y012843D03*
X004825Y012818D03*
X004825Y012793D03*
X004825Y012768D03*
X004825Y012743D03*
X004825Y012718D03*
X004825Y012693D03*
X004825Y012668D03*
X004825Y012643D03*
X004825Y012618D03*
X004825Y012593D03*
X004825Y012568D03*
X004825Y012543D03*
X004825Y012518D03*
X004825Y012493D03*
X004825Y012468D03*
X004825Y012443D03*
X004825Y012418D03*
X004825Y012393D03*
X004825Y012368D03*
X004825Y012343D03*
X004825Y012318D03*
X004825Y012293D03*
X004825Y012268D03*
X004825Y012243D03*
X004850Y011543D03*
X004850Y011518D03*
X004850Y011493D03*
X004850Y011468D03*
X004850Y011443D03*
X004850Y011418D03*
X004850Y011393D03*
X004850Y011368D03*
X004850Y011343D03*
X004850Y011318D03*
X004850Y011293D03*
X004875Y010793D03*
X003375Y011968D03*
X003375Y011993D03*
X003375Y012018D03*
X003375Y012043D03*
X003375Y012068D03*
X003375Y012093D03*
X003375Y012118D03*
X003375Y012143D03*
X003375Y012168D03*
X003375Y012193D03*
X003375Y012218D03*
X003375Y012243D03*
X003375Y012268D03*
X003375Y012293D03*
X003375Y012318D03*
X003375Y012343D03*
X003375Y012368D03*
X003375Y012393D03*
X003375Y012418D03*
X003375Y012443D03*
X003375Y012468D03*
X003375Y012493D03*
X003375Y012518D03*
X003375Y012543D03*
X003375Y012568D03*
X003375Y012593D03*
X003375Y012618D03*
X003375Y012643D03*
X003375Y012668D03*
X003375Y012693D03*
X003375Y012718D03*
X003375Y012743D03*
X003375Y012768D03*
X003375Y012793D03*
X003375Y012818D03*
X003375Y012843D03*
X003375Y012868D03*
X003375Y012893D03*
X003375Y012918D03*
X003375Y012943D03*
X003375Y012968D03*
X004850Y013618D03*
X004850Y013643D03*
X004850Y013668D03*
X004850Y013693D03*
X004850Y013718D03*
X004850Y013743D03*
X004850Y013768D03*
X004850Y013793D03*
X002550Y014818D03*
X003250Y005368D03*
X003275Y005318D03*
X003300Y005293D03*
X003300Y005268D03*
X003325Y005243D03*
X003325Y005218D03*
X003350Y005193D03*
X003350Y005168D03*
X003375Y005143D03*
X012475Y024868D03*
D60*
X013300Y013568D03*
X012150Y006768D03*
X009950Y003193D03*
D61*
X012163Y006793D03*
X012163Y006818D03*
X012738Y009518D03*
X012738Y016993D03*
X005138Y003218D03*
X002437Y009443D03*
X002437Y009468D03*
D62*
X003550Y009768D03*
X003550Y009793D03*
X003550Y009818D03*
X003550Y009843D03*
X003550Y009868D03*
X003525Y009993D03*
X003525Y010018D03*
X003525Y010043D03*
X003500Y010243D03*
X003575Y009693D03*
X003575Y009668D03*
X003575Y009643D03*
X003575Y009618D03*
X003575Y009593D03*
X003575Y009568D03*
X003575Y009543D03*
X003600Y009518D03*
X003600Y009493D03*
X003600Y009468D03*
X003600Y009443D03*
X003600Y009418D03*
X003600Y009393D03*
X003625Y009318D03*
X003625Y009293D03*
X003625Y009268D03*
X003625Y009243D03*
X003650Y009143D03*
X003650Y009118D03*
X003650Y009093D03*
X004975Y009243D03*
X004975Y009268D03*
X004975Y009293D03*
X004975Y009318D03*
X004975Y009343D03*
X004975Y009368D03*
X004975Y009393D03*
X004975Y009418D03*
X004975Y009443D03*
X004975Y009468D03*
X004950Y009493D03*
X004950Y009518D03*
X004950Y009543D03*
X004950Y009568D03*
X004950Y009593D03*
X004950Y009618D03*
X004950Y009643D03*
X004950Y009668D03*
X004950Y009693D03*
X004950Y009718D03*
X004950Y009743D03*
X004925Y009868D03*
X004925Y009893D03*
X004925Y009918D03*
X004925Y009943D03*
X004925Y009968D03*
X004925Y009993D03*
X004925Y010018D03*
X004925Y010043D03*
X004900Y010293D03*
X004900Y010318D03*
X004900Y010343D03*
X004900Y010368D03*
X005025Y008843D03*
X005025Y008818D03*
X005025Y008793D03*
X006350Y008993D03*
X006350Y009018D03*
X006350Y009043D03*
X006350Y009068D03*
X006350Y009093D03*
X006350Y009118D03*
X006350Y009143D03*
X006350Y009168D03*
X006350Y009193D03*
X006350Y009218D03*
X006350Y009243D03*
X006350Y009268D03*
X006350Y009293D03*
X006350Y009318D03*
X006350Y009343D03*
X006350Y009368D03*
X006350Y009393D03*
X006350Y009418D03*
X006325Y009518D03*
X006325Y009543D03*
X006325Y009568D03*
X006325Y009593D03*
X006325Y009618D03*
X006325Y009643D03*
X006325Y009668D03*
X006325Y009693D03*
X006325Y009718D03*
X006325Y009743D03*
X006325Y009768D03*
X006325Y009793D03*
X006325Y009818D03*
X006325Y009843D03*
X006325Y009868D03*
X006325Y009893D03*
X006325Y009918D03*
X006325Y009943D03*
X006325Y009968D03*
X006300Y010568D03*
X006300Y010593D03*
X006300Y010618D03*
X006375Y008693D03*
X006375Y008668D03*
X006375Y008643D03*
X006375Y008618D03*
X006375Y008593D03*
X006375Y008568D03*
X007575Y007543D03*
X007575Y007518D03*
X007575Y007493D03*
X007575Y006468D03*
X007575Y006118D03*
X008775Y008568D03*
X008775Y008593D03*
X008775Y008618D03*
X008775Y008643D03*
X008775Y008668D03*
X008775Y008693D03*
X008775Y008718D03*
X008800Y008993D03*
X008800Y009018D03*
X008800Y009043D03*
X008800Y009068D03*
X008800Y009093D03*
X008800Y009118D03*
X008800Y009143D03*
X008800Y009168D03*
X008800Y009193D03*
X008800Y009218D03*
X008800Y009243D03*
X008800Y009268D03*
X008800Y009293D03*
X008800Y009318D03*
X008800Y009343D03*
X008800Y009368D03*
X008800Y009393D03*
X008800Y009418D03*
X008825Y009543D03*
X008825Y009568D03*
X008825Y009593D03*
X008825Y009618D03*
X008825Y009643D03*
X008825Y009668D03*
X008825Y009693D03*
X008825Y009718D03*
X008825Y009743D03*
X008825Y009768D03*
X008825Y009793D03*
X008825Y009818D03*
X008825Y009843D03*
X008825Y009868D03*
X008825Y009893D03*
X008825Y009918D03*
X008825Y009943D03*
X008825Y009968D03*
X008850Y010593D03*
X008850Y010618D03*
X008850Y010643D03*
X010200Y009743D03*
X010200Y009718D03*
X010200Y009693D03*
X010200Y009668D03*
X010200Y009643D03*
X010200Y009618D03*
X010200Y009593D03*
X010200Y009568D03*
X010200Y009543D03*
X010200Y009518D03*
X010175Y009468D03*
X010175Y009443D03*
X010175Y009418D03*
X010175Y009393D03*
X010175Y009368D03*
X010175Y009343D03*
X010175Y009318D03*
X010175Y009293D03*
X010175Y009268D03*
X010175Y009243D03*
X011600Y009768D03*
X011600Y009793D03*
X011600Y009818D03*
X011600Y009843D03*
X011600Y009868D03*
X011650Y010243D03*
X011650Y010268D03*
X012850Y014118D03*
X012850Y014143D03*
X012850Y014168D03*
X011650Y014618D03*
X011650Y014643D03*
X011650Y014668D03*
X011650Y014693D03*
X011650Y014718D03*
X011600Y014993D03*
X011600Y015018D03*
X011600Y015043D03*
X011600Y015068D03*
X011600Y015093D03*
X011600Y015118D03*
X010200Y015268D03*
X010200Y015293D03*
X010200Y015318D03*
X010200Y015343D03*
X010200Y015368D03*
X010200Y015393D03*
X010200Y015418D03*
X010200Y015443D03*
X010200Y015468D03*
X010200Y015493D03*
X010175Y015593D03*
X010175Y015618D03*
X010175Y015643D03*
X010175Y015668D03*
X010175Y015693D03*
X010175Y015718D03*
X010175Y015743D03*
X010275Y014318D03*
X013000Y017443D03*
X004975Y015743D03*
X004975Y015718D03*
X004975Y015693D03*
X004975Y015668D03*
X004975Y015643D03*
X004975Y015618D03*
X004975Y015593D03*
X004950Y015518D03*
X004950Y015493D03*
X004950Y015468D03*
X004950Y015443D03*
X004950Y015418D03*
X004950Y015393D03*
X004950Y015368D03*
X004950Y015343D03*
X004950Y015318D03*
X004950Y015293D03*
X004925Y015218D03*
X004925Y015193D03*
X004925Y015168D03*
X004925Y015143D03*
X004925Y015118D03*
X004925Y015093D03*
X004925Y015068D03*
X004925Y015043D03*
X004925Y015018D03*
X004925Y014993D03*
X004900Y014818D03*
X004900Y014793D03*
X004900Y014768D03*
X004900Y014743D03*
X004900Y014718D03*
X004900Y014693D03*
X004875Y014318D03*
X003575Y015193D03*
X003575Y015218D03*
X003575Y015243D03*
X003575Y015268D03*
X003575Y015293D03*
X003550Y015118D03*
X003550Y015093D03*
X003550Y015068D03*
X003550Y015043D03*
X003550Y015018D03*
X003550Y014993D03*
X003525Y014968D03*
X003525Y014943D03*
X003525Y014918D03*
X003525Y014893D03*
X003525Y014868D03*
X003525Y014843D03*
X003525Y014818D03*
X003500Y014718D03*
X003500Y014693D03*
X003500Y014668D03*
X003500Y014643D03*
X003500Y014618D03*
X002475Y014643D03*
X002450Y014568D03*
X002425Y014518D03*
X002375Y014393D03*
X002375Y014368D03*
X002350Y014318D03*
X002350Y014293D03*
X002350Y014268D03*
X002325Y014243D03*
X002325Y014218D03*
X002325Y014193D03*
X002300Y014168D03*
X002300Y014143D03*
X002300Y014118D03*
X002275Y014068D03*
X002275Y014043D03*
X002150Y017443D03*
X002125Y017468D03*
X003575Y017718D03*
X002850Y006268D03*
X002875Y006218D03*
X002900Y006168D03*
X002900Y006143D03*
X002925Y006093D03*
X002950Y006043D03*
X002975Y005968D03*
X003000Y005918D03*
X007575Y003218D03*
X012175Y005968D03*
X012275Y006218D03*
D63*
X012188Y006843D03*
X012188Y006868D03*
X012713Y009443D03*
X012713Y009468D03*
X013338Y012668D03*
X010013Y003218D03*
X003013Y006743D03*
X002988Y006793D03*
X002988Y006818D03*
X002963Y006843D03*
X002963Y006868D03*
X001138Y006918D03*
X002413Y009518D03*
X001813Y012668D03*
X002413Y016993D03*
D64*
X002425Y009493D03*
X002875Y007093D03*
X005100Y003243D03*
X010050Y003243D03*
X012225Y006943D03*
X012225Y006968D03*
X013725Y017868D03*
D65*
X014150Y017743D03*
X014125Y016768D03*
X013075Y017543D03*
X011600Y017718D03*
X010100Y016418D03*
X010100Y016393D03*
X010100Y016368D03*
X007575Y012668D03*
X005050Y016368D03*
X005050Y016393D03*
X005050Y016418D03*
X003550Y017743D03*
X000725Y012668D03*
X001625Y007068D03*
X005050Y008568D03*
X005100Y008168D03*
X005100Y008143D03*
X005100Y008118D03*
X005100Y008093D03*
X005100Y008068D03*
X005100Y008043D03*
X005125Y007993D03*
X005125Y007968D03*
X005125Y007943D03*
X005125Y007918D03*
X005125Y007893D03*
X005125Y007868D03*
X005125Y007843D03*
X006400Y008068D03*
X006400Y008093D03*
X006400Y008118D03*
X006400Y008143D03*
X006400Y008168D03*
X006425Y007818D03*
X006425Y007793D03*
X006425Y007768D03*
X006425Y007743D03*
X006425Y007718D03*
X006425Y007693D03*
X006425Y007668D03*
X006425Y007643D03*
X006425Y007618D03*
X006425Y007593D03*
X006425Y007568D03*
X006425Y007543D03*
X006425Y007518D03*
X006450Y007443D03*
X006450Y007418D03*
X006450Y007393D03*
X006450Y007368D03*
X006450Y007343D03*
X006450Y007318D03*
X006450Y007293D03*
X006450Y007268D03*
X006450Y007243D03*
X006450Y007218D03*
X007575Y007568D03*
X007575Y007593D03*
X007575Y007618D03*
X007575Y006443D03*
X007575Y006168D03*
X007575Y006143D03*
X008700Y007218D03*
X008700Y007243D03*
X008700Y007268D03*
X008700Y007293D03*
X008700Y007318D03*
X008700Y007343D03*
X008700Y007368D03*
X008700Y007393D03*
X008700Y007418D03*
X008700Y007443D03*
X008700Y007468D03*
X008725Y007518D03*
X008725Y007543D03*
X008725Y007568D03*
X008725Y007593D03*
X008725Y007618D03*
X008725Y007643D03*
X008725Y007668D03*
X008725Y007693D03*
X008725Y007718D03*
X008725Y007743D03*
X008725Y007768D03*
X008725Y007793D03*
X008725Y007818D03*
X008750Y008068D03*
X008750Y008093D03*
X008750Y008118D03*
X008750Y008143D03*
X008750Y008168D03*
X010025Y007993D03*
X010025Y007968D03*
X010025Y007943D03*
X010025Y007918D03*
X010025Y007893D03*
X010025Y007868D03*
X010025Y007843D03*
X010000Y007793D03*
X010000Y007768D03*
X010000Y007743D03*
X010000Y007718D03*
X010000Y007693D03*
X010000Y007668D03*
X010100Y008568D03*
X013350Y007243D03*
X013375Y007218D03*
X013525Y007068D03*
X014425Y012668D03*
X007575Y003268D03*
X007575Y003243D03*
X006700Y003568D03*
X012950Y022893D03*
X012950Y023568D03*
X012475Y024893D03*
D66*
X012475Y024643D03*
X012475Y024618D03*
X013300Y012693D03*
X012800Y009743D03*
X012775Y009693D03*
X012775Y009668D03*
X012775Y009643D03*
X010100Y003268D03*
X007575Y007193D03*
X005050Y003268D03*
X001850Y012693D03*
X001900Y013518D03*
X002675Y024618D03*
D67*
X002663Y024643D03*
X001413Y017918D03*
X002387Y017043D03*
X001913Y013493D03*
X001138Y006868D03*
X005013Y003293D03*
X010138Y003293D03*
X012788Y009718D03*
D68*
X007575Y007718D03*
X007575Y007693D03*
X007575Y007668D03*
X007575Y007643D03*
X007575Y006418D03*
X007575Y006393D03*
X007575Y006368D03*
X007575Y006218D03*
X007575Y006193D03*
X007575Y003293D03*
X000675Y007968D03*
X000675Y012693D03*
X000675Y013543D03*
X002025Y017593D03*
X002000Y017618D03*
X001975Y017643D03*
X001950Y017668D03*
X002175Y022918D03*
X002175Y023543D03*
X002175Y023818D03*
X007575Y012593D03*
X007575Y012568D03*
D69*
X012825Y009868D03*
X012825Y009843D03*
X013225Y013468D03*
X004975Y003318D03*
D70*
X007563Y003318D03*
X014013Y006643D03*
X007563Y012518D03*
X007563Y012543D03*
X003438Y017843D03*
X002663Y019268D03*
X002663Y019293D03*
X000938Y017693D03*
X000663Y012718D03*
X000663Y007093D03*
X012988Y022943D03*
X012988Y023518D03*
X012988Y023843D03*
D71*
X002325Y009868D03*
X002325Y009843D03*
X002325Y009818D03*
X010175Y003318D03*
D72*
X004938Y003343D03*
X004888Y003368D03*
X002663Y024668D03*
D73*
X002150Y023493D03*
X002150Y022943D03*
X003275Y018043D03*
X003300Y018018D03*
X003300Y017993D03*
X003325Y017968D03*
X003350Y017943D03*
X003375Y017918D03*
X000925Y017668D03*
X000925Y016843D03*
X000650Y013518D03*
X000650Y007943D03*
X007575Y007868D03*
X007575Y007843D03*
X007575Y007818D03*
X007575Y007793D03*
X007575Y007768D03*
X007575Y007743D03*
X007575Y006343D03*
X007575Y006318D03*
X007575Y006293D03*
X007575Y006268D03*
X007575Y006243D03*
X009675Y006118D03*
X010000Y005768D03*
X007575Y003368D03*
X007575Y003343D03*
X007575Y012443D03*
X007575Y012468D03*
X007575Y012493D03*
X011750Y017843D03*
X011775Y017868D03*
X011825Y017943D03*
X014225Y017668D03*
X014250Y017643D03*
X014225Y016843D03*
X014500Y013518D03*
X014525Y013493D03*
X014525Y012743D03*
X014500Y007943D03*
X013000Y022968D03*
X013000Y023493D03*
X013000Y023868D03*
X012850Y024593D03*
X012475Y024918D03*
X012100Y024593D03*
D74*
X013737Y017943D03*
X012763Y017068D03*
X013212Y013443D03*
X013263Y012743D03*
X012863Y010018D03*
X012838Y009943D03*
X012838Y009918D03*
X012838Y009893D03*
X014013Y006843D03*
X010263Y003368D03*
X010213Y003343D03*
X002288Y009993D03*
X001138Y006843D03*
X001938Y013443D03*
X002387Y017068D03*
X001413Y017943D03*
D75*
X004850Y003393D03*
X012875Y010043D03*
X012875Y010068D03*
X012875Y010093D03*
X013200Y013418D03*
D76*
X014300Y016968D03*
X014300Y017543D03*
X014300Y017568D03*
X011900Y018043D03*
X007575Y012343D03*
X007575Y012318D03*
X007575Y012293D03*
X007575Y012268D03*
X007575Y012243D03*
X007575Y012218D03*
X007575Y012193D03*
X007575Y012168D03*
X007575Y012143D03*
X007575Y012118D03*
X007575Y012093D03*
X007575Y012068D03*
X007575Y012043D03*
X007575Y012018D03*
X007575Y011993D03*
X007575Y011968D03*
X007575Y011943D03*
X007575Y011918D03*
X007575Y011893D03*
X007575Y011868D03*
X007575Y011843D03*
X007575Y011818D03*
X007575Y011793D03*
X007575Y011768D03*
X007575Y011743D03*
X007575Y011718D03*
X007575Y011693D03*
X007575Y011668D03*
X007575Y011643D03*
X007575Y011618D03*
X007575Y011593D03*
X007575Y011568D03*
X007575Y011543D03*
X007575Y011518D03*
X007575Y011493D03*
X007575Y011468D03*
X007575Y011443D03*
X007575Y011418D03*
X007575Y011393D03*
X007575Y011368D03*
X007575Y011343D03*
X007575Y011318D03*
X007575Y011293D03*
X007575Y011268D03*
X007575Y011243D03*
X007575Y011218D03*
X007575Y011193D03*
X007575Y011168D03*
X007575Y011143D03*
X007575Y011118D03*
X007575Y011093D03*
X007575Y011068D03*
X007575Y011043D03*
X007575Y011018D03*
X007575Y010993D03*
X007575Y010968D03*
X007575Y010943D03*
X007575Y010918D03*
X007575Y010893D03*
X007575Y010868D03*
X007575Y010843D03*
X007575Y010818D03*
X007575Y010793D03*
X007575Y010768D03*
X007575Y010743D03*
X007575Y010718D03*
X007575Y010693D03*
X007575Y010668D03*
X007575Y010643D03*
X007575Y010618D03*
X007575Y010593D03*
X007575Y010568D03*
X007575Y010543D03*
X007575Y010518D03*
X007575Y010493D03*
X007575Y010468D03*
X007575Y010443D03*
X007575Y010418D03*
X007575Y010393D03*
X007575Y010368D03*
X007575Y010343D03*
X007575Y010318D03*
X007575Y010293D03*
X007575Y010268D03*
X007575Y010243D03*
X007575Y010218D03*
X007575Y010193D03*
X007575Y010168D03*
X007575Y010143D03*
X007575Y010118D03*
X007575Y010093D03*
X007575Y010068D03*
X007575Y010043D03*
X007575Y010018D03*
X007575Y009993D03*
X007575Y009968D03*
X007575Y009943D03*
X007575Y009918D03*
X007575Y009893D03*
X007575Y009868D03*
X007575Y009843D03*
X007575Y009818D03*
X007575Y009793D03*
X007575Y009768D03*
X007575Y009743D03*
X007575Y009718D03*
X007575Y009693D03*
X007575Y009668D03*
X007575Y009643D03*
X007575Y009618D03*
X007575Y009593D03*
X007575Y009568D03*
X007575Y009543D03*
X007575Y009518D03*
X007575Y009493D03*
X007575Y009468D03*
X007575Y009443D03*
X007575Y009418D03*
X007575Y009393D03*
X007575Y009368D03*
X007575Y009343D03*
X007575Y009318D03*
X007575Y009293D03*
X007575Y009268D03*
X007575Y009243D03*
X007575Y009218D03*
X007575Y009193D03*
X007575Y009168D03*
X007575Y009143D03*
X007575Y009118D03*
X007575Y009093D03*
X007575Y009068D03*
X007575Y009043D03*
X007575Y009018D03*
X007575Y008993D03*
X007575Y008968D03*
X007575Y008943D03*
X007575Y008918D03*
X007575Y008893D03*
X007575Y008868D03*
X007575Y008843D03*
X007575Y008818D03*
X007575Y008793D03*
X007575Y008768D03*
X007575Y008743D03*
X007575Y008718D03*
X007575Y008693D03*
X007575Y008668D03*
X007575Y008643D03*
X007575Y008618D03*
X007575Y008593D03*
X007575Y008568D03*
X007575Y008543D03*
X007575Y008518D03*
X007575Y008493D03*
X007575Y008468D03*
X007575Y008443D03*
X007575Y008418D03*
X007575Y008393D03*
X007575Y008368D03*
X007575Y008343D03*
X007575Y008318D03*
X007575Y008293D03*
X007575Y008268D03*
X007575Y008243D03*
X007575Y008218D03*
X007575Y008193D03*
X007575Y008168D03*
X007575Y008143D03*
X007575Y008118D03*
X007575Y008093D03*
X007575Y008068D03*
X007575Y008043D03*
X007575Y008018D03*
X007575Y007993D03*
X007575Y007968D03*
X007575Y007943D03*
X007575Y007918D03*
X007575Y007893D03*
X009975Y005793D03*
X007575Y003718D03*
X007575Y003693D03*
X007575Y003668D03*
X007575Y003643D03*
X007575Y003618D03*
X007575Y003593D03*
X007575Y003568D03*
X007575Y003543D03*
X007575Y003518D03*
X007575Y003493D03*
X007575Y003468D03*
X007575Y003443D03*
X007575Y003418D03*
X007575Y003393D03*
X000575Y007218D03*
X000575Y007818D03*
X000575Y007843D03*
X000575Y012818D03*
X000575Y012843D03*
X000575Y013418D03*
X003100Y018293D03*
X003075Y018318D03*
X002925Y018568D03*
X002675Y019143D03*
X002675Y019168D03*
X003075Y024568D03*
X002675Y024918D03*
D77*
X001900Y012768D03*
X007575Y007218D03*
X010300Y003393D03*
D78*
X014013Y006818D03*
X012888Y010118D03*
X012888Y010143D03*
X012888Y010168D03*
X012788Y017093D03*
X004813Y003418D03*
X001138Y006818D03*
X001413Y017968D03*
X002663Y024693D03*
D79*
X001913Y012793D03*
X002263Y010143D03*
X002263Y010118D03*
X002263Y010093D03*
X010338Y003418D03*
X013238Y012793D03*
X013738Y017968D03*
D80*
X008525Y003618D03*
X010400Y003468D03*
X004775Y003443D03*
X004750Y003468D03*
D81*
X007575Y007243D03*
X010375Y003443D03*
X012900Y010193D03*
X012900Y010218D03*
X012900Y010243D03*
X013225Y012818D03*
X013225Y012843D03*
X013200Y013368D03*
X013200Y013393D03*
X012800Y017118D03*
X012475Y024718D03*
X002350Y017118D03*
X001950Y013393D03*
X001950Y013368D03*
X001925Y012843D03*
X001925Y012818D03*
D82*
X002338Y017143D03*
X002663Y024718D03*
X014013Y006793D03*
X004713Y003493D03*
D83*
X004013Y005743D03*
X001138Y006793D03*
X001937Y012868D03*
X001413Y017993D03*
X011138Y005768D03*
X010437Y003493D03*
X012913Y010268D03*
X012913Y010293D03*
X012937Y010343D03*
X012937Y010368D03*
X012937Y010393D03*
X013213Y012868D03*
X013188Y012943D03*
X013188Y013318D03*
X013188Y013343D03*
X012813Y017143D03*
X013738Y017993D03*
D84*
X013738Y018018D03*
X004588Y003593D03*
X004613Y003568D03*
X002188Y010518D03*
X002188Y010543D03*
X002188Y010568D03*
X002738Y015368D03*
X001413Y018018D03*
X010538Y003568D03*
D85*
X008450Y003568D03*
X005150Y007668D03*
X005150Y007693D03*
X005150Y007718D03*
X005150Y007743D03*
X005150Y007768D03*
X005150Y007793D03*
X010075Y008318D03*
X010075Y008343D03*
X010075Y008368D03*
X001025Y016768D03*
X001000Y017743D03*
X002200Y023568D03*
X002200Y023793D03*
D86*
X002275Y017243D03*
X011400Y006043D03*
X011000Y004018D03*
X010975Y003993D03*
X010900Y003918D03*
X006650Y003593D03*
X004175Y003993D03*
X004150Y004018D03*
X012875Y017243D03*
D87*
X012475Y024818D03*
X002100Y011343D03*
X002100Y011318D03*
X002100Y011293D03*
X002100Y011268D03*
X002100Y011243D03*
X002100Y011218D03*
X002100Y011193D03*
X006575Y006018D03*
X007575Y006043D03*
X007575Y007343D03*
X008500Y003593D03*
X010925Y003943D03*
X004250Y003918D03*
X004225Y003943D03*
X004200Y003968D03*
D88*
X010563Y003593D03*
X011213Y005818D03*
X014013Y006768D03*
X012963Y010518D03*
X012963Y010543D03*
X012963Y010568D03*
X012963Y010593D03*
X013163Y013068D03*
X013163Y013093D03*
X013163Y013118D03*
X013163Y013143D03*
X013163Y013168D03*
X013163Y013193D03*
X001988Y013193D03*
X001988Y013168D03*
X001988Y013143D03*
X001988Y013118D03*
X001988Y013093D03*
X001988Y013068D03*
D89*
X002150Y010793D03*
X002150Y010768D03*
X002150Y010743D03*
X002175Y010668D03*
X002175Y010643D03*
X002175Y010618D03*
X002175Y010593D03*
X003975Y005768D03*
X004525Y003643D03*
X004550Y003618D03*
X007575Y007293D03*
X010650Y003668D03*
X010625Y003643D03*
X002325Y017168D03*
D90*
X002225Y010318D03*
X002250Y010218D03*
X002250Y010193D03*
X002250Y010168D03*
X006625Y003618D03*
X012925Y010318D03*
D91*
X012975Y010618D03*
X012975Y010643D03*
X012975Y010668D03*
X012975Y010693D03*
X013000Y010768D03*
X013000Y010793D03*
X010600Y003618D03*
X004500Y003668D03*
X012475Y024768D03*
D92*
X012713Y016968D03*
X012687Y009368D03*
X012687Y009343D03*
X012113Y006693D03*
X012088Y006643D03*
X012062Y006593D03*
X008588Y003668D03*
X006563Y003668D03*
X002462Y009343D03*
X002462Y009368D03*
D93*
X004463Y003693D03*
X007563Y006568D03*
X010688Y003693D03*
X012988Y010718D03*
X012988Y010743D03*
X007563Y012943D03*
D94*
X006550Y003693D03*
D95*
X008600Y003693D03*
D96*
X010700Y003718D03*
X010725Y003743D03*
X013025Y010943D03*
X013025Y010968D03*
X013025Y010993D03*
X013025Y011018D03*
X013025Y011043D03*
X012400Y015343D03*
X004400Y003768D03*
X004425Y003743D03*
X004450Y003718D03*
X003900Y005818D03*
X001425Y018043D03*
D97*
X001675Y012268D03*
X006525Y003718D03*
D98*
X008625Y003718D03*
X009150Y006143D03*
X009150Y006168D03*
X009150Y006418D03*
X009150Y006443D03*
D99*
X007575Y003743D03*
D100*
X007575Y003768D03*
X011625Y007518D03*
X011625Y007543D03*
X011625Y007568D03*
X003525Y007568D03*
X003525Y007543D03*
D101*
X010750Y003768D03*
D102*
X010838Y003843D03*
X013038Y011068D03*
X013038Y011093D03*
X013038Y011118D03*
X013038Y011143D03*
X013038Y011168D03*
X013038Y011193D03*
X012388Y015318D03*
X004363Y003793D03*
X003888Y005843D03*
X003863Y005868D03*
X002663Y024793D03*
D103*
X007575Y003793D03*
D104*
X004338Y003818D03*
X004313Y003843D03*
X004288Y003868D03*
X004263Y003893D03*
X002113Y011068D03*
X002113Y011093D03*
X002113Y011118D03*
X002113Y011143D03*
X002113Y011168D03*
X002763Y015318D03*
X010863Y003868D03*
X011337Y005968D03*
D105*
X007575Y003818D03*
D106*
X010813Y003818D03*
X010888Y003893D03*
X011313Y005943D03*
X007563Y012918D03*
D107*
X007575Y003843D03*
D108*
X007575Y003868D03*
D109*
X010950Y003968D03*
X011350Y005993D03*
X011375Y006018D03*
X013050Y011218D03*
X013050Y011243D03*
X013050Y011268D03*
X013050Y011293D03*
X013050Y011318D03*
X013050Y011343D03*
X013050Y011368D03*
X003850Y005893D03*
X003825Y005918D03*
D110*
X007550Y006593D03*
X007550Y006618D03*
X007575Y004018D03*
D111*
X006388Y006118D03*
X004138Y004043D03*
X004113Y004068D03*
X004088Y004093D03*
X004063Y004118D03*
X011088Y004118D03*
X011413Y006068D03*
X014013Y006718D03*
X002263Y017268D03*
D112*
X007550Y006668D03*
X007575Y004043D03*
D113*
X011013Y004043D03*
X011038Y004068D03*
X011062Y004093D03*
X011438Y006093D03*
X013062Y011393D03*
X013062Y011418D03*
X013062Y011443D03*
X013062Y011468D03*
X013062Y011493D03*
X013062Y011518D03*
X013062Y011543D03*
X013062Y011568D03*
X012888Y017268D03*
X013738Y018068D03*
X002088Y011543D03*
X002088Y011518D03*
X002088Y011493D03*
X002088Y011468D03*
X002088Y011443D03*
X002088Y011418D03*
X002088Y011393D03*
X002088Y011368D03*
X001137Y006718D03*
D114*
X004000Y004193D03*
X004025Y004168D03*
X004050Y004143D03*
X002250Y017293D03*
D115*
X007575Y004243D03*
D116*
X008738Y006118D03*
X011188Y004243D03*
X011213Y004268D03*
X011313Y004418D03*
X011513Y006218D03*
X013088Y012093D03*
X013088Y012118D03*
X013088Y012143D03*
X013088Y012168D03*
X013088Y012193D03*
X013088Y012218D03*
X003838Y004418D03*
X003813Y004443D03*
X003863Y004368D03*
X003888Y004343D03*
X003913Y004318D03*
X001138Y006693D03*
X002063Y012043D03*
X002063Y012068D03*
X002063Y012093D03*
X002063Y012118D03*
X002063Y012143D03*
X002063Y012168D03*
X002063Y012193D03*
X002063Y012218D03*
D117*
X002075Y012018D03*
X002075Y011993D03*
X002075Y011968D03*
X002075Y011943D03*
X002075Y011918D03*
X002075Y011893D03*
X002075Y011868D03*
X002075Y011843D03*
X002075Y011818D03*
X002075Y011793D03*
X002075Y011768D03*
X002075Y011743D03*
X002075Y011718D03*
X002075Y011693D03*
X002075Y011668D03*
X002075Y011643D03*
X002075Y011618D03*
X002075Y011593D03*
X002075Y011568D03*
X003775Y005993D03*
X003925Y004293D03*
X008575Y006018D03*
X013075Y011593D03*
X013075Y011618D03*
X013075Y011643D03*
X013075Y011668D03*
X013075Y011693D03*
X013075Y011718D03*
X013075Y011743D03*
X013075Y011768D03*
X013075Y011793D03*
X013075Y011818D03*
X013075Y011843D03*
X013075Y011868D03*
X013075Y011893D03*
X013075Y011918D03*
X013075Y011943D03*
X013075Y011968D03*
X013075Y011993D03*
X013075Y012018D03*
X013075Y012043D03*
X013075Y012068D03*
D118*
X007575Y004293D03*
D119*
X007575Y004318D03*
D120*
X007575Y004343D03*
D121*
X006513Y006043D03*
X006463Y006068D03*
X011263Y004343D03*
X007563Y012843D03*
X007563Y012868D03*
X002238Y017318D03*
D122*
X007600Y018118D03*
X007575Y004368D03*
D123*
X008700Y006093D03*
X011300Y004393D03*
X011400Y004518D03*
X011400Y004543D03*
X011425Y004568D03*
X011525Y004718D03*
X014000Y006693D03*
X003850Y004393D03*
X003800Y004468D03*
X002725Y015168D03*
X002750Y015218D03*
X002750Y015243D03*
X002675Y024843D03*
D124*
X007575Y004393D03*
D125*
X007575Y004418D03*
X007600Y018168D03*
D126*
X007575Y004443D03*
D127*
X007575Y004468D03*
X007600Y018218D03*
D128*
X012400Y015243D03*
X012400Y015218D03*
X011550Y006268D03*
X011475Y004643D03*
X011450Y004593D03*
X011375Y004493D03*
X011350Y004468D03*
D129*
X007575Y004493D03*
D130*
X007575Y004518D03*
D131*
X007575Y004543D03*
D132*
X007575Y004568D03*
X007575Y006993D03*
D133*
X007575Y004593D03*
D134*
X003538Y004843D03*
X003538Y004868D03*
X003563Y004818D03*
X003588Y004793D03*
X003588Y004768D03*
X003613Y004743D03*
X003638Y004693D03*
X003663Y004668D03*
X003688Y004618D03*
X003588Y006268D03*
X011488Y004668D03*
X011537Y004743D03*
X011588Y004818D03*
X011613Y004843D03*
X011613Y004868D03*
X011688Y004993D03*
X012487Y015043D03*
X012438Y015143D03*
X012413Y015193D03*
X012938Y017343D03*
X013737Y018093D03*
X011488Y017668D03*
D135*
X007575Y007018D03*
X007575Y004618D03*
D136*
X011463Y004618D03*
X011563Y004768D03*
X011563Y004793D03*
X011663Y004943D03*
X011763Y005118D03*
X003513Y004893D03*
X003488Y004943D03*
X003463Y004993D03*
X003413Y005068D03*
X003388Y005118D03*
X002213Y017343D03*
D137*
X007575Y004643D03*
D138*
X007575Y004668D03*
X007575Y007043D03*
D139*
X007575Y004693D03*
X007600Y018418D03*
D140*
X007563Y012818D03*
X007563Y012793D03*
X002738Y015193D03*
X002713Y015143D03*
X002688Y015118D03*
X002688Y015093D03*
X001413Y018093D03*
X008663Y006068D03*
X011513Y004693D03*
X011638Y004893D03*
X011738Y005068D03*
X012463Y015093D03*
D141*
X007575Y004718D03*
D142*
X007575Y004743D03*
X007600Y018468D03*
D143*
X007575Y004768D03*
D144*
X007575Y004793D03*
X007575Y007118D03*
X007600Y018518D03*
D145*
X007575Y004818D03*
D146*
X007575Y004843D03*
X007575Y007143D03*
D147*
X007575Y004868D03*
D148*
X007575Y004893D03*
X007575Y004918D03*
D149*
X003500Y004918D03*
X003475Y004968D03*
X003450Y005018D03*
X003425Y005043D03*
X003400Y005093D03*
X003475Y010493D03*
X003450Y010743D03*
X003450Y010768D03*
X003450Y010793D03*
X003450Y010818D03*
X003425Y011043D03*
X003425Y011068D03*
X003425Y011093D03*
X003425Y011118D03*
X003425Y011143D03*
X003425Y011168D03*
X003425Y011193D03*
X003425Y011218D03*
X003400Y011393D03*
X003400Y011418D03*
X003400Y011443D03*
X003400Y011468D03*
X003400Y011493D03*
X003400Y011518D03*
X003400Y011543D03*
X003400Y011568D03*
X003400Y011593D03*
X003400Y011618D03*
X003400Y011643D03*
X003400Y011668D03*
X003400Y011693D03*
X003400Y011718D03*
X003400Y011743D03*
X003400Y011768D03*
X003400Y011793D03*
X003400Y013243D03*
X003400Y013268D03*
X003400Y013293D03*
X003400Y013318D03*
X003400Y013343D03*
X003400Y013368D03*
X003400Y013393D03*
X003400Y013418D03*
X003400Y013443D03*
X003400Y013468D03*
X003400Y013493D03*
X003400Y013518D03*
X003400Y013543D03*
X003425Y013818D03*
X003425Y013843D03*
X003425Y013868D03*
X002200Y017368D03*
X002175Y017393D03*
X002250Y023768D03*
X010325Y012818D03*
X010325Y012793D03*
X010325Y012768D03*
X010325Y012743D03*
X010325Y012718D03*
X010325Y012693D03*
X010325Y012668D03*
X010325Y012643D03*
X010325Y012618D03*
X010325Y012593D03*
X010325Y012568D03*
X010325Y012543D03*
X010325Y012518D03*
X010325Y012493D03*
X010325Y012468D03*
X010325Y012443D03*
X010325Y012418D03*
X010325Y012393D03*
X010325Y012368D03*
X010325Y012343D03*
X010325Y012318D03*
X010325Y012293D03*
D150*
X007575Y004943D03*
D151*
X007575Y004968D03*
D152*
X007575Y004993D03*
D153*
X007575Y005018D03*
X007575Y005043D03*
X007600Y018693D03*
D154*
X007575Y005068D03*
D155*
X007575Y005093D03*
X007600Y018743D03*
D156*
X007600Y018768D03*
X007575Y005118D03*
D157*
X004800Y005143D03*
X004575Y007468D03*
X001550Y012393D03*
X001650Y013918D03*
X010575Y007443D03*
X010675Y005643D03*
X010675Y005618D03*
D158*
X007550Y005143D03*
X002475Y008543D03*
X007575Y015193D03*
X007575Y015218D03*
X007575Y015243D03*
X007575Y015268D03*
X007575Y015293D03*
X007575Y015318D03*
X007575Y015343D03*
X007575Y015368D03*
X007575Y015393D03*
X007575Y015418D03*
X007575Y015443D03*
X007575Y015468D03*
X007575Y015493D03*
X007575Y015518D03*
X007575Y015543D03*
X007575Y015568D03*
X007575Y015593D03*
X007575Y015618D03*
X007575Y015643D03*
D159*
X013613Y012418D03*
X010687Y005668D03*
X010338Y005143D03*
X006038Y006568D03*
X004913Y007243D03*
X004562Y007493D03*
X004438Y005718D03*
X004438Y005693D03*
D160*
X004763Y005168D03*
X006013Y006543D03*
X010613Y005493D03*
X010613Y005468D03*
D161*
X007550Y005168D03*
X003050Y007718D03*
X007575Y016118D03*
X007575Y016143D03*
X007575Y016168D03*
X007575Y016193D03*
X007575Y016218D03*
X007575Y016243D03*
X007575Y016268D03*
X007575Y016293D03*
X007575Y016318D03*
X007575Y016343D03*
X007575Y016368D03*
X007575Y016393D03*
X007575Y016418D03*
X007575Y016443D03*
X007575Y016468D03*
D162*
X007575Y016843D03*
X002675Y008018D03*
X002950Y007818D03*
X002975Y007793D03*
X007550Y005193D03*
D163*
X010400Y005193D03*
D164*
X012313Y007918D03*
X007563Y005218D03*
X002663Y016193D03*
D165*
X001587Y012343D03*
X002388Y009093D03*
X004612Y007418D03*
X010438Y005218D03*
X010463Y005243D03*
X010563Y005393D03*
X013563Y012343D03*
D166*
X007563Y005243D03*
D167*
X004763Y007293D03*
X004537Y005443D03*
X004587Y005368D03*
X004613Y005318D03*
X004663Y005268D03*
X010488Y007343D03*
D168*
X007563Y005993D03*
X007563Y005268D03*
X002613Y008843D03*
D169*
X002400Y009118D03*
X004500Y005518D03*
X010475Y005268D03*
X010575Y005418D03*
X012750Y009118D03*
X001725Y013968D03*
D170*
X001613Y012318D03*
X004638Y007393D03*
X004638Y005293D03*
X013538Y012318D03*
D171*
X012488Y016118D03*
X007563Y005968D03*
X007563Y005293D03*
X002638Y008893D03*
X002663Y016118D03*
D172*
X007563Y005943D03*
X007563Y005318D03*
D173*
X011875Y005318D03*
X010300Y011293D03*
X010300Y011318D03*
X010300Y011343D03*
X010300Y011368D03*
X010300Y011393D03*
X010300Y011418D03*
X010300Y011443D03*
X010300Y011468D03*
X010300Y011493D03*
X010300Y011518D03*
X010300Y011543D03*
X010300Y011568D03*
X010300Y013618D03*
X010300Y013643D03*
X010300Y013668D03*
X010300Y013693D03*
X010300Y013718D03*
X010300Y013743D03*
X010300Y013768D03*
X010300Y013793D03*
X012500Y015018D03*
X003225Y005418D03*
X001525Y007018D03*
X002575Y014868D03*
X002600Y014918D03*
X002600Y014943D03*
X002625Y014968D03*
X002625Y014993D03*
X002650Y015018D03*
X002650Y015043D03*
X002675Y015068D03*
D174*
X002537Y014793D03*
X002537Y014768D03*
X002462Y014618D03*
X002462Y014593D03*
X002437Y014543D03*
X002363Y014343D03*
X003513Y014743D03*
X003513Y014768D03*
X003513Y014793D03*
X003387Y013218D03*
X003387Y013193D03*
X003387Y013168D03*
X003387Y013143D03*
X003387Y013118D03*
X003387Y013093D03*
X003387Y013068D03*
X003387Y013043D03*
X003387Y013018D03*
X003387Y012993D03*
X003387Y011943D03*
X003387Y011918D03*
X003387Y011893D03*
X003387Y011868D03*
X003387Y011843D03*
X003387Y011818D03*
X004838Y011818D03*
X004838Y011793D03*
X004838Y011768D03*
X004838Y011743D03*
X004838Y011718D03*
X004838Y011693D03*
X004838Y011668D03*
X004838Y011643D03*
X004838Y011618D03*
X004838Y011593D03*
X004838Y011568D03*
X004838Y011843D03*
X004838Y011868D03*
X004838Y011893D03*
X004838Y011918D03*
X004838Y011943D03*
X004838Y011968D03*
X004838Y011993D03*
X004838Y012018D03*
X004838Y012043D03*
X004838Y012068D03*
X004838Y012093D03*
X004838Y012118D03*
X004838Y012143D03*
X004838Y012168D03*
X004838Y012193D03*
X004838Y012218D03*
X004838Y012893D03*
X004838Y012918D03*
X004838Y012943D03*
X004838Y012968D03*
X004838Y012993D03*
X004838Y013018D03*
X004838Y013043D03*
X004838Y013068D03*
X004838Y013093D03*
X004838Y013118D03*
X004838Y013143D03*
X004838Y013168D03*
X004838Y013193D03*
X004838Y013218D03*
X004838Y013243D03*
X004838Y013268D03*
X004838Y013293D03*
X004838Y013318D03*
X004838Y013343D03*
X004838Y013368D03*
X004838Y013393D03*
X004838Y013418D03*
X004838Y013443D03*
X004838Y013468D03*
X004838Y013493D03*
X004838Y013518D03*
X004838Y013543D03*
X004838Y013568D03*
X004838Y013593D03*
X004863Y013818D03*
X004863Y013843D03*
X004863Y013868D03*
X004863Y013893D03*
X004863Y013918D03*
X004863Y013943D03*
X004863Y013968D03*
X004863Y013993D03*
X004863Y014018D03*
X004863Y014043D03*
X004863Y014068D03*
X004863Y014093D03*
X004863Y014118D03*
X004863Y014143D03*
X004863Y014168D03*
X004863Y014193D03*
X004863Y014218D03*
X004863Y014243D03*
X004863Y014268D03*
X004863Y014293D03*
X004888Y014343D03*
X004888Y014368D03*
X004888Y014393D03*
X004888Y014418D03*
X004888Y014443D03*
X004888Y014468D03*
X004888Y014493D03*
X004888Y014518D03*
X004888Y014543D03*
X004888Y014568D03*
X004888Y014593D03*
X004888Y014618D03*
X004888Y014643D03*
X004888Y014668D03*
X004913Y014843D03*
X004913Y014868D03*
X004913Y014893D03*
X004913Y014918D03*
X004913Y014943D03*
X004913Y014968D03*
X004938Y015243D03*
X004938Y015268D03*
X003613Y017693D03*
X004863Y011268D03*
X004863Y011243D03*
X004863Y011218D03*
X004863Y011193D03*
X004863Y011168D03*
X004863Y011143D03*
X004863Y011118D03*
X004863Y011093D03*
X004863Y011068D03*
X004863Y011043D03*
X004863Y011018D03*
X004863Y010993D03*
X004863Y010968D03*
X004863Y010943D03*
X004863Y010918D03*
X004863Y010893D03*
X004863Y010868D03*
X004863Y010843D03*
X004863Y010818D03*
X004888Y010768D03*
X004888Y010743D03*
X004888Y010718D03*
X004888Y010693D03*
X004888Y010668D03*
X004888Y010643D03*
X004888Y010618D03*
X004888Y010593D03*
X004888Y010568D03*
X004888Y010543D03*
X004888Y010518D03*
X004888Y010493D03*
X004888Y010468D03*
X004888Y010443D03*
X004888Y010418D03*
X004888Y010393D03*
X004913Y010268D03*
X004913Y010243D03*
X004913Y010218D03*
X004913Y010193D03*
X004913Y010168D03*
X004913Y010143D03*
X004913Y010118D03*
X004913Y010093D03*
X004913Y010068D03*
X004938Y009843D03*
X004938Y009818D03*
X004938Y009793D03*
X004938Y009768D03*
X003563Y009743D03*
X003563Y009718D03*
X003538Y009893D03*
X003538Y009918D03*
X003538Y009943D03*
X003538Y009968D03*
X003513Y010068D03*
X003513Y010093D03*
X003513Y010118D03*
X003513Y010143D03*
X003513Y010168D03*
X003513Y010193D03*
X003513Y010218D03*
X002913Y006118D03*
X002938Y006068D03*
X002963Y006018D03*
X002963Y005993D03*
X002988Y005943D03*
X003013Y005893D03*
X003013Y005868D03*
X003038Y005843D03*
X003038Y005818D03*
X003063Y005793D03*
X003063Y005768D03*
X003237Y005393D03*
X003262Y005343D03*
X010212Y009768D03*
X010212Y009793D03*
X010212Y009818D03*
X010212Y009843D03*
X010238Y010068D03*
X010238Y010093D03*
X010238Y010118D03*
X010238Y010143D03*
X010238Y010168D03*
X010238Y010193D03*
X010238Y010218D03*
X010238Y010243D03*
X010238Y010268D03*
X010238Y010293D03*
X010312Y011593D03*
X010312Y011618D03*
X010312Y011643D03*
X010312Y011668D03*
X010312Y011693D03*
X010312Y011718D03*
X010312Y011743D03*
X010312Y011768D03*
X010312Y011793D03*
X010312Y011818D03*
X010312Y011843D03*
X010312Y011868D03*
X010312Y011893D03*
X010312Y011918D03*
X010312Y011943D03*
X010312Y011968D03*
X010312Y011993D03*
X010312Y012018D03*
X010312Y012043D03*
X010312Y012068D03*
X010312Y012093D03*
X010312Y012118D03*
X010312Y012143D03*
X010312Y012168D03*
X010312Y012193D03*
X010312Y012218D03*
X010312Y012243D03*
X010312Y012268D03*
X010312Y012843D03*
X010312Y012868D03*
X010312Y012893D03*
X010312Y012918D03*
X010312Y012943D03*
X010312Y012968D03*
X010312Y012993D03*
X010312Y013018D03*
X010312Y013043D03*
X010312Y013068D03*
X010312Y013093D03*
X010312Y013118D03*
X010312Y013143D03*
X010312Y013168D03*
X010312Y013193D03*
X010312Y013218D03*
X010312Y013243D03*
X010312Y013268D03*
X010312Y013293D03*
X010312Y013318D03*
X010312Y013343D03*
X010312Y013368D03*
X010312Y013393D03*
X010312Y013418D03*
X010312Y013443D03*
X010312Y013468D03*
X010312Y013493D03*
X010312Y013518D03*
X010312Y013543D03*
X010312Y013568D03*
X010312Y013593D03*
X010238Y014843D03*
X010238Y014868D03*
X010238Y014893D03*
X010238Y014918D03*
X010238Y014943D03*
X010238Y014968D03*
X010212Y015243D03*
X011688Y014393D03*
X011688Y014368D03*
X011688Y014343D03*
X011688Y014318D03*
X011688Y014293D03*
X011688Y014268D03*
X011688Y014243D03*
X011688Y014218D03*
X011688Y014193D03*
X011688Y014168D03*
X011713Y014143D03*
X011713Y014118D03*
X011713Y014093D03*
X011713Y014068D03*
X011713Y014043D03*
X011713Y014018D03*
X011713Y013993D03*
X011713Y013968D03*
X011713Y013943D03*
X011713Y013918D03*
X011713Y013893D03*
X012538Y014943D03*
X012587Y014843D03*
X012638Y014743D03*
X012638Y014718D03*
X012687Y014618D03*
X012687Y014593D03*
X012738Y014493D03*
X012738Y014468D03*
X011713Y011018D03*
X011713Y010993D03*
X011713Y010968D03*
X011713Y010943D03*
X011713Y010918D03*
X011713Y010893D03*
X011713Y010868D03*
X011713Y010843D03*
X011688Y010718D03*
X011688Y010693D03*
X011688Y010668D03*
X011688Y010643D03*
X011688Y010618D03*
X011688Y010593D03*
X011688Y010568D03*
X011688Y010543D03*
X011688Y010518D03*
X011613Y009968D03*
X011613Y009943D03*
X011613Y009918D03*
X011613Y009893D03*
X011588Y009743D03*
X011588Y009718D03*
X012213Y006068D03*
X012113Y005843D03*
X012113Y005818D03*
X012062Y005718D03*
X012062Y005693D03*
X012013Y005618D03*
X012013Y005593D03*
X011962Y005518D03*
X011962Y005493D03*
X011913Y005393D03*
D175*
X009125Y006518D03*
X006000Y006493D03*
X004650Y007368D03*
X004600Y005343D03*
D176*
X007550Y005343D03*
X007550Y005918D03*
D177*
X006338Y009443D03*
X006338Y009468D03*
X006338Y009493D03*
X006288Y010643D03*
X006288Y010668D03*
X006288Y010693D03*
X006288Y010718D03*
X006288Y010743D03*
X006288Y010768D03*
X006288Y010793D03*
X006288Y010818D03*
X006288Y010843D03*
X006288Y010868D03*
X006288Y010893D03*
X006288Y010918D03*
X006288Y010943D03*
X006288Y010968D03*
X006288Y010993D03*
X006288Y011018D03*
X006288Y011043D03*
X006288Y011068D03*
X006288Y011093D03*
X006288Y011118D03*
X006288Y011143D03*
X006288Y011168D03*
X006288Y011193D03*
X006288Y011218D03*
X006288Y011243D03*
X006288Y011268D03*
X006288Y011293D03*
X006288Y011318D03*
X006288Y011343D03*
X006288Y011368D03*
X006288Y011393D03*
X006288Y011418D03*
X006288Y011443D03*
X006288Y011468D03*
X006288Y011493D03*
X006288Y011518D03*
X006288Y011543D03*
X006288Y011568D03*
X006288Y011593D03*
X006288Y011618D03*
X006288Y011643D03*
X006288Y011668D03*
X008838Y010568D03*
X008838Y010543D03*
X008838Y010518D03*
X008838Y010493D03*
X008838Y010468D03*
X008838Y010443D03*
X008838Y010418D03*
X008838Y010393D03*
X008838Y010368D03*
X008838Y010343D03*
X008838Y010318D03*
X008838Y010293D03*
X008838Y010268D03*
X008838Y010243D03*
X008838Y010218D03*
X008838Y010193D03*
X008838Y010168D03*
X008838Y010143D03*
X008838Y010118D03*
X008838Y010093D03*
X008838Y010068D03*
X008838Y010043D03*
X008838Y010018D03*
X008838Y009993D03*
X010188Y009493D03*
X010288Y010818D03*
X010288Y010843D03*
X010288Y010868D03*
X010288Y010893D03*
X010288Y010918D03*
X010288Y010943D03*
X010288Y010968D03*
X010288Y010993D03*
X010288Y011018D03*
X010288Y011043D03*
X010288Y011068D03*
X010288Y011093D03*
X010288Y011118D03*
X010288Y011143D03*
X010288Y011168D03*
X010288Y011193D03*
X010288Y011218D03*
X010288Y011243D03*
X010288Y011268D03*
X011563Y009543D03*
X011663Y010293D03*
X011663Y010318D03*
X011663Y010343D03*
X011663Y010368D03*
X011663Y010393D03*
X011663Y010418D03*
X011663Y010443D03*
X011663Y010468D03*
X011763Y011818D03*
X011763Y011843D03*
X011763Y011868D03*
X011763Y011893D03*
X011763Y011918D03*
X011763Y011943D03*
X011763Y011968D03*
X011763Y012993D03*
X011763Y013018D03*
X011763Y013043D03*
X011763Y013068D03*
X011763Y013093D03*
X011763Y013118D03*
X011763Y013143D03*
X011763Y013168D03*
X011763Y013193D03*
X011663Y014493D03*
X011663Y014518D03*
X011663Y014543D03*
X011663Y014568D03*
X011663Y014593D03*
X012613Y014768D03*
X012613Y014793D03*
X012713Y014543D03*
X010288Y014293D03*
X010288Y014268D03*
X010288Y014243D03*
X010288Y014218D03*
X010288Y014193D03*
X010288Y014168D03*
X010288Y014143D03*
X010288Y014118D03*
X010288Y014093D03*
X010288Y014068D03*
X010288Y014043D03*
X010288Y014018D03*
X010288Y013993D03*
X010288Y013968D03*
X010288Y013943D03*
X010288Y013918D03*
X010288Y013893D03*
X010288Y013868D03*
X010288Y013843D03*
X010288Y013818D03*
X012188Y006018D03*
X012188Y005993D03*
X012088Y005793D03*
X012088Y005768D03*
X011988Y005568D03*
X011988Y005543D03*
X011888Y005343D03*
X003213Y005443D03*
X003213Y005468D03*
X003188Y005493D03*
X003188Y005518D03*
X002388Y014418D03*
X002413Y014468D03*
X002413Y014493D03*
X002563Y014843D03*
X002588Y014893D03*
X002663Y024868D03*
D178*
X002688Y016043D03*
X002688Y008968D03*
X007563Y005893D03*
X007563Y005368D03*
D179*
X004563Y005393D03*
X004563Y005418D03*
X004513Y005493D03*
X010513Y007368D03*
D180*
X007563Y005868D03*
X007563Y005393D03*
X012438Y015993D03*
D181*
X012425Y015968D03*
X007550Y005843D03*
X007550Y005818D03*
X007550Y005443D03*
X007550Y005418D03*
X002725Y015968D03*
D182*
X004488Y005568D03*
X004488Y005543D03*
X010588Y005443D03*
X010538Y007393D03*
D183*
X011938Y005468D03*
X011938Y005443D03*
X012038Y005643D03*
X012038Y005668D03*
X012138Y005868D03*
X012138Y005893D03*
X012163Y005943D03*
X014013Y006668D03*
X011638Y010093D03*
X011638Y010118D03*
X011638Y010143D03*
X011638Y010168D03*
X011638Y010193D03*
X011638Y010218D03*
X011738Y011243D03*
X011738Y011268D03*
X011738Y011293D03*
X011738Y011318D03*
X011738Y011343D03*
X011738Y011368D03*
X011738Y011393D03*
X010263Y010768D03*
X010263Y010743D03*
X010263Y010718D03*
X010263Y010693D03*
X010263Y010668D03*
X010263Y010643D03*
X010263Y010618D03*
X010263Y010593D03*
X010263Y010568D03*
X010263Y010543D03*
X010263Y010518D03*
X010263Y010493D03*
X010263Y010468D03*
X010263Y010443D03*
X010263Y010418D03*
X010263Y010393D03*
X008863Y010668D03*
X008863Y010693D03*
X008863Y010718D03*
X008863Y010743D03*
X008863Y010768D03*
X008863Y010793D03*
X008863Y010818D03*
X008863Y010843D03*
X008863Y010868D03*
X008863Y010893D03*
X008863Y010918D03*
X008863Y010943D03*
X008863Y010968D03*
X008863Y010993D03*
X008863Y011018D03*
X008863Y011043D03*
X008863Y011068D03*
X008863Y011093D03*
X008863Y011118D03*
X008863Y011143D03*
X008863Y011168D03*
X008863Y011193D03*
X008863Y011218D03*
X008863Y011243D03*
X008863Y011268D03*
X008863Y011293D03*
X008863Y011318D03*
X008863Y011343D03*
X008863Y011368D03*
X008863Y011393D03*
X008863Y011418D03*
X008863Y011443D03*
X008863Y011468D03*
X008863Y011493D03*
X008863Y011518D03*
X008863Y011543D03*
X008863Y011568D03*
X008863Y011593D03*
X008863Y011618D03*
X008863Y011643D03*
X008863Y011668D03*
X008863Y011693D03*
X008863Y011718D03*
X007563Y012743D03*
X007563Y012768D03*
X006313Y010543D03*
X006313Y010518D03*
X006313Y010493D03*
X006313Y010468D03*
X006313Y010443D03*
X006313Y010418D03*
X006313Y010393D03*
X006313Y010368D03*
X006313Y010343D03*
X006313Y010318D03*
X006313Y010293D03*
X006313Y010268D03*
X006313Y010243D03*
X006313Y010218D03*
X006313Y010193D03*
X006313Y010168D03*
X006313Y010143D03*
X006313Y010118D03*
X006313Y010093D03*
X006313Y010068D03*
X006313Y010043D03*
X006313Y010018D03*
X006313Y009993D03*
X008813Y009518D03*
X008813Y009493D03*
X008813Y009468D03*
X008813Y009443D03*
X007563Y006493D03*
X003488Y010268D03*
X003488Y010293D03*
X003488Y010318D03*
X003488Y010343D03*
X003488Y010368D03*
X003488Y010393D03*
X003488Y010418D03*
X003488Y010443D03*
X003488Y010468D03*
X003463Y010518D03*
X003463Y010543D03*
X003463Y010568D03*
X003463Y010593D03*
X003463Y010618D03*
X003463Y010643D03*
X003463Y010668D03*
X003463Y010693D03*
X003463Y010718D03*
X003438Y010843D03*
X003438Y010868D03*
X003438Y010893D03*
X003438Y010918D03*
X003438Y010943D03*
X003438Y010968D03*
X003438Y010993D03*
X003438Y011018D03*
X003413Y011243D03*
X003413Y011268D03*
X003413Y011293D03*
X003413Y011318D03*
X003413Y011343D03*
X003413Y011368D03*
X003413Y013568D03*
X003413Y013593D03*
X003413Y013618D03*
X003413Y013643D03*
X003413Y013668D03*
X003413Y013693D03*
X003413Y013718D03*
X003413Y013743D03*
X003413Y013768D03*
X003413Y013793D03*
X003438Y013893D03*
X003438Y013918D03*
X003438Y013943D03*
X003438Y013968D03*
X003438Y013993D03*
X003438Y014018D03*
X003438Y014043D03*
X003438Y014068D03*
X003438Y014093D03*
X003438Y014118D03*
X003438Y014143D03*
X003438Y014168D03*
X003463Y014193D03*
X003463Y014218D03*
X003463Y014243D03*
X003463Y014268D03*
X003463Y014293D03*
X003463Y014318D03*
X003463Y014343D03*
X003463Y014368D03*
X003463Y014393D03*
X003488Y014493D03*
X003488Y014518D03*
X003488Y014543D03*
X003488Y014568D03*
X003488Y014593D03*
X002513Y014718D03*
X002513Y014743D03*
X002488Y014693D03*
X002488Y014668D03*
X002163Y017418D03*
X002238Y023593D03*
X010263Y014668D03*
X010263Y014643D03*
X010263Y014618D03*
X010263Y014593D03*
X010263Y014568D03*
X010263Y014543D03*
X010263Y014518D03*
X010263Y014493D03*
X010263Y014468D03*
X010263Y014443D03*
X010263Y014418D03*
X010263Y014393D03*
X010263Y014368D03*
X010263Y014343D03*
X011638Y014743D03*
X011638Y014768D03*
X011638Y014793D03*
X011738Y013768D03*
X011738Y013743D03*
X011738Y013718D03*
X011738Y013693D03*
X011738Y013668D03*
X011738Y013643D03*
X011738Y013618D03*
X011738Y013593D03*
X011738Y013568D03*
X011738Y013543D03*
X012663Y014668D03*
X012663Y014693D03*
X012563Y014893D03*
X012763Y014418D03*
X012988Y017418D03*
X003088Y005718D03*
X003088Y005693D03*
X003113Y005668D03*
X003113Y005643D03*
X003138Y005618D03*
X003138Y005593D03*
X003163Y005568D03*
X003163Y005543D03*
X001138Y006668D03*
D184*
X007563Y005793D03*
X007563Y005468D03*
D185*
X007550Y005493D03*
X007550Y005518D03*
X007550Y005743D03*
X007550Y005768D03*
X002750Y015943D03*
D186*
X004600Y007443D03*
X004825Y007268D03*
X010625Y005518D03*
X012750Y009093D03*
X012100Y015418D03*
D187*
X012388Y015918D03*
X007563Y005718D03*
X007563Y005693D03*
X007563Y005668D03*
X007563Y005643D03*
X007563Y005618D03*
X007563Y005593D03*
X007563Y005568D03*
X007563Y005543D03*
X002763Y015918D03*
D188*
X003050Y015418D03*
X004475Y005593D03*
X010650Y005568D03*
X010550Y007418D03*
D189*
X004450Y005668D03*
D190*
X004537Y007518D03*
X001613Y013868D03*
X010237Y007243D03*
X010688Y005718D03*
X012637Y007443D03*
X012637Y007468D03*
X012788Y009018D03*
X013638Y012468D03*
X013538Y013868D03*
D191*
X012875Y014043D03*
X012875Y014068D03*
X012775Y014343D03*
X012775Y014368D03*
X012775Y014393D03*
X012750Y014443D03*
X012675Y014643D03*
X011625Y014818D03*
X011625Y014843D03*
X011625Y014868D03*
X011625Y014893D03*
X011625Y014918D03*
X011625Y014943D03*
X011625Y014968D03*
X010250Y014818D03*
X010250Y014793D03*
X010250Y014768D03*
X010250Y014743D03*
X010250Y014718D03*
X010250Y014693D03*
X010150Y015893D03*
X010150Y015918D03*
X010150Y015943D03*
X010250Y010368D03*
X010250Y010343D03*
X010250Y010318D03*
X010150Y009143D03*
X010150Y009118D03*
X010150Y009093D03*
X010150Y009068D03*
X010150Y009043D03*
X010150Y009018D03*
X011500Y009093D03*
X011500Y009118D03*
X011500Y009143D03*
X011525Y009243D03*
X011525Y009268D03*
X011525Y009293D03*
X011525Y009318D03*
X011525Y009343D03*
X011625Y009993D03*
X011625Y010018D03*
X011625Y010043D03*
X011625Y010068D03*
X012250Y006168D03*
X012250Y006143D03*
X012225Y006118D03*
X012225Y006093D03*
X012150Y005918D03*
X003475Y014418D03*
X003475Y014443D03*
X003475Y014468D03*
X000775Y007018D03*
X003075Y005743D03*
D192*
X005088Y005743D03*
X013738Y018143D03*
X012488Y019318D03*
X014488Y012718D03*
X014488Y007093D03*
D193*
X010050Y008068D03*
X010050Y008093D03*
X010050Y008118D03*
X010050Y008143D03*
X010050Y008168D03*
X010050Y005743D03*
X005075Y008318D03*
X005075Y008343D03*
X005075Y008368D03*
X001800Y007243D03*
X001775Y007218D03*
D194*
X005000Y009018D03*
X005000Y009043D03*
X005000Y009068D03*
X005000Y009093D03*
X005000Y009118D03*
X005000Y009143D03*
X002400Y014443D03*
X005000Y015893D03*
X005000Y015918D03*
X005000Y015943D03*
X010225Y015218D03*
X010225Y015193D03*
X010225Y015168D03*
X010225Y015143D03*
X010225Y015118D03*
X010225Y015093D03*
X010225Y015068D03*
X010225Y015043D03*
X010225Y015018D03*
X010225Y014993D03*
X011575Y015193D03*
X011575Y015218D03*
X011575Y015243D03*
X011575Y015268D03*
X011675Y014468D03*
X011675Y014443D03*
X011675Y014418D03*
X012700Y014568D03*
X012725Y014518D03*
X012800Y014318D03*
X012800Y014293D03*
X012800Y014268D03*
X012825Y014243D03*
X012825Y014218D03*
X012825Y014193D03*
X013025Y017468D03*
X011550Y017693D03*
X012925Y022868D03*
X012925Y023593D03*
X010225Y010043D03*
X010225Y010018D03*
X010225Y009993D03*
X010225Y009968D03*
X010225Y009943D03*
X010225Y009918D03*
X010225Y009893D03*
X010225Y009868D03*
X010125Y008843D03*
X010125Y008818D03*
X010125Y008793D03*
X011550Y009393D03*
X011550Y009418D03*
X011550Y009443D03*
X011550Y009468D03*
X011550Y009493D03*
X011550Y009518D03*
X011575Y009568D03*
X011575Y009593D03*
X011575Y009618D03*
X011575Y009643D03*
X011575Y009668D03*
X011575Y009693D03*
X012300Y006268D03*
X012200Y006043D03*
X012075Y005743D03*
X014375Y007018D03*
D195*
X014550Y007168D03*
X014550Y007193D03*
X014550Y007868D03*
X014550Y012793D03*
X014550Y013443D03*
X011925Y018068D03*
X011950Y018118D03*
X012025Y018218D03*
X003150Y018218D03*
X003050Y018368D03*
X003025Y018393D03*
X003025Y018418D03*
X003000Y018443D03*
X002975Y018493D03*
X000875Y017593D03*
X000875Y016918D03*
X000600Y013443D03*
X000600Y012793D03*
X000600Y007868D03*
X000600Y007193D03*
X000600Y007168D03*
X005125Y005768D03*
X002125Y022993D03*
X002125Y023018D03*
X002125Y023443D03*
X002125Y023893D03*
D196*
X002662Y024768D03*
X002312Y017193D03*
X002138Y010918D03*
X002138Y010893D03*
X002138Y010868D03*
X002138Y010843D03*
X002138Y010818D03*
X002163Y010718D03*
X002163Y010693D03*
X001138Y006743D03*
X003938Y005793D03*
X011237Y005843D03*
X011263Y005868D03*
X014013Y006743D03*
X013012Y010818D03*
X013012Y010843D03*
X013012Y010868D03*
X013012Y010893D03*
X013012Y010918D03*
X012838Y017193D03*
D197*
X012063Y018268D03*
X012112Y018343D03*
X012163Y018418D03*
X014612Y013343D03*
X014612Y013318D03*
X014612Y012943D03*
X014612Y012918D03*
X014612Y007743D03*
X014612Y007718D03*
X014612Y007343D03*
X014612Y007318D03*
X014612Y007293D03*
X005162Y005793D03*
X000862Y016943D03*
X002712Y019018D03*
X002687Y019068D03*
X002687Y019093D03*
X002687Y019118D03*
X002938Y018543D03*
D198*
X002700Y019043D03*
X000825Y017493D03*
X005350Y006043D03*
X005175Y005818D03*
X012125Y018368D03*
X012175Y018443D03*
X012225Y018518D03*
X012225Y018543D03*
X012250Y018568D03*
X012275Y018618D03*
X012300Y018668D03*
X012400Y018868D03*
X012475Y019043D03*
X012475Y019068D03*
X012500Y019118D03*
X012500Y019143D03*
X012500Y019168D03*
X014350Y017418D03*
X014350Y017393D03*
X014350Y017368D03*
X014350Y017343D03*
X014350Y017318D03*
X014350Y017193D03*
X014350Y017168D03*
X014350Y017143D03*
X014350Y017118D03*
X014350Y017093D03*
X014625Y013293D03*
X014625Y013268D03*
X014625Y013243D03*
X014625Y013218D03*
X014625Y013193D03*
X014625Y013043D03*
X014625Y013018D03*
X014625Y012993D03*
X014625Y012968D03*
X014600Y012893D03*
X014625Y007693D03*
X014625Y007668D03*
X014625Y007643D03*
X014625Y007618D03*
X014625Y007593D03*
X014625Y007443D03*
X014625Y007418D03*
X014625Y007393D03*
X014625Y007368D03*
X013050Y023093D03*
X013050Y023118D03*
X013050Y023143D03*
X013050Y023318D03*
X013050Y023343D03*
X013050Y023368D03*
X013050Y023968D03*
X013050Y023993D03*
X012950Y024518D03*
X012000Y024518D03*
D199*
X012038Y024543D03*
X012138Y018393D03*
X012038Y018243D03*
X014313Y017518D03*
X014313Y017493D03*
X014338Y017468D03*
X014338Y017443D03*
X014338Y017068D03*
X014338Y017043D03*
X014313Y017018D03*
X014313Y016993D03*
X009938Y005818D03*
X000813Y017043D03*
X000813Y017068D03*
X000813Y017443D03*
X000813Y017468D03*
X002963Y018518D03*
X002988Y018468D03*
X002113Y023043D03*
X002113Y023068D03*
X002113Y023393D03*
X002113Y023418D03*
X002113Y023918D03*
X002113Y023943D03*
X000538Y013343D03*
X000538Y013318D03*
X000538Y012943D03*
X000538Y012918D03*
X000538Y012893D03*
X000538Y007743D03*
X000538Y007718D03*
X000538Y007343D03*
X000538Y007318D03*
X000538Y007293D03*
D200*
X000512Y007468D03*
X000512Y007493D03*
X000512Y007518D03*
X000512Y007543D03*
X000512Y007568D03*
X000512Y013068D03*
X000512Y013093D03*
X000512Y013118D03*
X000512Y013143D03*
X000512Y013168D03*
X000512Y013193D03*
X005313Y005993D03*
X005213Y005843D03*
X009788Y006018D03*
X009888Y005868D03*
X014363Y017218D03*
X014363Y017243D03*
X014363Y017268D03*
X014363Y017293D03*
X012363Y018768D03*
X012363Y018793D03*
X012388Y018818D03*
X012388Y018843D03*
X012437Y018943D03*
X012437Y018968D03*
X012463Y018993D03*
X012463Y019018D03*
X012488Y019093D03*
X012288Y018643D03*
X012263Y018593D03*
X013062Y023168D03*
X013062Y023193D03*
X013062Y023218D03*
X013062Y023243D03*
X013062Y023268D03*
X013062Y023293D03*
X013062Y024018D03*
X013062Y024043D03*
X012988Y024468D03*
X002188Y024493D03*
X002163Y024468D03*
D201*
X002100Y023968D03*
X002100Y023368D03*
X002100Y023343D03*
X002100Y023318D03*
X002100Y023118D03*
X002100Y023093D03*
X003125Y024518D03*
X003100Y024543D03*
X000800Y017418D03*
X000800Y017393D03*
X000800Y017368D03*
X000800Y017343D03*
X000800Y017318D03*
X000800Y017193D03*
X000800Y017168D03*
X000800Y017143D03*
X000800Y017118D03*
X000800Y017093D03*
X000525Y013293D03*
X000525Y013268D03*
X000525Y013243D03*
X000525Y013218D03*
X000525Y013043D03*
X000525Y013018D03*
X000525Y012993D03*
X000525Y012968D03*
X000525Y007693D03*
X000525Y007668D03*
X000525Y007643D03*
X000525Y007618D03*
X000525Y007593D03*
X000525Y007443D03*
X000525Y007418D03*
X000525Y007393D03*
X000525Y007368D03*
X009925Y005843D03*
D202*
X009875Y005893D03*
X009825Y005968D03*
X005275Y005943D03*
X005225Y005868D03*
X013725Y018168D03*
X013000Y024443D03*
X012475Y024943D03*
X011950Y024443D03*
X011950Y024418D03*
X002150Y024418D03*
X002150Y024443D03*
X002125Y024393D03*
D203*
X011925Y024393D03*
X011925Y024368D03*
X013075Y024143D03*
X013075Y024118D03*
X013075Y024093D03*
X013075Y024068D03*
X005300Y005968D03*
X005250Y005918D03*
X005250Y005893D03*
D204*
X009800Y005993D03*
X009850Y005943D03*
X009850Y005918D03*
X001425Y018168D03*
X002075Y024068D03*
X002075Y024093D03*
X002075Y024118D03*
X002075Y024143D03*
X003175Y024443D03*
X003200Y024418D03*
X011875Y024143D03*
X011875Y024118D03*
X011875Y024093D03*
X011975Y024468D03*
X013025Y024393D03*
D205*
X007563Y012893D03*
X003788Y005968D03*
X003813Y005943D03*
X001413Y018068D03*
X002663Y024818D03*
D206*
X002200Y024518D03*
X002725Y018993D03*
X002725Y018968D03*
X002750Y018918D03*
X002775Y018868D03*
X002800Y018818D03*
X002825Y018768D03*
X012200Y018493D03*
X012925Y024543D03*
X005375Y006068D03*
D207*
X009738Y006068D03*
X014588Y007243D03*
X014588Y007268D03*
X014588Y007768D03*
X014588Y007793D03*
X014588Y012868D03*
X014588Y013368D03*
X014588Y013393D03*
X014288Y016943D03*
X012513Y019193D03*
X012188Y018468D03*
X012088Y018318D03*
X013038Y023043D03*
X013038Y023068D03*
X013038Y023393D03*
X013038Y023418D03*
X013038Y023943D03*
X002813Y018793D03*
X002838Y018743D03*
X002838Y018718D03*
X002863Y018693D03*
X002863Y018668D03*
X002888Y018643D03*
X002888Y018618D03*
X002913Y018593D03*
X002788Y018843D03*
X002763Y018893D03*
X002738Y018943D03*
X000838Y017518D03*
X000838Y017018D03*
X000838Y016993D03*
X000563Y013393D03*
X000563Y013368D03*
X000563Y012868D03*
X000563Y007793D03*
X000563Y007768D03*
X000563Y007268D03*
X000563Y007243D03*
X002238Y024543D03*
D208*
X000850Y017568D03*
X000850Y017543D03*
X000850Y016968D03*
X005400Y006093D03*
X011975Y018143D03*
X012000Y018168D03*
X012000Y018193D03*
X012075Y018293D03*
X012500Y019218D03*
X012500Y019243D03*
X014275Y017593D03*
X014275Y016918D03*
X014575Y013418D03*
X014575Y012843D03*
X014575Y012818D03*
X014575Y007843D03*
X014575Y007818D03*
X014575Y007218D03*
X013025Y023018D03*
X013025Y023443D03*
X013025Y023918D03*
X012900Y024568D03*
D209*
X013013Y023893D03*
X013013Y023468D03*
X013013Y022993D03*
X014263Y017618D03*
X014263Y016893D03*
X009713Y006093D03*
D210*
X005438Y006118D03*
X001137Y006643D03*
X000688Y007068D03*
X000962Y016818D03*
X001413Y018143D03*
X003387Y017893D03*
X003412Y017868D03*
X002162Y023518D03*
X002162Y023843D03*
X002313Y024593D03*
X011688Y017793D03*
X011713Y017818D03*
X014213Y017693D03*
X014188Y016818D03*
X014462Y007968D03*
X014462Y007068D03*
D211*
X005988Y006168D03*
X005988Y006143D03*
D212*
X003275Y006193D03*
X002450Y009243D03*
X002450Y016918D03*
X011900Y006293D03*
X011875Y006243D03*
X012700Y009243D03*
X012700Y016918D03*
D213*
X012687Y016893D03*
X009163Y006393D03*
X009163Y006368D03*
X009163Y006218D03*
X009163Y006193D03*
X002463Y016893D03*
D214*
X005963Y006318D03*
X005963Y006293D03*
X005963Y006268D03*
D215*
X007575Y007168D03*
X003225Y006318D03*
X003225Y006293D03*
X001150Y006993D03*
X001425Y017793D03*
X011975Y006418D03*
X011950Y006368D03*
X013725Y017793D03*
D216*
X012000Y006468D03*
X003200Y006343D03*
X003175Y006393D03*
D217*
X003188Y006368D03*
X003163Y006418D03*
X003138Y006468D03*
X011988Y006443D03*
X012713Y016943D03*
D218*
X005975Y006443D03*
X005975Y006418D03*
D219*
X009138Y006468D03*
X012687Y016868D03*
X002463Y016868D03*
D220*
X001638Y012293D03*
X009138Y006493D03*
X010463Y007318D03*
X013388Y013993D03*
D221*
X012013Y006493D03*
D222*
X007563Y013093D03*
X003088Y006593D03*
X003088Y006568D03*
X003113Y006518D03*
D223*
X002438Y016943D03*
X012038Y006543D03*
D224*
X001138Y006593D03*
D225*
X014013Y006593D03*
D226*
X003063Y006618D03*
X002438Y016968D03*
D227*
X001850Y013568D03*
X002450Y009418D03*
X002450Y009393D03*
X012100Y006668D03*
X012125Y006718D03*
X012125Y006743D03*
X014000Y006943D03*
X013725Y017843D03*
D228*
X007538Y006718D03*
D229*
X007538Y006743D03*
D230*
X007563Y012968D03*
X011363Y017643D03*
X012413Y015368D03*
X002663Y024743D03*
X001138Y006768D03*
D231*
X007538Y006768D03*
X007588Y017843D03*
D232*
X007538Y006793D03*
D233*
X007550Y006818D03*
D234*
X007550Y006843D03*
D235*
X007550Y006868D03*
D236*
X002363Y009718D03*
X002338Y009768D03*
X002338Y009793D03*
X001863Y012718D03*
X012763Y017043D03*
X013288Y012718D03*
X014013Y006868D03*
D237*
X002813Y007293D03*
X001138Y006893D03*
X001413Y017893D03*
D238*
X002400Y009568D03*
X002400Y009543D03*
X002900Y007018D03*
X002925Y006968D03*
X002925Y006943D03*
X002950Y006918D03*
X002950Y006893D03*
X012200Y006893D03*
X012200Y006918D03*
X012725Y009493D03*
D239*
X007550Y006893D03*
D240*
X002888Y007043D03*
X002888Y007068D03*
X002863Y007118D03*
X002863Y007143D03*
X002863Y007168D03*
X002838Y007193D03*
X002838Y007218D03*
X002838Y007243D03*
X002838Y007268D03*
X007563Y013068D03*
X012337Y007293D03*
X012312Y007268D03*
X012312Y007243D03*
X012312Y007218D03*
X012312Y007193D03*
X012288Y007168D03*
X012288Y007143D03*
X012288Y007118D03*
X012263Y007093D03*
X012263Y007068D03*
X012237Y006993D03*
X014013Y006893D03*
X012763Y009593D03*
X012763Y009618D03*
X012737Y017018D03*
X013738Y017893D03*
X002412Y017018D03*
D241*
X007550Y006918D03*
D242*
X014013Y006918D03*
D243*
X007563Y006943D03*
D244*
X007563Y006968D03*
X007588Y018268D03*
D245*
X002388Y009618D03*
X002388Y009593D03*
X002913Y006993D03*
D246*
X014000Y006993D03*
D247*
X012250Y007018D03*
X012250Y007043D03*
X012750Y009543D03*
X012750Y009568D03*
X013275Y013543D03*
X001875Y013543D03*
X001425Y017868D03*
D248*
X001913Y017693D03*
X002038Y017568D03*
X002063Y017543D03*
X003488Y017793D03*
X003513Y017768D03*
X000713Y013568D03*
X000713Y007993D03*
X000713Y007043D03*
X001663Y007093D03*
X001738Y007168D03*
X001763Y007193D03*
X005137Y007818D03*
X011638Y017743D03*
X012488Y019343D03*
X013262Y017718D03*
X013113Y017568D03*
X013413Y007168D03*
X002187Y022893D03*
D249*
X001862Y017743D03*
X002112Y017493D03*
X003588Y015368D03*
X003588Y015343D03*
X003588Y015318D03*
X003563Y015168D03*
X003563Y015143D03*
X004963Y015543D03*
X004963Y015568D03*
X004988Y015768D03*
X004988Y015793D03*
X004988Y015818D03*
X004988Y015843D03*
X004988Y015868D03*
X005038Y016168D03*
X005038Y016193D03*
X005038Y016218D03*
X005038Y016243D03*
X005038Y016268D03*
X005038Y016293D03*
X005038Y016318D03*
X005038Y016343D03*
X002288Y014093D03*
X002263Y014018D03*
X003613Y009368D03*
X003613Y009343D03*
X003638Y009218D03*
X003638Y009193D03*
X003638Y009168D03*
X003663Y009068D03*
X003663Y009043D03*
X003663Y009018D03*
X004988Y009168D03*
X004988Y009193D03*
X004988Y009218D03*
X005038Y008768D03*
X005038Y008743D03*
X005038Y008718D03*
X005038Y008693D03*
X005038Y008668D03*
X005038Y008643D03*
X005038Y008618D03*
X005038Y008593D03*
X005088Y008293D03*
X005088Y008268D03*
X005088Y008243D03*
X005088Y008218D03*
X005088Y008193D03*
X001588Y007043D03*
X000762Y008018D03*
X010037Y008018D03*
X010037Y008043D03*
X010063Y008193D03*
X010063Y008218D03*
X010063Y008243D03*
X010063Y008268D03*
X010063Y008293D03*
X010137Y008868D03*
X010137Y008893D03*
X010137Y008918D03*
X010137Y008943D03*
X010137Y008968D03*
X010137Y008993D03*
X010163Y009168D03*
X010163Y009193D03*
X010163Y009218D03*
X011487Y009068D03*
X011487Y009043D03*
X011487Y009018D03*
X011538Y009368D03*
X013313Y007293D03*
X012888Y014018D03*
X010163Y015768D03*
X010163Y015793D03*
X010163Y015818D03*
X010163Y015843D03*
X010163Y015868D03*
X010137Y015968D03*
X010137Y015993D03*
X010137Y016018D03*
X010137Y016043D03*
X010137Y016068D03*
X010137Y016093D03*
X010137Y016118D03*
X010137Y016143D03*
X013738Y018118D03*
D250*
X013038Y017493D03*
X011563Y015368D03*
X011563Y015343D03*
X011563Y015318D03*
X011563Y015293D03*
X011588Y015168D03*
X011588Y015143D03*
X010113Y016168D03*
X010113Y016193D03*
X010113Y016218D03*
X010113Y016243D03*
X010113Y016268D03*
X010113Y016293D03*
X010113Y016318D03*
X010113Y016343D03*
X007563Y012718D03*
X007563Y012693D03*
X006363Y008968D03*
X006363Y008943D03*
X006363Y008918D03*
X006363Y008893D03*
X006363Y008868D03*
X006363Y008843D03*
X006363Y008818D03*
X006363Y008793D03*
X006363Y008768D03*
X006363Y008743D03*
X006363Y008718D03*
X006413Y008043D03*
X006413Y008018D03*
X006413Y007993D03*
X006413Y007968D03*
X006413Y007943D03*
X006413Y007918D03*
X006413Y007893D03*
X006413Y007868D03*
X006413Y007843D03*
X005113Y008018D03*
X005063Y008393D03*
X005063Y008418D03*
X005063Y008443D03*
X005063Y008468D03*
X005063Y008493D03*
X005063Y008518D03*
X005063Y008543D03*
X005013Y008868D03*
X005013Y008893D03*
X005013Y008918D03*
X005013Y008943D03*
X005013Y008968D03*
X005013Y008993D03*
X001838Y007293D03*
X001813Y007268D03*
X005013Y015968D03*
X005013Y015993D03*
X005013Y016018D03*
X005013Y016043D03*
X005013Y016068D03*
X005013Y016093D03*
X005013Y016118D03*
X005013Y016143D03*
X005063Y016443D03*
X005063Y016468D03*
X005063Y016493D03*
X002688Y019343D03*
X002088Y017518D03*
X008763Y008543D03*
X008763Y008518D03*
X008763Y008493D03*
X008763Y008468D03*
X008763Y008443D03*
X008763Y008418D03*
X008763Y008393D03*
X008763Y008368D03*
X008763Y008343D03*
X008763Y008318D03*
X008763Y008293D03*
X008763Y008268D03*
X008763Y008243D03*
X008763Y008218D03*
X008763Y008193D03*
X010113Y008593D03*
X010113Y008618D03*
X010113Y008643D03*
X010113Y008668D03*
X010113Y008693D03*
X010113Y008718D03*
X010113Y008743D03*
X010113Y008768D03*
X013338Y007268D03*
X013563Y007043D03*
X014388Y008018D03*
X012938Y023793D03*
D251*
X012963Y023818D03*
X014438Y013568D03*
X014438Y007993D03*
X014438Y007043D03*
X013488Y007093D03*
X013388Y007193D03*
X009988Y007593D03*
X009988Y007618D03*
X009988Y007643D03*
X006438Y007493D03*
X006438Y007468D03*
X001888Y017718D03*
X002663Y024893D03*
D252*
X007562Y007068D03*
D253*
X007563Y007093D03*
D254*
X000638Y007118D03*
X000612Y007143D03*
X000612Y007893D03*
X000638Y007918D03*
X000612Y012768D03*
X000612Y013468D03*
X000913Y016868D03*
X002662Y019193D03*
X002662Y019218D03*
X002662Y019243D03*
X003113Y018268D03*
X002263Y024568D03*
X011788Y017893D03*
X011813Y017918D03*
X011862Y017993D03*
X011888Y018018D03*
X012513Y019268D03*
X012062Y024568D03*
X014513Y007918D03*
X014513Y007118D03*
D255*
X013463Y007118D03*
X013438Y007143D03*
X010013Y007818D03*
X008713Y007493D03*
X005163Y007593D03*
X005163Y007618D03*
X005163Y007643D03*
X001713Y007143D03*
X001688Y007118D03*
X007563Y012618D03*
X007563Y012643D03*
X013238Y017693D03*
D256*
X014238Y016868D03*
X011938Y018093D03*
X011838Y017968D03*
X014538Y013468D03*
X014538Y012768D03*
X014538Y007893D03*
X014538Y007143D03*
X007563Y012368D03*
X007563Y012393D03*
X007563Y012418D03*
X003238Y018093D03*
X003213Y018118D03*
X003188Y018168D03*
X003163Y018193D03*
X003138Y018243D03*
X003063Y018343D03*
X000888Y017618D03*
X000888Y016893D03*
X002138Y022968D03*
X002138Y023468D03*
X002138Y023868D03*
D257*
X005425Y007168D03*
D258*
X009725Y007168D03*
D259*
X012488Y008943D03*
X012463Y016068D03*
X005413Y007193D03*
X002663Y008943D03*
X002688Y016068D03*
D260*
X009738Y007193D03*
D261*
X010138Y007218D03*
D262*
X002975Y015518D03*
X002475Y007318D03*
D263*
X002425Y009168D03*
X004700Y007318D03*
D264*
X002525Y007518D03*
X012675Y007318D03*
D265*
X012663Y007343D03*
X012663Y007368D03*
X012663Y007393D03*
X012663Y007418D03*
X010613Y007493D03*
X002513Y007493D03*
X002513Y007468D03*
X002488Y007418D03*
X002488Y007393D03*
X002488Y007368D03*
X002488Y007343D03*
X002363Y009018D03*
X001588Y013843D03*
D266*
X002475Y016843D03*
X004675Y007343D03*
X012675Y016843D03*
D267*
X010588Y007468D03*
X003013Y015468D03*
D268*
X001500Y012493D03*
X012175Y015518D03*
X013550Y013843D03*
X013650Y012493D03*
X012625Y007493D03*
D269*
X011962Y007593D03*
X003187Y007593D03*
D270*
X003150Y007618D03*
D271*
X002450Y008493D03*
X007575Y014568D03*
X007575Y014593D03*
X007575Y014618D03*
X007575Y014643D03*
X007575Y014668D03*
X007575Y014693D03*
X007575Y014718D03*
X007575Y014743D03*
X007575Y014768D03*
X007575Y014793D03*
X007575Y014818D03*
X007575Y014843D03*
X007575Y014868D03*
X007575Y014893D03*
X007575Y014918D03*
X007575Y014943D03*
X007575Y014968D03*
X007575Y014993D03*
X007575Y015018D03*
X007575Y015043D03*
X007575Y015068D03*
X007575Y015093D03*
X007575Y015118D03*
X007575Y015143D03*
X002700Y016318D03*
X012000Y007618D03*
X012700Y008493D03*
X012450Y016318D03*
D272*
X012675Y008543D03*
X012025Y007643D03*
X003125Y007643D03*
D273*
X003100Y007668D03*
X002500Y008593D03*
D274*
X007575Y015693D03*
X007575Y015718D03*
X007575Y015743D03*
X007575Y015768D03*
X007575Y015793D03*
X007575Y015818D03*
X007575Y015843D03*
X007575Y015868D03*
X007575Y015893D03*
X007575Y015918D03*
X007575Y015943D03*
X007575Y015968D03*
X007575Y015993D03*
X007575Y016018D03*
X007575Y016043D03*
X007575Y016068D03*
X007575Y016093D03*
X012650Y008593D03*
X012050Y007668D03*
D275*
X003088Y007693D03*
D276*
X002513Y008618D03*
X012063Y007693D03*
X012637Y008618D03*
X012463Y016268D03*
D277*
X012625Y008643D03*
X012100Y007718D03*
D278*
X012125Y007743D03*
X012150Y007768D03*
X012625Y008668D03*
X012475Y016243D03*
X007575Y016493D03*
X007575Y016518D03*
X007575Y016543D03*
X007575Y016568D03*
X007575Y016593D03*
X007575Y016618D03*
X007575Y016643D03*
X007575Y016668D03*
X007575Y016693D03*
X007575Y016718D03*
X007575Y016743D03*
X007575Y016768D03*
X007575Y016793D03*
X002525Y008668D03*
X003000Y007768D03*
X003025Y007743D03*
D279*
X012175Y007793D03*
X012200Y007818D03*
X012600Y008718D03*
D280*
X002925Y007843D03*
X002900Y007868D03*
X002775Y007968D03*
X002725Y007993D03*
D281*
X006388Y008193D03*
X006388Y008218D03*
X006388Y008243D03*
X006388Y008268D03*
X006388Y008293D03*
X006388Y008318D03*
X006388Y008343D03*
X006388Y008368D03*
X006388Y008393D03*
X006388Y008418D03*
X006388Y008443D03*
X006388Y008468D03*
X006388Y008493D03*
X006388Y008518D03*
X006388Y008543D03*
X008738Y008043D03*
X008738Y008018D03*
X008738Y007993D03*
X008738Y007968D03*
X008738Y007943D03*
X008738Y007918D03*
X008738Y007893D03*
X008738Y007868D03*
X008738Y007843D03*
X008788Y008743D03*
X008788Y008768D03*
X008788Y008793D03*
X008788Y008818D03*
X008788Y008843D03*
X008788Y008868D03*
X008788Y008893D03*
X008788Y008918D03*
X008788Y008943D03*
X008788Y008968D03*
X010088Y008543D03*
X010088Y008518D03*
X010088Y008493D03*
X010088Y008468D03*
X010088Y008443D03*
X010088Y008418D03*
X010088Y008393D03*
X011513Y009168D03*
X011513Y009193D03*
X011513Y009218D03*
X012863Y014093D03*
X013063Y017518D03*
X013288Y017743D03*
X010188Y015568D03*
X010188Y015543D03*
X010188Y015518D03*
X010088Y016443D03*
X010088Y016468D03*
X010088Y016493D03*
X002213Y022868D03*
X001413Y018118D03*
D282*
X002575Y008768D03*
X002875Y007893D03*
X012225Y007843D03*
X012250Y007868D03*
X012275Y007893D03*
X012375Y007968D03*
X012575Y008768D03*
D283*
X012563Y008793D03*
X012337Y007943D03*
X012488Y016193D03*
X002837Y007918D03*
X002588Y008793D03*
D284*
X002813Y007943D03*
D285*
X012413Y007993D03*
D286*
X012475Y008018D03*
X002550Y008718D03*
D287*
X002288Y008043D03*
D288*
X012863Y008043D03*
D289*
X012850Y008068D03*
X012850Y008093D03*
X012375Y016468D03*
X002300Y008093D03*
X002300Y008068D03*
D290*
X002313Y008118D03*
X012838Y008118D03*
D291*
X002325Y008143D03*
D292*
X012825Y008143D03*
D293*
X002763Y016443D03*
X002338Y008168D03*
D294*
X012388Y016443D03*
X012813Y008168D03*
D295*
X012813Y008193D03*
X012813Y008218D03*
X002338Y008218D03*
X002338Y008193D03*
D296*
X002350Y008243D03*
X012400Y016418D03*
D297*
X012800Y008243D03*
X002750Y016418D03*
D298*
X002363Y008268D03*
X012788Y008268D03*
D299*
X002375Y008293D03*
D300*
X012775Y008293D03*
D301*
X012763Y008318D03*
X012413Y016393D03*
X002738Y016393D03*
X002388Y008318D03*
D302*
X002388Y008343D03*
X012763Y008343D03*
D303*
X012750Y008368D03*
X002400Y008368D03*
D304*
X002413Y008393D03*
X012737Y008393D03*
D305*
X012725Y008418D03*
X007575Y013143D03*
X007575Y013168D03*
X007575Y013193D03*
X007575Y013218D03*
X007575Y013243D03*
X007575Y013268D03*
X007575Y013293D03*
X007575Y013318D03*
X007575Y013343D03*
X007575Y013368D03*
X007575Y013393D03*
X007575Y013418D03*
X007575Y013443D03*
X007575Y013468D03*
X002425Y008418D03*
D306*
X002438Y008443D03*
X007563Y013493D03*
X007563Y013518D03*
X012713Y008443D03*
D307*
X007575Y013543D03*
X007575Y013568D03*
X007575Y013593D03*
X007575Y013618D03*
X007575Y013643D03*
X007575Y013668D03*
X007575Y013693D03*
X007575Y013718D03*
X007575Y013743D03*
X007575Y013768D03*
X007575Y013793D03*
X007575Y013818D03*
X007575Y013843D03*
X007575Y013868D03*
X007575Y013893D03*
X007575Y013918D03*
X007575Y013943D03*
X007575Y013968D03*
X007575Y013993D03*
X007575Y014018D03*
X007575Y014043D03*
X007575Y014068D03*
X007575Y014093D03*
X007575Y014118D03*
X007575Y014143D03*
X007575Y014168D03*
X007575Y014193D03*
X007575Y014218D03*
X007575Y014243D03*
X007575Y014268D03*
X007575Y014293D03*
X007575Y014318D03*
X007575Y014343D03*
X007575Y014368D03*
X007575Y014393D03*
X007575Y014418D03*
X007575Y014443D03*
X007575Y014468D03*
X007575Y014493D03*
X007575Y014518D03*
X002450Y008468D03*
D308*
X012700Y008468D03*
D309*
X007563Y015168D03*
X002463Y008518D03*
D310*
X012687Y008518D03*
D311*
X002488Y008568D03*
D312*
X012463Y016293D03*
X012663Y008568D03*
D313*
X002513Y008643D03*
D314*
X002538Y008693D03*
D315*
X012613Y008693D03*
D316*
X002563Y008743D03*
D317*
X002663Y016218D03*
X012488Y016218D03*
X012588Y008743D03*
D318*
X012550Y008818D03*
X002600Y008818D03*
D319*
X012538Y008843D03*
D320*
X002625Y008868D03*
D321*
X002650Y016143D03*
X012525Y008868D03*
D322*
X012513Y008893D03*
D323*
X012500Y008918D03*
X012475Y016093D03*
X002675Y016093D03*
X002650Y008918D03*
D324*
X012463Y008968D03*
X012463Y016043D03*
D325*
X012463Y008993D03*
X002688Y008993D03*
X002713Y015993D03*
D326*
X001563Y012368D03*
X012763Y009068D03*
D327*
X002400Y009143D03*
D328*
X012725Y009168D03*
D329*
X007575Y013118D03*
X002450Y009218D03*
D330*
X012813Y009768D03*
X012813Y009793D03*
X012813Y009818D03*
X013238Y013493D03*
X013738Y017918D03*
D331*
X007563Y013043D03*
X002313Y009943D03*
X002313Y009918D03*
X002313Y009893D03*
X001888Y012743D03*
D332*
X002275Y010068D03*
X002275Y010043D03*
X002275Y010018D03*
X002300Y009968D03*
X012850Y009968D03*
X012850Y009993D03*
X013250Y012768D03*
X012475Y024693D03*
D333*
X007563Y012993D03*
X002213Y010393D03*
X002213Y010368D03*
X002213Y010343D03*
X002238Y010293D03*
X002238Y010268D03*
X002238Y010243D03*
X001963Y013318D03*
X001963Y013343D03*
D334*
X013500Y013918D03*
X013600Y012393D03*
D335*
X012138Y015468D03*
X001538Y012418D03*
D336*
X001513Y012468D03*
D337*
X001487Y012518D03*
X002963Y015543D03*
X013588Y013818D03*
X013663Y012518D03*
D338*
X001475Y012543D03*
D339*
X001463Y012568D03*
X001463Y012593D03*
X013613Y013768D03*
D340*
X013688Y012593D03*
X013688Y012568D03*
X002938Y015568D03*
X001538Y013768D03*
D341*
X001500Y013693D03*
X001450Y012618D03*
X013625Y013718D03*
X013625Y013743D03*
D342*
X013700Y012618D03*
D343*
X013713Y012643D03*
X001438Y012643D03*
D344*
X000975Y016793D03*
X000975Y017718D03*
X011675Y017768D03*
X013125Y017593D03*
X013150Y017618D03*
X014175Y017718D03*
X014175Y016793D03*
X014475Y013543D03*
X014475Y012693D03*
D345*
X012500Y019293D03*
X003250Y018068D03*
X003200Y018143D03*
X000900Y017643D03*
X000625Y013493D03*
X000625Y012743D03*
X003025Y024593D03*
D346*
X002362Y017093D03*
X001937Y013418D03*
X007563Y013018D03*
D347*
X001463Y013593D03*
X013687Y013593D03*
D348*
X002925Y015618D03*
X001475Y013643D03*
X001475Y013618D03*
D349*
X012225Y015618D03*
X013675Y013643D03*
X013675Y013618D03*
D350*
X013663Y013668D03*
X012213Y015593D03*
D351*
X012200Y015568D03*
X013650Y013693D03*
X001525Y013718D03*
X001525Y013743D03*
D352*
X001563Y013818D03*
D353*
X001763Y013993D03*
D354*
X007563Y014543D03*
D355*
X012188Y015543D03*
D356*
X012250Y015643D03*
X002900Y015643D03*
D357*
X002888Y015668D03*
X012263Y015668D03*
D358*
X007563Y015668D03*
X002688Y016293D03*
D359*
X012275Y015693D03*
D360*
X002850Y015718D03*
D361*
X012300Y015718D03*
D362*
X002850Y015743D03*
D363*
X012300Y015743D03*
D364*
X012312Y015768D03*
X002838Y015768D03*
D365*
X002825Y015793D03*
X012325Y015793D03*
D366*
X002800Y015818D03*
D367*
X012350Y015818D03*
D368*
X012362Y015843D03*
X002788Y015843D03*
D369*
X002775Y015868D03*
D370*
X012375Y015868D03*
D371*
X012388Y015893D03*
X002763Y015893D03*
D372*
X012400Y015943D03*
D373*
X002700Y016018D03*
D374*
X010500Y016843D03*
X012450Y016018D03*
D375*
X012500Y016143D03*
D376*
X012500Y016168D03*
X002650Y016168D03*
D377*
X002675Y016243D03*
D378*
X002688Y016268D03*
D379*
X002712Y016343D03*
D380*
X012438Y016343D03*
D381*
X002725Y016368D03*
D382*
X012425Y016368D03*
D383*
X002775Y016468D03*
D384*
X002788Y016493D03*
X012363Y016493D03*
D385*
X003138Y016518D03*
D386*
X012013Y016518D03*
D387*
X012025Y016543D03*
X003125Y016543D03*
D388*
X003113Y016568D03*
X003113Y016593D03*
D389*
X012037Y016593D03*
X012037Y016568D03*
D390*
X012050Y016618D03*
D391*
X003087Y016643D03*
D392*
X012063Y016643D03*
D393*
X003075Y016668D03*
D394*
X012063Y016668D03*
D395*
X003075Y016693D03*
X003075Y016718D03*
D396*
X003075Y016743D03*
D397*
X012075Y016743D03*
D398*
X003513Y016768D03*
D399*
X011637Y016768D03*
D400*
X003613Y016793D03*
D401*
X011538Y016793D03*
D402*
X003713Y016818D03*
D403*
X007563Y016818D03*
D404*
X011438Y016818D03*
D405*
X004650Y016843D03*
D406*
X007575Y016868D03*
X007575Y017568D03*
D407*
X007588Y016893D03*
X007588Y019243D03*
D408*
X007575Y017543D03*
X007575Y016918D03*
D409*
X007575Y016943D03*
X007600Y019218D03*
D410*
X007575Y016968D03*
D411*
X007575Y016993D03*
X007575Y017443D03*
D412*
X007575Y017418D03*
X007575Y017018D03*
D413*
X007575Y017043D03*
X007575Y017393D03*
D414*
X007575Y017368D03*
X007575Y017068D03*
D415*
X007575Y017093D03*
X007575Y017343D03*
X007600Y019093D03*
D416*
X007588Y017293D03*
X007588Y017118D03*
D417*
X007588Y017143D03*
X007588Y017268D03*
D418*
X012825Y017168D03*
D419*
X007587Y017318D03*
D420*
X007588Y017468D03*
D421*
X007588Y017493D03*
D422*
X007588Y017518D03*
D423*
X007575Y017593D03*
D424*
X007588Y017618D03*
D425*
X007613Y017643D03*
X007588Y018068D03*
D426*
X003450Y017818D03*
X002675Y019318D03*
X012975Y022918D03*
X012975Y023543D03*
X013200Y017668D03*
X013175Y017643D03*
D427*
X007600Y017668D03*
X007600Y017918D03*
D428*
X007600Y017868D03*
X007600Y017693D03*
D429*
X007600Y017743D03*
X007600Y017768D03*
X007600Y017793D03*
D430*
X007600Y017893D03*
D431*
X007600Y017968D03*
D432*
X007588Y017993D03*
D433*
X007588Y018018D03*
D434*
X007588Y018043D03*
D435*
X007600Y018093D03*
D436*
X007600Y018143D03*
D437*
X007600Y018193D03*
D438*
X007600Y018243D03*
D439*
X007588Y018293D03*
D440*
X007588Y018318D03*
D441*
X007588Y018343D03*
D442*
X007588Y018368D03*
D443*
X007600Y018393D03*
D444*
X007600Y018443D03*
D445*
X007600Y018493D03*
D446*
X007600Y018543D03*
D447*
X007588Y018568D03*
D448*
X007588Y018593D03*
D449*
X007588Y018618D03*
D450*
X007588Y018643D03*
D451*
X007600Y018668D03*
D452*
X007600Y018718D03*
D453*
X007600Y018793D03*
D454*
X007600Y018818D03*
D455*
X007588Y018843D03*
D456*
X007588Y018868D03*
D457*
X007588Y018893D03*
D458*
X007588Y018918D03*
D459*
X007588Y018943D03*
D460*
X007600Y018968D03*
D461*
X007600Y018993D03*
D462*
X007600Y019018D03*
D463*
X007600Y019043D03*
D464*
X007600Y019068D03*
D465*
X007600Y019118D03*
D466*
X007588Y019143D03*
D467*
X007588Y019168D03*
D468*
X007600Y019193D03*
D469*
X007600Y019268D03*
D470*
X007600Y019293D03*
D471*
X007588Y019318D03*
D472*
X007600Y019343D03*
D473*
X007575Y019368D03*
X007575Y019393D03*
D474*
X007575Y019418D03*
X007575Y019443D03*
X007575Y019468D03*
D475*
X007588Y019493D03*
D476*
X007575Y019518D03*
X007575Y019543D03*
X007575Y019568D03*
D477*
X007588Y019593D03*
X007988Y023768D03*
D478*
X007575Y019668D03*
X007575Y019643D03*
X007575Y019618D03*
D479*
X007588Y019693D03*
D480*
X007575Y019718D03*
X007575Y019743D03*
X007575Y019768D03*
X007575Y019793D03*
D481*
X007575Y019818D03*
X007575Y019843D03*
X007575Y019868D03*
X007575Y019893D03*
X007575Y019918D03*
D482*
X007588Y019943D03*
D483*
X007575Y019968D03*
D484*
X007562Y019993D03*
D485*
X007575Y020018D03*
D486*
X007575Y020043D03*
D487*
X007575Y020068D03*
D488*
X007575Y020093D03*
D489*
X007575Y020118D03*
X007575Y020143D03*
D490*
X007575Y020168D03*
X007575Y020193D03*
X007575Y020218D03*
D491*
X007575Y020243D03*
X007575Y020268D03*
X007575Y020293D03*
X007575Y020318D03*
X007575Y020343D03*
X007575Y020368D03*
X007575Y020393D03*
X007575Y020418D03*
X007575Y020443D03*
X007575Y020468D03*
X007575Y020493D03*
X007575Y020518D03*
X007575Y020543D03*
X007575Y020568D03*
X007575Y020593D03*
X007575Y020618D03*
X007575Y020643D03*
X007575Y020668D03*
X007575Y020693D03*
X007575Y020718D03*
X007575Y020743D03*
X007575Y020768D03*
X007575Y020793D03*
X007575Y020818D03*
X007575Y020843D03*
X007575Y020868D03*
X007575Y020893D03*
X007575Y020918D03*
X007575Y020943D03*
X007575Y020968D03*
X007575Y020993D03*
X007575Y021018D03*
X007575Y021043D03*
X007575Y021068D03*
X007575Y021093D03*
X007575Y021118D03*
X007575Y021143D03*
X007575Y021168D03*
X007575Y021193D03*
X007575Y021218D03*
X007575Y021243D03*
X007575Y021268D03*
X007575Y021293D03*
X007575Y021318D03*
X007575Y021343D03*
X007575Y021368D03*
X007575Y021393D03*
X007575Y021418D03*
X007575Y021443D03*
X007575Y021468D03*
X007575Y021493D03*
X007575Y021518D03*
X007575Y021543D03*
X007575Y021568D03*
X007575Y021593D03*
X007575Y021618D03*
X007575Y021643D03*
X007575Y021668D03*
X007575Y021693D03*
X007575Y021718D03*
X007575Y021743D03*
X007575Y021768D03*
X007575Y021793D03*
X007575Y021818D03*
X007575Y021843D03*
X007575Y021868D03*
X007575Y021893D03*
X007575Y021918D03*
X007575Y021943D03*
X007575Y021968D03*
X007575Y021993D03*
X007575Y022018D03*
X007575Y022043D03*
X007575Y022068D03*
X007575Y022093D03*
X007575Y022118D03*
X007575Y022143D03*
X007575Y022168D03*
X007575Y022193D03*
X007575Y022218D03*
X007575Y022243D03*
X007575Y022268D03*
X007575Y022293D03*
X007575Y022318D03*
X007575Y022343D03*
X007575Y022368D03*
X007575Y022393D03*
X007575Y022418D03*
X007575Y022443D03*
X007575Y022468D03*
X007575Y022493D03*
X007575Y022518D03*
X007575Y022543D03*
X007575Y022568D03*
X007575Y022593D03*
X007575Y022618D03*
X007575Y022643D03*
X007575Y022668D03*
X007575Y022693D03*
X007575Y022718D03*
X007575Y022743D03*
X007575Y022768D03*
X007575Y022793D03*
X007575Y022818D03*
X007575Y022843D03*
X007575Y023618D03*
X007575Y023643D03*
X007575Y023668D03*
X007575Y023693D03*
X007575Y023718D03*
X007575Y023743D03*
D492*
X007563Y023593D03*
X007588Y022868D03*
D493*
X007575Y022893D03*
D494*
X007575Y022918D03*
D495*
X007575Y022943D03*
X007575Y023518D03*
D496*
X007575Y023493D03*
X007575Y023868D03*
X007575Y022968D03*
D497*
X007575Y022993D03*
X007575Y023468D03*
X007575Y023893D03*
D498*
X007575Y023918D03*
X007575Y023418D03*
X007575Y023043D03*
X007575Y023018D03*
D499*
X007575Y023068D03*
X007575Y023093D03*
X007575Y023368D03*
X007575Y023393D03*
X007575Y023943D03*
X007575Y023968D03*
D500*
X007575Y023993D03*
X007575Y023343D03*
X007575Y023318D03*
X007575Y023293D03*
X007575Y023268D03*
X007575Y023193D03*
X007575Y023168D03*
X007575Y023143D03*
X007575Y023118D03*
D501*
X007563Y023218D03*
X007563Y023243D03*
D502*
X007563Y023443D03*
D503*
X007563Y023543D03*
D504*
X007562Y023568D03*
D505*
X007588Y023793D03*
D506*
X007575Y023818D03*
D507*
X007588Y023843D03*
D508*
X007587Y024018D03*
D509*
X007575Y024043D03*
X007575Y024068D03*
D510*
X003263Y024093D03*
X003263Y024118D03*
X003263Y024143D03*
X003263Y024168D03*
X003263Y024193D03*
X003263Y024218D03*
X003238Y024293D03*
X003238Y024318D03*
X003213Y024368D03*
X003213Y024393D03*
X002063Y024168D03*
X011888Y024168D03*
X011888Y024193D03*
X011888Y024218D03*
X011888Y024243D03*
X011888Y024268D03*
X011888Y024293D03*
X013013Y024418D03*
X013038Y024368D03*
X013038Y024343D03*
D511*
X013063Y024318D03*
X013063Y024293D03*
X013063Y024268D03*
X013063Y024243D03*
X013063Y024218D03*
X013063Y024193D03*
X013063Y024168D03*
X011913Y024318D03*
X011913Y024343D03*
X002113Y024343D03*
X002113Y024368D03*
X002088Y024318D03*
X002088Y024293D03*
X002088Y024268D03*
X002088Y024243D03*
X002088Y024218D03*
D512*
X002075Y024193D03*
D513*
X003225Y024343D03*
X003250Y024268D03*
X003250Y024243D03*
D514*
X002663Y024943D03*
D515*
X003939Y023759D02*
X003919Y023679D01*
X003904Y023597D01*
X003892Y023513D01*
X003886Y023429D01*
X003883Y023342D01*
X003883Y023015D01*
X003802Y023015D01*
X003802Y022106D01*
X003802Y020915D02*
X003802Y019556D01*
X006297Y017438D01*
X009053Y017438D01*
X011548Y019556D01*
X011548Y020915D01*
X011548Y022106D02*
X011548Y023015D01*
X011395Y023015D01*
X011395Y023342D01*
X011393Y023429D01*
X011386Y023513D01*
X011375Y023597D01*
X011359Y023679D01*
X011339Y023759D01*
X011315Y023838D01*
X011287Y023915D01*
X011256Y023990D01*
X011220Y024063D01*
X011181Y024134D01*
X011139Y024202D01*
X011093Y024269D01*
X011044Y024332D01*
X010991Y024393D01*
X010936Y024451D01*
X010878Y024506D01*
X010817Y024559D01*
X010753Y024608D01*
X010687Y024654D01*
X010619Y024696D01*
X010548Y024735D01*
X010475Y024771D01*
X010400Y024803D01*
X010323Y024830D01*
X010244Y024854D01*
X010164Y024874D01*
X010082Y024890D01*
X009998Y024901D01*
X009913Y024908D01*
X009827Y024910D01*
X009531Y024910D01*
X009490Y024850D01*
X009447Y024791D01*
X009402Y024733D01*
X009355Y024677D01*
X009306Y024622D01*
X009256Y024569D01*
X009204Y024518D01*
X009150Y024469D01*
X009095Y024421D01*
X009038Y024375D01*
X008980Y024330D01*
X008920Y024288D01*
X008859Y024247D01*
X008796Y024209D01*
X008732Y024172D01*
X008667Y024138D01*
X008601Y024105D01*
X008533Y024075D01*
X008465Y024047D01*
X008395Y024021D01*
X008324Y023997D01*
X008252Y023976D01*
X008179Y023957D01*
X008105Y023940D01*
X008031Y023926D01*
X007955Y023914D01*
X007879Y023905D01*
X007802Y023899D01*
X007724Y023895D01*
X007645Y023893D01*
X007567Y023895D01*
X007489Y023899D01*
X007412Y023905D01*
X007335Y023914D01*
X007260Y023926D01*
X007185Y023940D01*
X007111Y023957D01*
X007039Y023976D01*
X006967Y023997D01*
X006896Y024021D01*
X006826Y024047D01*
X006757Y024075D01*
X006690Y024105D01*
X006623Y024138D01*
X006558Y024172D01*
X006494Y024209D01*
X006432Y024247D01*
X006371Y024288D01*
X006311Y024330D01*
X006253Y024375D01*
X006196Y024421D01*
X006141Y024469D01*
X006087Y024518D01*
X006035Y024569D01*
X005985Y024622D01*
X005936Y024677D01*
X005889Y024733D01*
X005844Y024791D01*
X005801Y024850D01*
X005760Y024910D01*
X005451Y024910D01*
X005365Y024908D01*
X005280Y024901D01*
X005197Y024890D01*
X005115Y024874D01*
X005034Y024854D01*
X004956Y024830D01*
X004879Y024803D01*
X004804Y024771D01*
X004731Y024735D01*
X004660Y024696D01*
X004591Y024654D01*
X004525Y024608D01*
X004462Y024559D01*
X004401Y024506D01*
X004342Y024451D01*
X004287Y024393D01*
X004235Y024332D01*
X004186Y024269D01*
X004140Y024202D01*
X004097Y024134D01*
X004058Y024063D01*
X004023Y023990D01*
X003991Y023915D01*
X003963Y023838D01*
X003939Y023759D01*
D516*
X006734Y016811D02*
X007167Y016811D01*
X006734Y016811D02*
X006734Y014725D01*
X006159Y014725D01*
X006159Y013937D01*
X006734Y013937D01*
X006734Y013425D01*
X007167Y013425D01*
X006734Y013937D02*
X006734Y014725D01*
X008033Y013425D02*
X008466Y013425D01*
X008466Y016811D01*
X008033Y016811D01*
M02*
