G75*
G70*
%OFA0B0*%
%FSLAX24Y24*%
%IPPOS*%
%LPD*%
%AMOC8*
5,1,8,0,0,1.08239X$1,22.5*
%
%ADD10C,0.0070*%
%ADD11R,0.0014X0.0086*%
%ADD12R,0.0014X0.0071*%
%ADD13R,0.0014X0.0114*%
%ADD14R,0.0014X0.0129*%
%ADD15R,0.0014X0.0186*%
%ADD16R,0.0014X0.0214*%
%ADD17R,0.0014X0.0029*%
%ADD18R,0.0014X0.0028*%
%ADD19R,0.0014X0.0200*%
%ADD20R,0.0014X0.0228*%
%ADD21R,0.0014X0.0215*%
%ADD22R,0.0014X0.0243*%
%ADD23R,0.0014X0.0229*%
%ADD24R,0.0014X0.0257*%
%ADD25R,0.0014X0.0029*%
%ADD26R,0.0014X0.0028*%
%ADD27R,0.0014X0.0243*%
%ADD28R,0.0014X0.0271*%
%ADD29R,0.0014X0.0029*%
%ADD30R,0.0014X0.0028*%
%ADD31R,0.0014X0.0257*%
%ADD32R,0.0014X0.0085*%
%ADD33R,0.0014X0.0271*%
%ADD34R,0.0014X0.0257*%
%ADD35R,0.0014X0.0114*%
%ADD36R,0.0014X0.0271*%
%ADD37R,0.0014X0.0257*%
%ADD38R,0.0014X0.0143*%
%ADD39R,0.0014X0.0057*%
%ADD40R,0.0014X0.0057*%
%ADD41R,0.0014X0.0257*%
%ADD42R,0.0014X0.0042*%
%ADD43R,0.0014X0.0228*%
%ADD44R,0.0014X0.0229*%
%ADD45R,0.0014X0.0043*%
%ADD46R,0.0014X0.0214*%
%ADD47R,0.0014X0.0215*%
%ADD48R,0.0014X0.0043*%
%ADD49R,0.0014X0.0200*%
%ADD50R,0.0014X0.0043*%
%ADD51R,0.0014X0.0157*%
%ADD52R,0.0014X0.0114*%
%ADD53R,0.0014X0.0100*%
%ADD54R,0.0014X0.0014*%
%ADD55R,0.0014X0.0015*%
%ADD56R,0.0014X0.0286*%
%ADD57R,0.0014X0.0514*%
%ADD58R,0.0014X0.0686*%
%ADD59R,0.0014X0.0800*%
%ADD60R,0.0014X0.0914*%
%ADD61R,0.0014X0.1028*%
%ADD62R,0.0014X0.1114*%
%ADD63R,0.0014X0.1172*%
%ADD64R,0.0014X0.1258*%
%ADD65R,0.0014X0.1342*%
%ADD66R,0.0014X0.1400*%
%ADD67R,0.0014X0.1458*%
%ADD68R,0.0014X0.1514*%
%ADD69R,0.0014X0.1572*%
%ADD70R,0.0014X0.1628*%
%ADD71R,0.0014X0.1686*%
%ADD72R,0.0014X0.0714*%
%ADD73R,0.0014X0.0643*%
%ADD74R,0.0014X0.0600*%
%ADD75R,0.0014X0.0558*%
%ADD76R,0.0014X0.0528*%
%ADD77R,0.0014X0.0500*%
%ADD78R,0.0014X0.0486*%
%ADD79R,0.0014X0.0471*%
%ADD80R,0.0014X0.0443*%
%ADD81R,0.0014X0.0443*%
%ADD82R,0.0014X0.0428*%
%ADD83R,0.0014X0.0400*%
%ADD84R,0.0014X0.0415*%
%ADD85R,0.0014X0.0572*%
%ADD86R,0.0014X0.0686*%
%ADD87R,0.0014X0.0385*%
%ADD88R,0.0014X0.0271*%
%ADD89R,0.0014X0.0386*%
%ADD90R,0.0014X0.0214*%
%ADD91R,0.0014X0.0386*%
%ADD92R,0.0014X0.0171*%
%ADD93R,0.0014X0.0371*%
%ADD94R,0.0014X0.0157*%
%ADD95R,0.0014X0.0286*%
%ADD96R,0.0014X0.0372*%
%ADD97R,0.0014X0.0458*%
%ADD98R,0.0014X0.0357*%
%ADD99R,0.0014X0.0128*%
%ADD100R,0.0014X0.0600*%
%ADD101R,0.0014X0.0129*%
%ADD102R,0.0014X0.0714*%
%ADD103R,0.0014X0.0343*%
%ADD104R,0.0014X0.0115*%
%ADD105R,0.0014X0.0800*%
%ADD106R,0.0014X0.0343*%
%ADD107R,0.0014X0.0858*%
%ADD108R,0.0014X0.0343*%
%ADD109R,0.0014X0.0115*%
%ADD110R,0.0014X0.0942*%
%ADD111R,0.0014X0.0328*%
%ADD112R,0.0014X0.1000*%
%ADD113R,0.0014X0.0314*%
%ADD114R,0.0014X0.1086*%
%ADD115R,0.0014X0.0315*%
%ADD116R,0.0014X0.1142*%
%ADD117R,0.0014X0.0314*%
%ADD118R,0.0014X0.1200*%
%ADD119R,0.0014X0.0086*%
%ADD120R,0.0014X0.0857*%
%ADD121R,0.0014X0.0315*%
%ADD122R,0.0014X0.0100*%
%ADD123R,0.0014X0.0400*%
%ADD124R,0.0014X0.0457*%
%ADD125R,0.0014X0.0314*%
%ADD126R,0.0014X0.0428*%
%ADD127R,0.0014X0.0429*%
%ADD128R,0.0014X0.0400*%
%ADD129R,0.0014X0.0300*%
%ADD130R,0.0014X0.0086*%
%ADD131R,0.0014X0.0414*%
%ADD132R,0.0014X0.0415*%
%ADD133R,0.0014X0.0300*%
%ADD134R,0.0014X0.0085*%
%ADD135R,0.0014X0.0457*%
%ADD136R,0.0014X0.0386*%
%ADD137R,0.0014X0.0443*%
%ADD138R,0.0014X0.0472*%
%ADD139R,0.0014X0.0371*%
%ADD140R,0.0014X0.0485*%
%ADD141R,0.0014X0.0486*%
%ADD142R,0.0014X0.0157*%
%ADD143R,0.0014X0.0472*%
%ADD144R,0.0014X0.0285*%
%ADD145R,0.0014X0.0072*%
%ADD146R,0.0014X0.0457*%
%ADD147R,0.0014X0.0186*%
%ADD148R,0.0014X0.0071*%
%ADD149R,0.0014X0.0428*%
%ADD150R,0.0014X0.0071*%
%ADD151R,0.0014X0.0072*%
%ADD152R,0.0014X0.0272*%
%ADD153R,0.0014X0.0557*%
%ADD154R,0.0014X0.0542*%
%ADD155R,0.0014X0.0071*%
%ADD156R,0.0014X0.0285*%
%ADD157R,0.0014X0.0072*%
%ADD158R,0.0014X0.0614*%
%ADD159R,0.0014X0.0214*%
%ADD160R,0.0014X0.0271*%
%ADD161R,0.0014X0.0257*%
%ADD162R,0.0014X0.0357*%
%ADD163R,0.0014X0.0272*%
%ADD164R,0.0014X0.0329*%
%ADD165R,0.0014X0.0328*%
%ADD166R,0.0014X0.0329*%
%ADD167R,0.0014X0.0514*%
%ADD168R,0.0014X0.0071*%
%ADD169R,0.0014X0.0557*%
%ADD170R,0.0014X0.0258*%
%ADD171R,0.0014X0.0314*%
%ADD172R,0.0014X0.1028*%
%ADD173R,0.0014X0.0258*%
%ADD174R,0.0014X0.0057*%
%ADD175R,0.0014X0.1028*%
%ADD176R,0.0014X0.0058*%
%ADD177R,0.0014X0.0471*%
%ADD178R,0.0014X0.0429*%
%ADD179R,0.0014X0.0014*%
%ADD180R,0.0014X0.0372*%
%ADD181R,0.0014X0.0242*%
%ADD182R,0.0014X0.0057*%
%ADD183R,0.0014X0.0414*%
%ADD184R,0.0014X0.0057*%
%ADD185R,0.0014X0.0042*%
%ADD186R,0.0014X0.1714*%
%ADD187R,0.0014X0.0371*%
%ADD188R,0.0014X0.1728*%
%ADD189R,0.0014X0.1714*%
%ADD190R,0.0014X0.1700*%
%ADD191R,0.0014X0.0771*%
%ADD192R,0.0014X0.1686*%
%ADD193R,0.0014X0.0243*%
%ADD194R,0.0014X0.0058*%
%ADD195R,0.0014X0.0743*%
%ADD196R,0.0014X0.0042*%
%ADD197R,0.0014X0.1657*%
%ADD198R,0.0014X0.0058*%
%ADD199R,0.0014X0.0729*%
%ADD200R,0.0014X0.1643*%
%ADD201R,0.0014X0.0672*%
%ADD202R,0.0014X0.0157*%
%ADD203R,0.0014X0.0643*%
%ADD204R,0.0014X0.0614*%
%ADD205R,0.0014X0.1328*%
%ADD206R,0.0014X0.0586*%
%ADD207R,0.0014X0.0158*%
%ADD208R,0.0014X0.1328*%
%ADD209R,0.0014X0.0557*%
%ADD210R,0.0014X0.1314*%
%ADD211R,0.0014X0.0571*%
%ADD212R,0.0014X0.1300*%
%ADD213R,0.0014X0.0571*%
%ADD214R,0.0014X0.1285*%
%ADD215R,0.0014X0.0586*%
%ADD216R,0.0014X0.1257*%
%ADD217R,0.0014X0.1243*%
%ADD218R,0.0014X0.1229*%
%ADD219R,0.0014X0.0242*%
%ADD220R,0.0014X0.1214*%
%ADD221R,0.0014X0.0057*%
%ADD222R,0.0014X0.0600*%
%ADD223R,0.0014X0.0014*%
%ADD224R,0.0014X0.0300*%
%ADD225R,0.0014X0.0185*%
%ADD226R,0.0014X0.0143*%
%ADD227R,0.0014X0.1200*%
%ADD228R,0.0014X0.0185*%
%ADD229R,0.0014X0.0185*%
%ADD230R,0.0014X0.0142*%
%ADD231R,0.0014X0.1157*%
%ADD232R,0.0014X0.1128*%
%ADD233R,0.0014X0.1100*%
%ADD234R,0.0014X0.1058*%
%ADD235R,0.0014X0.0143*%
%ADD236R,0.0014X0.0229*%
%ADD237R,0.0014X0.0629*%
%ADD238R,0.0014X0.0085*%
%ADD239R,0.0014X0.0986*%
%ADD240R,0.0014X0.0629*%
%ADD241R,0.0014X0.0943*%
%ADD242R,0.0014X0.0629*%
%ADD243R,0.0014X0.0914*%
%ADD244R,0.0014X0.0871*%
%ADD245R,0.0014X0.0843*%
%ADD246R,0.0014X0.0800*%
%ADD247R,0.0014X0.0643*%
%ADD248R,0.0014X0.0771*%
%ADD249R,0.0014X0.0100*%
%ADD250R,0.0014X0.0700*%
%ADD251R,0.0014X0.0657*%
%ADD252R,0.0014X0.0628*%
%ADD253R,0.0014X0.0558*%
%ADD254R,0.0014X0.0514*%
%ADD255R,0.0014X0.0414*%
%ADD256R,0.0014X0.0657*%
%ADD257R,0.0014X0.0286*%
%ADD258R,0.0014X0.4342*%
%ADD259R,0.0014X0.4342*%
%ADD260R,0.0014X0.0157*%
%ADD261R,0.0014X0.0315*%
%ADD262R,0.0014X0.4342*%
%ADD263R,0.0014X0.0357*%
%ADD264R,0.0014X0.0214*%
%ADD265R,0.0014X0.0158*%
%ADD266R,0.0014X0.0271*%
%ADD267R,0.0014X0.0415*%
%ADD268R,0.0014X0.0214*%
%ADD269R,0.0014X0.0129*%
%ADD270R,0.0014X0.0429*%
%ADD271R,0.0014X0.0457*%
%ADD272R,0.0014X0.0500*%
%ADD273R,0.0014X0.0515*%
%ADD274R,0.0014X0.0529*%
%ADD275R,0.0014X0.0142*%
%ADD276R,0.0014X0.0543*%
%ADD277R,0.0014X0.0615*%
%ADD278R,0.0014X0.0558*%
%ADD279R,0.0014X0.0142*%
%ADD280R,0.0014X0.0700*%
%ADD281R,0.0014X0.0115*%
%ADD282R,0.0014X0.0715*%
%ADD283R,0.0014X0.0743*%
%ADD284R,0.0014X0.0772*%
%ADD285R,0.0014X0.0786*%
%ADD286R,0.0014X0.0815*%
%ADD287R,0.0014X0.1072*%
%ADD288R,0.0014X0.1115*%
%ADD289R,0.0014X0.0457*%
%ADD290R,0.0014X0.1129*%
%ADD291R,0.0014X0.0686*%
%ADD292R,0.0014X0.0457*%
%ADD293R,0.0014X0.1143*%
%ADD294R,0.0014X0.1143*%
%ADD295R,0.0014X0.1000*%
%ADD296R,0.0014X0.0872*%
%ADD297R,0.0014X0.0872*%
%ADD298R,0.0014X0.0542*%
%ADD299R,0.0014X0.1000*%
%ADD300R,0.0014X0.0872*%
%ADD301R,0.0014X0.0542*%
%ADD302R,0.0014X0.0357*%
%ADD303R,0.0014X0.0172*%
%ADD304R,0.0014X0.0486*%
%ADD305R,0.0014X0.0172*%
%ADD306R,0.0014X0.0171*%
%ADD307R,0.0014X0.0171*%
%ADD308R,0.0014X0.0172*%
%ADD309R,0.0014X0.0314*%
%ADD310R,0.0014X0.0500*%
%ADD311R,0.0014X0.0515*%
%ADD312R,0.0014X0.0158*%
%ADD313R,0.0014X0.0515*%
%ADD314R,0.0014X0.0258*%
%ADD315R,0.0014X0.0228*%
%ADD316R,0.0014X0.0529*%
%ADD317R,0.0014X0.0228*%
%ADD318R,0.0014X0.0529*%
%ADD319R,0.0014X0.0171*%
%ADD320R,0.0014X0.0171*%
%ADD321R,0.0014X0.0543*%
%ADD322R,0.0014X0.0071*%
%ADD323R,0.0014X0.0543*%
%ADD324R,0.0014X0.0328*%
%ADD325R,0.0014X0.0272*%
%ADD326R,0.0014X0.0471*%
%ADD327R,0.0014X0.0472*%
%ADD328R,0.0014X0.0186*%
%ADD329R,0.0014X0.0128*%
%ADD330R,0.0014X0.0014*%
%ADD331R,0.0014X0.0357*%
%ADD332R,0.0014X0.0357*%
%ADD333R,0.0014X0.0015*%
%ADD334R,0.0014X0.0028*%
%ADD335R,0.0014X0.0028*%
%ADD336R,0.0014X0.0528*%
%ADD337R,0.0014X0.0371*%
%ADD338R,0.0014X0.0371*%
%ADD339R,0.0014X0.0372*%
%ADD340R,0.0014X0.0586*%
%ADD341R,0.0014X0.0329*%
%ADD342R,0.0014X0.0200*%
%ADD343R,0.0014X0.0114*%
%ADD344R,0.0014X0.0572*%
%ADD345R,0.0014X0.0014*%
%ADD346R,0.0014X0.0572*%
%ADD347R,0.0014X0.0015*%
%ADD348R,0.0014X0.0342*%
%ADD349R,0.0014X0.0385*%
%ADD350R,0.0014X0.0342*%
%ADD351R,0.0014X0.0314*%
%ADD352R,0.0014X0.0514*%
%ADD353R,0.0014X0.0371*%
%ADD354R,0.0014X0.0342*%
%ADD355R,0.0014X0.0471*%
%ADD356R,0.0014X0.0471*%
%ADD357R,0.0014X0.0414*%
%ADD358R,0.0017X0.0033*%
%ADD359R,0.0017X0.0050*%
%ADD360R,0.0017X0.0050*%
%ADD361R,0.0017X0.0067*%
%ADD362R,0.0017X0.0084*%
%ADD363R,0.0017X0.0117*%
%ADD364R,0.0017X0.0133*%
%ADD365R,0.0017X0.0150*%
%ADD366R,0.0017X0.0150*%
%ADD367R,0.0017X0.0167*%
%ADD368R,0.0017X0.0016*%
%ADD369R,0.0017X0.0217*%
%ADD370R,0.0017X0.0217*%
%ADD371R,0.0017X0.0233*%
%ADD372R,0.0017X0.0250*%
%ADD373R,0.0017X0.0250*%
%ADD374R,0.0017X0.0316*%
%ADD375R,0.0017X0.0317*%
%ADD376R,0.0017X0.0350*%
%ADD377R,0.0017X0.0383*%
%ADD378R,0.0017X0.0400*%
%ADD379R,0.0017X0.0417*%
%ADD380R,0.0017X0.0417*%
%ADD381R,0.0017X0.0433*%
%ADD382R,0.0017X0.0017*%
%ADD383R,0.0017X0.0450*%
%ADD384R,0.0017X0.0017*%
%ADD385R,0.0017X0.0483*%
%ADD386R,0.0017X0.0016*%
%ADD387R,0.0017X0.0500*%
%ADD388R,0.0017X0.0516*%
%ADD389R,0.0017X0.0517*%
%ADD390R,0.0017X0.0533*%
%ADD391R,0.0017X0.0583*%
%ADD392R,0.0017X0.0583*%
%ADD393R,0.0017X0.0600*%
%ADD394R,0.0017X0.0616*%
%ADD395R,0.0017X0.0617*%
%ADD396R,0.0017X0.0034*%
%ADD397R,0.0017X0.0633*%
%ADD398R,0.0017X0.0717*%
%ADD399R,0.0017X0.0716*%
%ADD400R,0.0017X0.0733*%
%ADD401R,0.0017X0.0084*%
%ADD402R,0.0017X0.1683*%
%ADD403R,0.0017X0.0850*%
%ADD404R,0.0017X0.1184*%
%ADD405R,0.0017X0.0083*%
%ADD406R,0.0017X0.0066*%
%ADD407R,0.0017X0.0117*%
%ADD408R,0.0017X0.0100*%
%ADD409R,0.0017X0.0116*%
%ADD410R,0.0017X0.1266*%
%ADD411R,0.0017X0.1417*%
%ADD412R,0.0017X0.1750*%
%ADD413R,0.0017X0.0517*%
%ADD414R,0.0017X0.1483*%
%ADD415R,0.0017X0.0183*%
%ADD416R,0.0017X0.2716*%
%ADD417R,0.0017X0.3816*%
%ADD418R,0.0017X0.0033*%
%ADD419R,0.0017X0.0317*%
%ADD420R,0.0017X0.0167*%
%ADD421R,0.0017X0.3083*%
%ADD422R,0.0017X0.4167*%
%ADD423R,0.0017X0.0034*%
%ADD424R,0.0017X0.0383*%
%ADD425R,0.0017X0.0216*%
%ADD426R,0.0017X0.2750*%
%ADD427R,0.0017X0.4283*%
%ADD428R,0.0017X0.0184*%
%ADD429R,0.0017X0.1116*%
%ADD430R,0.0017X0.1950*%
%ADD431R,0.0017X0.2117*%
%ADD432R,0.0017X0.0184*%
%ADD433R,0.0017X0.0083*%
%ADD434R,0.0017X0.1650*%
%ADD435R,0.0017X0.2650*%
%ADD436R,0.0017X0.1250*%
%ADD437R,0.0017X0.3083*%
%ADD438R,0.0017X0.4633*%
%ADD439R,0.0017X0.4250*%
%ADD440R,0.0017X0.4484*%
%ADD441R,0.0017X0.4584*%
%ADD442R,0.0017X0.9116*%
%ADD443R,0.0017X0.9117*%
%ADD444R,0.0017X0.9117*%
%ADD445R,0.0017X0.9150*%
%ADD446R,0.0017X0.6333*%
%ADD447R,0.0017X0.2767*%
%ADD448R,0.0017X0.6367*%
%ADD449R,0.0017X0.2517*%
%ADD450R,0.0017X0.6617*%
%ADD451R,0.0017X0.2517*%
%ADD452R,0.0017X0.6384*%
%ADD453R,0.0017X0.2466*%
%ADD454R,0.0017X0.2366*%
%ADD455R,0.0017X0.6366*%
%ADD456R,0.0017X0.2467*%
%ADD457R,0.0017X0.6350*%
%ADD458R,0.0017X0.2383*%
%ADD459R,0.0017X0.6383*%
%ADD460R,0.0017X0.2467*%
%ADD461R,0.0017X0.2400*%
%ADD462R,0.0017X0.2417*%
%ADD463R,0.0017X0.6333*%
%ADD464R,0.0017X0.1567*%
%ADD465R,0.0017X0.0817*%
%ADD466R,0.0017X0.2500*%
%ADD467R,0.0017X0.6334*%
%ADD468R,0.0017X0.6317*%
%ADD469R,0.0017X0.2533*%
%ADD470R,0.0017X0.6317*%
%ADD471R,0.0017X0.2550*%
%ADD472R,0.0017X0.6300*%
%ADD473R,0.0017X0.1817*%
%ADD474R,0.0017X0.0783*%
%ADD475R,0.0017X0.6284*%
%ADD476R,0.0017X0.2583*%
%ADD477R,0.0017X0.6284*%
%ADD478R,0.0017X0.2600*%
%ADD479R,0.0017X0.6267*%
%ADD480R,0.0017X0.2583*%
%ADD481R,0.0017X0.6267*%
%ADD482R,0.0017X0.2683*%
%ADD483R,0.0017X0.6250*%
%ADD484R,0.0017X0.2617*%
%ADD485R,0.0017X0.6217*%
%ADD486R,0.0017X0.6200*%
%ADD487R,0.0017X0.2750*%
%ADD488R,0.0017X0.6200*%
%ADD489R,0.0017X0.2717*%
%ADD490R,0.0017X0.6183*%
%ADD491R,0.0017X0.1984*%
%ADD492R,0.0017X0.0716*%
%ADD493R,0.0017X0.1017*%
%ADD494R,0.0017X0.1050*%
%ADD495R,0.0017X0.0784*%
%ADD496R,0.0017X0.0650*%
%ADD497R,0.0017X0.0483*%
%ADD498R,0.0017X0.0950*%
%ADD499R,0.0017X0.0916*%
%ADD500R,0.0017X0.0700*%
%ADD501R,0.0017X0.0584*%
%ADD502R,0.0017X0.0734*%
%ADD503R,0.0017X0.0884*%
%ADD504R,0.0017X0.0816*%
%ADD505R,0.0017X0.0283*%
%ADD506R,0.0017X0.0617*%
%ADD507R,0.0017X0.0684*%
%ADD508R,0.0017X0.0750*%
%ADD509R,0.0017X0.0283*%
%ADD510R,0.0017X0.0683*%
%ADD511R,0.0017X0.0800*%
%ADD512R,0.0017X0.0783*%
%ADD513R,0.0017X0.0350*%
%ADD514R,0.0017X0.0133*%
%ADD515R,0.0017X0.0200*%
%ADD516R,0.0017X0.0734*%
%ADD517R,0.0017X0.0767*%
%ADD518R,0.0017X0.0434*%
%ADD519R,0.0017X0.0300*%
%ADD520R,0.0017X0.0550*%
%ADD521R,0.0017X0.0134*%
%ADD522R,0.0017X0.0766*%
%ADD523R,0.0017X0.0700*%
%ADD524R,0.0017X0.0234*%
%ADD525R,0.0017X0.0066*%
%ADD526R,0.0017X0.0850*%
%ADD527R,0.0017X0.0883*%
%ADD528R,0.0017X0.0684*%
%ADD529R,0.0017X0.0200*%
%ADD530R,0.0017X0.0917*%
%ADD531R,0.0017X0.0650*%
%ADD532R,0.0017X0.0450*%
%ADD533R,0.0017X0.0067*%
%ADD534R,0.0017X0.0917*%
%ADD535R,0.0017X0.0284*%
%ADD536R,0.0017X0.0634*%
%ADD537R,0.0017X0.0267*%
%ADD538R,0.0017X0.0433*%
%ADD539R,0.0017X0.0267*%
%ADD540R,0.0017X0.0950*%
%ADD541R,0.0017X0.1350*%
%ADD542R,0.0017X0.0567*%
%ADD543R,0.0017X0.0166*%
%ADD544R,0.0017X0.0234*%
%ADD545R,0.0017X0.1367*%
%ADD546R,0.0017X0.1384*%
%ADD547R,0.0017X0.0216*%
%ADD548R,0.0017X0.0100*%
%ADD549R,0.0017X0.0634*%
%ADD550R,0.0017X0.1383*%
%ADD551R,0.0017X0.0534*%
%ADD552R,0.0017X0.0266*%
%ADD553R,0.0017X0.1400*%
%ADD554R,0.0017X0.0166*%
%ADD555R,0.0017X0.1384*%
%ADD556R,0.0017X0.0333*%
%ADD557R,0.0017X0.1416*%
%ADD558R,0.0017X0.0316*%
%ADD559R,0.0017X0.0367*%
%ADD560R,0.0017X0.0366*%
%ADD561R,0.0017X0.0500*%
%ADD562R,0.0017X0.0600*%
%ADD563R,0.0017X0.1416*%
%ADD564R,0.0017X0.0384*%
%ADD565R,0.0017X0.0484*%
%ADD566R,0.0017X0.0933*%
%ADD567R,0.0017X0.0333*%
%ADD568R,0.0017X0.0266*%
%ADD569R,0.0017X0.0384*%
%ADD570R,0.0017X0.0367*%
%ADD571R,0.0017X0.0366*%
%ADD572R,0.0017X0.0400*%
%ADD573R,0.0017X0.0900*%
%ADD574R,0.0017X0.0334*%
%ADD575R,0.0017X0.0884*%
%ADD576R,0.0017X0.0334*%
%ADD577R,0.0017X0.0183*%
%ADD578R,0.0017X0.0667*%
%ADD579R,0.0017X0.0833*%
%ADD580R,0.0017X0.0467*%
%ADD581R,0.0017X0.0284*%
%ADD582R,0.0017X0.0300*%
%ADD583R,0.0017X0.0467*%
%ADD584R,0.0017X0.0550*%
%ADD585R,0.0017X0.1484*%
%ADD586R,0.0017X0.0233*%
%ADD587R,0.0017X0.0416*%
%ADD588R,0.0017X0.2683*%
%ADD589R,0.0017X0.1450*%
%ADD590R,0.0017X0.2633*%
%ADD591R,0.0017X0.1467*%
%ADD592R,0.0017X0.2600*%
%ADD593R,0.0017X0.1484*%
%ADD594R,0.0017X0.2434*%
%ADD595R,0.0017X0.2400*%
%ADD596R,0.0017X0.1516*%
%ADD597R,0.0017X0.0566*%
%ADD598R,0.0017X0.1500*%
%ADD599R,0.0017X0.1466*%
%ADD600R,0.0017X0.2550*%
%ADD601R,0.0017X0.2417*%
%ADD602R,0.0017X0.1500*%
%ADD603R,0.0017X0.2567*%
%ADD604R,0.0017X0.1516*%
%ADD605R,0.0017X0.0584*%
%ADD606R,0.0017X0.0683*%
%ADD607R,0.0017X0.2617*%
%ADD608R,0.0017X0.2650*%
%ADD609R,0.0017X0.2667*%
%ADD610R,0.0017X0.1450*%
%ADD611R,0.0017X0.0816*%
%ADD612R,0.0017X0.2667*%
%ADD613R,0.0017X0.0784*%
%ADD614R,0.0017X0.2717*%
%ADD615R,0.0017X0.2450*%
%ADD616R,0.0017X0.1550*%
%ADD617R,0.0017X0.9300*%
%ADD618R,0.0017X0.9317*%
%ADD619R,0.0017X0.9283*%
%ADD620R,0.0017X0.9533*%
%ADD621R,0.0017X0.9483*%
%ADD622R,0.0017X0.9550*%
%ADD623R,0.0017X0.8983*%
%ADD624R,0.0017X0.9517*%
%ADD625R,0.0017X0.9267*%
%ADD626R,0.0017X0.9350*%
%ADD627R,0.0017X0.9367*%
%ADD628R,0.0017X0.9384*%
%ADD629R,0.0017X0.9384*%
%ADD630R,0.0017X0.0516*%
%ADD631R,0.0017X0.8817*%
%ADD632R,0.0017X0.8817*%
%ADD633R,0.0017X0.9450*%
%ADD634R,0.0017X0.8584*%
%ADD635R,0.0017X0.8667*%
%ADD636R,0.0017X0.8584*%
%ADD637R,0.0017X0.0616*%
%ADD638R,0.0017X0.8650*%
%ADD639R,0.0017X0.8950*%
%ADD640R,0.0017X0.9283*%
%ADD641R,0.0017X0.9217*%
%ADD642R,0.0017X0.9183*%
%ADD643R,0.0017X0.3184*%
%ADD644R,0.0017X0.5950*%
%ADD645R,0.0017X0.2584*%
%ADD646R,0.0017X0.6184*%
%ADD647R,0.0017X0.2484*%
%ADD648R,0.0017X0.5183*%
%ADD649R,0.0017X0.1716*%
%ADD650R,0.0017X0.1383*%
%ADD651R,0.0017X0.5750*%
%ADD652R,0.0017X0.1083*%
%ADD653R,0.0017X0.2984*%
%ADD654R,0.0017X0.0717*%
%ADD655R,0.0017X0.1150*%
%ADD656R,0.0017X0.0966*%
%ADD657R,0.0017X0.0984*%
%ADD658C,0.0060*%
%ADD659C,0.0100*%
%ADD660R,0.0003X0.0003*%
%ADD661R,0.0003X0.0010*%
%ADD662R,0.0003X0.0020*%
%ADD663R,0.0003X0.0027*%
%ADD664R,0.0003X0.0033*%
%ADD665R,0.0003X0.0040*%
%ADD666R,0.0003X0.0050*%
%ADD667R,0.0003X0.0053*%
%ADD668R,0.0003X0.0053*%
%ADD669R,0.0003X0.0003*%
%ADD670R,0.0003X0.0003*%
%ADD671R,0.0003X0.0013*%
%ADD672R,0.0003X0.0053*%
%ADD673R,0.0003X0.0057*%
%ADD674R,0.0003X0.0020*%
%ADD675R,0.0003X0.0007*%
%ADD676R,0.0003X0.0050*%
%ADD677R,0.0003X0.0007*%
%ADD678R,0.0003X0.0047*%
%ADD679R,0.0003X0.0043*%
%ADD680R,0.0003X0.0077*%
%ADD681R,0.0003X0.0027*%
%ADD682R,0.0003X0.0027*%
%ADD683R,0.0003X0.0017*%
%ADD684R,0.0003X0.0070*%
%ADD685R,0.0003X0.0017*%
%ADD686R,0.0003X0.0060*%
%ADD687R,0.0003X0.0073*%
%ADD688R,0.0003X0.0090*%
%ADD689R,0.0003X0.0143*%
%ADD690R,0.0003X0.0087*%
%ADD691R,0.0003X0.0033*%
%ADD692R,0.0003X0.0037*%
%ADD693R,0.0003X0.0023*%
%ADD694R,0.0003X0.0083*%
%ADD695R,0.0003X0.0027*%
%ADD696R,0.0003X0.0083*%
%ADD697R,0.0003X0.0073*%
%ADD698R,0.0003X0.0070*%
%ADD699R,0.0003X0.0100*%
%ADD700R,0.0003X0.0150*%
%ADD701R,0.0003X0.0043*%
%ADD702R,0.0003X0.0030*%
%ADD703R,0.0003X0.0087*%
%ADD704R,0.0003X0.0030*%
%ADD705R,0.0003X0.0097*%
%ADD706R,0.0003X0.0080*%
%ADD707R,0.0003X0.0110*%
%ADD708R,0.0003X0.0153*%
%ADD709R,0.0003X0.0113*%
%ADD710R,0.0003X0.0050*%
%ADD711R,0.0003X0.0050*%
%ADD712R,0.0003X0.0037*%
%ADD713R,0.0003X0.0040*%
%ADD714R,0.0003X0.0090*%
%ADD715R,0.0003X0.0040*%
%ADD716R,0.0003X0.0103*%
%ADD717R,0.0003X0.0087*%
%ADD718R,0.0003X0.0090*%
%ADD719R,0.0003X0.0120*%
%ADD720R,0.0003X0.0157*%
%ADD721R,0.0003X0.0093*%
%ADD722R,0.0003X0.0040*%
%ADD723R,0.0003X0.0113*%
%ADD724R,0.0003X0.0187*%
%ADD725R,0.0003X0.0127*%
%ADD726R,0.0003X0.0160*%
%ADD727R,0.0003X0.0097*%
%ADD728R,0.0003X0.0123*%
%ADD729R,0.0003X0.0193*%
%ADD730R,0.0003X0.0120*%
%ADD731R,0.0003X0.0137*%
%ADD732R,0.0003X0.0167*%
%ADD733R,0.0003X0.0133*%
%ADD734R,0.0003X0.0130*%
%ADD735R,0.0003X0.0200*%
%ADD736R,0.0003X0.0143*%
%ADD737R,0.0003X0.0170*%
%ADD738R,0.0003X0.0140*%
%ADD739R,0.0003X0.0057*%
%ADD740R,0.0003X0.0100*%
%ADD741R,0.0003X0.0133*%
%ADD742R,0.0003X0.0200*%
%ADD743R,0.0003X0.0133*%
%ADD744R,0.0003X0.0147*%
%ADD745R,0.0003X0.0170*%
%ADD746R,0.0003X0.0140*%
%ADD747R,0.0003X0.0207*%
%ADD748R,0.0003X0.0153*%
%ADD749R,0.0003X0.0173*%
%ADD750R,0.0003X0.0103*%
%ADD751R,0.0003X0.0103*%
%ADD752R,0.0003X0.0160*%
%ADD753R,0.0003X0.0177*%
%ADD754R,0.0003X0.0157*%
%ADD755R,0.0003X0.0060*%
%ADD756R,0.0003X0.0013*%
%ADD757R,0.0003X0.0063*%
%ADD758R,0.0003X0.0067*%
%ADD759R,0.0003X0.0013*%
%ADD760R,0.0003X0.0063*%
%ADD761R,0.0003X0.0163*%
%ADD762R,0.0003X0.0180*%
%ADD763R,0.0003X0.0060*%
%ADD764R,0.0003X0.0167*%
%ADD765R,0.0003X0.0047*%
%ADD766R,0.0003X0.0170*%
%ADD767R,0.0003X0.0183*%
%ADD768R,0.0003X0.0167*%
%ADD769R,0.0003X0.0043*%
%ADD770R,0.0003X0.0047*%
%ADD771R,0.0003X0.0173*%
%ADD772R,0.0003X0.0077*%
%ADD773R,0.0003X0.0067*%
%ADD774R,0.0003X0.0070*%
%ADD775R,0.0003X0.0063*%
%ADD776R,0.0003X0.0063*%
%ADD777R,0.0003X0.0060*%
%ADD778R,0.0003X0.0053*%
%ADD779R,0.0003X0.0030*%
%ADD780R,0.0003X0.0057*%
%ADD781R,0.0003X0.0017*%
%ADD782R,0.0003X0.0073*%
%ADD783R,0.0003X0.0073*%
%ADD784R,0.0003X0.0080*%
%ADD785R,0.0003X0.0037*%
%ADD786R,0.0003X0.0023*%
%ADD787R,0.0003X0.0017*%
%ADD788R,0.0003X0.0110*%
%ADD789R,0.0003X0.0127*%
%ADD790R,0.0003X0.0117*%
%ADD791R,0.0003X0.0097*%
%ADD792R,0.0003X0.0097*%
%ADD793R,0.0003X0.0123*%
%ADD794R,0.0003X0.0133*%
%ADD795R,0.0003X0.0130*%
%ADD796R,0.0003X0.0163*%
%ADD797R,0.0003X0.0093*%
%ADD798R,0.0003X0.0107*%
%ADD799R,0.0003X0.0187*%
%ADD800R,0.0003X0.0010*%
%ADD801R,0.0003X0.0033*%
%ADD802R,0.0003X0.0037*%
%ADD803R,0.0003X0.0043*%
%ADD804R,0.0003X0.0143*%
%ADD805R,0.0003X0.0163*%
%ADD806R,0.0003X0.0137*%
%ADD807R,0.0003X0.0140*%
%ADD808R,0.0003X0.0150*%
%ADD809R,0.0003X0.0120*%
%ADD810R,0.0003X0.0120*%
%ADD811R,0.0003X0.0117*%
%ADD812R,0.0003X0.0110*%
%ADD813R,0.0003X0.0093*%
%ADD814R,0.0003X0.0130*%
%ADD815R,0.0003X0.0083*%
%ADD816R,0.0003X0.0083*%
%ADD817R,0.0003X0.0123*%
%ADD818R,0.0003X0.0070*%
%ADD819R,0.0003X0.0107*%
%ADD820R,0.0003X0.0103*%
%ADD821R,0.0003X0.0030*%
%ADD822R,0.0003X0.0007*%
%ADD823R,0.0003X0.0010*%
%ADD824R,0.0003X0.0067*%
%ADD825R,0.0003X0.0107*%
%ADD826R,0.0003X0.0140*%
%ADD827R,0.0003X0.0157*%
%ADD828R,0.0003X0.0163*%
%ADD829R,0.0003X0.0190*%
%ADD830R,0.0003X0.0197*%
%ADD831R,0.0003X0.0197*%
%ADD832R,0.0003X0.0213*%
%ADD833R,0.0003X0.0213*%
%ADD834R,0.0003X0.0220*%
%ADD835R,0.0003X0.0223*%
%ADD836R,0.0003X0.0230*%
%ADD837R,0.0003X0.0237*%
%ADD838R,0.0003X0.0247*%
%ADD839R,0.0003X0.0253*%
%ADD840R,0.0003X0.0263*%
%ADD841R,0.0003X0.0263*%
%ADD842R,0.0003X0.0270*%
%ADD843R,0.0003X0.0270*%
%ADD844R,0.0003X0.0280*%
%ADD845R,0.0003X0.0287*%
%ADD846R,0.0003X0.0297*%
%ADD847R,0.0003X0.0303*%
%ADD848R,0.0003X0.0077*%
%ADD849R,0.0003X0.0310*%
%ADD850R,0.0003X0.0313*%
%ADD851R,0.0003X0.0320*%
%ADD852R,0.0003X0.0320*%
%ADD853R,0.0003X0.0327*%
%ADD854R,0.0003X0.0327*%
%ADD855R,0.0003X0.0337*%
%ADD856R,0.0003X0.0107*%
%ADD857R,0.0003X0.0337*%
%ADD858R,0.0003X0.0344*%
%ADD859R,0.0003X0.0357*%
%ADD860R,0.0003X0.0123*%
%ADD861R,0.0003X0.0357*%
%ADD862R,0.0003X0.0494*%
%ADD863R,0.0003X0.0494*%
%ADD864R,0.0003X0.0497*%
%ADD865R,0.0003X0.0497*%
%ADD866R,0.0003X0.0504*%
%ADD867R,0.0003X0.0504*%
%ADD868R,0.0003X0.0507*%
%ADD869R,0.0003X0.0510*%
%ADD870R,0.0003X0.0514*%
%ADD871R,0.0003X0.0517*%
%ADD872R,0.0003X0.0520*%
%ADD873R,0.0003X0.0520*%
%ADD874R,0.0003X0.0527*%
%ADD875R,0.0003X0.0527*%
%ADD876R,0.0003X0.0530*%
%ADD877R,0.0003X0.0530*%
%ADD878R,0.0003X0.0534*%
%ADD879R,0.0003X0.0537*%
%ADD880R,0.0003X0.0540*%
%ADD881R,0.0003X0.0544*%
%ADD882R,0.0003X0.0550*%
%ADD883R,0.0003X0.0550*%
%ADD884R,0.0003X0.0554*%
%ADD885R,0.0003X0.0554*%
%ADD886R,0.0003X0.0557*%
%ADD887R,0.0003X0.0560*%
%ADD888R,0.0003X0.0560*%
%ADD889R,0.0003X0.0560*%
%ADD890R,0.0003X0.0560*%
%ADD891R,0.0003X0.0557*%
%ADD892R,0.0003X0.0554*%
%ADD893R,0.0003X0.0554*%
%ADD894R,0.0003X0.0550*%
%ADD895R,0.0003X0.0547*%
%ADD896R,0.0003X0.0547*%
%ADD897R,0.0003X0.0547*%
%ADD898R,0.0003X0.0547*%
%ADD899R,0.0003X0.0544*%
%ADD900R,0.0003X0.0540*%
%ADD901R,0.0003X0.0544*%
%ADD902R,0.0003X0.0540*%
%ADD903R,0.0003X0.0540*%
%ADD904R,0.0003X0.0537*%
%ADD905R,0.0003X0.0537*%
%ADD906R,0.0003X0.0537*%
%ADD907R,0.0003X0.0534*%
%ADD908R,0.0003X0.0530*%
%ADD909R,0.0003X0.0527*%
%ADD910R,0.0003X0.0527*%
%ADD911R,0.0003X0.0524*%
%ADD912R,0.0003X0.0524*%
%ADD913R,0.0003X0.0524*%
%ADD914R,0.0003X0.0520*%
%ADD915R,0.0003X0.0520*%
%ADD916R,0.0003X0.0517*%
%ADD917R,0.0003X0.0517*%
%ADD918R,0.0003X0.0517*%
%ADD919R,0.0003X0.0514*%
%ADD920R,0.0003X0.0514*%
%ADD921R,0.0003X0.0510*%
%ADD922R,0.0003X0.0507*%
%ADD923R,0.0003X0.0507*%
%ADD924R,0.0003X0.0507*%
%ADD925R,0.0003X0.0530*%
%ADD926R,0.0003X0.0550*%
%ADD927R,0.0003X0.0564*%
%ADD928R,0.0003X0.0564*%
%ADD929R,0.0003X0.0567*%
%ADD930R,0.0003X0.0570*%
%ADD931R,0.0003X0.0574*%
%ADD932R,0.0003X0.0574*%
%ADD933R,0.0003X0.0577*%
%ADD934R,0.0003X0.0577*%
%ADD935R,0.0003X0.0580*%
%ADD936R,0.0003X0.0580*%
%ADD937R,0.0003X0.0584*%
%ADD938R,0.0003X0.0584*%
%ADD939R,0.0003X0.0587*%
%ADD940R,0.0003X0.0587*%
%ADD941R,0.0003X0.0590*%
%ADD942R,0.0003X0.0594*%
%ADD943R,0.0003X0.0594*%
%ADD944R,0.0003X0.0597*%
%ADD945R,0.0003X0.0597*%
%ADD946R,0.0003X0.0600*%
%ADD947R,0.0003X0.0600*%
%ADD948R,0.0003X0.0604*%
%ADD949R,0.0003X0.0604*%
%ADD950R,0.0003X0.0604*%
%ADD951R,0.0003X0.0600*%
%ADD952R,0.0003X0.0597*%
%ADD953R,0.0003X0.0597*%
%ADD954R,0.0003X0.0590*%
%ADD955R,0.0003X0.0584*%
%ADD956R,0.0003X0.0584*%
%ADD957R,0.0003X0.0574*%
%ADD958R,0.0003X0.0574*%
%ADD959R,0.0003X0.0567*%
%ADD960R,0.0003X0.0544*%
%ADD961R,0.0003X0.0567*%
%ADD962R,0.0003X0.0617*%
%ADD963R,0.0003X0.0617*%
%ADD964R,0.0003X0.0630*%
%ADD965R,0.0003X0.0630*%
%ADD966R,0.0003X0.0644*%
%ADD967R,0.0003X0.0644*%
%ADD968R,0.0003X0.0660*%
%ADD969R,0.0003X0.0664*%
%ADD970R,0.0003X0.0677*%
%ADD971R,0.0003X0.0694*%
%ADD972R,0.0003X0.0690*%
%ADD973R,0.0003X0.0710*%
%ADD974R,0.0003X0.0710*%
%ADD975R,0.0003X0.0724*%
%ADD976R,0.0003X0.0724*%
%ADD977R,0.0003X0.0740*%
%ADD978R,0.0003X0.0737*%
%ADD979R,0.0003X0.0757*%
%ADD980R,0.0003X0.0760*%
%ADD981R,0.0003X0.0760*%
%ADD982R,0.0003X0.0764*%
%ADD983R,0.0003X0.0764*%
%ADD984R,0.0003X0.0760*%
%ADD985R,0.0003X0.0757*%
%ADD986R,0.0003X0.0754*%
%ADD987R,0.0003X0.0754*%
%ADD988R,0.0003X0.0750*%
%ADD989R,0.0003X0.0750*%
%ADD990R,0.0003X0.0747*%
%ADD991R,0.0003X0.0747*%
%ADD992R,0.0003X0.0744*%
%ADD993R,0.0003X0.0744*%
%ADD994R,0.0003X0.0744*%
%ADD995R,0.0003X0.0744*%
%ADD996R,0.0003X0.0740*%
%ADD997R,0.0003X0.0737*%
%ADD998R,0.0003X0.0734*%
%ADD999R,0.0003X0.0734*%
%ADD1000R,0.0003X0.0730*%
%ADD1001R,0.0003X0.0730*%
%ADD1002R,0.0003X0.0764*%
%ADD1003R,0.0003X0.0724*%
%ADD1004R,0.0003X0.0727*%
%ADD1005R,0.0003X0.0707*%
%ADD1006R,0.0003X0.0647*%
%ADD1007R,0.0003X0.0634*%
%ADD1008R,0.0003X0.0614*%
%ADD1009R,0.0003X0.0564*%
%ADD1010R,0.0003X0.0564*%
%ADD1011R,0.0003X0.0570*%
%ADD1012R,0.0003X0.0570*%
%ADD1013R,0.0003X0.0580*%
%ADD1014R,0.0003X0.0587*%
%ADD1015R,0.0003X0.0607*%
%ADD1016R,0.0003X0.0617*%
%ADD1017R,0.0003X0.0624*%
%ADD1018R,0.0003X0.0634*%
%ADD1019R,0.0003X0.0664*%
%ADD1020R,0.0003X0.1411*%
%ADD1021R,0.0003X0.1404*%
%ADD1022R,0.0003X0.1404*%
%ADD1023R,0.0003X0.1397*%
%ADD1024R,0.0003X0.1397*%
%ADD1025R,0.0003X0.1394*%
%ADD1026R,0.0003X0.1391*%
%ADD1027R,0.0003X0.1384*%
%ADD1028R,0.0003X0.1384*%
%ADD1029R,0.0003X0.1377*%
%ADD1030R,0.0003X0.1377*%
%ADD1031R,0.0003X0.1374*%
%ADD1032R,0.0003X0.1371*%
%ADD1033R,0.0003X0.1371*%
%ADD1034R,0.0003X0.1364*%
%ADD1035R,0.0003X0.1357*%
%ADD1036R,0.0003X0.1357*%
%ADD1037R,0.0003X0.1354*%
%ADD1038R,0.0003X0.1351*%
%ADD1039R,0.0003X0.1351*%
%ADD1040R,0.0003X0.1344*%
%ADD1041R,0.0003X0.1337*%
%ADD1042R,0.0003X0.1337*%
%ADD1043R,0.0003X0.1334*%
%ADD1044R,0.0003X0.1331*%
%ADD1045R,0.0003X0.1331*%
%ADD1046R,0.0003X0.1324*%
%ADD1047R,0.0003X0.1324*%
%ADD1048R,0.0003X0.1344*%
%ADD1049R,0.0003X0.1364*%
%ADD1050R,0.0003X0.1391*%
%ADD1051R,0.0003X0.1407*%
%ADD1052R,0.0003X0.1417*%
%ADD1053R,0.0003X0.1424*%
%ADD1054R,0.0003X0.1424*%
%ADD1055R,0.0003X0.1431*%
%ADD1056R,0.0003X0.1437*%
%ADD1057R,0.0003X0.1437*%
%ADD1058R,0.0003X0.1444*%
%ADD1059R,0.0003X0.1451*%
%ADD1060R,0.0003X0.1451*%
%ADD1061R,0.0003X0.1457*%
%ADD1062R,0.0003X0.1464*%
%ADD1063R,0.0003X0.1464*%
%ADD1064R,0.0003X0.1471*%
%ADD1065R,0.0003X0.1477*%
%ADD1066R,0.0003X0.1481*%
%ADD1067R,0.0003X0.1484*%
%ADD1068R,0.0003X0.1491*%
%ADD1069R,0.0003X0.1494*%
%ADD1070R,0.0003X0.1497*%
%ADD1071R,0.0003X0.1504*%
%ADD1072R,0.0003X0.1511*%
%ADD1073R,0.0003X0.1517*%
%ADD1074R,0.0003X0.1524*%
%ADD1075R,0.0003X0.1531*%
%ADD1076R,0.0003X0.1537*%
%ADD1077R,0.0003X0.1544*%
%ADD1078R,0.0003X0.1551*%
%ADD1079R,0.0003X0.1554*%
%ADD1080R,0.0003X0.1557*%
%ADD1081R,0.0003X0.1564*%
%ADD1082R,0.0003X0.1567*%
%ADD1083R,0.0003X0.1571*%
%ADD1084R,0.0003X0.1577*%
%ADD1085R,0.0003X0.1584*%
%ADD1086R,0.0003X0.1591*%
%ADD1087R,0.0003X0.1597*%
%ADD1088R,0.0003X0.1597*%
%ADD1089R,0.0003X0.1604*%
%ADD1090R,0.0003X0.1611*%
%ADD1091R,0.0003X0.1611*%
%ADD1092R,0.0003X0.1617*%
%ADD1093R,0.0003X0.1624*%
%ADD1094R,0.0003X0.1624*%
%ADD1095R,0.0003X0.1617*%
%ADD1096R,0.0003X0.1577*%
%ADD1097R,0.0003X0.1571*%
%ADD1098R,0.0003X0.1564*%
%ADD1099R,0.0003X0.0390*%
%ADD1100R,0.0003X0.0390*%
%ADD1101R,0.0003X0.0377*%
%ADD1102R,0.0003X0.0377*%
%ADD1103R,0.0003X0.0370*%
%ADD1104R,0.0003X0.0370*%
%ADD1105R,0.0003X0.0360*%
%ADD1106R,0.0003X0.0707*%
%ADD1107R,0.0003X0.0354*%
%ADD1108R,0.0003X0.0690*%
%ADD1109R,0.0003X0.0677*%
%ADD1110R,0.0003X0.0657*%
%ADD1111R,0.0003X0.0644*%
%ADD1112R,0.0003X0.0610*%
%ADD1113R,0.0003X0.0293*%
%ADD1114R,0.0003X0.0477*%
%ADD1115R,0.0003X0.0464*%
%ADD1116R,0.0003X0.0444*%
%ADD1117R,0.0003X0.0430*%
%ADD1118R,0.0003X0.0220*%
%ADD1119R,0.0003X0.0414*%
%ADD1120R,0.0003X0.0203*%
%ADD1121R,0.0003X0.0400*%
%ADD1122R,0.0003X0.0390*%
%ADD1123R,0.0003X0.0384*%
%ADD1124R,0.0003X0.0384*%
%ADD1125R,0.0003X0.0377*%
%ADD1126R,0.0003X0.0374*%
%ADD1127R,0.0003X0.0370*%
%ADD1128R,0.0003X0.0130*%
%ADD1129R,0.0003X0.0364*%
%ADD1130R,0.0003X0.0364*%
%ADD1131R,0.0003X0.0360*%
%ADD1132R,0.0003X0.0357*%
%ADD1133R,0.0003X0.0354*%
%ADD1134R,0.0003X0.0350*%
%ADD1135R,0.0003X0.0350*%
%ADD1136R,0.0003X0.0344*%
%ADD1137R,0.0003X0.0340*%
%ADD1138R,0.0003X0.0337*%
%ADD1139R,0.0003X0.0330*%
%ADD1140R,0.0003X0.0330*%
%ADD1141R,0.0003X0.0323*%
%ADD1142R,0.0003X0.0323*%
%ADD1143R,0.0003X0.0317*%
%ADD1144R,0.0003X0.0317*%
%ADD1145R,0.0003X0.0310*%
%ADD1146R,0.0003X0.0307*%
%ADD1147R,0.0003X0.0303*%
%ADD1148R,0.0003X0.0300*%
%ADD1149R,0.0003X0.0297*%
%ADD1150R,0.0003X0.0290*%
%ADD1151R,0.0003X0.0290*%
%ADD1152R,0.0003X0.0283*%
%ADD1153R,0.0003X0.0283*%
%ADD1154R,0.0003X0.0277*%
%ADD1155R,0.0003X0.0263*%
%ADD1156C,0.0050*%
D10*
X002513Y022643D02*
X002800Y022643D01*
X012263Y022643D02*
X012550Y022643D01*
D11*
X006255Y013333D03*
X005855Y012547D03*
X005555Y012604D03*
X005455Y012604D03*
X005455Y012704D03*
X005355Y012704D03*
X005455Y012490D03*
X005555Y012490D03*
X005555Y012390D03*
X005455Y012390D03*
X005355Y012390D03*
X006255Y011761D03*
X007255Y012804D03*
X002655Y011504D03*
X002655Y011404D03*
X002055Y012390D03*
D12*
X003155Y012025D03*
X003055Y011468D03*
X003155Y013068D03*
X005955Y013625D03*
X007255Y012325D03*
X005955Y011468D03*
D13*
X006341Y011890D03*
X006369Y011947D03*
X006541Y012547D03*
X006369Y013147D03*
X006341Y013204D03*
X007241Y012804D03*
X007141Y012090D03*
X001869Y012547D03*
D14*
X002141Y012325D03*
X002369Y012911D03*
X004141Y014125D03*
X004169Y014125D03*
X004241Y014125D03*
X004241Y011168D03*
X004169Y011168D03*
X004141Y011168D03*
X004441Y011168D03*
X004469Y011168D03*
X004541Y011168D03*
X004569Y011168D03*
X004641Y011168D03*
X004669Y011168D03*
X004741Y011168D03*
X004769Y011168D03*
X004841Y011168D03*
X004869Y011168D03*
X007241Y012325D03*
D15*
X007227Y012340D03*
X007227Y012797D03*
X006027Y012540D03*
X006012Y012540D03*
X006012Y012154D03*
X005998Y012154D03*
X005712Y009354D03*
X002627Y011454D03*
X002612Y011454D03*
X002384Y012940D03*
X005712Y015740D03*
D16*
X005198Y014140D03*
X005984Y012940D03*
X006127Y012540D03*
X007212Y012797D03*
X005198Y010954D03*
X003427Y011554D03*
X003427Y013540D03*
D17*
X003127Y013118D03*
X003084Y013075D03*
X002612Y012861D03*
X003084Y012018D03*
X003127Y011975D03*
X007084Y012561D03*
X007098Y012561D03*
X007112Y012561D03*
X007127Y012561D03*
X007184Y012561D03*
X007198Y012561D03*
X007212Y012561D03*
X007212Y012632D03*
X007198Y012632D03*
X007184Y012632D03*
X007127Y012632D03*
X007112Y012632D03*
X007098Y012632D03*
X007084Y012632D03*
D18*
X007084Y012490D03*
X007098Y012490D03*
X007112Y012490D03*
X007127Y012490D03*
X007184Y012490D03*
X007198Y012490D03*
X007212Y012490D03*
X005627Y012004D03*
X005627Y013090D03*
X003112Y013104D03*
X003098Y013090D03*
X002612Y012290D03*
X002127Y012390D03*
X003098Y012004D03*
X003112Y011990D03*
D19*
X003098Y011533D03*
X003012Y011518D03*
X002984Y011290D03*
X003398Y011561D03*
X003412Y011561D03*
X002598Y012047D03*
X002384Y011647D03*
X001884Y012547D03*
X002598Y013047D03*
X002384Y013447D03*
X002984Y013804D03*
X003398Y013533D03*
X003412Y013533D03*
X005984Y012147D03*
X005998Y012933D03*
X006012Y012933D03*
X007212Y012333D03*
D20*
X007198Y012804D03*
X005598Y014090D03*
X005584Y014090D03*
X005527Y014104D03*
X005512Y014104D03*
X003627Y014090D03*
X003012Y013804D03*
X002998Y013804D03*
X002998Y011290D03*
X003012Y011290D03*
X003627Y011004D03*
X005512Y010990D03*
X005527Y010990D03*
X005584Y011004D03*
X005598Y011004D03*
D21*
X005084Y010225D03*
X007198Y012325D03*
X005084Y014868D03*
X002398Y012125D03*
D22*
X003027Y011282D03*
X003398Y011082D03*
X003427Y011068D03*
X003484Y011054D03*
X003498Y011039D03*
X003512Y011039D03*
X003598Y011011D03*
X003612Y011011D03*
X004598Y011539D03*
X004612Y011539D03*
X004627Y011539D03*
X004684Y011539D03*
X004698Y011539D03*
X004712Y011539D03*
X004727Y011539D03*
X005398Y010968D03*
X005498Y010982D03*
X005612Y011011D03*
X005627Y011011D03*
X005684Y011025D03*
X005698Y011039D03*
X005712Y011039D03*
X005727Y011039D03*
X005784Y011068D03*
X005812Y011082D03*
X005827Y011082D03*
X005884Y011111D03*
X005912Y011125D03*
X005112Y010211D03*
X005027Y010211D03*
X006098Y012539D03*
X006112Y012539D03*
X007084Y012311D03*
X007084Y012811D03*
X007184Y012811D03*
X005912Y013968D03*
X005884Y013982D03*
X005827Y014011D03*
X005812Y014011D03*
X005784Y014025D03*
X005727Y014054D03*
X005712Y014054D03*
X005698Y014054D03*
X005684Y014068D03*
X005627Y014082D03*
X005612Y014082D03*
X005498Y014111D03*
X005398Y014125D03*
X005112Y014882D03*
X005027Y014882D03*
X004412Y013754D03*
X004398Y013754D03*
X004384Y013754D03*
X004327Y013754D03*
X004312Y013754D03*
X004298Y013754D03*
X004284Y013754D03*
X003612Y014082D03*
X003598Y014082D03*
X003512Y014054D03*
X003498Y014054D03*
X003484Y014039D03*
X003427Y014025D03*
X003398Y014011D03*
X003027Y013811D03*
X004598Y012582D03*
X004612Y012582D03*
X004627Y012582D03*
X004684Y012582D03*
X004698Y012582D03*
X004712Y012582D03*
X004727Y012582D03*
D23*
X005212Y014132D03*
X005227Y014132D03*
X005284Y014132D03*
X005298Y014132D03*
X005312Y014132D03*
X005327Y014132D03*
X005384Y014132D03*
X005412Y014118D03*
X005427Y014118D03*
X005484Y014118D03*
X005098Y014875D03*
X003584Y014075D03*
X003527Y014061D03*
X002398Y012961D03*
X003527Y011032D03*
X003584Y011018D03*
X005212Y010961D03*
X005227Y010961D03*
X005284Y010961D03*
X005298Y010961D03*
X005312Y010961D03*
X005327Y010961D03*
X005384Y010961D03*
X005412Y010975D03*
X005427Y010975D03*
X005484Y010975D03*
X005098Y010218D03*
X006084Y012532D03*
X007184Y012318D03*
D24*
X007169Y012818D03*
X005969Y013932D03*
X005969Y011161D03*
X003241Y011161D03*
X003041Y011275D03*
X003041Y013818D03*
X003241Y013932D03*
D25*
X003169Y013661D03*
X003069Y013118D03*
X002669Y012861D03*
X002641Y012261D03*
X002669Y012232D03*
X003169Y011432D03*
X006841Y011975D03*
X007041Y012561D03*
X007069Y012561D03*
X007069Y012632D03*
X007041Y012632D03*
X007141Y012632D03*
X007169Y012632D03*
X007169Y012561D03*
X007141Y012561D03*
X006841Y013118D03*
D26*
X007069Y013104D03*
X007069Y012490D03*
X007041Y012490D03*
X007141Y012490D03*
X007169Y012490D03*
X007069Y011990D03*
X002841Y012004D03*
X002841Y013090D03*
D27*
X002669Y012554D03*
X003469Y013554D03*
X003441Y014025D03*
X003469Y014039D03*
X003541Y014068D03*
X003569Y014068D03*
X004269Y013754D03*
X004341Y013754D03*
X004369Y013754D03*
X004641Y012582D03*
X004669Y012582D03*
X004741Y012582D03*
X004741Y011539D03*
X004669Y011539D03*
X004641Y011539D03*
X003569Y011025D03*
X003541Y011025D03*
X003469Y011054D03*
X003441Y011068D03*
X003469Y011539D03*
X005669Y011025D03*
X005741Y011054D03*
X005769Y011068D03*
X007169Y012311D03*
X005769Y014025D03*
X005741Y014039D03*
X005669Y014068D03*
D28*
X007155Y012825D03*
D29*
X007155Y012632D03*
X007155Y012561D03*
X007055Y012561D03*
X007055Y012632D03*
X003055Y013061D03*
X002655Y012818D03*
X002655Y012275D03*
X003055Y012032D03*
X003155Y011418D03*
X003155Y013675D03*
D30*
X007055Y012490D03*
X007155Y012490D03*
D31*
X007155Y012304D03*
X004855Y014189D03*
X004755Y014189D03*
X004655Y014189D03*
X004555Y014189D03*
X004455Y014189D03*
X004355Y014189D03*
X003355Y013989D03*
X003355Y011104D03*
D32*
X002741Y012175D03*
X005269Y012818D03*
X005341Y012818D03*
X005369Y012818D03*
X005441Y012818D03*
X005441Y012918D03*
X005369Y012918D03*
X005341Y012918D03*
X005269Y012918D03*
X005369Y012275D03*
X005441Y012275D03*
X005469Y012275D03*
X005469Y012175D03*
X005441Y012175D03*
X005369Y012175D03*
X005569Y012275D03*
X007141Y013018D03*
D33*
X007141Y012825D03*
X003141Y013868D03*
X003069Y013825D03*
X003169Y011625D03*
X003069Y011268D03*
X003141Y011225D03*
D34*
X003341Y011104D03*
X003341Y013989D03*
X004269Y014189D03*
X004341Y014189D03*
X004369Y014189D03*
X004441Y014189D03*
X004469Y014189D03*
X004541Y014189D03*
X004569Y014189D03*
X004641Y014189D03*
X004669Y014189D03*
X004741Y014189D03*
X004769Y014189D03*
X004841Y014189D03*
X004869Y014189D03*
X005841Y014004D03*
X005869Y013989D03*
X007141Y012304D03*
X005869Y011104D03*
X005841Y011089D03*
D35*
X007127Y013033D03*
X003327Y013533D03*
X003198Y011961D03*
X003327Y011561D03*
D36*
X003227Y011168D03*
X003227Y013925D03*
X005927Y013425D03*
X006084Y013868D03*
X005998Y013925D03*
X007112Y012825D03*
X007127Y012825D03*
X005927Y011668D03*
X006084Y011225D03*
X005998Y011168D03*
D37*
X006027Y011189D03*
X005127Y010204D03*
X005012Y010204D03*
X003384Y011089D03*
X002827Y012304D03*
X002827Y012789D03*
X002412Y012104D03*
X003384Y014004D03*
X004284Y014189D03*
X004298Y014189D03*
X004312Y014189D03*
X004327Y014189D03*
X004384Y014189D03*
X004398Y014189D03*
X004412Y014189D03*
X004427Y014189D03*
X004484Y014189D03*
X004498Y014189D03*
X004512Y014189D03*
X004527Y014189D03*
X004584Y014189D03*
X004598Y014189D03*
X004612Y014189D03*
X004627Y014189D03*
X004684Y014189D03*
X004698Y014189D03*
X004712Y014189D03*
X004727Y014189D03*
X004784Y014189D03*
X004798Y014189D03*
X004812Y014189D03*
X004827Y014189D03*
X004884Y014189D03*
X004898Y014189D03*
X004912Y014189D03*
X005012Y014889D03*
X005127Y014889D03*
X006027Y013904D03*
X007098Y012304D03*
X007112Y012304D03*
X007127Y012304D03*
D38*
X007127Y012075D03*
X007027Y012804D03*
X006427Y013018D03*
X006427Y012075D03*
X004912Y012218D03*
X004898Y012218D03*
X004884Y012218D03*
X004827Y012218D03*
X004812Y012218D03*
X004798Y012218D03*
X004784Y012218D03*
X004727Y012218D03*
X004712Y012218D03*
X004698Y012218D03*
X004684Y012218D03*
X004627Y012218D03*
X004612Y012218D03*
X004598Y012218D03*
X004584Y012218D03*
X004527Y012218D03*
X004512Y012218D03*
X004498Y012218D03*
X004484Y012218D03*
X004427Y012218D03*
X004412Y012218D03*
X004398Y012218D03*
X004384Y012218D03*
X004327Y012218D03*
X004312Y012218D03*
X004298Y012218D03*
X004284Y012218D03*
X004227Y012218D03*
X004212Y012218D03*
X004198Y012218D03*
X004184Y012218D03*
X004127Y012218D03*
X004112Y012218D03*
X004098Y012218D03*
X004098Y011904D03*
X004112Y011904D03*
X004127Y011904D03*
X004184Y011904D03*
X004198Y011904D03*
X004212Y011904D03*
X004227Y011904D03*
X004427Y011904D03*
X004484Y011904D03*
X004498Y011904D03*
X004512Y011904D03*
X004527Y011904D03*
X004584Y011904D03*
X004598Y011904D03*
X004612Y011904D03*
X004627Y011904D03*
X004684Y011904D03*
X004698Y011904D03*
X004712Y011904D03*
X004727Y011904D03*
X004784Y011904D03*
X004798Y011904D03*
X004812Y011904D03*
X004827Y011904D03*
X004884Y011904D03*
X004898Y011904D03*
X004912Y011904D03*
X004912Y013389D03*
X004898Y013389D03*
X004884Y013389D03*
X004827Y013389D03*
X004812Y013389D03*
X004798Y013389D03*
X004784Y013389D03*
X004584Y013389D03*
X004527Y013389D03*
X004512Y013389D03*
X004498Y013389D03*
X004484Y013389D03*
X004427Y013389D03*
X004412Y013389D03*
X004398Y013389D03*
X004384Y013389D03*
X004327Y013389D03*
X004312Y013389D03*
X004298Y013389D03*
X004284Y013389D03*
X004227Y013389D03*
X004212Y013389D03*
X004198Y013389D03*
X004184Y013389D03*
X004127Y013389D03*
X004112Y013389D03*
X004098Y013389D03*
X002912Y013775D03*
X002612Y013075D03*
X002798Y013032D03*
X002798Y012061D03*
X002612Y012018D03*
X002912Y011318D03*
X004484Y009404D03*
X004498Y009418D03*
X004512Y009432D03*
X004584Y009504D03*
X004598Y009518D03*
X004612Y009532D03*
X004684Y009604D03*
X004698Y009618D03*
X004984Y009918D03*
X004998Y009932D03*
X005027Y009961D03*
X005084Y009975D03*
X005098Y009961D03*
X005127Y009932D03*
X005184Y009875D03*
X005198Y009861D03*
X005227Y009832D03*
X005284Y009775D03*
X005298Y009761D03*
X005327Y009732D03*
X005384Y009675D03*
X005398Y009661D03*
X005427Y009632D03*
X005484Y009575D03*
X005498Y009561D03*
X005527Y009532D03*
X005084Y015118D03*
X005098Y015132D03*
X005127Y015161D03*
X005184Y015218D03*
X005198Y015232D03*
X005227Y015261D03*
X005284Y015318D03*
X005298Y015332D03*
X005327Y015361D03*
X005384Y015418D03*
X005398Y015432D03*
X005427Y015461D03*
X005484Y015518D03*
X005498Y015532D03*
X005527Y015561D03*
X005027Y015132D03*
X004998Y015161D03*
X004984Y015175D03*
X004698Y015475D03*
X004684Y015489D03*
X004612Y015561D03*
X004598Y015575D03*
X004584Y015589D03*
X004512Y015661D03*
X004498Y015675D03*
X004484Y015689D03*
D39*
X005198Y013861D03*
X005212Y013861D03*
X005227Y013861D03*
X005284Y013861D03*
X005298Y013861D03*
X005312Y013861D03*
X005327Y013861D03*
X005484Y013832D03*
X005498Y013832D03*
X005527Y013818D03*
X005684Y013775D03*
X005698Y013761D03*
X005712Y013761D03*
X005784Y013732D03*
X005798Y013718D03*
X005812Y013718D03*
X005884Y013675D03*
X005898Y013661D03*
X005812Y012661D03*
X005827Y012461D03*
X005898Y011432D03*
X005884Y011418D03*
X005812Y011375D03*
X005798Y011375D03*
X005784Y011361D03*
X005712Y011332D03*
X005698Y011332D03*
X005684Y011318D03*
X005527Y011275D03*
X005498Y011261D03*
X005484Y011261D03*
X005327Y011232D03*
X005312Y011232D03*
X005298Y011232D03*
X005284Y011232D03*
X005227Y011232D03*
X005212Y011232D03*
X005198Y011232D03*
X003527Y011318D03*
X003512Y011332D03*
X003498Y011332D03*
X003427Y011375D03*
X003412Y011375D03*
X003312Y011432D03*
X003198Y011475D03*
X002798Y012318D03*
X002712Y013175D03*
X002527Y013218D03*
X002512Y013232D03*
X003198Y013618D03*
X003312Y013661D03*
X003412Y013718D03*
X003427Y013718D03*
X003498Y013761D03*
X003512Y013761D03*
X003527Y013775D03*
X007112Y013075D03*
X007112Y012018D03*
D40*
X007098Y012004D03*
X007098Y013089D03*
X005984Y013604D03*
X005827Y013704D03*
X005627Y013789D03*
X005612Y013804D03*
X005598Y013804D03*
X005584Y013804D03*
X005984Y011489D03*
X005827Y011389D03*
X005627Y011304D03*
X005612Y011289D03*
X005598Y011289D03*
X005584Y011289D03*
X003627Y011289D03*
X003612Y011289D03*
X003598Y011304D03*
X003584Y011304D03*
X003398Y011389D03*
X003384Y011389D03*
X002584Y011504D03*
X002084Y012304D03*
X002598Y013304D03*
X003384Y013704D03*
X003398Y013704D03*
X003584Y013789D03*
X003598Y013789D03*
X003612Y013804D03*
X003627Y013804D03*
D41*
X003412Y014018D03*
X003327Y013975D03*
X003312Y013975D03*
X003298Y013961D03*
X003284Y013961D03*
X003212Y013918D03*
X002584Y013018D03*
X002584Y012075D03*
X003127Y011775D03*
X003212Y011175D03*
X003284Y011132D03*
X003298Y011132D03*
X003312Y011118D03*
X003327Y011118D03*
X003412Y011075D03*
X005798Y011075D03*
X005898Y011118D03*
X005927Y011132D03*
X005984Y011161D03*
X007098Y012818D03*
X005984Y013932D03*
X005927Y013961D03*
X005898Y013975D03*
X005798Y014018D03*
D42*
X005712Y012897D03*
X005798Y012697D03*
X005798Y012397D03*
X005712Y012197D03*
X007084Y011997D03*
X007084Y013097D03*
X002727Y012897D03*
X002727Y012197D03*
D43*
X003641Y011004D03*
X003669Y010990D03*
X005541Y010990D03*
X007069Y012804D03*
X005541Y014104D03*
X003669Y014104D03*
X003641Y014090D03*
D44*
X005041Y014875D03*
X005241Y014132D03*
X005269Y014132D03*
X005341Y014132D03*
X005369Y014132D03*
X005441Y014118D03*
X005469Y014118D03*
X005641Y014075D03*
X007069Y012318D03*
X005641Y011018D03*
X005469Y010975D03*
X005441Y010975D03*
X005369Y010961D03*
X005341Y010961D03*
X005269Y010961D03*
X005241Y010961D03*
X005041Y010218D03*
X003141Y011761D03*
D45*
X002555Y012282D03*
X002455Y012282D03*
X002355Y012282D03*
X002255Y012282D03*
X002755Y013168D03*
X002955Y013125D03*
X003055Y013111D03*
X003155Y013182D03*
X005355Y013854D03*
X005455Y013839D03*
X005655Y013782D03*
X005655Y013025D03*
X005655Y012068D03*
X005655Y011311D03*
X005455Y011254D03*
X005355Y011239D03*
X006855Y011982D03*
X006955Y011982D03*
X007055Y011982D03*
X007055Y013111D03*
X006955Y013111D03*
X006855Y013111D03*
D46*
X007055Y012797D03*
X006055Y012540D03*
D47*
X007055Y012325D03*
X005055Y010225D03*
X005055Y014868D03*
D48*
X005369Y013854D03*
X005569Y013811D03*
X005641Y013068D03*
X005741Y012825D03*
X005769Y012325D03*
X005741Y012268D03*
X005641Y012025D03*
X005569Y011282D03*
X005369Y011239D03*
X006869Y011982D03*
X006941Y011982D03*
X006969Y011982D03*
X007041Y011982D03*
X007041Y013111D03*
X006969Y013111D03*
X006941Y013111D03*
X006869Y013111D03*
X003169Y013211D03*
X003041Y013111D03*
X002969Y013125D03*
X002941Y013125D03*
X002869Y013139D03*
X002741Y013168D03*
X002641Y012839D03*
X002569Y012282D03*
X002541Y012282D03*
X002469Y012282D03*
X002441Y012282D03*
X002369Y012282D03*
X002341Y012282D03*
X002269Y012282D03*
X002669Y011511D03*
X002769Y011525D03*
X003169Y011882D03*
X003141Y011954D03*
D49*
X002741Y012361D03*
X005069Y010233D03*
X005969Y012147D03*
X006041Y012533D03*
X006141Y012533D03*
X005469Y012761D03*
X007041Y012790D03*
X007041Y012333D03*
X005069Y014861D03*
D50*
X005512Y013825D03*
X005684Y012968D03*
X005698Y012925D03*
X005727Y012868D03*
X005784Y012725D03*
X005827Y012625D03*
X005812Y012425D03*
X005784Y012368D03*
X005727Y012225D03*
X005698Y012168D03*
X005684Y012125D03*
X005512Y011268D03*
X006884Y011982D03*
X006898Y011982D03*
X006912Y011982D03*
X006927Y011982D03*
X006984Y011982D03*
X006998Y011982D03*
X007012Y011982D03*
X007027Y011982D03*
X007027Y013111D03*
X007012Y013111D03*
X006998Y013111D03*
X006984Y013111D03*
X006927Y013111D03*
X006912Y013111D03*
X006898Y013111D03*
X006884Y013111D03*
X003298Y013654D03*
X003227Y013668D03*
X003184Y013654D03*
X002827Y013739D03*
X002512Y013311D03*
X002727Y013168D03*
X002784Y013154D03*
X002798Y013154D03*
X002812Y013154D03*
X002827Y013154D03*
X002884Y013139D03*
X002898Y013139D03*
X002912Y013139D03*
X002984Y013125D03*
X002998Y013125D03*
X003027Y013111D03*
X003127Y013054D03*
X003127Y013211D03*
X002684Y012854D03*
X002598Y012282D03*
X002584Y012282D03*
X002527Y012282D03*
X002512Y012282D03*
X002498Y012282D03*
X002484Y012282D03*
X002427Y012282D03*
X002412Y012282D03*
X002398Y012282D03*
X002384Y012282D03*
X002327Y012282D03*
X002312Y012282D03*
X002298Y012282D03*
X002284Y012282D03*
X002684Y012239D03*
X003127Y012039D03*
X003184Y011439D03*
X003227Y011425D03*
X003298Y011439D03*
X002827Y011354D03*
D51*
X002927Y011311D03*
X003327Y011768D03*
X003412Y011782D03*
X003427Y011782D03*
X003584Y011811D03*
X003598Y011811D03*
X003612Y011811D03*
X003227Y011882D03*
X003412Y013311D03*
X003427Y013311D03*
X003327Y013325D03*
X003584Y013282D03*
X003598Y013282D03*
X003612Y013282D03*
X002927Y013782D03*
X004784Y015382D03*
X004798Y015368D03*
X004884Y015282D03*
X004898Y015268D03*
X005584Y015625D03*
X005627Y015668D03*
X005684Y015725D03*
X007027Y012325D03*
X004898Y009825D03*
X004884Y009811D03*
X004798Y009725D03*
X004784Y009711D03*
X005584Y009468D03*
X005627Y009425D03*
X005684Y009368D03*
D52*
X007012Y012804D03*
X002627Y013090D03*
X002627Y012004D03*
D53*
X002812Y012040D03*
X002884Y011540D03*
X002898Y011540D03*
X002912Y011540D03*
X002984Y011554D03*
X002998Y011554D03*
X003027Y011568D03*
X003112Y011583D03*
X003127Y011583D03*
X003184Y011597D03*
X003198Y011783D03*
X003184Y011983D03*
X002827Y011526D03*
X002812Y011526D03*
X002798Y011526D03*
X002884Y011326D03*
X002627Y012368D03*
X002612Y012368D03*
X002598Y012368D03*
X002584Y012368D03*
X002527Y012368D03*
X002512Y012368D03*
X002498Y012368D03*
X002484Y012368D03*
X002427Y012368D03*
X002412Y012368D03*
X002398Y012368D03*
X002384Y012368D03*
X002327Y012368D03*
X002312Y012368D03*
X002298Y012368D03*
X002284Y012368D03*
X002812Y013054D03*
X002812Y013240D03*
X002798Y013240D03*
X002784Y013240D03*
X002827Y013240D03*
X002884Y013226D03*
X002898Y013226D03*
X002912Y013226D03*
X002984Y013211D03*
X002998Y013211D03*
X003027Y013197D03*
X003084Y013197D03*
X003184Y013111D03*
X003198Y013311D03*
X002884Y013768D03*
X004427Y013826D03*
X004484Y013826D03*
X004498Y013826D03*
X004512Y013826D03*
X004527Y013826D03*
X004584Y013826D03*
X006298Y013268D03*
X006312Y013254D03*
X006327Y013226D03*
X007012Y012326D03*
X006327Y011868D03*
X006312Y011840D03*
X006298Y011826D03*
X004584Y011468D03*
X004527Y011468D03*
X004512Y011468D03*
X004498Y011468D03*
X004484Y011468D03*
X004427Y011468D03*
D54*
X005198Y011997D03*
X005212Y011997D03*
X005227Y011997D03*
X005284Y011997D03*
X005298Y011997D03*
X005312Y011997D03*
X005327Y011997D03*
X005384Y011997D03*
X005398Y011997D03*
X005412Y011997D03*
X005427Y011997D03*
X005484Y011997D03*
X005498Y011997D03*
X005512Y011997D03*
X005527Y011997D03*
X005584Y011997D03*
X005598Y011997D03*
X005612Y011997D03*
X006027Y012340D03*
X005612Y013097D03*
X005598Y013097D03*
X005584Y013097D03*
X005527Y013097D03*
X005512Y013097D03*
X005498Y013097D03*
X005484Y013097D03*
X005427Y013097D03*
X005412Y013097D03*
X005398Y013097D03*
X005384Y013097D03*
X005327Y013097D03*
X005312Y013097D03*
X005298Y013097D03*
X005284Y013097D03*
X005227Y013097D03*
X005212Y013097D03*
X005198Y013097D03*
X006998Y012797D03*
X003098Y013040D03*
X002698Y013254D03*
X002598Y012854D03*
X002627Y012297D03*
X002612Y012240D03*
X002598Y012240D03*
X003098Y012054D03*
X002812Y011354D03*
X002812Y013740D03*
D55*
X003084Y013125D03*
X002227Y012368D03*
X003184Y011668D03*
X006027Y012725D03*
X006998Y012325D03*
D56*
X006898Y012547D03*
X006012Y013347D03*
X005998Y013361D03*
X006184Y013790D03*
X006127Y013833D03*
X006112Y013847D03*
X004984Y014904D03*
X003127Y013861D03*
X003112Y013847D03*
X003098Y013847D03*
X003084Y013833D03*
X002427Y012090D03*
X003112Y011790D03*
X003084Y011261D03*
X003098Y011247D03*
X003112Y011247D03*
X003127Y011233D03*
X004984Y010190D03*
X006112Y011247D03*
X006127Y011261D03*
X006184Y011304D03*
X005998Y011733D03*
X006012Y011747D03*
D57*
X006884Y012547D03*
X002527Y011647D03*
D58*
X004269Y012804D03*
X004341Y012804D03*
X004369Y012804D03*
X006869Y012547D03*
D59*
X006855Y012547D03*
D60*
X006841Y012547D03*
D61*
X006827Y012547D03*
X005927Y012547D03*
X005912Y012547D03*
D62*
X006812Y012547D03*
D63*
X006798Y012547D03*
X005527Y014847D03*
X005527Y010247D03*
D64*
X006784Y012547D03*
D65*
X006769Y012547D03*
D66*
X006755Y012547D03*
D67*
X006741Y012547D03*
D68*
X006727Y012547D03*
D69*
X006712Y012547D03*
D70*
X006698Y012547D03*
D71*
X006684Y012547D03*
D72*
X006669Y012047D03*
X006669Y013047D03*
D73*
X006655Y013111D03*
X006655Y011982D03*
X005355Y011625D03*
X005255Y011625D03*
X005255Y013468D03*
X005355Y013468D03*
D74*
X005541Y013447D03*
X005569Y013447D03*
X006641Y013161D03*
X006641Y011933D03*
X006069Y011947D03*
X005569Y011647D03*
X005541Y011647D03*
X004669Y010033D03*
X004669Y015061D03*
D75*
X004684Y013597D03*
X004698Y013597D03*
X004712Y013597D03*
X004727Y013597D03*
X004627Y013597D03*
X004612Y013597D03*
X004598Y013597D03*
X004412Y011697D03*
X004398Y011697D03*
X004384Y011697D03*
X004327Y011697D03*
X004312Y011697D03*
X004298Y011697D03*
X004284Y011697D03*
X006627Y011897D03*
X006627Y013197D03*
D76*
X006612Y013240D03*
X006112Y013140D03*
X006612Y011854D03*
D77*
X006598Y011826D03*
X006112Y011940D03*
X006184Y013068D03*
X006598Y013268D03*
X003612Y012911D03*
X003598Y012911D03*
X003584Y012911D03*
X003584Y012183D03*
X003598Y012183D03*
X003612Y012183D03*
D78*
X003627Y012190D03*
X003627Y012904D03*
X002512Y011647D03*
X002498Y011647D03*
X002012Y012547D03*
X001998Y012547D03*
X004784Y015004D03*
X006198Y013047D03*
X006584Y013304D03*
X006584Y011790D03*
X004784Y010090D03*
D79*
X006569Y011768D03*
X006569Y013325D03*
D80*
X006555Y013354D03*
X006155Y011968D03*
X006555Y011739D03*
D81*
X006541Y011711D03*
X006241Y013011D03*
X006141Y013139D03*
X006541Y013382D03*
X003241Y012882D03*
X003241Y012211D03*
X002541Y013482D03*
D82*
X002698Y013504D03*
X006527Y013404D03*
X006527Y011690D03*
D83*
X006498Y011647D03*
X006527Y012547D03*
X005827Y012947D03*
X006498Y013447D03*
X003212Y012861D03*
X003012Y012861D03*
X002884Y012861D03*
X002584Y012633D03*
X002527Y012633D03*
X002512Y012633D03*
X002498Y012633D03*
X002484Y012633D03*
X002427Y012633D03*
X002412Y012633D03*
X002398Y012633D03*
X002384Y012633D03*
X002327Y012633D03*
X002312Y012633D03*
X002298Y012633D03*
X002284Y012633D03*
X002127Y012633D03*
X002612Y013533D03*
X002784Y013504D03*
X002798Y013504D03*
X002812Y013504D03*
X002827Y013504D03*
X002884Y013490D03*
X002898Y013490D03*
X002912Y013490D03*
X002927Y013490D03*
X002984Y013476D03*
X002998Y013476D03*
X003012Y013476D03*
X003027Y013461D03*
X003084Y013461D03*
X003112Y013447D03*
X003127Y013447D03*
X003212Y012233D03*
X003012Y012233D03*
X002884Y012233D03*
D84*
X002984Y012225D03*
X002998Y012225D03*
X003227Y012225D03*
X002998Y012868D03*
X002984Y012868D03*
X006512Y013425D03*
X006512Y011668D03*
D85*
X006084Y011947D03*
X006512Y012547D03*
X004698Y010047D03*
X002627Y013447D03*
X002212Y012547D03*
X002198Y012547D03*
X002184Y012547D03*
X004698Y015047D03*
D86*
X004584Y015104D03*
X005727Y013333D03*
X006498Y012547D03*
X005727Y011761D03*
X004412Y012804D03*
X004398Y012804D03*
X004384Y012804D03*
X004327Y012804D03*
X004312Y012804D03*
X004298Y012804D03*
X004284Y012804D03*
X004584Y009990D03*
D87*
X006484Y011625D03*
X006484Y013468D03*
X002784Y011768D03*
X002612Y012625D03*
X002598Y012625D03*
D88*
X002412Y012982D03*
X003198Y013911D03*
X004427Y013011D03*
X004484Y013011D03*
X004498Y013011D03*
X004512Y013011D03*
X004527Y013011D03*
X004584Y013011D03*
X004598Y013011D03*
X004612Y013011D03*
X004627Y013011D03*
X004684Y013011D03*
X004698Y013011D03*
X004712Y013011D03*
X004727Y013011D03*
X004784Y013011D03*
X004798Y013011D03*
X004812Y013011D03*
X004827Y013011D03*
X004884Y013011D03*
X004898Y013011D03*
X004912Y013011D03*
X006012Y013911D03*
X006484Y012811D03*
X006484Y012282D03*
X006012Y011182D03*
X003198Y011182D03*
D89*
X002669Y011740D03*
X001941Y012540D03*
X005869Y012840D03*
X005869Y013411D03*
X006469Y013497D03*
X006269Y012097D03*
X006469Y011597D03*
X005869Y011683D03*
D90*
X006469Y012211D03*
X006469Y012883D03*
X004869Y014611D03*
X004841Y014611D03*
X004769Y014611D03*
X004741Y014611D03*
X004669Y014611D03*
X004641Y014611D03*
X004569Y014611D03*
X004541Y014611D03*
X004469Y014611D03*
X004441Y014611D03*
X004369Y014611D03*
X004341Y014611D03*
X004269Y014611D03*
X004241Y014611D03*
X004169Y014611D03*
X004141Y014611D03*
X004069Y014611D03*
X004041Y014611D03*
X003969Y014611D03*
X004141Y010483D03*
X004169Y010483D03*
X004241Y010483D03*
X004269Y010483D03*
X004341Y010483D03*
X004369Y010483D03*
X004441Y010483D03*
X004469Y010483D03*
X004541Y010483D03*
X004569Y010483D03*
X004641Y010483D03*
X004669Y010483D03*
X004741Y010483D03*
X004769Y010483D03*
X004841Y010483D03*
X004869Y010483D03*
D91*
X006455Y011583D03*
X006455Y013511D03*
D92*
X006455Y012932D03*
X006455Y012161D03*
X003155Y011732D03*
D93*
X006441Y011561D03*
X006441Y013532D03*
D94*
X006441Y012982D03*
X006441Y012111D03*
X004941Y009868D03*
X004841Y009768D03*
X004741Y009668D03*
X005569Y009482D03*
X005641Y009411D03*
X005669Y009382D03*
X003669Y011825D03*
X003569Y011811D03*
X003441Y011782D03*
X003369Y011768D03*
X003341Y011768D03*
X002941Y011311D03*
X003441Y013311D03*
X003369Y013325D03*
X003341Y013325D03*
X003569Y013282D03*
X003669Y013268D03*
X002941Y013782D03*
X004741Y015425D03*
X004841Y015325D03*
X004941Y015225D03*
X005569Y015611D03*
X005641Y015682D03*
X005669Y015711D03*
D95*
X006141Y013833D03*
X006169Y013804D03*
X005941Y013404D03*
X006441Y012547D03*
X005941Y011690D03*
X006169Y011290D03*
X006141Y011261D03*
X003541Y011533D03*
X003169Y011204D03*
X003541Y013561D03*
X003169Y013890D03*
D96*
X003184Y012847D03*
X003184Y012247D03*
X002998Y011804D03*
X002984Y011804D03*
X002912Y011790D03*
X002898Y011790D03*
X002884Y011790D03*
X002627Y011747D03*
X002612Y011747D03*
X004898Y010147D03*
X006427Y011547D03*
X006427Y013547D03*
X004898Y014947D03*
D97*
X006427Y012547D03*
X006212Y012047D03*
X006127Y011947D03*
X003084Y011747D03*
X002484Y011647D03*
X001984Y012547D03*
X002484Y013447D03*
D98*
X002498Y013511D03*
X005198Y010182D03*
X005884Y011682D03*
X006284Y012111D03*
X006412Y011525D03*
X006398Y011511D03*
X005884Y013411D03*
X006398Y013582D03*
X006412Y013568D03*
D99*
X006412Y013054D03*
X006198Y012540D03*
X006184Y012540D03*
X006412Y012040D03*
X003198Y013140D03*
D100*
X005527Y013447D03*
X006084Y013133D03*
X006412Y012547D03*
X005527Y011647D03*
D101*
X004912Y011168D03*
X004898Y011168D03*
X004884Y011168D03*
X004827Y011168D03*
X004812Y011168D03*
X004798Y011168D03*
X004784Y011168D03*
X004727Y011168D03*
X004712Y011168D03*
X004698Y011168D03*
X004684Y011168D03*
X004627Y011168D03*
X004612Y011168D03*
X004598Y011168D03*
X004584Y011168D03*
X004527Y011168D03*
X004512Y011168D03*
X004498Y011168D03*
X004484Y011168D03*
X004427Y011168D03*
X004227Y011168D03*
X004212Y011168D03*
X004198Y011168D03*
X004184Y011168D03*
X004127Y011168D03*
X004112Y011168D03*
X004098Y011168D03*
X003212Y011925D03*
X002727Y012311D03*
X002698Y012682D03*
X002727Y012782D03*
X003212Y013168D03*
X004098Y014125D03*
X004112Y014125D03*
X004127Y014125D03*
X004184Y014125D03*
X004198Y014125D03*
X004212Y014125D03*
X004227Y014125D03*
X005998Y012368D03*
X006398Y012011D03*
X006398Y013082D03*
D102*
X006398Y012547D03*
D103*
X005798Y012989D03*
X005798Y012104D03*
X006384Y011489D03*
X004927Y010161D03*
X003127Y012261D03*
X003112Y012261D03*
X003112Y012832D03*
X003127Y012832D03*
X002498Y013018D03*
X002484Y013018D03*
X002512Y013518D03*
X002527Y013532D03*
X004927Y014932D03*
X005184Y014918D03*
X006384Y013604D03*
D104*
X006384Y013118D03*
X006384Y011975D03*
X004584Y012518D03*
X004527Y012518D03*
X004512Y012518D03*
X004498Y012518D03*
X004484Y012518D03*
X004427Y012518D03*
X002898Y011318D03*
X002684Y011418D03*
X002698Y012418D03*
X002612Y013218D03*
X002898Y013775D03*
D105*
X004484Y015161D03*
X006384Y012547D03*
X004484Y009933D03*
D106*
X003641Y011532D03*
X003141Y012261D03*
X002641Y012604D03*
X002441Y013018D03*
X003141Y012832D03*
X003641Y013561D03*
X002469Y012061D03*
X006041Y013004D03*
X006369Y013618D03*
X006369Y011475D03*
D107*
X006369Y012547D03*
D108*
X006055Y012075D03*
X005855Y012232D03*
X005855Y012861D03*
X006355Y013632D03*
X006355Y011461D03*
D109*
X006355Y011918D03*
X006355Y013175D03*
X004555Y012518D03*
X004455Y012518D03*
D110*
X006355Y012547D03*
D111*
X006341Y011440D03*
X006341Y013654D03*
D112*
X006341Y012547D03*
X004069Y012647D03*
X004041Y012647D03*
X003969Y012647D03*
X003969Y013818D03*
X004041Y013818D03*
X004069Y013818D03*
D113*
X003598Y013561D03*
X003584Y013561D03*
X003584Y011533D03*
X003598Y011533D03*
X005898Y011661D03*
X006327Y011433D03*
X005898Y013433D03*
X006327Y013661D03*
D114*
X006327Y012547D03*
X004398Y009790D03*
X004398Y015304D03*
D115*
X006312Y013675D03*
X006312Y011418D03*
X002527Y012075D03*
X002512Y012075D03*
D116*
X006312Y012547D03*
D117*
X006027Y012090D03*
X006298Y011404D03*
X006284Y011390D03*
X006298Y013690D03*
X006284Y013704D03*
X003098Y011804D03*
X002412Y011647D03*
X001912Y012547D03*
X002427Y013004D03*
X002412Y013447D03*
D118*
X006298Y012547D03*
D119*
X006012Y011990D03*
X006284Y011804D03*
X006212Y011704D03*
X006198Y011690D03*
X005527Y012390D03*
X005512Y012390D03*
X005498Y012390D03*
X005484Y012390D03*
X005427Y012390D03*
X005412Y012390D03*
X005398Y012390D03*
X005384Y012390D03*
X005384Y012490D03*
X005398Y012490D03*
X005412Y012490D03*
X005427Y012490D03*
X005484Y012490D03*
X005498Y012490D03*
X005512Y012490D03*
X005527Y012490D03*
X005527Y012604D03*
X005512Y012604D03*
X005498Y012604D03*
X005484Y012604D03*
X005427Y012604D03*
X005412Y012604D03*
X005398Y012604D03*
X005384Y012604D03*
X005384Y012704D03*
X005398Y012704D03*
X005412Y012704D03*
X005427Y012704D03*
X005327Y012704D03*
X005312Y012704D03*
X005298Y012704D03*
X005284Y012704D03*
X006012Y013104D03*
X006284Y013290D03*
X006212Y013390D03*
X006198Y013404D03*
X002784Y011433D03*
X002598Y011504D03*
X002127Y012304D03*
X002112Y012390D03*
X002098Y012390D03*
X002498Y013247D03*
X002584Y013304D03*
D120*
X006284Y012732D03*
D121*
X005969Y013375D03*
X006269Y013718D03*
X005969Y011718D03*
X006269Y011375D03*
D122*
X006269Y011783D03*
X006269Y013311D03*
X004569Y013826D03*
X004541Y013826D03*
X004469Y013826D03*
X004441Y013826D03*
X003069Y013197D03*
X003041Y013197D03*
X002969Y013211D03*
X002869Y013226D03*
X002841Y013240D03*
X002741Y013254D03*
X002569Y013311D03*
X002741Y012911D03*
X002641Y012368D03*
X002569Y012368D03*
X002541Y012368D03*
X002469Y012368D03*
X002441Y012368D03*
X002369Y012368D03*
X002341Y012368D03*
X002269Y012368D03*
X002869Y011540D03*
X002941Y011554D03*
X002969Y011554D03*
X003041Y011568D03*
X003069Y011568D03*
X003141Y011583D03*
X002669Y011411D03*
X002569Y011426D03*
X004441Y011468D03*
X004469Y011468D03*
X004541Y011468D03*
X004569Y011468D03*
D123*
X004869Y010133D03*
X006269Y012990D03*
X004869Y014961D03*
X003141Y013447D03*
X003069Y013461D03*
X003041Y013461D03*
X002969Y013476D03*
X002869Y013490D03*
X002841Y013504D03*
X002769Y013518D03*
X002741Y013518D03*
X002569Y012633D03*
X002541Y012633D03*
X002469Y012633D03*
X002441Y012633D03*
X002369Y012633D03*
X002341Y012633D03*
X002269Y012633D03*
X002769Y011761D03*
D124*
X006269Y012532D03*
D125*
X006255Y011361D03*
X006255Y013733D03*
D126*
X006255Y013004D03*
D127*
X006255Y012532D03*
X002955Y012218D03*
X002955Y012875D03*
D128*
X002555Y012633D03*
X002455Y012633D03*
X002355Y012633D03*
X002255Y012633D03*
X002455Y013447D03*
X002755Y013518D03*
X002955Y013476D03*
X003055Y013461D03*
X002755Y011747D03*
X002455Y011647D03*
X005855Y011690D03*
X006255Y012076D03*
X005855Y013404D03*
D129*
X006241Y013740D03*
X005841Y012868D03*
X005541Y012811D03*
X005341Y012497D03*
X005269Y012497D03*
X005841Y012226D03*
X006241Y011354D03*
X005169Y010183D03*
X004969Y010183D03*
X002841Y012283D03*
X002569Y012083D03*
X002541Y012083D03*
X002841Y012811D03*
X002569Y013011D03*
X004969Y014911D03*
X005169Y014911D03*
D130*
X006169Y013433D03*
X006241Y013347D03*
X005541Y012604D03*
X005469Y012604D03*
X005441Y012604D03*
X005369Y012604D03*
X005369Y012704D03*
X005341Y012704D03*
X005269Y012704D03*
X005441Y012704D03*
X005441Y012490D03*
X005469Y012490D03*
X005541Y012490D03*
X005541Y012390D03*
X005469Y012390D03*
X005441Y012390D03*
X005369Y012390D03*
X005369Y012490D03*
X006169Y011661D03*
X006241Y011747D03*
X003169Y012004D03*
X002941Y011447D03*
X002869Y011333D03*
X002641Y011404D03*
X002641Y011504D03*
X003169Y013090D03*
X002869Y013761D03*
D131*
X003269Y013440D03*
X003269Y011654D03*
X006241Y012540D03*
D132*
X006241Y012068D03*
X002969Y012225D03*
X002969Y012868D03*
X002241Y012625D03*
D133*
X002784Y012540D03*
X003212Y011626D03*
X003212Y013468D03*
X005284Y012497D03*
X005298Y012497D03*
X005312Y012497D03*
X005327Y012497D03*
X005484Y012811D03*
X005498Y012811D03*
X005512Y012811D03*
X005527Y012811D03*
X005984Y013368D03*
X006227Y013754D03*
X006212Y013768D03*
X006198Y013783D03*
X005984Y011726D03*
X006227Y011340D03*
X006212Y011326D03*
X006198Y011311D03*
D134*
X006184Y011675D03*
X006227Y011718D03*
X005598Y012275D03*
X005584Y012275D03*
X005427Y012275D03*
X005412Y012275D03*
X005398Y012275D03*
X005384Y012275D03*
X005384Y012175D03*
X005398Y012175D03*
X005412Y012175D03*
X005427Y012175D03*
X005427Y012818D03*
X005412Y012818D03*
X005398Y012818D03*
X005384Y012818D03*
X005327Y012818D03*
X005312Y012818D03*
X005298Y012818D03*
X005284Y012818D03*
X005284Y012918D03*
X005298Y012918D03*
X005312Y012918D03*
X005327Y012918D03*
X005384Y012918D03*
X005398Y012918D03*
X005412Y012918D03*
X005427Y012918D03*
X006012Y012718D03*
X006227Y013375D03*
X006184Y013418D03*
X002712Y012818D03*
X002598Y013218D03*
X002712Y012275D03*
X002584Y011418D03*
D135*
X005784Y011675D03*
X006198Y012032D03*
X006227Y013032D03*
X005784Y013418D03*
D136*
X006227Y012540D03*
X005827Y012140D03*
X004884Y010140D03*
X003198Y012240D03*
X003027Y012240D03*
X003027Y012854D03*
X003198Y012854D03*
X002027Y012611D03*
X004884Y014954D03*
D137*
X004827Y014982D03*
X005227Y014911D03*
X005798Y013425D03*
X006227Y012054D03*
X005798Y011668D03*
X005227Y010182D03*
X004827Y010111D03*
D138*
X004798Y010097D03*
X006212Y013040D03*
X006127Y013140D03*
X004798Y014997D03*
D139*
X006212Y012532D03*
X002584Y011732D03*
X002112Y012632D03*
X002098Y012632D03*
X002598Y013532D03*
D140*
X006184Y012018D03*
D141*
X006169Y013090D03*
X005241Y014904D03*
X003669Y012904D03*
X003641Y012904D03*
X003641Y012190D03*
X003669Y012190D03*
X005241Y010190D03*
D142*
X006169Y012539D03*
D143*
X006169Y011997D03*
D144*
X006155Y011275D03*
X006155Y013818D03*
D145*
X006055Y013554D03*
X006155Y013454D03*
X006155Y011640D03*
X006055Y011540D03*
X002955Y011454D03*
X002855Y011340D03*
X002855Y013754D03*
D146*
X006155Y013118D03*
D147*
X006155Y012540D03*
D148*
X006141Y011625D03*
X006141Y013468D03*
X003069Y011468D03*
X003041Y011468D03*
X002841Y011425D03*
X002241Y012368D03*
D149*
X001969Y012547D03*
X002469Y011647D03*
X002469Y013447D03*
X006141Y011947D03*
D150*
X006127Y011611D03*
X006098Y011582D03*
X006012Y011511D03*
X006127Y013482D03*
X006098Y013511D03*
X006012Y013582D03*
X003312Y013282D03*
X002698Y013182D03*
X002584Y013211D03*
X002527Y013311D03*
X003312Y011811D03*
X003127Y011482D03*
X003112Y011482D03*
X002598Y011411D03*
D151*
X002884Y011440D03*
X002898Y011440D03*
X002912Y011440D03*
X002984Y011454D03*
X002998Y011454D03*
X003184Y011840D03*
X002698Y012254D03*
X002684Y012340D03*
X002798Y012540D03*
X002684Y012754D03*
X002698Y012840D03*
X002712Y013254D03*
X003112Y013197D03*
X003184Y013254D03*
X002227Y012297D03*
X002112Y012297D03*
X002098Y012297D03*
X005727Y011340D03*
X005912Y011440D03*
X005998Y011497D03*
X006112Y011597D03*
X006012Y012354D03*
X006112Y013497D03*
X005998Y013597D03*
X005912Y013654D03*
X005727Y013754D03*
D152*
X005912Y013440D03*
X006027Y013340D03*
X006098Y013854D03*
X004998Y014897D03*
X003527Y013554D03*
X003512Y013554D03*
X003498Y013554D03*
X003184Y013897D03*
X002712Y012554D03*
X003498Y011540D03*
X003512Y011540D03*
X003527Y011540D03*
X003184Y011197D03*
X004998Y010197D03*
X006098Y011240D03*
X005912Y011654D03*
X006027Y011754D03*
D153*
X006098Y013139D03*
X004712Y015039D03*
X003298Y012939D03*
X003298Y012154D03*
X004712Y010054D03*
D154*
X004084Y010647D03*
X004027Y010647D03*
X004012Y010647D03*
X003998Y010647D03*
X003984Y010647D03*
X006098Y011947D03*
D155*
X006084Y011568D03*
X006027Y011525D03*
X006084Y013525D03*
X006027Y013568D03*
X003327Y013668D03*
X002827Y013068D03*
X002798Y012768D03*
X002827Y012025D03*
X002784Y011525D03*
X002798Y011425D03*
X002812Y011425D03*
X002827Y011425D03*
X003027Y011468D03*
X003084Y011468D03*
X003327Y011425D03*
X002027Y012325D03*
D156*
X003169Y013475D03*
X006069Y013875D03*
X006069Y011218D03*
D157*
X005841Y011397D03*
X006041Y011540D03*
X006069Y011554D03*
X006069Y013540D03*
X006041Y013554D03*
X005841Y013697D03*
X003241Y013640D03*
X002369Y013454D03*
X002369Y011640D03*
X002869Y011440D03*
X002969Y011454D03*
X003241Y011454D03*
D158*
X005469Y011640D03*
X006069Y013140D03*
X005469Y013454D03*
D159*
X005969Y012940D03*
X006069Y012540D03*
D160*
X006055Y011211D03*
X004855Y013011D03*
X004755Y013011D03*
X004655Y013011D03*
X004555Y013011D03*
X004455Y013011D03*
X003155Y013882D03*
X003155Y011211D03*
X006055Y013882D03*
D161*
X006055Y013332D03*
X006055Y011761D03*
X003455Y011061D03*
X003055Y011275D03*
X003055Y013818D03*
X003455Y014032D03*
D162*
X003655Y013568D03*
X003655Y011525D03*
X006055Y013011D03*
D163*
X006041Y013340D03*
X006041Y013897D03*
X005141Y014897D03*
X006041Y011754D03*
X006041Y011197D03*
X005141Y010197D03*
D164*
X004941Y010168D03*
X006041Y012082D03*
X004941Y014925D03*
X002441Y012068D03*
D165*
X006027Y012997D03*
D166*
X005998Y012611D03*
X005784Y013011D03*
X005784Y012082D03*
X005184Y010182D03*
X003627Y011525D03*
X003612Y011525D03*
X002498Y012068D03*
X002484Y012068D03*
X002512Y013011D03*
X002527Y013011D03*
X003612Y013568D03*
X003627Y013568D03*
D167*
X002727Y013461D03*
X005984Y012533D03*
D168*
X005969Y011482D03*
X005869Y011411D03*
X005969Y013611D03*
X005869Y013682D03*
X003141Y011482D03*
X002041Y012311D03*
X002569Y013211D03*
D169*
X005969Y012539D03*
D170*
X005955Y011147D03*
X005955Y013947D03*
D171*
X005955Y013390D03*
X005955Y011704D03*
X002655Y012590D03*
X002555Y013004D03*
D172*
X005455Y014847D03*
X005955Y012547D03*
X005455Y010247D03*
D173*
X005941Y011147D03*
X005941Y013947D03*
X003269Y013947D03*
X003269Y011147D03*
D174*
X003441Y011361D03*
X003541Y011318D03*
X003669Y011275D03*
X003341Y011418D03*
X003141Y012032D03*
X003141Y013061D03*
X002541Y013218D03*
X003341Y013675D03*
X003441Y013732D03*
X003541Y013775D03*
X003669Y013818D03*
X005241Y013861D03*
X005269Y013861D03*
X005341Y013861D03*
X005469Y013832D03*
X005541Y013818D03*
X005669Y013775D03*
X005769Y013732D03*
X005941Y013632D03*
X005769Y012761D03*
X005941Y011461D03*
X005769Y011361D03*
X005669Y011318D03*
X005541Y011275D03*
X005469Y011261D03*
X005341Y011232D03*
X005269Y011232D03*
X005241Y011232D03*
D175*
X005941Y012547D03*
D176*
X005927Y011447D03*
X005427Y011247D03*
X005412Y011247D03*
X005398Y011247D03*
X005384Y011247D03*
X003484Y011347D03*
X003484Y013747D03*
X005384Y013847D03*
X005398Y013847D03*
X005412Y013847D03*
X005427Y013847D03*
X005927Y013647D03*
D177*
X005898Y012825D03*
X005898Y012268D03*
D178*
X005884Y012261D03*
X005827Y011675D03*
X005812Y011675D03*
X005884Y012832D03*
X005827Y013418D03*
X005812Y013418D03*
X003227Y012875D03*
X002927Y012875D03*
X002912Y012875D03*
X002898Y012875D03*
X002898Y012218D03*
X002912Y012218D03*
X002927Y012218D03*
X002684Y011732D03*
X002227Y012618D03*
D179*
X005241Y013097D03*
X005269Y013097D03*
X005341Y013097D03*
X005369Y013097D03*
X005441Y013097D03*
X005469Y013097D03*
X005541Y013097D03*
X005569Y013097D03*
X005869Y012540D03*
X005569Y011997D03*
X005541Y011997D03*
X005469Y011997D03*
X005441Y011997D03*
X005369Y011997D03*
X005341Y011997D03*
X005269Y011997D03*
X005241Y011997D03*
D180*
X005869Y012247D03*
X003041Y012247D03*
X002869Y012247D03*
X002941Y011804D03*
X002969Y011804D03*
X002869Y011790D03*
X002641Y011747D03*
X002441Y011647D03*
X002869Y012847D03*
X003041Y012847D03*
X002441Y013447D03*
D181*
X003655Y014097D03*
X005555Y014097D03*
X005855Y013997D03*
X005855Y011097D03*
X005555Y010997D03*
X003655Y010997D03*
D182*
X003155Y011489D03*
X002355Y012204D03*
X002055Y012304D03*
X005855Y011404D03*
X005855Y013689D03*
D183*
X005841Y013411D03*
X005841Y011683D03*
D184*
X005841Y011989D03*
X005641Y011304D03*
X005841Y013104D03*
X005641Y013789D03*
X003641Y013804D03*
X003569Y013789D03*
X003369Y013689D03*
X002641Y013104D03*
X002069Y012304D03*
X002041Y012389D03*
X002241Y012289D03*
X002641Y011989D03*
X003369Y011404D03*
X003569Y011304D03*
X003641Y011289D03*
D185*
X002669Y012297D03*
X002669Y012797D03*
X005669Y012997D03*
X005841Y012597D03*
X005841Y012497D03*
X005669Y012097D03*
D186*
X005812Y010061D03*
X005812Y015033D03*
D187*
X005198Y014918D03*
X005812Y012975D03*
X005812Y012118D03*
X003027Y011818D03*
X003012Y011818D03*
X002827Y011775D03*
X002812Y011775D03*
X002798Y011775D03*
X002627Y012618D03*
D188*
X005798Y015040D03*
X005798Y010054D03*
D189*
X005784Y010047D03*
X005784Y015047D03*
D190*
X005769Y015040D03*
X005769Y010054D03*
D191*
X005769Y011818D03*
X005769Y013275D03*
D192*
X005755Y015033D03*
X005755Y010061D03*
D193*
X005655Y011025D03*
X005755Y011054D03*
X004655Y011539D03*
X004655Y012582D03*
X004355Y013754D03*
X003555Y014068D03*
X003555Y011025D03*
X005655Y014068D03*
X005755Y014039D03*
D194*
X005755Y013747D03*
X005755Y011347D03*
D195*
X005755Y011804D03*
X005755Y013289D03*
D196*
X005755Y012797D03*
X005755Y012297D03*
D197*
X005741Y010061D03*
X005741Y015032D03*
D198*
X005441Y013847D03*
X005741Y013747D03*
X005741Y011347D03*
X005441Y011247D03*
X003469Y011347D03*
X002841Y011347D03*
X002841Y013147D03*
X002841Y013747D03*
X003469Y013747D03*
D199*
X004541Y015125D03*
X005341Y014882D03*
X005741Y013311D03*
X005741Y011782D03*
X005341Y010211D03*
X004541Y009968D03*
D200*
X005727Y010068D03*
X005727Y015025D03*
D201*
X004598Y015097D03*
X005712Y013354D03*
X005712Y011740D03*
X004598Y009997D03*
D202*
X004427Y009354D03*
X004712Y009639D03*
X004727Y009654D03*
X004812Y009739D03*
X004827Y009754D03*
X004912Y009839D03*
X004927Y009854D03*
X005598Y009454D03*
X005612Y009439D03*
X005698Y009354D03*
X004927Y015239D03*
X004912Y015254D03*
X004827Y015339D03*
X004812Y015354D03*
X004727Y015439D03*
X004712Y015454D03*
X004427Y015739D03*
X005598Y015639D03*
X005612Y015654D03*
X005698Y015739D03*
D203*
X004627Y015082D03*
X005227Y013468D03*
X005284Y013468D03*
X005298Y013468D03*
X005312Y013468D03*
X005327Y013468D03*
X005698Y013368D03*
X005698Y011725D03*
X005327Y011625D03*
X005312Y011625D03*
X005298Y011625D03*
X005284Y011625D03*
X005227Y011625D03*
X004627Y010011D03*
D204*
X005484Y011640D03*
X005498Y011640D03*
X005512Y011640D03*
X005684Y011697D03*
X005684Y013397D03*
X005512Y013454D03*
X005498Y013454D03*
X005484Y013454D03*
D205*
X005669Y014897D03*
X005669Y010197D03*
D206*
X005669Y011683D03*
X005669Y013411D03*
D207*
X005555Y015597D03*
X005655Y015697D03*
X005555Y009497D03*
X005655Y009397D03*
D208*
X005655Y010197D03*
X005655Y014897D03*
D209*
X005655Y013425D03*
X005655Y011668D03*
D210*
X005641Y010204D03*
X005641Y014890D03*
D211*
X005641Y013432D03*
X005641Y011661D03*
X002741Y011661D03*
D212*
X005627Y010211D03*
X005627Y014883D03*
D213*
X005627Y013432D03*
X005627Y011661D03*
X002727Y011661D03*
X002712Y011661D03*
D214*
X005612Y010218D03*
X005612Y014875D03*
D215*
X005284Y014897D03*
X004684Y015054D03*
X005584Y013440D03*
X005598Y013440D03*
X005612Y013440D03*
X005612Y011654D03*
X005598Y011654D03*
X005584Y011654D03*
X005284Y010197D03*
X004684Y010040D03*
X002927Y011697D03*
X002698Y011654D03*
X002684Y013440D03*
D216*
X005598Y014875D03*
X005598Y010218D03*
D217*
X005584Y010225D03*
X005584Y014868D03*
D218*
X005569Y014861D03*
X005569Y010232D03*
D219*
X005569Y010997D03*
X003369Y011097D03*
X003369Y013997D03*
X005569Y014097D03*
D220*
X005555Y014854D03*
X005555Y010240D03*
D221*
X005255Y011232D03*
X005555Y011275D03*
X005555Y013818D03*
X005255Y013861D03*
X003655Y013818D03*
X003555Y013775D03*
X003455Y013732D03*
X003155Y011918D03*
X003455Y011361D03*
X003555Y011318D03*
X003655Y011275D03*
D222*
X005555Y011647D03*
X005555Y013447D03*
D223*
X005555Y013097D03*
X005455Y013097D03*
X005355Y013097D03*
X005255Y013097D03*
X005255Y011997D03*
X005355Y011997D03*
X005455Y011997D03*
X005555Y011997D03*
D224*
X005555Y012811D03*
X002555Y012083D03*
D225*
X005555Y012225D03*
D226*
X004869Y012218D03*
X004841Y012218D03*
X004769Y012218D03*
X004741Y012218D03*
X004669Y012218D03*
X004641Y012218D03*
X004569Y012218D03*
X004541Y012218D03*
X004469Y012218D03*
X004441Y012218D03*
X004369Y012218D03*
X004341Y012218D03*
X004269Y012218D03*
X004241Y012218D03*
X004169Y012218D03*
X004141Y012218D03*
X004141Y011904D03*
X004169Y011904D03*
X004241Y011904D03*
X004441Y011904D03*
X004469Y011904D03*
X004541Y011904D03*
X004569Y011904D03*
X004641Y011904D03*
X004669Y011904D03*
X004741Y011904D03*
X004769Y011904D03*
X004841Y011904D03*
X004869Y011904D03*
X004869Y013389D03*
X004841Y013389D03*
X004769Y013389D03*
X004569Y013389D03*
X004541Y013389D03*
X004469Y013389D03*
X004441Y013389D03*
X004369Y013389D03*
X004341Y013389D03*
X004269Y013389D03*
X004241Y013389D03*
X004169Y013389D03*
X004141Y013389D03*
X003341Y013518D03*
X003341Y011575D03*
X004669Y009589D03*
X004641Y009561D03*
X004569Y009489D03*
X004541Y009461D03*
X004469Y009389D03*
X004441Y009361D03*
X004969Y009904D03*
X005041Y009975D03*
X005069Y009989D03*
X005141Y009918D03*
X005169Y009889D03*
X005241Y009818D03*
X005269Y009789D03*
X005341Y009718D03*
X005369Y009689D03*
X005441Y009618D03*
X005469Y009589D03*
X005541Y009518D03*
X005069Y015104D03*
X005041Y015118D03*
X004969Y015189D03*
X005141Y015175D03*
X005169Y015204D03*
X005241Y015275D03*
X005269Y015304D03*
X005341Y015375D03*
X005369Y015404D03*
X005441Y015475D03*
X005469Y015504D03*
X005541Y015575D03*
X004669Y015504D03*
X004641Y015532D03*
X004569Y015604D03*
X004541Y015632D03*
X004469Y015704D03*
X004441Y015732D03*
D227*
X005541Y014847D03*
X005541Y010247D03*
D228*
X005541Y012225D03*
X005341Y012225D03*
X005269Y012225D03*
X002741Y012725D03*
D229*
X002812Y012768D03*
X002812Y012325D03*
X005284Y012225D03*
X005298Y012225D03*
X005312Y012225D03*
X005327Y012225D03*
X005484Y012225D03*
X005498Y012225D03*
X005512Y012225D03*
X005527Y012225D03*
D230*
X004727Y010847D03*
X004712Y010847D03*
X004698Y010847D03*
X004684Y010847D03*
X004627Y010847D03*
X004612Y010847D03*
X004598Y010847D03*
X004584Y010847D03*
X004527Y010847D03*
X004512Y010847D03*
X004498Y010847D03*
X004484Y010847D03*
X004427Y010847D03*
X005012Y009947D03*
X005112Y009947D03*
X005212Y009847D03*
X005312Y009747D03*
X005412Y009647D03*
X005512Y009547D03*
X004627Y009547D03*
X004527Y009447D03*
X004227Y012947D03*
X004212Y012947D03*
X004198Y012947D03*
X004184Y012947D03*
X004127Y012947D03*
X004112Y012947D03*
X004098Y012947D03*
X005012Y015147D03*
X005112Y015147D03*
X005212Y015247D03*
X005312Y015347D03*
X005412Y015447D03*
X005512Y015547D03*
X004627Y015547D03*
X004527Y015647D03*
D231*
X005512Y014839D03*
X005512Y010254D03*
D232*
X005498Y010254D03*
X005498Y014840D03*
D233*
X005484Y014840D03*
X004384Y015311D03*
X005484Y010254D03*
X004384Y009783D03*
D234*
X005469Y010247D03*
X005469Y014847D03*
D235*
X005155Y015189D03*
X005055Y015104D03*
X005255Y015289D03*
X005355Y015389D03*
X005455Y015489D03*
X004655Y015518D03*
X004555Y015618D03*
X004455Y015718D03*
X004455Y013389D03*
X004355Y013389D03*
X004255Y013389D03*
X004155Y013389D03*
X004555Y013389D03*
X004755Y013389D03*
X004855Y013389D03*
X004855Y012218D03*
X004755Y012218D03*
X004655Y012218D03*
X004555Y012218D03*
X004455Y012218D03*
X004355Y012218D03*
X004255Y012218D03*
X004155Y012218D03*
X004155Y011904D03*
X004255Y011904D03*
X004455Y011904D03*
X004555Y011904D03*
X004655Y011904D03*
X004755Y011904D03*
X004855Y011904D03*
X005055Y009989D03*
X005155Y009904D03*
X005255Y009804D03*
X005355Y009704D03*
X005455Y009604D03*
X004655Y009575D03*
X004555Y009475D03*
X004455Y009375D03*
D236*
X005255Y010961D03*
X005355Y010961D03*
X005455Y010975D03*
X005455Y014118D03*
X005355Y014132D03*
X005255Y014132D03*
D237*
X005455Y013461D03*
X005455Y011632D03*
D238*
X005455Y012175D03*
X005355Y012175D03*
X005455Y012275D03*
X005455Y012818D03*
X005355Y012818D03*
X005355Y012918D03*
X005455Y012918D03*
D239*
X005441Y014854D03*
X005441Y010240D03*
D240*
X004641Y010018D03*
X005441Y011632D03*
X005441Y013461D03*
X004641Y015075D03*
D241*
X005427Y014861D03*
X005427Y010232D03*
D242*
X005427Y011632D03*
X005412Y011632D03*
X005398Y011632D03*
X005384Y011632D03*
X005384Y013461D03*
X005398Y013461D03*
X005412Y013461D03*
X005427Y013461D03*
D243*
X005412Y014861D03*
X005412Y010233D03*
D244*
X005398Y010225D03*
X005398Y014868D03*
D245*
X005384Y014868D03*
X005384Y010225D03*
D246*
X005369Y010218D03*
X005369Y014876D03*
D247*
X005369Y013468D03*
X005341Y013468D03*
X005269Y013468D03*
X005241Y013468D03*
X005241Y011625D03*
X005269Y011625D03*
X005341Y011625D03*
X005369Y011625D03*
D248*
X005355Y010218D03*
X005355Y014875D03*
D249*
X004555Y013826D03*
X004455Y013826D03*
X005355Y012497D03*
X004555Y011468D03*
X004455Y011468D03*
X003155Y011583D03*
X003055Y011568D03*
X002955Y011554D03*
X002555Y012368D03*
X002455Y012368D03*
X002355Y012368D03*
X002255Y012368D03*
X002555Y013311D03*
X002755Y013254D03*
X002955Y013211D03*
X003055Y013197D03*
D250*
X005327Y014883D03*
X005327Y010211D03*
D251*
X005312Y010204D03*
X004612Y010004D03*
X005312Y014889D03*
X004612Y015089D03*
D252*
X005298Y014890D03*
X005298Y010204D03*
D253*
X005269Y010197D03*
X004369Y011697D03*
X004341Y011697D03*
X004269Y011697D03*
X004641Y013597D03*
X004669Y013597D03*
X004741Y013597D03*
X005269Y014897D03*
D254*
X005255Y014904D03*
X005255Y010190D03*
D255*
X005212Y010183D03*
X002712Y013511D03*
X005212Y014911D03*
D256*
X005212Y013475D03*
X005198Y013475D03*
X005198Y011618D03*
X005212Y011618D03*
D257*
X005155Y010190D03*
X003555Y011533D03*
X003555Y013561D03*
X005155Y014904D03*
D258*
X005127Y012547D03*
X005112Y012547D03*
X005098Y012547D03*
X005084Y012547D03*
X005012Y012547D03*
X004998Y012547D03*
X004984Y012547D03*
X004927Y012547D03*
X003927Y012547D03*
X003912Y012547D03*
X003898Y012547D03*
X003884Y012547D03*
X003812Y012547D03*
X003798Y012547D03*
X003784Y012547D03*
D259*
X003769Y012547D03*
X003741Y012547D03*
X003869Y012547D03*
X003941Y012547D03*
X004941Y012547D03*
X004969Y012547D03*
X005069Y012547D03*
D260*
X003655Y013268D03*
X003455Y013311D03*
X003355Y013325D03*
X003355Y013525D03*
X002755Y012925D03*
X002755Y012168D03*
X003355Y011768D03*
X003455Y011782D03*
X003655Y011825D03*
X003355Y011568D03*
X004855Y009782D03*
X004755Y009682D03*
X004955Y009882D03*
X004955Y015211D03*
X004855Y015311D03*
X004755Y015411D03*
D261*
X004955Y014918D03*
X004955Y010175D03*
D262*
X004955Y012547D03*
X003855Y012547D03*
X003755Y012547D03*
D263*
X003098Y012839D03*
X003084Y012839D03*
X003084Y012254D03*
X003098Y012254D03*
X002598Y011739D03*
X002584Y013539D03*
X004912Y014939D03*
X004912Y010154D03*
D264*
X004912Y010483D03*
X004898Y010483D03*
X004884Y010483D03*
X004827Y010483D03*
X004812Y010483D03*
X004798Y010483D03*
X004784Y010483D03*
X004727Y010483D03*
X004712Y010483D03*
X004698Y010483D03*
X004684Y010483D03*
X004627Y010483D03*
X004612Y010483D03*
X004598Y010483D03*
X004584Y010483D03*
X004527Y010483D03*
X004512Y010483D03*
X004498Y010483D03*
X004484Y010483D03*
X004427Y010483D03*
X004412Y010483D03*
X004398Y010483D03*
X004384Y010483D03*
X004327Y010483D03*
X004312Y010483D03*
X004298Y010483D03*
X004284Y010483D03*
X004227Y010483D03*
X004212Y010483D03*
X004198Y010483D03*
X004184Y010483D03*
X004127Y010483D03*
X004112Y010483D03*
X004098Y010483D03*
X004098Y014611D03*
X004084Y014611D03*
X004112Y014611D03*
X004127Y014611D03*
X004184Y014611D03*
X004198Y014611D03*
X004212Y014611D03*
X004227Y014611D03*
X004284Y014611D03*
X004298Y014611D03*
X004312Y014611D03*
X004327Y014611D03*
X004384Y014611D03*
X004398Y014611D03*
X004412Y014611D03*
X004427Y014611D03*
X004484Y014611D03*
X004498Y014611D03*
X004512Y014611D03*
X004527Y014611D03*
X004584Y014611D03*
X004598Y014611D03*
X004612Y014611D03*
X004627Y014611D03*
X004684Y014611D03*
X004698Y014611D03*
X004712Y014611D03*
X004727Y014611D03*
X004784Y014611D03*
X004798Y014611D03*
X004812Y014611D03*
X004827Y014611D03*
X004884Y014611D03*
X004898Y014611D03*
X004912Y014611D03*
X004027Y014611D03*
X004012Y014611D03*
X003998Y014611D03*
X003984Y014611D03*
D265*
X004769Y015397D03*
X004869Y015297D03*
X003541Y013297D03*
X004869Y009797D03*
X004769Y009697D03*
D266*
X004769Y013011D03*
X004741Y013011D03*
X004669Y013011D03*
X004641Y013011D03*
X004569Y013011D03*
X004541Y013011D03*
X004469Y013011D03*
X004441Y013011D03*
X004841Y013011D03*
X004869Y013011D03*
D267*
X004855Y014968D03*
X004855Y010125D03*
D268*
X004855Y010483D03*
X004755Y010483D03*
X004655Y010483D03*
X004555Y010483D03*
X004455Y010483D03*
X004355Y010483D03*
X004255Y010483D03*
X004155Y010483D03*
X004155Y014611D03*
X004055Y014611D03*
X003955Y014611D03*
X004255Y014611D03*
X004355Y014611D03*
X004455Y014611D03*
X004555Y014611D03*
X004655Y014611D03*
X004755Y014611D03*
X004855Y014611D03*
D269*
X004255Y014125D03*
X004155Y014125D03*
X004155Y011168D03*
X004255Y011168D03*
X004455Y011168D03*
X004555Y011168D03*
X004655Y011168D03*
X004755Y011168D03*
X004855Y011168D03*
D270*
X004841Y010118D03*
X002941Y012218D03*
X002769Y012532D03*
X002941Y012875D03*
X002141Y012618D03*
X004841Y014975D03*
D271*
X004812Y014989D03*
X004412Y011004D03*
X004398Y011004D03*
X004384Y011004D03*
X004327Y011004D03*
X004312Y011004D03*
X004298Y011004D03*
X004284Y011004D03*
X004812Y010104D03*
D272*
X004769Y010083D03*
X003569Y012183D03*
X003269Y012183D03*
X002841Y011726D03*
X003269Y012911D03*
X003569Y012911D03*
X004769Y015011D03*
D273*
X004755Y015018D03*
X004755Y010075D03*
D274*
X004741Y010068D03*
X003441Y012168D03*
X003441Y012925D03*
X002941Y013425D03*
X004741Y015025D03*
D275*
X004241Y012947D03*
X004169Y012947D03*
X004141Y012947D03*
X004441Y010847D03*
X004469Y010847D03*
X004541Y010847D03*
X004569Y010847D03*
X004641Y010847D03*
X004669Y010847D03*
X004741Y010847D03*
D276*
X004727Y010061D03*
X003384Y012161D03*
X003327Y012161D03*
X003312Y012161D03*
X003284Y012161D03*
X003284Y012932D03*
X003312Y012932D03*
X003327Y012932D03*
X003384Y012932D03*
X004727Y015032D03*
D277*
X004655Y015068D03*
X004655Y010025D03*
D278*
X004355Y011697D03*
X004655Y013597D03*
D279*
X004255Y012947D03*
X004155Y012947D03*
X002755Y011447D03*
X004455Y010847D03*
X004555Y010847D03*
X004655Y010847D03*
D280*
X004569Y009983D03*
X004569Y015111D03*
D281*
X004569Y012518D03*
X004541Y012518D03*
X004469Y012518D03*
X004441Y012518D03*
X002369Y012175D03*
D282*
X004555Y009975D03*
X004555Y015118D03*
D283*
X004527Y015132D03*
X004527Y009961D03*
D284*
X004512Y009947D03*
X004512Y015147D03*
D285*
X004498Y015154D03*
X004498Y009940D03*
D286*
X004469Y009925D03*
X004469Y015168D03*
D287*
X004412Y015297D03*
X004412Y009797D03*
D288*
X004369Y009775D03*
X004369Y015318D03*
D289*
X004369Y011004D03*
X004341Y011004D03*
X004269Y011004D03*
D290*
X004355Y009768D03*
X004355Y015325D03*
D291*
X004355Y012804D03*
D292*
X004355Y011004D03*
D293*
X004341Y009761D03*
X004341Y015332D03*
D294*
X004327Y015332D03*
X004327Y009761D03*
D295*
X004084Y012647D03*
X004027Y012647D03*
X004012Y012647D03*
X003998Y012647D03*
X003984Y012647D03*
X003984Y013818D03*
X003998Y013818D03*
X004012Y013818D03*
X004027Y013818D03*
X004084Y013818D03*
D296*
X004084Y011540D03*
X004027Y011540D03*
X004012Y011540D03*
X003998Y011540D03*
X003984Y011540D03*
D297*
X003969Y011540D03*
X004041Y011540D03*
X004069Y011540D03*
D298*
X004069Y010647D03*
X004041Y010647D03*
X003969Y010647D03*
D299*
X003955Y012647D03*
X004055Y012647D03*
X004055Y013818D03*
X003955Y013818D03*
D300*
X003955Y011540D03*
X004055Y011540D03*
D301*
X004055Y010647D03*
X003955Y010647D03*
X002555Y011647D03*
D302*
X003069Y011811D03*
X003669Y011525D03*
X002469Y013025D03*
X003669Y013568D03*
D303*
X003469Y013304D03*
X003469Y012547D03*
X003441Y012547D03*
X003369Y012547D03*
X003341Y012547D03*
X003269Y012547D03*
X003241Y012547D03*
X003169Y012547D03*
X003141Y012547D03*
X003069Y012547D03*
X003041Y012547D03*
X002969Y012547D03*
X002941Y012547D03*
X002869Y012547D03*
X002841Y012547D03*
X003541Y012547D03*
X003569Y012547D03*
X003641Y012547D03*
X003669Y012547D03*
X003541Y011804D03*
X003469Y011790D03*
D304*
X003655Y012190D03*
X003655Y012904D03*
D305*
X003555Y013290D03*
X003555Y012547D03*
X003455Y012547D03*
X003355Y012547D03*
X003255Y012547D03*
X003155Y012547D03*
X003055Y012547D03*
X002955Y012547D03*
X002855Y012547D03*
X003555Y011804D03*
X003655Y012547D03*
X002955Y011304D03*
X002955Y013790D03*
D306*
X002769Y013218D03*
X003641Y013275D03*
X003641Y011818D03*
D307*
X003627Y011818D03*
X003398Y011775D03*
X003384Y011775D03*
X003298Y011618D03*
X003012Y013175D03*
X003298Y013475D03*
X003384Y013318D03*
X003398Y013318D03*
X003627Y013275D03*
D308*
X003227Y013204D03*
X002927Y013190D03*
X002927Y012547D03*
X002912Y012547D03*
X002898Y012547D03*
X002884Y012547D03*
X002827Y012547D03*
X002984Y012547D03*
X002998Y012547D03*
X003012Y012547D03*
X003027Y012547D03*
X003084Y012547D03*
X003098Y012547D03*
X003112Y012547D03*
X003127Y012547D03*
X003184Y012547D03*
X003198Y012547D03*
X003212Y012547D03*
X003227Y012547D03*
X003284Y012547D03*
X003298Y012547D03*
X003312Y012547D03*
X003327Y012547D03*
X003384Y012547D03*
X003398Y012547D03*
X003412Y012547D03*
X003427Y012547D03*
X003484Y012547D03*
X003498Y012547D03*
X003512Y012547D03*
X003527Y012547D03*
X003584Y012547D03*
X003598Y012547D03*
X003612Y012547D03*
X003627Y012547D03*
X003484Y011790D03*
X002384Y012147D03*
D309*
X003569Y011533D03*
X003569Y013561D03*
D310*
X003555Y012911D03*
X003555Y012183D03*
X002755Y012540D03*
D311*
X003469Y012175D03*
X003541Y012175D03*
X003541Y012918D03*
X003469Y012918D03*
D312*
X003484Y013297D03*
X003498Y013297D03*
X003512Y013297D03*
X003527Y013297D03*
X002784Y012997D03*
X002784Y012097D03*
X003498Y011797D03*
X003512Y011797D03*
X003527Y011797D03*
D313*
X003527Y012175D03*
X003512Y012175D03*
X003498Y012175D03*
X003484Y012175D03*
X003484Y012918D03*
X003498Y012918D03*
X003512Y012918D03*
X003527Y012918D03*
D314*
X003484Y013547D03*
X002398Y013447D03*
X001898Y012547D03*
X002398Y011647D03*
X003484Y011547D03*
D315*
X003455Y011547D03*
X003455Y013547D03*
D316*
X003455Y012925D03*
X003455Y012168D03*
D317*
X003441Y011547D03*
X003441Y013547D03*
D318*
X003427Y012925D03*
X003412Y012925D03*
X003398Y012925D03*
X003398Y012168D03*
X003412Y012168D03*
X003427Y012168D03*
D319*
X003384Y011561D03*
X003384Y013532D03*
D320*
X003369Y013532D03*
X002769Y012961D03*
X002769Y012132D03*
X003369Y011561D03*
D321*
X003369Y012161D03*
X003341Y012161D03*
X003341Y012932D03*
X003369Y012932D03*
D322*
X003355Y013682D03*
X002555Y013211D03*
X002355Y012882D03*
X002655Y012382D03*
X003355Y011411D03*
D323*
X003355Y012161D03*
X003355Y012932D03*
D324*
X003284Y013454D03*
X003284Y011640D03*
D325*
X003255Y011154D03*
X003255Y013940D03*
D326*
X003255Y013425D03*
X003255Y011668D03*
D327*
X003255Y012197D03*
X003255Y012897D03*
D328*
X003241Y013254D03*
X002969Y013797D03*
X003241Y011840D03*
X002969Y011297D03*
D329*
X003227Y011597D03*
X003227Y013497D03*
X003184Y013497D03*
D330*
X003212Y013683D03*
X003212Y011411D03*
D331*
X003169Y012254D03*
X003069Y012254D03*
X003069Y012839D03*
X003169Y012839D03*
D332*
X003155Y012839D03*
X003055Y012839D03*
X003155Y013454D03*
X003155Y012254D03*
X003055Y012254D03*
X002455Y012054D03*
D333*
X003041Y012025D03*
X003069Y012025D03*
X003069Y013068D03*
X003041Y013068D03*
X003141Y013225D03*
D334*
X003141Y013147D03*
D335*
X003112Y013047D03*
X002627Y012847D03*
X002627Y012247D03*
X003112Y012047D03*
D336*
X003098Y013397D03*
D337*
X003055Y011818D03*
D338*
X003041Y011818D03*
X002041Y012618D03*
D339*
X002655Y011747D03*
X002855Y011790D03*
X002955Y011804D03*
D340*
X002855Y013411D03*
D341*
X002855Y012825D03*
X002855Y012268D03*
D342*
X002855Y011490D03*
D343*
X002769Y011433D03*
D344*
X002169Y012547D03*
X002641Y013447D03*
X002669Y013447D03*
D345*
X002669Y012411D03*
D346*
X002155Y012547D03*
X002655Y013447D03*
D347*
X002655Y013125D03*
X002655Y012225D03*
X002655Y011968D03*
D348*
X002569Y013547D03*
D349*
X002569Y011725D03*
D350*
X002555Y013547D03*
D351*
X002541Y013004D03*
D352*
X002541Y011647D03*
D353*
X002055Y012632D03*
X002455Y013032D03*
D354*
X002427Y013447D03*
X001927Y012547D03*
X002427Y011647D03*
D355*
X002084Y012582D03*
D356*
X002069Y012582D03*
D357*
X001955Y012540D03*
D358*
X008952Y016213D03*
X009502Y016413D03*
X009569Y016496D03*
X010552Y015713D03*
X011619Y015763D03*
X012269Y015546D03*
X011552Y013963D03*
X011519Y011963D03*
X011519Y011663D03*
X011519Y011546D03*
X011502Y010913D03*
X011502Y010463D03*
X011519Y010146D03*
X011019Y007196D03*
X010819Y007146D03*
X010819Y007096D03*
X010769Y007096D03*
X010819Y006996D03*
X010802Y006946D03*
X010469Y006913D03*
X009269Y006713D03*
X009019Y007896D03*
X009019Y013163D03*
D359*
X009069Y013222D03*
X009019Y014472D03*
X010002Y014188D03*
X010102Y014122D03*
X010202Y014055D03*
X010752Y013772D03*
X010169Y012988D03*
X011502Y012288D03*
X011502Y012222D03*
X011502Y012155D03*
X011519Y011838D03*
X011419Y011638D03*
X011519Y011472D03*
X011502Y011455D03*
X011519Y011172D03*
X011502Y010988D03*
X011519Y010905D03*
X011519Y010838D03*
X011502Y010522D03*
X011469Y010355D03*
X010802Y010355D03*
X010669Y010022D03*
X010702Y009988D03*
X010769Y009955D03*
X010802Y009922D03*
X010769Y009688D03*
X010602Y010055D03*
X010169Y010455D03*
X010069Y010388D03*
X010202Y011055D03*
X010152Y011072D03*
X010119Y011072D03*
X010102Y011088D03*
X009019Y010072D03*
X009019Y009205D03*
X009019Y008872D03*
X009019Y008705D03*
X009019Y008638D03*
X009019Y008072D03*
X009102Y007022D03*
X009319Y006755D03*
X009452Y006855D03*
X009619Y006772D03*
X009519Y006605D03*
X010552Y006938D03*
X010669Y006955D03*
X010819Y006938D03*
X010852Y007005D03*
X010969Y007188D03*
X011002Y007188D03*
X011402Y007155D03*
X010202Y008372D03*
X010169Y008372D03*
X010152Y008372D03*
X010102Y008388D03*
X010069Y008388D03*
X010202Y008888D03*
X010069Y008988D03*
X010469Y008722D03*
X010519Y008705D03*
X010669Y009005D03*
X010702Y008988D03*
X010619Y009038D03*
X010602Y009055D03*
X010519Y009105D03*
X011752Y014638D03*
X012252Y015538D03*
X011002Y016488D03*
X010352Y016238D03*
X010019Y016438D03*
X010002Y016422D03*
X009969Y016422D03*
X009852Y016305D03*
X009819Y016305D03*
X009569Y016322D03*
X009569Y016255D03*
X009552Y016505D03*
X009502Y016522D03*
X009469Y016522D03*
X009452Y016522D03*
X009402Y016522D03*
X009369Y016522D03*
X009702Y016588D03*
X010102Y016688D03*
X009819Y017005D03*
X010669Y017488D03*
X009202Y015688D03*
X009069Y015922D03*
X009069Y016155D03*
X008919Y016205D03*
X008902Y016222D03*
D360*
X009336Y016388D03*
X009386Y016522D03*
X009486Y016522D03*
X009636Y016522D03*
X009736Y016588D03*
X009886Y016305D03*
X009236Y015688D03*
X010136Y014088D03*
X010036Y013755D03*
X009036Y013155D03*
X009036Y013088D03*
X010136Y011072D03*
X010636Y010455D03*
X010736Y010388D03*
X010836Y010322D03*
X010686Y010005D03*
X010786Y009938D03*
X010586Y010072D03*
X010036Y009688D03*
X010536Y009088D03*
X010636Y009022D03*
X010486Y008705D03*
X010186Y008372D03*
X010386Y007438D03*
X010486Y006972D03*
X010536Y006922D03*
X010636Y006955D03*
X010686Y006972D03*
X010786Y007105D03*
X011136Y007288D03*
X011386Y007072D03*
X011436Y007155D03*
X011486Y007238D03*
X009636Y006788D03*
X009136Y006922D03*
X009036Y009122D03*
X011436Y011622D03*
X011486Y011605D03*
X011536Y013955D03*
X011586Y014605D03*
X012236Y015522D03*
D361*
X012219Y015513D03*
X011552Y014213D03*
X010119Y014113D03*
X010069Y014146D03*
X009969Y014213D03*
X010152Y012996D03*
X010369Y011413D03*
X010402Y011413D03*
X010169Y011063D03*
X010069Y011096D03*
X010052Y011096D03*
X010152Y010446D03*
X010102Y010413D03*
X010619Y010463D03*
X010702Y010413D03*
X010752Y009963D03*
X010502Y009113D03*
X010169Y008913D03*
X010102Y008963D03*
X011202Y007246D03*
X010452Y006946D03*
X009169Y006946D03*
X009119Y006913D03*
X011519Y010063D03*
X011402Y011596D03*
X010052Y015763D03*
X009602Y016513D03*
X009519Y016513D03*
D362*
X009669Y016505D03*
X009702Y016505D03*
X010052Y014155D03*
X010219Y014055D03*
X010019Y013755D03*
X009069Y013305D03*
X010352Y012455D03*
X010419Y012455D03*
X010452Y012455D03*
X011519Y011255D03*
X010869Y010305D03*
X010719Y010405D03*
X010652Y010455D03*
X010619Y010055D03*
X010119Y008955D03*
X010052Y008405D03*
X010619Y006955D03*
X010652Y006955D03*
X011469Y007205D03*
X012202Y015505D03*
D363*
X012186Y015471D03*
X010786Y013771D03*
X010386Y014638D03*
X010336Y014621D03*
X010236Y015121D03*
X010286Y015338D03*
X010186Y015338D03*
X010086Y015771D03*
X010236Y015821D03*
X009836Y016421D03*
X009086Y015971D03*
X010236Y011921D03*
X010586Y011438D03*
X009936Y011221D03*
X009986Y009071D03*
X010386Y008738D03*
D364*
X010602Y011446D03*
X010619Y011446D03*
X010169Y012413D03*
X010219Y014613D03*
X010252Y014613D03*
X010402Y014646D03*
X010419Y014646D03*
X010202Y014846D03*
X010269Y015113D03*
X010269Y015546D03*
X010252Y015546D03*
X010202Y015546D03*
X010269Y015813D03*
X012169Y015463D03*
D365*
X012152Y015455D03*
X010802Y013772D03*
X010452Y014655D03*
X010352Y014888D03*
X010302Y014872D03*
X010169Y014855D03*
X010169Y015105D03*
X010252Y015122D03*
X010302Y015105D03*
X010319Y015088D03*
X010369Y015055D03*
X010402Y015038D03*
X010419Y015022D03*
X010469Y014988D03*
X010502Y014972D03*
X010519Y014955D03*
X010602Y014905D03*
X010202Y014605D03*
X010152Y015555D03*
X010119Y015588D03*
X010102Y015605D03*
X010069Y015605D03*
X010052Y015622D03*
X010019Y015655D03*
X010002Y015672D03*
X009952Y015688D03*
X009869Y015738D03*
X009852Y015755D03*
X010102Y015772D03*
X010169Y015805D03*
X010219Y015822D03*
X010252Y015822D03*
X010419Y015688D03*
X010352Y016355D03*
X010369Y016372D03*
X010502Y016372D03*
X009419Y016355D03*
X009952Y013222D03*
X010652Y011455D03*
X011419Y011855D03*
X011502Y010805D03*
X010769Y008972D03*
X010352Y008755D03*
X010302Y008772D03*
X009952Y010222D03*
X009019Y010288D03*
X011452Y007188D03*
D366*
X010336Y008772D03*
X009936Y008538D03*
X009936Y009172D03*
X010236Y009372D03*
X010236Y010005D03*
X009936Y010205D03*
X011436Y011738D03*
X010186Y012422D03*
X010136Y012405D03*
X010236Y013438D03*
X010286Y014622D03*
X010436Y014638D03*
X010286Y014855D03*
X010436Y015005D03*
X010536Y014938D03*
X010336Y015072D03*
X010186Y015122D03*
X010036Y014972D03*
X010186Y015555D03*
X010136Y015572D03*
X010036Y015638D03*
X009936Y015705D03*
X009836Y015772D03*
X010186Y015822D03*
X010286Y015555D03*
X010336Y016372D03*
X010386Y016372D03*
X010586Y016355D03*
X009786Y016455D03*
X009236Y015838D03*
X009036Y014505D03*
X009036Y012405D03*
X009036Y012238D03*
X012136Y015438D03*
D367*
X012119Y015413D03*
X012102Y015413D03*
X010352Y015063D03*
X010469Y014646D03*
X010169Y014596D03*
X009919Y015713D03*
X010152Y015796D03*
X010452Y016363D03*
X010152Y012413D03*
X010319Y008763D03*
D368*
X010502Y008705D03*
X010569Y009305D03*
X010569Y009405D03*
X010219Y009355D03*
X010569Y010005D03*
X011469Y010405D03*
X011502Y010405D03*
X011469Y010505D03*
X011519Y010555D03*
X011519Y010755D03*
X011502Y011905D03*
X011419Y011955D03*
X010569Y011905D03*
X010219Y011955D03*
X009002Y012305D03*
X009002Y012605D03*
X009002Y013505D03*
X009002Y013905D03*
X009019Y014355D03*
X009002Y014505D03*
X009002Y014605D03*
X009002Y014705D03*
X009002Y015605D03*
X009002Y015705D03*
X009002Y015805D03*
X009002Y015905D03*
X009069Y016105D03*
X009219Y015655D03*
X009602Y015505D03*
X010019Y014955D03*
X010402Y014905D03*
X010419Y015155D03*
X010419Y015255D03*
X010152Y015455D03*
X010552Y015755D03*
X010619Y015755D03*
X010602Y015805D03*
X010869Y015405D03*
X010852Y015355D03*
X010569Y014105D03*
X010052Y013755D03*
X010219Y013455D03*
X010569Y013405D03*
X011569Y014205D03*
X011719Y014655D03*
X012102Y014805D03*
X011652Y016055D03*
X010319Y017155D03*
X009802Y017005D03*
X009852Y016655D03*
X009802Y016505D03*
X009769Y016405D03*
X009752Y016355D03*
X009802Y016305D03*
X009019Y010455D03*
X009019Y010155D03*
X009019Y008955D03*
X009019Y008555D03*
X009019Y008455D03*
X009019Y008255D03*
X009019Y008155D03*
X009019Y007955D03*
X009019Y007855D03*
X009019Y007155D03*
X008902Y007005D03*
X009102Y006905D03*
X009402Y006505D03*
X009802Y006905D03*
X010169Y006905D03*
X010502Y006905D03*
X010519Y006955D03*
X010802Y007005D03*
X010802Y007105D03*
X011019Y007155D03*
X011069Y007205D03*
X011052Y006955D03*
X011402Y007105D03*
X010269Y007505D03*
D369*
X010536Y009371D03*
X009986Y009688D03*
X010536Y011938D03*
X010536Y012871D03*
X010286Y012871D03*
X010536Y013438D03*
X011486Y012221D03*
X012086Y015388D03*
X010086Y015388D03*
D370*
X010052Y015421D03*
X010352Y015288D03*
X010369Y015271D03*
X010052Y014988D03*
X010119Y014588D03*
X010102Y014571D03*
X010219Y012888D03*
X010269Y012871D03*
X010302Y012871D03*
X010502Y012871D03*
X010519Y012871D03*
X012069Y015371D03*
X010552Y010021D03*
X010252Y010021D03*
X010819Y009688D03*
X010252Y008788D03*
X010269Y007638D03*
D371*
X010219Y008796D03*
X010269Y013446D03*
X010252Y014096D03*
X010569Y014663D03*
X012052Y015363D03*
D372*
X012036Y015355D03*
X010586Y014672D03*
X010086Y014572D03*
X011486Y011038D03*
X011486Y010572D03*
X011286Y009872D03*
X010836Y009688D03*
X010536Y010022D03*
D373*
X010269Y010022D03*
X009969Y009688D03*
X010269Y009355D03*
X011452Y010305D03*
X011502Y011288D03*
X010719Y011472D03*
X010269Y011922D03*
X010069Y012388D03*
X010602Y012888D03*
X010519Y013438D03*
X010819Y013772D03*
X010519Y014105D03*
X010269Y014105D03*
X009952Y013705D03*
X009069Y013055D03*
X010069Y014988D03*
X012002Y015322D03*
X012019Y015338D03*
D374*
X011986Y015305D03*
X011936Y015255D03*
X010486Y014105D03*
X010036Y014555D03*
X010686Y012905D03*
X010486Y010005D03*
D375*
X010469Y010021D03*
X010302Y010021D03*
X010319Y011938D03*
X010702Y012921D03*
X010319Y013438D03*
X011952Y015271D03*
X011969Y015288D03*
X010369Y016121D03*
X010302Y007588D03*
D376*
X010352Y009355D03*
X009952Y009688D03*
X010352Y010022D03*
X010369Y010005D03*
X010402Y010005D03*
X010419Y010022D03*
X010452Y010022D03*
X011469Y010705D03*
X010469Y011938D03*
X010402Y011938D03*
X010369Y011938D03*
X010352Y011938D03*
X010019Y012388D03*
X010719Y012922D03*
X010402Y013438D03*
X010369Y013438D03*
X010369Y014105D03*
X010352Y014105D03*
X010402Y014105D03*
X010452Y014105D03*
X010002Y014538D03*
X010019Y014555D03*
X009969Y016105D03*
X010502Y016105D03*
X011902Y015238D03*
X011919Y015255D03*
D377*
X011886Y015221D03*
X010586Y016071D03*
X009886Y016071D03*
X010736Y012921D03*
D378*
X011869Y015197D03*
X009919Y016097D03*
X010402Y009347D03*
X010152Y007097D03*
X010102Y007097D03*
X010069Y007097D03*
D379*
X010452Y009321D03*
X010419Y009338D03*
X010819Y011488D03*
X010752Y012921D03*
X011852Y015188D03*
X010119Y016188D03*
X010102Y016171D03*
D380*
X009986Y014521D03*
X011836Y015171D03*
X010436Y009338D03*
D381*
X009969Y014513D03*
X011819Y015163D03*
D382*
X011569Y015338D03*
X011552Y015688D03*
X011519Y016088D03*
X011052Y016488D03*
X011019Y016488D03*
X010952Y016488D03*
X010919Y016488D03*
X010902Y016488D03*
X010852Y016488D03*
X010619Y016488D03*
X010569Y016488D03*
X010552Y016488D03*
X010502Y016471D03*
X010452Y016488D03*
X010419Y016488D03*
X010402Y016488D03*
X010119Y016421D03*
X010119Y016621D03*
X009752Y016588D03*
X009719Y016388D03*
X009352Y016521D03*
X009319Y016521D03*
X009252Y016521D03*
X009219Y016521D03*
X009169Y016538D03*
X009202Y016371D03*
X009052Y016188D03*
X009019Y016088D03*
X009002Y015971D03*
X009002Y015938D03*
X009002Y015871D03*
X009002Y015838D03*
X009002Y015771D03*
X009002Y015738D03*
X009002Y015671D03*
X009002Y015638D03*
X009002Y015571D03*
X009002Y015538D03*
X009219Y015688D03*
X009219Y015721D03*
X009202Y015738D03*
X009069Y015871D03*
X009069Y015971D03*
X008869Y016238D03*
X009619Y015121D03*
X010019Y015021D03*
X010019Y014988D03*
X010302Y014971D03*
X010419Y014921D03*
X010419Y015188D03*
X010419Y015221D03*
X010419Y015288D03*
X010402Y015338D03*
X010302Y015238D03*
X010152Y015421D03*
X010152Y015688D03*
X010569Y015738D03*
X010652Y015721D03*
X010719Y015688D03*
X010619Y015821D03*
X010852Y015221D03*
X010852Y015188D03*
X010852Y014221D03*
X010569Y014138D03*
X010569Y014071D03*
X010219Y014121D03*
X010219Y013421D03*
X010569Y013438D03*
X010569Y013471D03*
X010869Y013538D03*
X010869Y013371D03*
X011519Y012288D03*
X011519Y012088D03*
X011502Y012038D03*
X011502Y011971D03*
X011519Y011888D03*
X011502Y011871D03*
X011469Y011871D03*
X011469Y011838D03*
X011519Y011788D03*
X011469Y011738D03*
X011502Y011671D03*
X011469Y011638D03*
X011519Y011621D03*
X011502Y011571D03*
X011519Y010988D03*
X011519Y010721D03*
X011469Y010471D03*
X011502Y010238D03*
X011519Y010221D03*
X011519Y010188D03*
X011469Y010171D03*
X010752Y009688D03*
X010569Y009971D03*
X010219Y009988D03*
X010219Y010021D03*
X009952Y009888D03*
X010052Y009688D03*
X009952Y009488D03*
X010219Y009388D03*
X010219Y009321D03*
X009952Y009221D03*
X010569Y009338D03*
X010569Y009371D03*
X010552Y008688D03*
X010869Y007838D03*
X011119Y007188D03*
X011169Y007171D03*
X011352Y007088D03*
X011369Y007071D03*
X011369Y007138D03*
X011502Y007238D03*
X011502Y007271D03*
X011519Y007288D03*
X011069Y006971D03*
X011052Y006988D03*
X010852Y007088D03*
X010802Y007138D03*
X010752Y007088D03*
X010752Y007021D03*
X010702Y006971D03*
X010619Y007021D03*
X010502Y006971D03*
X010502Y006938D03*
X010519Y006921D03*
X010469Y006971D03*
X010619Y006688D03*
X010402Y007438D03*
X009552Y006788D03*
X009469Y006871D03*
X009269Y006938D03*
X009202Y006971D03*
X009252Y006721D03*
X009002Y006771D03*
X008919Y007021D03*
X009002Y007271D03*
X009019Y007821D03*
X009019Y007988D03*
X009019Y008021D03*
X009019Y008121D03*
X009019Y008221D03*
X009019Y008288D03*
X009019Y008388D03*
X009019Y008421D03*
X009019Y008488D03*
X009019Y008521D03*
X009019Y008588D03*
X009019Y008788D03*
X009019Y008821D03*
X009019Y009021D03*
X009002Y009071D03*
X009019Y009288D03*
X009019Y010188D03*
X009019Y010388D03*
X009019Y010421D03*
X009019Y010488D03*
X009002Y010638D03*
X009002Y010738D03*
X009019Y011521D03*
X009002Y012271D03*
X009002Y012571D03*
X009019Y012921D03*
X009019Y013021D03*
X009019Y013088D03*
X009019Y013121D03*
X009002Y013538D03*
X009002Y013571D03*
X009002Y013838D03*
X009002Y013871D03*
X009019Y014388D03*
X009002Y014571D03*
X009002Y014671D03*
X010319Y017188D03*
X010502Y017371D03*
X010419Y017488D03*
X011819Y014688D03*
X011769Y014638D03*
X011719Y014621D03*
X010569Y011971D03*
X010569Y011938D03*
X010869Y011838D03*
X010219Y011921D03*
X009869Y011338D03*
X009552Y006621D03*
X009619Y006521D03*
D383*
X010602Y007255D03*
X010869Y009055D03*
X010852Y009705D03*
X010869Y013788D03*
X010702Y014688D03*
X010669Y014722D03*
X010652Y014738D03*
X010619Y014738D03*
X010319Y016205D03*
X010252Y016205D03*
X010169Y016205D03*
X010152Y016205D03*
X011802Y015155D03*
D384*
X011786Y015421D03*
X011536Y015571D03*
X011636Y015771D03*
X011636Y016038D03*
X011086Y016588D03*
X011036Y016488D03*
X010986Y016488D03*
X010936Y016488D03*
X010886Y016488D03*
X010786Y016488D03*
X010686Y016488D03*
X010586Y016488D03*
X010536Y016488D03*
X010486Y016488D03*
X010386Y016488D03*
X010186Y016488D03*
X010036Y016438D03*
X009986Y016321D03*
X009836Y016521D03*
X009736Y016438D03*
X009636Y016471D03*
X009686Y016588D03*
X009986Y016621D03*
X010086Y016688D03*
X009786Y016988D03*
X010336Y017171D03*
X010636Y017471D03*
X010686Y016588D03*
X011286Y016788D03*
X010586Y015821D03*
X010486Y015788D03*
X010736Y015671D03*
X010036Y015471D03*
X010036Y015438D03*
X010036Y015371D03*
X009586Y015388D03*
X009336Y015771D03*
X009236Y015738D03*
X009036Y016138D03*
X008886Y016021D03*
X009286Y016521D03*
X009336Y016521D03*
X009586Y014321D03*
X009586Y014288D03*
X009586Y014221D03*
X009586Y014188D03*
X009586Y014121D03*
X009936Y013538D03*
X009936Y013371D03*
X011486Y011988D03*
X010586Y011088D03*
X009586Y011121D03*
X009586Y011188D03*
X009586Y011221D03*
X009586Y011288D03*
X009586Y011321D03*
X009936Y009938D03*
X009936Y009438D03*
X009936Y009271D03*
X009936Y009071D03*
X009586Y008621D03*
X009586Y008588D03*
X009586Y008521D03*
X009586Y008488D03*
X009036Y009071D03*
X009086Y007021D03*
X009286Y006721D03*
X009436Y006838D03*
X009536Y006871D03*
X009636Y006538D03*
X009386Y006521D03*
X010386Y006921D03*
X010486Y006921D03*
X010786Y006788D03*
X010886Y007121D03*
X011136Y007171D03*
X011236Y007238D03*
X011236Y007271D03*
X011286Y007088D03*
X011336Y007021D03*
X011486Y007188D03*
X011436Y007238D03*
X010886Y007888D03*
X011536Y008638D03*
X010836Y009538D03*
X010836Y009838D03*
X011736Y014638D03*
D385*
X011786Y015121D03*
X010736Y014688D03*
X010786Y012921D03*
D386*
X009936Y012705D03*
X010236Y012005D03*
X009936Y011305D03*
X009886Y011255D03*
X009586Y011255D03*
X009586Y011355D03*
X009586Y011155D03*
X009936Y010105D03*
X009886Y008555D03*
X009586Y008555D03*
X009586Y008455D03*
X009036Y007205D03*
X009486Y006855D03*
X009636Y006905D03*
X010636Y006905D03*
X010836Y007105D03*
X011136Y007205D03*
X011386Y007155D03*
X011536Y008605D03*
X011486Y011555D03*
X011486Y011655D03*
X009586Y014155D03*
X009586Y014255D03*
X009586Y014355D03*
X009586Y015255D03*
X010036Y015405D03*
X010036Y015505D03*
X009836Y016305D03*
X010136Y016405D03*
X010186Y016455D03*
X010486Y016255D03*
X010486Y017555D03*
X009236Y016405D03*
X008936Y016205D03*
X009036Y013305D03*
X011786Y014655D03*
X011686Y015455D03*
D387*
X011769Y015113D03*
X010419Y016197D03*
X010202Y016230D03*
X010802Y012930D03*
X010602Y007747D03*
D388*
X010402Y007155D03*
X010302Y007155D03*
X011752Y015105D03*
X009469Y016155D03*
D389*
X011736Y015088D03*
X010836Y011488D03*
D390*
X009869Y014513D03*
X011702Y015063D03*
X011719Y015063D03*
D391*
X011686Y015038D03*
X009786Y014571D03*
X009736Y014621D03*
D392*
X009719Y014638D03*
X009769Y014588D03*
X010769Y014688D03*
X011669Y015021D03*
X010819Y012938D03*
X009952Y012371D03*
X009752Y016038D03*
X010269Y007188D03*
D393*
X010302Y010780D03*
X010369Y010797D03*
X010402Y010797D03*
X010469Y010797D03*
X011652Y015013D03*
X010619Y016147D03*
D394*
X011636Y015005D03*
X010586Y010755D03*
D395*
X010569Y010771D03*
X010519Y010788D03*
X010502Y010788D03*
X010452Y010788D03*
X010419Y010788D03*
X010352Y010788D03*
X010319Y010788D03*
X010269Y010771D03*
X010269Y008088D03*
X011602Y014971D03*
X011619Y014988D03*
X009269Y016071D03*
D396*
X009236Y016530D03*
X009186Y016530D03*
X009436Y016530D03*
X010686Y017480D03*
X011586Y015330D03*
D397*
X011586Y014963D03*
X009686Y014663D03*
D398*
X009602Y014788D03*
X009669Y016021D03*
X010752Y016071D03*
X011569Y014921D03*
X009019Y012538D03*
X010802Y007521D03*
D399*
X010869Y007455D03*
X011552Y014905D03*
D400*
X011536Y014896D03*
D401*
X011536Y014205D03*
X010386Y012455D03*
X010086Y013055D03*
X009986Y011155D03*
X010086Y010405D03*
X010036Y010355D03*
X010786Y010355D03*
X010836Y009905D03*
X010586Y009055D03*
X009986Y008455D03*
X010586Y006955D03*
X009186Y006955D03*
X011486Y012055D03*
X009236Y015605D03*
X009586Y016355D03*
D402*
X011519Y015221D03*
D403*
X010819Y016005D03*
X009602Y015955D03*
X011519Y013938D03*
D404*
X011519Y012905D03*
D405*
X011519Y012188D03*
X011419Y011721D03*
X010502Y012438D03*
X010469Y012438D03*
X010402Y012438D03*
X010369Y012438D03*
X010319Y012438D03*
X010302Y012438D03*
X010269Y012438D03*
X010119Y013021D03*
X010102Y013038D03*
X010069Y013071D03*
X010002Y013138D03*
X010152Y014088D03*
X010769Y013771D03*
X010069Y015771D03*
X009952Y016421D03*
X009919Y016421D03*
X009902Y016421D03*
X009719Y016488D03*
X009619Y016488D03*
X009369Y016371D03*
X009069Y016038D03*
X010302Y011421D03*
X010319Y011421D03*
X010352Y011421D03*
X010419Y011421D03*
X010452Y011421D03*
X010469Y011421D03*
X010019Y011121D03*
X010002Y011138D03*
X009969Y011171D03*
X010119Y010421D03*
X010602Y010471D03*
X010669Y010438D03*
X010752Y010388D03*
X010769Y010371D03*
X010852Y010321D03*
X010652Y010021D03*
X010719Y009988D03*
X010819Y009921D03*
X010569Y010071D03*
X010019Y009688D03*
X010469Y009138D03*
X010569Y009071D03*
X010652Y009021D03*
X010719Y008988D03*
X010452Y008721D03*
X010402Y008738D03*
X010152Y008921D03*
X009969Y008471D03*
X010002Y008438D03*
X010019Y008421D03*
X010569Y006938D03*
X009019Y009988D03*
X011519Y010288D03*
D406*
X010819Y010330D03*
X010202Y010480D03*
X010552Y009080D03*
X010119Y008380D03*
X009019Y009080D03*
X009152Y006930D03*
X011319Y007030D03*
X011519Y012030D03*
X010202Y012980D03*
X010169Y014080D03*
X010019Y014180D03*
X009352Y016380D03*
X009719Y016580D03*
X010652Y017480D03*
D407*
X009752Y016471D03*
X009802Y016421D03*
X010202Y015821D03*
X010219Y015538D03*
X010219Y015338D03*
X010252Y015338D03*
X010302Y015321D03*
X010152Y015338D03*
X010202Y015121D03*
X010369Y014888D03*
X010252Y014838D03*
X010219Y014838D03*
X010269Y014621D03*
X010302Y014621D03*
X010352Y014638D03*
X009969Y013188D03*
X010052Y013071D03*
X010202Y012421D03*
X010219Y012421D03*
X010519Y012438D03*
X010569Y012421D03*
X010219Y011438D03*
X010019Y010338D03*
X009952Y009138D03*
X009969Y009121D03*
X010019Y009038D03*
X010419Y008738D03*
X011152Y007238D03*
X011419Y007138D03*
X011452Y007338D03*
X011502Y010321D03*
X011502Y011088D03*
X011519Y011371D03*
X011452Y011871D03*
X009052Y012971D03*
D408*
X010002Y013747D03*
X010252Y012430D03*
X010552Y012430D03*
X010552Y011430D03*
X010569Y011430D03*
X010519Y011430D03*
X010502Y011430D03*
X010269Y011430D03*
X010252Y011430D03*
X010052Y010380D03*
X010002Y010313D03*
X010002Y009063D03*
X010052Y008997D03*
X011169Y007247D03*
X011469Y007330D03*
X010602Y006947D03*
X011519Y010647D03*
X011519Y011080D03*
X010269Y015330D03*
X010202Y015330D03*
X010169Y015330D03*
X009852Y016413D03*
X009869Y016430D03*
X009819Y016413D03*
X009769Y016480D03*
D409*
X009652Y016505D03*
X009402Y016355D03*
X010169Y015555D03*
X010269Y014855D03*
X010019Y013105D03*
X009952Y011205D03*
X009969Y010255D03*
X010369Y008755D03*
X009952Y008505D03*
X011469Y010255D03*
X011519Y010405D03*
X011502Y010655D03*
D410*
X011519Y009380D03*
D411*
X011519Y008021D03*
D412*
X011502Y015238D03*
D413*
X011502Y014088D03*
X010469Y016188D03*
X010419Y007171D03*
D414*
X009869Y007671D03*
X011502Y013071D03*
D415*
X010552Y013438D03*
X009969Y013721D03*
X010152Y014871D03*
X010152Y015071D03*
X010302Y015588D03*
X010402Y015688D03*
X010302Y015788D03*
X010119Y015771D03*
X010552Y011938D03*
X011502Y010121D03*
X010802Y009688D03*
X010552Y009371D03*
X010269Y008788D03*
X010419Y007538D03*
D416*
X010952Y008505D03*
X011502Y008655D03*
D417*
X011486Y014255D03*
D418*
X011486Y011946D03*
X011486Y011863D03*
X011486Y010413D03*
X011036Y007196D03*
X010836Y006996D03*
X009536Y006596D03*
X008986Y006763D03*
X009036Y007163D03*
X009036Y013213D03*
X008886Y016213D03*
X010436Y016496D03*
D419*
X010336Y016121D03*
X010486Y016071D03*
X010486Y013438D03*
X010036Y012388D03*
X010486Y011938D03*
X011486Y011338D03*
X010486Y009371D03*
X010836Y009021D03*
D420*
X011486Y010796D03*
X010486Y014646D03*
X010586Y014913D03*
X010386Y015046D03*
X010286Y015113D03*
X010336Y014896D03*
X010086Y015613D03*
X010286Y015796D03*
X010486Y016363D03*
D421*
X011486Y008821D03*
D422*
X011469Y014096D03*
D423*
X010752Y015680D03*
X010969Y016480D03*
X010519Y016480D03*
X009569Y016380D03*
X009419Y016530D03*
X009269Y016530D03*
X009019Y013230D03*
X009019Y012980D03*
X011402Y011530D03*
X011469Y011980D03*
X010902Y007130D03*
X009652Y006780D03*
X009119Y007030D03*
D424*
X010852Y009038D03*
X011469Y011321D03*
X010802Y011488D03*
X010852Y013771D03*
X010319Y015671D03*
X010002Y016121D03*
X010019Y016138D03*
X009902Y016088D03*
D425*
X010069Y015405D03*
X010519Y014655D03*
X010552Y014655D03*
X011469Y011005D03*
X010252Y009355D03*
X010802Y009005D03*
D426*
X011452Y008788D03*
X011469Y008772D03*
D427*
X011452Y014088D03*
X011419Y014121D03*
D428*
X010552Y014105D03*
X010502Y014655D03*
X010452Y015005D03*
X010152Y014605D03*
X009269Y015655D03*
X009552Y016305D03*
X010119Y012405D03*
X010669Y011455D03*
X011452Y011705D03*
D429*
X011452Y011005D03*
D430*
X011436Y015272D03*
D431*
X011436Y013221D03*
D432*
X011436Y012055D03*
X009936Y013255D03*
X010186Y014605D03*
X010536Y016355D03*
X009536Y016305D03*
D433*
X009886Y016421D03*
X009936Y016421D03*
X009986Y016421D03*
X009086Y016188D03*
X009086Y016088D03*
X010186Y012988D03*
X010336Y012438D03*
X010436Y012438D03*
X010536Y012438D03*
X010586Y012421D03*
X010486Y011421D03*
X010386Y011421D03*
X010286Y011421D03*
X010086Y011088D03*
X010686Y010421D03*
X010636Y010038D03*
X010486Y009121D03*
X010736Y008971D03*
X010436Y008738D03*
X010136Y008938D03*
X010086Y008388D03*
X010436Y006938D03*
X011436Y011871D03*
D434*
X011436Y010755D03*
D435*
X011436Y008588D03*
D436*
X011419Y010972D03*
D437*
X011419Y008788D03*
D438*
X011402Y013963D03*
D439*
X011402Y009355D03*
D440*
X011386Y014055D03*
D441*
X011386Y009505D03*
D442*
X011369Y011755D03*
D443*
X011352Y011771D03*
D444*
X011336Y011788D03*
D445*
X011319Y011788D03*
D446*
X011302Y013196D03*
X011119Y013263D03*
D447*
X011302Y008596D03*
X010919Y008496D03*
D448*
X011286Y013196D03*
X011236Y013213D03*
D449*
X009886Y009838D03*
X011286Y008471D03*
D450*
X011269Y013071D03*
D451*
X009869Y012621D03*
X009852Y012638D03*
X011102Y008488D03*
X011269Y008471D03*
D452*
X011252Y013205D03*
D453*
X011252Y008430D03*
D454*
X011236Y008480D03*
D455*
X011219Y013230D03*
D456*
X011219Y008446D03*
D457*
X011202Y013238D03*
X011169Y013238D03*
X011152Y013255D03*
D458*
X011202Y008488D03*
D459*
X011186Y013238D03*
D460*
X011186Y008463D03*
D461*
X011169Y008513D03*
D462*
X011152Y008521D03*
X009852Y009888D03*
X009819Y009888D03*
X009802Y009888D03*
X009769Y009888D03*
X009752Y009888D03*
X009719Y009888D03*
X009702Y009888D03*
X009669Y009888D03*
X009652Y009888D03*
X009619Y009888D03*
X009602Y009888D03*
D463*
X011136Y013263D03*
D464*
X011136Y008946D03*
D465*
X011136Y007738D03*
D466*
X011119Y008497D03*
D467*
X011102Y013280D03*
D468*
X011086Y013271D03*
D469*
X009836Y012646D03*
X011086Y008496D03*
D470*
X011069Y013288D03*
D471*
X009819Y012655D03*
X009802Y012655D03*
X009902Y009805D03*
X011069Y008505D03*
D472*
X011052Y013297D03*
D473*
X011052Y008888D03*
D474*
X011052Y007571D03*
D475*
X011036Y013305D03*
D476*
X011036Y008521D03*
D477*
X011019Y013305D03*
D478*
X009702Y012680D03*
X011019Y008530D03*
D479*
X011002Y013313D03*
D480*
X009752Y012671D03*
X011002Y008521D03*
D481*
X010986Y013313D03*
D482*
X010986Y008488D03*
D483*
X010969Y013322D03*
D484*
X009719Y012688D03*
X009919Y009788D03*
X010969Y008538D03*
D485*
X010952Y013321D03*
D486*
X010936Y013330D03*
D487*
X010936Y008505D03*
D488*
X010919Y013330D03*
X010902Y013347D03*
D489*
X010902Y008521D03*
D490*
X010886Y013338D03*
D491*
X010886Y008905D03*
D492*
X010886Y007505D03*
D493*
X010869Y015938D03*
D494*
X010869Y014722D03*
D495*
X010869Y012955D03*
X009652Y016005D03*
D496*
X009719Y016038D03*
X009302Y016088D03*
X009652Y014705D03*
X009669Y014688D03*
X010669Y016122D03*
X010802Y014688D03*
X010869Y011488D03*
X010252Y010772D03*
X010219Y010772D03*
X010319Y008072D03*
D497*
X010869Y009671D03*
X009969Y012371D03*
X010719Y014688D03*
D498*
X010852Y015955D03*
X010619Y007522D03*
D499*
X010652Y007505D03*
X010852Y014705D03*
D500*
X010852Y012947D03*
D501*
X010852Y011505D03*
X009752Y014605D03*
X009702Y014655D03*
X009202Y016055D03*
X010602Y016155D03*
X010352Y007205D03*
D502*
X010769Y007530D03*
X010852Y007480D03*
D503*
X010836Y016005D03*
D504*
X010836Y014705D03*
X009636Y016005D03*
X010336Y007305D03*
D505*
X010286Y010021D03*
X010836Y013771D03*
D506*
X010836Y012938D03*
X010786Y014688D03*
X010636Y016138D03*
X009786Y016021D03*
X010286Y010788D03*
X010236Y010771D03*
X010386Y010788D03*
X010486Y010788D03*
X010286Y008088D03*
D507*
X010836Y007505D03*
D508*
X010419Y008022D03*
X010819Y014688D03*
D509*
X010502Y013438D03*
X010052Y012388D03*
X010302Y011938D03*
X010502Y011938D03*
X010519Y010021D03*
X010502Y009371D03*
X010819Y009021D03*
X009019Y009788D03*
X009769Y015871D03*
D510*
X010719Y016088D03*
X010819Y007521D03*
D511*
X010802Y016030D03*
D512*
X010786Y016038D03*
D513*
X010536Y016072D03*
X009186Y016155D03*
X010336Y014105D03*
X010436Y014105D03*
X010436Y013438D03*
X010336Y013438D03*
X010336Y011938D03*
X010436Y011938D03*
X010786Y011488D03*
X010386Y010022D03*
X010436Y010005D03*
D514*
X010786Y009696D03*
X010636Y011446D03*
X009986Y013163D03*
X010236Y014613D03*
X010236Y014846D03*
X010186Y014846D03*
X010236Y015546D03*
D515*
X010136Y015380D03*
X010536Y014663D03*
X010486Y012863D03*
X010436Y012863D03*
X010386Y012863D03*
X010336Y012863D03*
X010686Y011463D03*
X010786Y008997D03*
X010236Y008797D03*
D516*
X010786Y007530D03*
D517*
X010769Y016046D03*
X009252Y015996D03*
D518*
X010769Y012930D03*
D519*
X010302Y013447D03*
X010752Y011480D03*
X010769Y011480D03*
X010502Y010013D03*
X010302Y009363D03*
X010369Y015680D03*
X009769Y016180D03*
D520*
X010752Y014688D03*
X009919Y014488D03*
X009902Y014505D03*
X009852Y014522D03*
X009819Y014555D03*
X009802Y014572D03*
X009069Y012605D03*
X009019Y007522D03*
X010252Y007188D03*
X010369Y007205D03*
D521*
X010752Y008980D03*
X010002Y009680D03*
X010319Y014630D03*
X010369Y014630D03*
X010219Y015130D03*
D522*
X010752Y007530D03*
D523*
X010736Y016080D03*
D524*
X010586Y012880D03*
X010236Y012880D03*
X010736Y011480D03*
D525*
X010736Y009980D03*
X010086Y008980D03*
X010136Y008380D03*
X010086Y014130D03*
D526*
X009586Y014805D03*
X010736Y007488D03*
X010286Y007322D03*
D527*
X010719Y007488D03*
D528*
X009619Y014755D03*
X010702Y016105D03*
D529*
X010319Y015297D03*
X010119Y015380D03*
X010102Y015380D03*
X010319Y014897D03*
X010252Y013447D03*
X010319Y012863D03*
X010352Y012863D03*
X010369Y012863D03*
X010402Y012863D03*
X010419Y012863D03*
X010452Y012863D03*
X010469Y012863D03*
X010102Y012397D03*
X010252Y011930D03*
X010702Y011463D03*
D530*
X010252Y007938D03*
X010669Y007488D03*
X010702Y007488D03*
D531*
X009936Y012355D03*
X010686Y016105D03*
D532*
X010286Y016205D03*
X010186Y016205D03*
X009236Y016155D03*
X010686Y014705D03*
X009986Y012372D03*
X009936Y009688D03*
X010386Y007172D03*
D533*
X010036Y008413D03*
X010186Y008896D03*
X010036Y009013D03*
X010686Y008996D03*
X010186Y010463D03*
X010136Y010446D03*
X010186Y011063D03*
X010036Y011113D03*
X010336Y011413D03*
X010436Y011413D03*
X010136Y013013D03*
X010186Y014063D03*
X010036Y014163D03*
X009986Y014196D03*
X009586Y016246D03*
X009586Y016496D03*
X009536Y016513D03*
X009686Y016496D03*
X009736Y016496D03*
D534*
X010236Y007938D03*
X010386Y007938D03*
X010686Y007488D03*
D535*
X010669Y012905D03*
X010502Y014105D03*
X010302Y014105D03*
X010052Y014555D03*
D536*
X009702Y016030D03*
X010652Y016130D03*
X010552Y010780D03*
X010302Y008080D03*
D537*
X010519Y009363D03*
X009019Y009496D03*
X010619Y012896D03*
X010652Y012896D03*
X010069Y014563D03*
X010602Y014663D03*
D538*
X010636Y014746D03*
D539*
X010636Y012896D03*
D540*
X010636Y007505D03*
D541*
X010586Y007722D03*
D542*
X009952Y014463D03*
X009802Y015996D03*
X010552Y016163D03*
X010569Y016163D03*
D543*
X009969Y015680D03*
X009902Y015730D03*
X010402Y015230D03*
X010552Y014930D03*
X010569Y014930D03*
D544*
X010352Y016080D03*
X010252Y012880D03*
X010552Y012880D03*
X010569Y012880D03*
D545*
X010569Y007713D03*
D546*
X010552Y007705D03*
X010519Y007705D03*
D547*
X010536Y014105D03*
X010386Y015255D03*
D548*
X010236Y015330D03*
X010386Y014897D03*
X009386Y016363D03*
X010036Y013097D03*
X010236Y012430D03*
X010286Y012430D03*
X010486Y012447D03*
X010536Y011430D03*
X010236Y011430D03*
X009986Y010297D03*
X009036Y012980D03*
D549*
X010536Y010780D03*
D550*
X010536Y007721D03*
D551*
X010519Y016180D03*
D552*
X010519Y011930D03*
D553*
X010502Y007713D03*
X010452Y007697D03*
D554*
X009986Y013730D03*
X010486Y014980D03*
X009886Y015730D03*
D555*
X010486Y007705D03*
D556*
X010469Y009363D03*
X010319Y009363D03*
X010319Y010013D03*
X010469Y013446D03*
X010469Y014113D03*
D557*
X010469Y007705D03*
D558*
X010319Y014105D03*
X010452Y016105D03*
D559*
X010452Y013446D03*
X010419Y013446D03*
X010352Y013446D03*
X010202Y007113D03*
X010169Y007113D03*
X010002Y007113D03*
X009969Y007113D03*
D560*
X010419Y011930D03*
X010452Y011930D03*
X010002Y012380D03*
X010119Y014980D03*
D561*
X010436Y016197D03*
D562*
X010436Y010797D03*
X010336Y010797D03*
D563*
X010436Y007705D03*
D564*
X010119Y007105D03*
X010052Y007105D03*
X010019Y007105D03*
X009952Y007105D03*
X010369Y009355D03*
X010419Y014105D03*
X009019Y014705D03*
X009869Y016055D03*
X009952Y016105D03*
X010069Y016155D03*
D565*
X010402Y016205D03*
D566*
X010402Y007946D03*
D567*
X010336Y009363D03*
X010336Y010013D03*
X010386Y016113D03*
D568*
X010386Y015680D03*
D569*
X009836Y016055D03*
X010386Y014105D03*
X010186Y007105D03*
X010036Y007105D03*
X009986Y007105D03*
D570*
X009936Y007113D03*
X010386Y013446D03*
X009936Y016096D03*
X009986Y016113D03*
X010036Y016146D03*
D571*
X010136Y014980D03*
X010386Y011930D03*
D572*
X009036Y012697D03*
X010386Y009347D03*
X010136Y007097D03*
X010086Y007097D03*
X010086Y016163D03*
X010136Y016180D03*
D573*
X010369Y007963D03*
D574*
X010102Y014980D03*
X010352Y015680D03*
D575*
X010352Y007955D03*
D576*
X010336Y015680D03*
D577*
X010136Y015771D03*
X009986Y015671D03*
X010336Y015288D03*
X010136Y014588D03*
X010236Y014088D03*
X010286Y008771D03*
D578*
X010336Y008063D03*
D579*
X010319Y007313D03*
D580*
X010302Y016213D03*
X010269Y016213D03*
X010219Y016213D03*
D581*
X010286Y014105D03*
X009936Y013705D03*
X010286Y013455D03*
X010286Y009355D03*
D582*
X010286Y011930D03*
X010086Y014980D03*
D583*
X010236Y016213D03*
D584*
X009836Y014538D03*
X009886Y014505D03*
X009936Y014472D03*
X010236Y007172D03*
D585*
X010219Y007655D03*
X009852Y007655D03*
X009752Y007655D03*
X009719Y007655D03*
X009619Y007655D03*
D586*
X010086Y012396D03*
X009436Y016313D03*
D587*
X009852Y016055D03*
X010052Y016155D03*
D588*
X009619Y012721D03*
X009919Y012521D03*
D589*
X009919Y007672D03*
D590*
X009902Y012546D03*
X009669Y012696D03*
D591*
X009902Y007663D03*
D592*
X009886Y012580D03*
X009736Y012680D03*
D593*
X009886Y007655D03*
D594*
X009869Y009880D03*
D595*
X009836Y009897D03*
D596*
X009836Y007655D03*
X009036Y015355D03*
D597*
X009819Y015980D03*
D598*
X009819Y007647D03*
X009652Y007647D03*
D599*
X009802Y007680D03*
D600*
X009786Y012655D03*
D601*
X009786Y009888D03*
X009736Y009888D03*
X009686Y009888D03*
X009636Y009888D03*
D602*
X009736Y007663D03*
X009786Y007647D03*
X009686Y007647D03*
D603*
X009769Y012663D03*
D604*
X009769Y007655D03*
X009702Y007655D03*
X009669Y007655D03*
X009602Y007655D03*
D605*
X009736Y016055D03*
D606*
X009686Y016021D03*
X009636Y014738D03*
D607*
X009686Y012688D03*
D608*
X009652Y012705D03*
D609*
X009636Y012713D03*
D610*
X009636Y007688D03*
D611*
X009619Y015955D03*
D612*
X009602Y012713D03*
D613*
X009586Y015805D03*
D614*
X009586Y012738D03*
D615*
X009586Y009872D03*
D616*
X009586Y007655D03*
D617*
X009569Y011530D03*
D618*
X009552Y011538D03*
D619*
X009536Y011538D03*
D620*
X009519Y011663D03*
D621*
X009502Y011638D03*
X009319Y011671D03*
D622*
X009486Y011655D03*
D623*
X009469Y011388D03*
D624*
X009452Y011671D03*
D625*
X009436Y011546D03*
D626*
X009419Y011588D03*
D627*
X009402Y011596D03*
X009369Y011613D03*
D628*
X009386Y011605D03*
D629*
X009352Y011605D03*
D630*
X009336Y016055D03*
D631*
X009336Y011338D03*
D632*
X009302Y011338D03*
D633*
X009286Y011672D03*
D634*
X009269Y011255D03*
D635*
X009252Y011263D03*
D636*
X009236Y011255D03*
D637*
X009019Y011855D03*
X009219Y016055D03*
D638*
X009202Y011322D03*
X009219Y011305D03*
D639*
X009186Y011488D03*
D640*
X009169Y011671D03*
X009152Y011671D03*
D641*
X009136Y011671D03*
D642*
X009119Y011671D03*
D643*
X009102Y014655D03*
D644*
X009102Y010072D03*
D645*
X009086Y014605D03*
D646*
X009086Y010205D03*
D647*
X009069Y014605D03*
D648*
X009069Y009721D03*
D649*
X009052Y015305D03*
D650*
X009052Y013738D03*
D651*
X009052Y010022D03*
D652*
X009036Y007771D03*
X009036Y013871D03*
D653*
X009036Y010655D03*
D654*
X009036Y008688D03*
D655*
X009019Y015488D03*
D656*
X009019Y013830D03*
D657*
X009019Y011005D03*
D658*
X008025Y011468D02*
X008025Y011618D01*
X008023Y011635D01*
X008019Y011652D01*
X008012Y011668D01*
X008002Y011682D01*
X007989Y011695D01*
X007975Y011705D01*
X007959Y011712D01*
X007942Y011716D01*
X007925Y011718D01*
X008025Y011468D02*
X007975Y011418D01*
X007975Y009518D01*
X008025Y009468D01*
X008025Y009318D01*
X008023Y009301D01*
X008019Y009284D01*
X008012Y009268D01*
X008002Y009254D01*
X007989Y009241D01*
X007975Y009231D01*
X007959Y009224D01*
X007942Y009220D01*
X007925Y009218D01*
X007225Y009218D02*
X007208Y009220D01*
X007191Y009224D01*
X007175Y009231D01*
X007161Y009241D01*
X007148Y009254D01*
X007138Y009268D01*
X007131Y009284D01*
X007127Y009301D01*
X007125Y009318D01*
X007125Y009468D01*
X007175Y009518D01*
X007175Y011418D01*
X007125Y011468D01*
X007125Y011618D01*
X007127Y011635D01*
X007131Y011652D01*
X007138Y011668D01*
X007148Y011682D01*
X007161Y011695D01*
X007175Y011705D01*
X007191Y011712D01*
X007208Y011716D01*
X007225Y011718D01*
X003275Y023693D02*
X003273Y023738D01*
X003268Y023784D01*
X003260Y023828D01*
X003248Y023872D01*
X003232Y023915D01*
X003214Y023957D01*
X003192Y023997D01*
X003168Y024035D01*
X003141Y024071D01*
X003111Y024106D01*
X003078Y024137D01*
X003043Y024167D01*
X002075Y023693D02*
X002077Y023646D01*
X002083Y023598D01*
X002092Y023552D01*
X002105Y023506D01*
X002121Y023462D01*
X002142Y023418D01*
X002165Y023377D01*
X002191Y023338D01*
X002221Y023301D01*
X002254Y023266D01*
X002289Y023234D01*
X002326Y023205D01*
X002075Y023693D02*
X002077Y023739D01*
X002082Y023785D01*
X002091Y023831D01*
X002103Y023876D01*
X002119Y023919D01*
X002138Y023961D01*
X002161Y024002D01*
X002186Y024041D01*
X002214Y024077D01*
X002245Y024112D01*
X002279Y024144D01*
X002315Y024173D01*
X003275Y023693D02*
X003273Y023648D01*
X003268Y023602D01*
X003260Y023558D01*
X003248Y023514D01*
X003232Y023471D01*
X003214Y023429D01*
X003192Y023389D01*
X003168Y023351D01*
X003141Y023315D01*
X003111Y023280D01*
X003078Y023249D01*
X003043Y023219D01*
X012843Y024192D02*
X012878Y024162D01*
X012911Y024131D01*
X012941Y024096D01*
X012968Y024060D01*
X012992Y024022D01*
X013014Y023982D01*
X013032Y023940D01*
X013048Y023897D01*
X013060Y023853D01*
X013068Y023809D01*
X013073Y023763D01*
X013075Y023718D01*
X012115Y024198D02*
X012079Y024169D01*
X012045Y024137D01*
X012014Y024102D01*
X011986Y024066D01*
X011961Y024027D01*
X011938Y023986D01*
X011919Y023944D01*
X011903Y023901D01*
X011891Y023856D01*
X011882Y023810D01*
X011877Y023764D01*
X011875Y023718D01*
X012843Y023244D02*
X012878Y023274D01*
X012911Y023305D01*
X012941Y023340D01*
X012968Y023376D01*
X012992Y023414D01*
X013014Y023454D01*
X013032Y023496D01*
X013048Y023539D01*
X013060Y023583D01*
X013068Y023627D01*
X013073Y023673D01*
X013075Y023718D01*
X012126Y023230D02*
X012089Y023259D01*
X012054Y023291D01*
X012021Y023326D01*
X011991Y023363D01*
X011965Y023402D01*
X011942Y023443D01*
X011921Y023487D01*
X011905Y023531D01*
X011892Y023577D01*
X011883Y023623D01*
X011877Y023671D01*
X011875Y023718D01*
D659*
X012872Y024413D02*
X012920Y024383D01*
X012965Y024350D01*
X013008Y024314D01*
X013049Y024276D01*
X013086Y024234D01*
X013121Y024190D01*
X013152Y024144D01*
X013181Y024095D01*
X013205Y024045D01*
X013226Y023993D01*
X013244Y023939D01*
X013257Y023885D01*
X013267Y023830D01*
X013273Y023774D01*
X013275Y023718D01*
X012099Y024424D02*
X012052Y024397D01*
X012007Y024367D01*
X011964Y024334D01*
X011924Y024298D01*
X011886Y024259D01*
X011851Y024218D01*
X011818Y024175D01*
X011789Y024130D01*
X011763Y024082D01*
X011740Y024033D01*
X011720Y023983D01*
X011704Y023932D01*
X011691Y023879D01*
X011682Y023826D01*
X011677Y023772D01*
X011675Y023718D01*
X012992Y023107D02*
X013031Y023143D01*
X013069Y023182D01*
X013103Y023222D01*
X013135Y023265D01*
X013163Y023310D01*
X013189Y023357D01*
X013212Y023406D01*
X013231Y023456D01*
X013247Y023507D01*
X013259Y023559D01*
X013268Y023611D01*
X013273Y023665D01*
X013275Y023718D01*
X011963Y023103D02*
X011923Y023139D01*
X011885Y023178D01*
X011850Y023219D01*
X011818Y023262D01*
X011788Y023307D01*
X011762Y023354D01*
X011740Y023403D01*
X011720Y023454D01*
X011704Y023505D01*
X011691Y023557D01*
X011682Y023611D01*
X011677Y023664D01*
X011675Y023718D01*
X002299Y024399D02*
X002252Y024372D01*
X002207Y024342D01*
X002164Y024309D01*
X002124Y024273D01*
X002086Y024234D01*
X002051Y024193D01*
X002018Y024150D01*
X001989Y024105D01*
X001963Y024057D01*
X001940Y024008D01*
X001920Y023958D01*
X001904Y023907D01*
X001891Y023854D01*
X001882Y023801D01*
X001877Y023747D01*
X001875Y023693D01*
X003072Y024388D02*
X003120Y024358D01*
X003165Y024325D01*
X003208Y024289D01*
X003249Y024251D01*
X003286Y024209D01*
X003321Y024165D01*
X003352Y024119D01*
X003381Y024070D01*
X003405Y024020D01*
X003426Y023968D01*
X003444Y023914D01*
X003457Y023860D01*
X003467Y023805D01*
X003473Y023749D01*
X003475Y023693D01*
X003473Y023640D01*
X003468Y023586D01*
X003459Y023534D01*
X003447Y023482D01*
X003431Y023431D01*
X003412Y023381D01*
X003389Y023332D01*
X003363Y023285D01*
X003335Y023240D01*
X003303Y023197D01*
X003269Y023157D01*
X003231Y023118D01*
X003192Y023082D01*
X002163Y023078D02*
X002123Y023114D01*
X002085Y023153D01*
X002050Y023194D01*
X002018Y023237D01*
X001988Y023282D01*
X001962Y023329D01*
X001940Y023378D01*
X001920Y023429D01*
X001904Y023480D01*
X001891Y023532D01*
X001882Y023586D01*
X001877Y023639D01*
X001875Y023693D01*
D660*
X008990Y021952D03*
D661*
X008987Y021949D03*
X008893Y021449D03*
X008890Y020892D03*
X008893Y020718D03*
X008890Y020558D03*
X008730Y020415D03*
X008893Y020235D03*
X008893Y019768D03*
X008890Y019701D03*
X008730Y019465D03*
X008733Y020795D03*
D662*
X008890Y021444D03*
X008893Y021607D03*
X008893Y021857D03*
X008983Y021944D03*
X008893Y022107D03*
D663*
X008980Y021941D03*
X008883Y020884D03*
D664*
X008977Y021937D03*
D665*
X008973Y021934D03*
X008880Y021434D03*
X008703Y021017D03*
X008700Y021017D03*
X008696Y021017D03*
X008696Y020880D03*
X008700Y020880D03*
X008710Y020877D03*
X008713Y020877D03*
X008720Y020877D03*
X008723Y020877D03*
X008730Y020877D03*
X008733Y020877D03*
X008736Y020877D03*
X008743Y020877D03*
X008746Y020877D03*
X008753Y020877D03*
X008756Y020877D03*
X008760Y020877D03*
X008766Y020877D03*
X008770Y020877D03*
X008776Y020877D03*
X008780Y020877D03*
X008786Y020877D03*
X008790Y020877D03*
X008793Y020877D03*
X008800Y020877D03*
X008803Y020877D03*
X008810Y020877D03*
X008813Y020877D03*
X008817Y020877D03*
X008823Y020877D03*
X008827Y020877D03*
X008833Y020877D03*
X008837Y020877D03*
X008840Y020877D03*
X008847Y020877D03*
X008850Y020877D03*
X008857Y020877D03*
X008860Y020877D03*
X008867Y020877D03*
X008870Y020877D03*
X008873Y020877D03*
X008696Y020777D03*
X008690Y020773D03*
X008700Y020640D03*
X008703Y020640D03*
X008710Y020640D03*
X008713Y020640D03*
X008720Y020640D03*
X008700Y020540D03*
X008696Y020540D03*
X008690Y020537D03*
X008696Y020403D03*
X008700Y020403D03*
X008703Y020403D03*
X008690Y020300D03*
X008827Y020300D03*
X008810Y020163D03*
X008803Y020163D03*
X008800Y020163D03*
X008793Y020163D03*
X008790Y020163D03*
X008786Y020163D03*
X008780Y020163D03*
X008776Y020163D03*
X008770Y020163D03*
X008766Y020163D03*
X008760Y020163D03*
X008756Y020163D03*
X008753Y020163D03*
X008746Y020163D03*
X008743Y020163D03*
X008736Y020163D03*
X008733Y020163D03*
X008730Y020163D03*
X008723Y020163D03*
X008720Y020163D03*
X008713Y020163D03*
X008710Y020163D03*
X008703Y020163D03*
X008640Y020163D03*
X008633Y020163D03*
X008630Y020163D03*
X008623Y020163D03*
X008620Y020163D03*
X008616Y020163D03*
X008610Y020163D03*
X008606Y020163D03*
X008600Y020163D03*
X008596Y020163D03*
X008590Y020163D03*
X008586Y020163D03*
X008583Y020163D03*
X008576Y020163D03*
X008573Y020163D03*
X008566Y020163D03*
X008563Y020163D03*
X008560Y020163D03*
X008553Y020163D03*
X008690Y019823D03*
X008847Y020083D03*
X008690Y019456D03*
X008713Y019450D03*
X008686Y019346D03*
X008686Y019219D03*
X008833Y019219D03*
X008833Y019346D03*
X008266Y020990D03*
X008356Y021297D03*
X006759Y021297D03*
D666*
X008723Y020645D03*
X008847Y020772D03*
X008850Y020768D03*
X008890Y020235D03*
X008847Y020182D03*
X008686Y020168D03*
X008676Y019701D03*
X008676Y019465D03*
X008847Y019338D03*
X008970Y021929D03*
D667*
X008967Y021927D03*
X008957Y021927D03*
X008943Y021927D03*
X008933Y021927D03*
X008920Y021927D03*
X008910Y021927D03*
X008900Y021927D03*
X008887Y021927D03*
X008796Y021927D03*
X008783Y021927D03*
X008773Y021927D03*
X008763Y021927D03*
X008750Y021927D03*
X008740Y021927D03*
X008726Y021927D03*
X008716Y021927D03*
X008706Y021927D03*
X008706Y021677D03*
X008716Y021677D03*
X008726Y021677D03*
X008726Y021427D03*
X008716Y021427D03*
X008706Y021427D03*
X008740Y021427D03*
X008750Y021427D03*
X008763Y021427D03*
X008773Y021427D03*
X008783Y021427D03*
X008796Y021427D03*
X008806Y021427D03*
X008820Y021427D03*
X008830Y021427D03*
X008843Y021427D03*
X008853Y021427D03*
X008863Y021427D03*
X008796Y020770D03*
X008673Y020657D03*
X008683Y020170D03*
X008673Y019336D03*
X008706Y022177D03*
X008716Y022177D03*
X008726Y022177D03*
X008740Y022177D03*
X008750Y022177D03*
X008763Y022177D03*
X008773Y022177D03*
X008783Y022177D03*
X008796Y022177D03*
D668*
X008793Y022177D03*
X008790Y022177D03*
X008786Y022177D03*
X008780Y022177D03*
X008776Y022177D03*
X008770Y022177D03*
X008766Y022177D03*
X008760Y022177D03*
X008756Y022177D03*
X008753Y022177D03*
X008746Y022177D03*
X008743Y022177D03*
X008736Y022177D03*
X008733Y022177D03*
X008730Y022177D03*
X008723Y022177D03*
X008720Y022177D03*
X008713Y022177D03*
X008710Y022177D03*
X008703Y022177D03*
X008700Y022177D03*
X008800Y022177D03*
X008803Y022177D03*
X008803Y021927D03*
X008800Y021927D03*
X008793Y021927D03*
X008790Y021927D03*
X008786Y021927D03*
X008780Y021927D03*
X008776Y021927D03*
X008770Y021927D03*
X008766Y021927D03*
X008760Y021927D03*
X008756Y021927D03*
X008753Y021927D03*
X008746Y021927D03*
X008743Y021927D03*
X008736Y021927D03*
X008733Y021927D03*
X008730Y021927D03*
X008723Y021927D03*
X008720Y021927D03*
X008713Y021927D03*
X008710Y021927D03*
X008703Y021927D03*
X008700Y021927D03*
X008890Y021927D03*
X008893Y021927D03*
X008897Y021927D03*
X008903Y021927D03*
X008907Y021927D03*
X008913Y021927D03*
X008917Y021927D03*
X008923Y021927D03*
X008927Y021927D03*
X008930Y021927D03*
X008937Y021927D03*
X008940Y021927D03*
X008947Y021927D03*
X008950Y021927D03*
X008953Y021927D03*
X008960Y021927D03*
X008963Y021927D03*
X008803Y021677D03*
X008800Y021677D03*
X008736Y021677D03*
X008733Y021677D03*
X008730Y021677D03*
X008723Y021677D03*
X008720Y021677D03*
X008713Y021677D03*
X008710Y021677D03*
X008703Y021677D03*
X008700Y021677D03*
X008786Y021534D03*
X008786Y021427D03*
X008790Y021427D03*
X008793Y021427D03*
X008800Y021427D03*
X008803Y021427D03*
X008810Y021427D03*
X008813Y021427D03*
X008817Y021427D03*
X008823Y021427D03*
X008827Y021427D03*
X008833Y021427D03*
X008837Y021427D03*
X008840Y021427D03*
X008847Y021427D03*
X008850Y021427D03*
X008857Y021427D03*
X008860Y021427D03*
X008867Y021427D03*
X008870Y021427D03*
X008873Y021427D03*
X008780Y021427D03*
X008776Y021427D03*
X008770Y021427D03*
X008766Y021427D03*
X008760Y021427D03*
X008756Y021427D03*
X008753Y021427D03*
X008746Y021427D03*
X008743Y021427D03*
X008736Y021427D03*
X008733Y021427D03*
X008730Y021427D03*
X008723Y021427D03*
X008720Y021427D03*
X008713Y021427D03*
X008710Y021427D03*
X008703Y021427D03*
X008700Y021427D03*
X008680Y021010D03*
X008670Y020757D03*
X008793Y020767D03*
X008850Y020283D03*
X008850Y020183D03*
X008680Y020170D03*
X008670Y020283D03*
X008847Y019996D03*
X008850Y019816D03*
X008670Y019806D03*
X008670Y019570D03*
X008890Y019283D03*
X008850Y019233D03*
X008260Y020370D03*
D669*
X008897Y021452D03*
D670*
X008897Y021309D03*
D671*
X008893Y021307D03*
X008540Y021007D03*
X008276Y020984D03*
X008276Y020380D03*
X008633Y020076D03*
X008633Y019893D03*
X008893Y019950D03*
X008893Y020043D03*
X008893Y019283D03*
X006749Y020066D03*
D672*
X008670Y019710D03*
X008670Y019333D03*
X008720Y019219D03*
X008850Y019333D03*
X008847Y020287D03*
X008670Y020423D03*
X008696Y021287D03*
X008700Y021287D03*
X008703Y021287D03*
X008700Y021537D03*
X008696Y021537D03*
X008803Y021537D03*
X008810Y021537D03*
X008890Y021607D03*
X008810Y021787D03*
X008803Y021787D03*
X008703Y021787D03*
X008700Y021787D03*
X008696Y021787D03*
X008696Y022037D03*
X008700Y022037D03*
X008703Y022037D03*
X008803Y022037D03*
X008810Y022037D03*
X008890Y022107D03*
D673*
X008823Y022042D03*
X008817Y022039D03*
X008813Y022039D03*
X008800Y022036D03*
X008793Y022036D03*
X008790Y022036D03*
X008786Y022036D03*
X008780Y022036D03*
X008776Y022036D03*
X008770Y022036D03*
X008766Y022036D03*
X008760Y022036D03*
X008756Y022036D03*
X008753Y022036D03*
X008746Y022036D03*
X008743Y022036D03*
X008736Y022036D03*
X008733Y022036D03*
X008730Y022036D03*
X008723Y022036D03*
X008720Y022036D03*
X008713Y022036D03*
X008710Y022036D03*
X008690Y022039D03*
X008686Y022039D03*
X008690Y021926D03*
X008686Y021922D03*
X008696Y021926D03*
X008810Y021926D03*
X008813Y021926D03*
X008890Y021856D03*
X008823Y021792D03*
X008817Y021789D03*
X008813Y021789D03*
X008800Y021786D03*
X008793Y021786D03*
X008790Y021786D03*
X008786Y021786D03*
X008780Y021786D03*
X008776Y021786D03*
X008770Y021786D03*
X008766Y021786D03*
X008760Y021786D03*
X008756Y021786D03*
X008753Y021786D03*
X008746Y021786D03*
X008743Y021786D03*
X008736Y021786D03*
X008733Y021786D03*
X008730Y021786D03*
X008723Y021786D03*
X008720Y021786D03*
X008713Y021786D03*
X008710Y021786D03*
X008690Y021789D03*
X008686Y021789D03*
X008690Y021676D03*
X008686Y021672D03*
X008696Y021676D03*
X008810Y021676D03*
X008813Y021676D03*
X008817Y021672D03*
X008823Y021542D03*
X008817Y021539D03*
X008813Y021539D03*
X008800Y021536D03*
X008793Y021536D03*
X008790Y021536D03*
X008703Y021539D03*
X008690Y021539D03*
X008690Y021425D03*
X008686Y021422D03*
X008696Y021425D03*
X008690Y021289D03*
X008686Y021289D03*
X008710Y021285D03*
X008713Y021285D03*
X008720Y021285D03*
X008723Y021285D03*
X008730Y021285D03*
X008733Y021285D03*
X008736Y021285D03*
X008743Y021285D03*
X008746Y021285D03*
X008753Y021285D03*
X008756Y021285D03*
X008760Y021285D03*
X008766Y021285D03*
X008770Y021285D03*
X008776Y021285D03*
X008780Y021285D03*
X008786Y021285D03*
X008790Y021285D03*
X008793Y021285D03*
X008800Y021285D03*
X008803Y021285D03*
X008810Y021285D03*
X008813Y021285D03*
X008817Y021285D03*
X008823Y021285D03*
X008827Y021285D03*
X008833Y021285D03*
X008837Y021285D03*
X008840Y021285D03*
X008847Y021285D03*
X008850Y021285D03*
X008857Y021285D03*
X008860Y021285D03*
X008867Y021285D03*
X008870Y021285D03*
X008873Y021285D03*
X008676Y021009D03*
X008670Y020899D03*
X008670Y020662D03*
X008670Y020522D03*
X008350Y020068D03*
X008793Y019815D03*
X008670Y019471D03*
X008670Y019234D03*
X008260Y020995D03*
X008350Y021295D03*
X008686Y022172D03*
X008690Y022176D03*
X008696Y022176D03*
X008810Y022176D03*
X008813Y022176D03*
X008817Y022172D03*
X006766Y021295D03*
X006766Y020068D03*
D674*
X008890Y021304D03*
D675*
X008766Y021510D03*
X008890Y021034D03*
X008850Y020693D03*
D676*
X008890Y020718D03*
X008676Y020892D03*
X008630Y020949D03*
X008676Y020528D03*
X008800Y019821D03*
X008847Y019821D03*
X008890Y019768D03*
D677*
X008850Y019743D03*
X008890Y019606D03*
X008630Y019890D03*
X008630Y020073D03*
X008890Y020653D03*
X008786Y019196D03*
D678*
X008630Y019760D03*
X008680Y019816D03*
X008890Y020043D03*
X008840Y020293D03*
X008680Y020293D03*
D679*
X008690Y020645D03*
X008686Y020885D03*
X008890Y019951D03*
X008833Y019828D03*
X008800Y019351D03*
X008840Y019224D03*
D680*
X008887Y021606D03*
X008887Y021856D03*
X008887Y022106D03*
D681*
X008887Y021440D03*
X008363Y020066D03*
D682*
X008726Y019836D03*
X008887Y021300D03*
D683*
X008887Y021029D03*
X008887Y020889D03*
X008726Y020412D03*
X008887Y019698D03*
D684*
X008887Y019768D03*
X008887Y020235D03*
X008887Y020718D03*
D685*
X008887Y020648D03*
X008887Y020555D03*
X008887Y019601D03*
X008726Y019461D03*
D686*
X008853Y019239D03*
X008853Y019813D03*
X008887Y019950D03*
X008887Y020043D03*
X008853Y020190D03*
X008673Y021007D03*
X008683Y021290D03*
X008683Y021420D03*
X008683Y021540D03*
X008683Y021671D03*
X008683Y021791D03*
X008683Y021921D03*
X008683Y022041D03*
X008683Y022171D03*
X008820Y022041D03*
X008820Y021791D03*
X008820Y021540D03*
D687*
X008343Y021294D03*
X006772Y021294D03*
X008887Y019283D03*
D688*
X008736Y019238D03*
X008770Y019778D03*
X008880Y019771D03*
X008336Y020071D03*
X008336Y021292D03*
X008883Y022106D03*
X006779Y021292D03*
X006779Y020071D03*
D689*
X008643Y020215D03*
X008663Y020472D03*
X008646Y020965D03*
X008760Y021632D03*
X008883Y021882D03*
X008663Y019758D03*
X008663Y019521D03*
X008857Y019284D03*
D690*
X008883Y021607D03*
D691*
X008883Y021437D03*
X008880Y020880D03*
X008723Y020783D03*
X008880Y020547D03*
X008720Y020403D03*
X008360Y020066D03*
X008720Y019453D03*
X008360Y021297D03*
X006756Y021297D03*
X006756Y020066D03*
D692*
X008266Y020375D03*
X008710Y020305D03*
X008713Y020305D03*
X008720Y020305D03*
X008723Y020305D03*
X008730Y020305D03*
X008733Y020305D03*
X008736Y020305D03*
X008743Y020305D03*
X008746Y020305D03*
X008753Y020305D03*
X008756Y020305D03*
X008760Y020305D03*
X008766Y020305D03*
X008770Y020305D03*
X008776Y020305D03*
X008780Y020305D03*
X008786Y020305D03*
X008790Y020305D03*
X008793Y020305D03*
X008800Y020305D03*
X008803Y020305D03*
X008810Y020305D03*
X008813Y020305D03*
X008813Y020165D03*
X008817Y020165D03*
X008817Y020088D03*
X008813Y020088D03*
X008810Y020088D03*
X008803Y020088D03*
X008800Y020088D03*
X008793Y020088D03*
X008790Y020088D03*
X008786Y020088D03*
X008780Y020088D03*
X008776Y020088D03*
X008770Y020088D03*
X008766Y020088D03*
X008760Y020088D03*
X008756Y020088D03*
X008753Y020088D03*
X008746Y020088D03*
X008743Y020088D03*
X008736Y020088D03*
X008733Y020088D03*
X008730Y020088D03*
X008723Y020088D03*
X008720Y020088D03*
X008713Y020088D03*
X008710Y020088D03*
X008703Y020088D03*
X008700Y020088D03*
X008696Y020088D03*
X008690Y020088D03*
X008686Y020088D03*
X008680Y020088D03*
X008676Y020088D03*
X008670Y020088D03*
X008666Y020088D03*
X008663Y020088D03*
X008656Y020088D03*
X008653Y020088D03*
X008646Y020088D03*
X008643Y020088D03*
X008643Y019995D03*
X008643Y019905D03*
X008646Y019905D03*
X008653Y019905D03*
X008656Y019905D03*
X008663Y019905D03*
X008666Y019905D03*
X008670Y019905D03*
X008676Y019905D03*
X008680Y019905D03*
X008686Y019905D03*
X008690Y019905D03*
X008696Y019905D03*
X008700Y019905D03*
X008703Y019905D03*
X008710Y019905D03*
X008713Y019905D03*
X008720Y019905D03*
X008723Y019905D03*
X008730Y019905D03*
X008733Y019905D03*
X008736Y019905D03*
X008743Y019905D03*
X008746Y019905D03*
X008753Y019905D03*
X008756Y019905D03*
X008760Y019905D03*
X008766Y019905D03*
X008770Y019905D03*
X008776Y019905D03*
X008780Y019905D03*
X008786Y019905D03*
X008790Y019905D03*
X008793Y019905D03*
X008800Y019905D03*
X008803Y019905D03*
X008810Y019905D03*
X008813Y019905D03*
X008817Y019905D03*
X008823Y019905D03*
X008827Y019905D03*
X008710Y019828D03*
X008703Y019828D03*
X008710Y019688D03*
X008713Y019688D03*
X008766Y019688D03*
X008770Y019688D03*
X008776Y019688D03*
X008780Y019688D03*
X008786Y019688D03*
X008790Y019688D03*
X008793Y019688D03*
X008800Y019688D03*
X008803Y019688D03*
X008810Y019688D03*
X008813Y019688D03*
X008817Y019688D03*
X008823Y019688D03*
X008827Y019688D03*
X008833Y019688D03*
X008837Y019688D03*
X008840Y019688D03*
X008847Y019688D03*
X008850Y019688D03*
X008857Y019688D03*
X008860Y019688D03*
X008867Y019688D03*
X008870Y019688D03*
X008873Y019688D03*
X008873Y019591D03*
X008870Y019591D03*
X008867Y019591D03*
X008860Y019591D03*
X008857Y019591D03*
X008850Y019591D03*
X008847Y019591D03*
X008840Y019591D03*
X008837Y019591D03*
X008833Y019591D03*
X008827Y019591D03*
X008823Y019591D03*
X008817Y019591D03*
X008813Y019591D03*
X008810Y019591D03*
X008803Y019591D03*
X008800Y019591D03*
X008793Y019591D03*
X008790Y019591D03*
X008786Y019591D03*
X008780Y019591D03*
X008776Y019591D03*
X008770Y019591D03*
X008766Y019591D03*
X008760Y019591D03*
X008756Y019591D03*
X008753Y019591D03*
X008746Y019591D03*
X008743Y019591D03*
X008736Y019591D03*
X008733Y019591D03*
X008730Y019591D03*
X008723Y019591D03*
X008720Y019591D03*
X008713Y019591D03*
X008710Y019591D03*
X008710Y019451D03*
X008703Y019451D03*
X008720Y019354D03*
X008723Y019354D03*
X008730Y019354D03*
X008733Y019354D03*
X008736Y019354D03*
X008743Y019354D03*
X008746Y019354D03*
X008753Y019354D03*
X008756Y019354D03*
X008800Y019211D03*
X008803Y019211D03*
X008823Y020088D03*
X008827Y020088D03*
X008833Y020088D03*
X008710Y020542D03*
X008703Y020542D03*
X008766Y020638D03*
X008770Y020638D03*
X008776Y020638D03*
X008780Y020638D03*
X008786Y020638D03*
X008790Y020638D03*
X008793Y020638D03*
X008800Y020638D03*
X008803Y020638D03*
X008810Y020638D03*
X008813Y020638D03*
X008817Y020638D03*
X008823Y020638D03*
X008827Y020638D03*
X008833Y020638D03*
X008837Y020638D03*
X008840Y020638D03*
X008847Y020638D03*
X008850Y020638D03*
X008857Y020638D03*
X008860Y020638D03*
X008867Y020638D03*
X008870Y020638D03*
X008873Y020638D03*
X008720Y020782D03*
X008700Y020778D03*
X008710Y021019D03*
X008713Y021019D03*
X008720Y021019D03*
X008723Y021019D03*
X008730Y021019D03*
X008733Y021019D03*
X008736Y021019D03*
X008743Y021019D03*
X008746Y021019D03*
X008753Y021019D03*
X008756Y021019D03*
X008760Y021019D03*
X008766Y021019D03*
X008770Y021019D03*
X008776Y021019D03*
X008780Y021019D03*
X008786Y021019D03*
X008790Y021019D03*
X008793Y021019D03*
X008800Y021019D03*
X008803Y021019D03*
X008810Y021019D03*
X008813Y021019D03*
X008817Y021019D03*
X008823Y021019D03*
X008827Y021019D03*
X008833Y021019D03*
X008837Y021019D03*
X008840Y021019D03*
X008847Y021019D03*
X008850Y021019D03*
X008857Y021019D03*
X008860Y021019D03*
X008867Y021019D03*
X008870Y021019D03*
X008873Y021019D03*
X008640Y021019D03*
X008633Y021019D03*
X008630Y021019D03*
X008623Y021019D03*
X008620Y021019D03*
X008616Y021019D03*
X008610Y021019D03*
X008606Y021019D03*
X008600Y021019D03*
X008596Y021019D03*
X008590Y021019D03*
X008586Y021019D03*
X008583Y021019D03*
X008576Y021019D03*
X008573Y021019D03*
X008566Y021019D03*
X008563Y021019D03*
X008560Y021019D03*
X008553Y021019D03*
X008550Y021019D03*
X008883Y021295D03*
D693*
X008883Y021025D03*
X008543Y021012D03*
X008883Y020645D03*
X008723Y020408D03*
X008543Y020155D03*
X008883Y019695D03*
X008883Y019598D03*
X008793Y019204D03*
D694*
X008776Y019788D03*
X008340Y020071D03*
X008776Y020742D03*
X008883Y020718D03*
X008246Y021005D03*
X008713Y021549D03*
X008786Y021662D03*
X008837Y021912D03*
X006776Y020071D03*
D695*
X008723Y019456D03*
X008883Y020550D03*
D696*
X008883Y020235D03*
X008883Y019768D03*
X008883Y019284D03*
X008733Y019234D03*
X008246Y020358D03*
X008340Y021292D03*
X006776Y021292D03*
D697*
X008710Y021544D03*
X008837Y021554D03*
X008790Y021667D03*
X008837Y021804D03*
X008837Y022054D03*
X008837Y022157D03*
X008733Y020657D03*
X008883Y020043D03*
D698*
X008883Y019951D03*
X008670Y020178D03*
X008633Y020235D03*
X008633Y020472D03*
X008253Y020365D03*
X008633Y020949D03*
X008670Y021302D03*
X008670Y021552D03*
X008670Y021662D03*
X008670Y021802D03*
X008670Y021912D03*
X008670Y022052D03*
X008670Y022162D03*
X008833Y022162D03*
X008833Y022049D03*
X008833Y021799D03*
X008837Y021659D03*
X008633Y019758D03*
D699*
X008860Y019786D03*
X008867Y019783D03*
X008333Y020073D03*
X008860Y020737D03*
X008867Y020733D03*
X008333Y021290D03*
X008880Y021607D03*
X008880Y022107D03*
X006782Y021290D03*
X006782Y020073D03*
D700*
X008646Y021355D03*
X008646Y021606D03*
X008756Y021629D03*
X008646Y021856D03*
X008880Y021879D03*
X008646Y022106D03*
D701*
X008880Y021292D03*
X008690Y021015D03*
X008680Y020889D03*
X008686Y020772D03*
X008680Y020768D03*
X008803Y020775D03*
X008810Y020778D03*
X008837Y020778D03*
X008840Y020775D03*
X008686Y020535D03*
X008686Y020408D03*
X008686Y020298D03*
X008696Y020165D03*
X008700Y020165D03*
X008833Y020172D03*
X008837Y020172D03*
X008840Y020175D03*
X008850Y020081D03*
X008850Y019911D03*
X008847Y019908D03*
X008840Y019825D03*
X008686Y019821D03*
X008686Y019695D03*
X008686Y019585D03*
X008686Y019458D03*
X008690Y019348D03*
X008690Y019218D03*
X008837Y019221D03*
X008837Y019344D03*
X008356Y020068D03*
X008833Y020298D03*
X008837Y020295D03*
D702*
X008270Y020375D03*
X008270Y020989D03*
X008880Y021022D03*
X008776Y021522D03*
X008880Y019691D03*
D703*
X008780Y019329D03*
X008880Y020723D03*
D704*
X008880Y020642D03*
X008640Y020085D03*
X008640Y019991D03*
X008640Y019901D03*
X008880Y019595D03*
D705*
X008766Y019771D03*
X008640Y019758D03*
X008880Y020235D03*
X008743Y020668D03*
X008720Y021556D03*
X008780Y021656D03*
X008880Y019284D03*
X008746Y019258D03*
D706*
X008736Y019710D03*
X008880Y019950D03*
X008880Y020043D03*
X008666Y020183D03*
X008736Y020660D03*
X008780Y020747D03*
X008666Y021307D03*
X008620Y021357D03*
X008666Y021404D03*
X008666Y021557D03*
X008620Y021607D03*
X008666Y021807D03*
X008620Y021857D03*
X008666Y022057D03*
X008620Y022107D03*
D707*
X008877Y022106D03*
D708*
X008877Y021877D03*
D709*
X008773Y021647D03*
X008726Y021564D03*
X008877Y021607D03*
X008750Y020677D03*
X008750Y019726D03*
D710*
X008673Y019705D03*
X008796Y019818D03*
X008853Y020078D03*
X008843Y020292D03*
X008673Y020418D03*
X008353Y020068D03*
X008673Y020895D03*
X008353Y021295D03*
X008877Y021429D03*
X006762Y021295D03*
X006762Y020068D03*
D711*
X008673Y020288D03*
X008673Y020525D03*
X008673Y020762D03*
X008683Y021012D03*
X008877Y021289D03*
X008853Y019915D03*
X008673Y019811D03*
X008673Y019575D03*
X008673Y019468D03*
X008796Y019348D03*
D712*
X008750Y019354D03*
X008740Y019354D03*
X008726Y019354D03*
X008716Y019354D03*
X008706Y019451D03*
X008706Y019591D03*
X008716Y019591D03*
X008726Y019591D03*
X008740Y019591D03*
X008750Y019591D03*
X008763Y019591D03*
X008773Y019591D03*
X008783Y019591D03*
X008796Y019591D03*
X008806Y019591D03*
X008820Y019591D03*
X008830Y019591D03*
X008843Y019591D03*
X008853Y019591D03*
X008863Y019591D03*
X008877Y019591D03*
X008877Y019688D03*
X008863Y019688D03*
X008853Y019688D03*
X008843Y019688D03*
X008830Y019688D03*
X008820Y019688D03*
X008806Y019688D03*
X008796Y019688D03*
X008783Y019688D03*
X008773Y019688D03*
X008763Y019688D03*
X008716Y019688D03*
X008706Y019828D03*
X008706Y019905D03*
X008716Y019905D03*
X008726Y019905D03*
X008740Y019905D03*
X008750Y019905D03*
X008763Y019905D03*
X008773Y019905D03*
X008783Y019905D03*
X008796Y019905D03*
X008806Y019905D03*
X008820Y019905D03*
X008830Y019905D03*
X008693Y019905D03*
X008683Y019905D03*
X008673Y019905D03*
X008660Y019905D03*
X008650Y019905D03*
X008650Y020088D03*
X008660Y020088D03*
X008673Y020088D03*
X008683Y020088D03*
X008693Y020088D03*
X008706Y020088D03*
X008716Y020088D03*
X008726Y020088D03*
X008740Y020088D03*
X008750Y020088D03*
X008763Y020088D03*
X008773Y020088D03*
X008783Y020088D03*
X008796Y020088D03*
X008806Y020088D03*
X008820Y020088D03*
X008830Y020088D03*
X008806Y020305D03*
X008796Y020305D03*
X008783Y020305D03*
X008773Y020305D03*
X008763Y020305D03*
X008750Y020305D03*
X008740Y020305D03*
X008726Y020305D03*
X008716Y020305D03*
X008706Y020305D03*
X008706Y020542D03*
X008716Y020638D03*
X008763Y020638D03*
X008773Y020638D03*
X008783Y020638D03*
X008796Y020638D03*
X008806Y020638D03*
X008820Y020638D03*
X008830Y020638D03*
X008843Y020638D03*
X008853Y020638D03*
X008863Y020638D03*
X008877Y020638D03*
X008877Y021019D03*
X008863Y021019D03*
X008853Y021019D03*
X008843Y021019D03*
X008830Y021019D03*
X008820Y021019D03*
X008806Y021019D03*
X008796Y021019D03*
X008783Y021019D03*
X008773Y021019D03*
X008763Y021019D03*
X008750Y021019D03*
X008740Y021019D03*
X008726Y021019D03*
X008716Y021019D03*
X008706Y021019D03*
X008636Y021019D03*
X008626Y021019D03*
X008613Y021019D03*
X008603Y021019D03*
X008593Y021019D03*
X008580Y021019D03*
X008570Y021019D03*
X008556Y021019D03*
X008820Y019214D03*
D713*
X008716Y019450D03*
X008693Y019823D03*
X008706Y020163D03*
X008716Y020163D03*
X008726Y020163D03*
X008740Y020163D03*
X008750Y020163D03*
X008763Y020163D03*
X008773Y020163D03*
X008783Y020163D03*
X008796Y020163D03*
X008806Y020163D03*
X008830Y020300D03*
X008693Y020300D03*
X008636Y020163D03*
X008626Y020163D03*
X008613Y020163D03*
X008603Y020163D03*
X008593Y020163D03*
X008580Y020163D03*
X008570Y020163D03*
X008556Y020163D03*
X008706Y020640D03*
X008693Y020777D03*
X008716Y020877D03*
X008726Y020877D03*
X008740Y020877D03*
X008750Y020877D03*
X008763Y020877D03*
X008773Y020877D03*
X008783Y020877D03*
X008796Y020877D03*
X008806Y020877D03*
X008820Y020877D03*
X008830Y020877D03*
X008843Y020877D03*
X008853Y020877D03*
X008863Y020877D03*
X008877Y020877D03*
X008613Y021357D03*
X008613Y021607D03*
X008613Y021857D03*
X008613Y022107D03*
D714*
X008877Y020725D03*
D715*
X008830Y020780D03*
X008820Y020780D03*
X008716Y020780D03*
X008706Y020780D03*
X008693Y020643D03*
X008716Y020543D03*
X008726Y020543D03*
X008740Y020543D03*
X008750Y020543D03*
X008763Y020543D03*
X008773Y020543D03*
X008783Y020543D03*
X008796Y020543D03*
X008806Y020543D03*
X008820Y020543D03*
X008830Y020543D03*
X008843Y020543D03*
X008853Y020543D03*
X008863Y020543D03*
X008877Y020543D03*
X008693Y020407D03*
X008820Y020303D03*
X008830Y020170D03*
X008820Y020167D03*
X008820Y019996D03*
X008830Y019996D03*
X008806Y019996D03*
X008796Y019996D03*
X008783Y019996D03*
X008773Y019996D03*
X008763Y019996D03*
X008750Y019996D03*
X008740Y019996D03*
X008726Y019996D03*
X008716Y019996D03*
X008706Y019996D03*
X008693Y019996D03*
X008683Y019996D03*
X008673Y019996D03*
X008660Y019996D03*
X008650Y019996D03*
X008716Y019830D03*
X008820Y019830D03*
X008830Y019830D03*
X008706Y019690D03*
X008693Y019693D03*
X008693Y019586D03*
X008706Y019353D03*
X008693Y019349D03*
X008806Y019353D03*
X008820Y019353D03*
X008806Y019213D03*
X008706Y019213D03*
X008693Y019216D03*
D716*
X008773Y019321D03*
X008877Y019284D03*
X008877Y020235D03*
D717*
X008877Y020043D03*
X008773Y019783D03*
D718*
X008740Y019715D03*
X008877Y019775D03*
X008877Y019951D03*
X008740Y020665D03*
X008773Y020735D03*
X008716Y021552D03*
X008783Y021659D03*
D719*
X008873Y021607D03*
X008873Y022107D03*
X008753Y019730D03*
D720*
X008656Y020222D03*
X008656Y020959D03*
X008310Y021285D03*
X008753Y021626D03*
X008873Y021876D03*
X006806Y021285D03*
D721*
X008243Y021007D03*
X008640Y020710D03*
X008770Y020730D03*
X008873Y020727D03*
X008640Y020233D03*
X008870Y019780D03*
X008873Y019776D03*
X008776Y019326D03*
X008756Y019279D03*
X008753Y019273D03*
X008743Y019249D03*
X008243Y020357D03*
X008623Y021357D03*
X008623Y021607D03*
X008623Y021857D03*
X008623Y022107D03*
D722*
X008690Y020884D03*
X008703Y020780D03*
X008710Y020780D03*
X008713Y020780D03*
X008813Y020780D03*
X008817Y020780D03*
X008823Y020780D03*
X008827Y020780D03*
X008833Y020780D03*
X008696Y020643D03*
X008686Y020647D03*
X008713Y020543D03*
X008720Y020543D03*
X008723Y020543D03*
X008730Y020543D03*
X008733Y020543D03*
X008736Y020543D03*
X008743Y020543D03*
X008746Y020543D03*
X008753Y020543D03*
X008756Y020543D03*
X008760Y020543D03*
X008766Y020543D03*
X008770Y020543D03*
X008776Y020543D03*
X008780Y020543D03*
X008786Y020543D03*
X008790Y020543D03*
X008793Y020543D03*
X008800Y020543D03*
X008803Y020543D03*
X008810Y020543D03*
X008813Y020543D03*
X008817Y020543D03*
X008823Y020543D03*
X008827Y020543D03*
X008833Y020543D03*
X008837Y020543D03*
X008840Y020543D03*
X008847Y020543D03*
X008850Y020543D03*
X008857Y020543D03*
X008860Y020543D03*
X008867Y020543D03*
X008870Y020543D03*
X008873Y020543D03*
X008690Y020407D03*
X008696Y020303D03*
X008700Y020303D03*
X008703Y020303D03*
X008817Y020303D03*
X008823Y020303D03*
X008823Y020167D03*
X008827Y020167D03*
X008837Y020086D03*
X008840Y020086D03*
X008837Y019996D03*
X008833Y019996D03*
X008827Y019996D03*
X008823Y019996D03*
X008817Y019996D03*
X008813Y019996D03*
X008810Y019996D03*
X008803Y019996D03*
X008800Y019996D03*
X008793Y019996D03*
X008790Y019996D03*
X008786Y019996D03*
X008780Y019996D03*
X008776Y019996D03*
X008770Y019996D03*
X008766Y019996D03*
X008760Y019996D03*
X008756Y019996D03*
X008753Y019996D03*
X008746Y019996D03*
X008743Y019996D03*
X008736Y019996D03*
X008733Y019996D03*
X008730Y019996D03*
X008723Y019996D03*
X008720Y019996D03*
X008713Y019996D03*
X008710Y019996D03*
X008703Y019996D03*
X008700Y019996D03*
X008696Y019996D03*
X008690Y019996D03*
X008686Y019996D03*
X008680Y019996D03*
X008676Y019996D03*
X008670Y019996D03*
X008666Y019996D03*
X008663Y019996D03*
X008656Y019996D03*
X008653Y019996D03*
X008646Y019996D03*
X008696Y019826D03*
X008700Y019826D03*
X008713Y019830D03*
X008720Y019830D03*
X008810Y019826D03*
X008813Y019830D03*
X008817Y019830D03*
X008823Y019830D03*
X008827Y019830D03*
X008837Y019826D03*
X008837Y019906D03*
X008840Y019906D03*
X008833Y019906D03*
X008720Y019690D03*
X008703Y019690D03*
X008700Y019690D03*
X008696Y019690D03*
X008690Y019693D03*
X008696Y019590D03*
X008700Y019590D03*
X008703Y019590D03*
X008690Y019586D03*
X008696Y019453D03*
X008700Y019453D03*
X008700Y019353D03*
X008703Y019353D03*
X008710Y019353D03*
X008713Y019353D03*
X008696Y019349D03*
X008803Y019353D03*
X008810Y019353D03*
X008813Y019353D03*
X008817Y019353D03*
X008823Y019349D03*
X008827Y019349D03*
X008827Y019216D03*
X008823Y019216D03*
X008817Y019213D03*
X008813Y019213D03*
X008810Y019213D03*
X008713Y019213D03*
X008710Y019213D03*
X008703Y019213D03*
X008700Y019213D03*
X008696Y019216D03*
X006759Y020066D03*
D723*
X006789Y021290D03*
X008233Y021014D03*
X008326Y021290D03*
X008630Y021357D03*
X008630Y021607D03*
X008630Y021857D03*
X008630Y022107D03*
X008233Y020350D03*
X008873Y020233D03*
X008873Y019283D03*
X008646Y019283D03*
D724*
X008873Y019996D03*
X008840Y021861D03*
D725*
X008870Y022107D03*
X008870Y021607D03*
X008733Y021571D03*
X008653Y020710D03*
X008653Y019756D03*
X008653Y019283D03*
X008867Y019283D03*
D726*
X008663Y020957D03*
X008653Y021357D03*
X008653Y021607D03*
X008850Y021607D03*
X008870Y021874D03*
X008653Y021857D03*
X008653Y022107D03*
D727*
X008640Y020949D03*
X008766Y020722D03*
X008870Y020732D03*
X008640Y020472D03*
X008743Y019718D03*
D728*
X008870Y020235D03*
X008753Y020682D03*
X008323Y020075D03*
X008323Y021289D03*
X006792Y021289D03*
X006792Y020075D03*
D729*
X008870Y019996D03*
D730*
X008870Y019283D03*
X008730Y021567D03*
X008770Y021644D03*
D731*
X008640Y021606D03*
X008640Y021856D03*
X008640Y022106D03*
X008867Y022106D03*
X008640Y021355D03*
X008760Y020688D03*
X008760Y019738D03*
X008860Y019284D03*
D732*
X008867Y021871D03*
D733*
X008867Y021607D03*
X008656Y020473D03*
D734*
X008867Y020235D03*
X008756Y019735D03*
X008656Y019758D03*
X008653Y019521D03*
X008736Y021576D03*
D735*
X008867Y019996D03*
D736*
X008863Y022106D03*
D737*
X008863Y021869D03*
X008660Y021856D03*
X008660Y021606D03*
X008660Y021355D03*
D738*
X008863Y021607D03*
D739*
X008820Y021672D03*
X008806Y021676D03*
X008796Y021786D03*
X008783Y021786D03*
X008773Y021786D03*
X008763Y021786D03*
X008750Y021786D03*
X008740Y021786D03*
X008726Y021786D03*
X008716Y021786D03*
X008706Y021786D03*
X008693Y021676D03*
X008693Y021539D03*
X008796Y021536D03*
X008693Y021425D03*
X008706Y021285D03*
X008716Y021285D03*
X008726Y021285D03*
X008740Y021285D03*
X008750Y021285D03*
X008763Y021285D03*
X008773Y021285D03*
X008783Y021285D03*
X008796Y021285D03*
X008806Y021285D03*
X008820Y021285D03*
X008830Y021285D03*
X008843Y021285D03*
X008853Y021285D03*
X008863Y021285D03*
X008806Y021926D03*
X008796Y022036D03*
X008783Y022036D03*
X008773Y022036D03*
X008763Y022036D03*
X008750Y022036D03*
X008740Y022036D03*
X008726Y022036D03*
X008716Y022036D03*
X008706Y022036D03*
X008693Y021926D03*
X008693Y022176D03*
X008806Y022176D03*
X008820Y022172D03*
X008726Y020648D03*
X008726Y019698D03*
D740*
X008863Y019783D03*
X008863Y020737D03*
X008240Y021010D03*
D741*
X008763Y021637D03*
X008863Y020233D03*
D742*
X008863Y019996D03*
D743*
X008320Y020076D03*
X008863Y019283D03*
D744*
X008663Y019283D03*
X008313Y020076D03*
X008646Y020217D03*
X008857Y020233D03*
X008313Y021287D03*
X008860Y021607D03*
X008860Y022107D03*
X006802Y021287D03*
X006802Y020076D03*
D745*
X008860Y021869D03*
D746*
X008316Y021287D03*
X008643Y020967D03*
X008860Y020233D03*
X006799Y021287D03*
D747*
X006826Y020083D03*
X008290Y020083D03*
X008857Y019996D03*
X008860Y019996D03*
X008290Y021280D03*
D748*
X008653Y020960D03*
X008857Y021607D03*
X008857Y022107D03*
X008653Y020220D03*
D749*
X008663Y021357D03*
X008663Y021607D03*
X008746Y021617D03*
X008840Y021607D03*
X008857Y021867D03*
X008663Y021857D03*
D750*
X008776Y021652D03*
X008723Y021559D03*
X008236Y021012D03*
X008643Y020472D03*
X008857Y020738D03*
X008643Y019758D03*
X008746Y019721D03*
X008643Y019521D03*
X008643Y019284D03*
D751*
X008857Y019788D03*
X008643Y020708D03*
D752*
X008660Y020957D03*
X008660Y020223D03*
X008853Y022107D03*
D753*
X008853Y021866D03*
D754*
X008650Y021856D03*
X008650Y022106D03*
X008650Y021606D03*
X008853Y021609D03*
X008650Y021355D03*
D755*
X008796Y021674D03*
X008820Y021924D03*
X008853Y020763D03*
D756*
X008853Y020697D03*
D757*
X008853Y020278D03*
X008673Y020175D03*
X008830Y021666D03*
X008830Y022166D03*
D758*
X008673Y022164D03*
X008673Y022047D03*
X008673Y021914D03*
X008673Y021797D03*
X008673Y021664D03*
X008673Y021547D03*
X008706Y021541D03*
X008673Y021414D03*
X008673Y021297D03*
X008853Y019996D03*
X008726Y019226D03*
D759*
X008853Y019746D03*
D760*
X008853Y019328D03*
X008830Y021546D03*
X008830Y021796D03*
X008830Y022046D03*
D761*
X008850Y022106D03*
X008656Y022106D03*
X008656Y021856D03*
D762*
X008847Y021864D03*
X008850Y021864D03*
X008743Y021614D03*
X008300Y021284D03*
X008300Y020080D03*
X006816Y020080D03*
X006816Y021284D03*
D763*
X008256Y020997D03*
X008680Y021294D03*
X008686Y021540D03*
X008680Y021544D03*
X008676Y021667D03*
X008680Y021671D03*
X008680Y021794D03*
X008680Y021921D03*
X008680Y022044D03*
X008827Y022044D03*
X008823Y022171D03*
X008827Y021794D03*
X008823Y021671D03*
X008827Y021544D03*
X008850Y019996D03*
X008666Y019326D03*
X008723Y019223D03*
D764*
X008656Y021357D03*
X008656Y021607D03*
X008847Y021607D03*
X008847Y022107D03*
D765*
X008686Y021014D03*
X008676Y020767D03*
X008630Y020710D03*
X008676Y020653D03*
X008680Y020650D03*
X008680Y020530D03*
X008630Y020473D03*
X008676Y020417D03*
X008680Y020413D03*
X008676Y020290D03*
X008630Y020233D03*
X008690Y020167D03*
X008840Y019996D03*
X008803Y019823D03*
X008676Y019813D03*
X008680Y019700D03*
X008723Y019693D03*
X008680Y019580D03*
X008676Y019576D03*
X008630Y019520D03*
X008680Y019463D03*
X008680Y019343D03*
X008676Y019339D03*
X008630Y019283D03*
X008676Y019226D03*
X008680Y019223D03*
X008847Y019229D03*
X008840Y019343D03*
X008800Y020773D03*
D766*
X008843Y022106D03*
X008660Y022106D03*
D767*
X008843Y021862D03*
D768*
X008843Y021607D03*
D769*
X008693Y021015D03*
X008693Y020882D03*
X008683Y020772D03*
X008683Y020648D03*
X008693Y020538D03*
X008683Y020412D03*
X008683Y020295D03*
X008843Y020085D03*
X008843Y019908D03*
X008806Y019825D03*
X008683Y019818D03*
X008683Y019581D03*
X008693Y019455D03*
X008683Y019344D03*
X008683Y019221D03*
X008830Y019218D03*
X008830Y019348D03*
X008263Y020372D03*
X008806Y020778D03*
X008843Y020775D03*
D770*
X008683Y020887D03*
X008683Y020533D03*
X008693Y020167D03*
X008843Y020177D03*
X008843Y019996D03*
X008843Y019823D03*
X008683Y019696D03*
X008683Y019460D03*
X008843Y019339D03*
X008843Y019226D03*
X008263Y020994D03*
X008783Y021531D03*
D771*
X008303Y021284D03*
X008663Y022107D03*
X008840Y022107D03*
X008303Y020080D03*
X006812Y020080D03*
X006812Y021284D03*
D772*
X008666Y020999D03*
X008666Y021656D03*
X008666Y021906D03*
X008833Y021916D03*
X008666Y022156D03*
X008780Y019795D03*
D773*
X008786Y019806D03*
X008346Y020070D03*
X008666Y020667D03*
X008633Y020710D03*
X008730Y020653D03*
X008786Y020757D03*
X008670Y021004D03*
X008253Y021000D03*
X008833Y021551D03*
X008833Y021664D03*
X008793Y021671D03*
X008827Y021921D03*
X008633Y019283D03*
X008666Y019239D03*
X006769Y020070D03*
D774*
X008830Y021919D03*
D775*
X008676Y021796D03*
X008827Y021669D03*
X008676Y021546D03*
X008680Y021419D03*
X008676Y021295D03*
X008666Y020905D03*
X008666Y020428D03*
X008666Y019715D03*
X008730Y019701D03*
X008666Y019565D03*
X008790Y019341D03*
X008676Y022046D03*
X008680Y022169D03*
X008827Y022169D03*
D776*
X008676Y022166D03*
X008616Y022106D03*
X008676Y021916D03*
X008616Y021856D03*
X008823Y021922D03*
X008676Y021415D03*
X008616Y021355D03*
X008666Y020515D03*
X008666Y020278D03*
X008666Y019801D03*
X008666Y019478D03*
D777*
X008790Y019810D03*
X008676Y020173D03*
X008256Y020367D03*
X008666Y020753D03*
X008790Y020763D03*
X008616Y021607D03*
X008817Y021924D03*
D778*
X008806Y022037D03*
X008693Y022037D03*
X008693Y021787D03*
X008806Y021787D03*
X008806Y021537D03*
X008693Y021287D03*
X008673Y019229D03*
D779*
X008796Y019208D03*
X008546Y021015D03*
D780*
X008793Y019344D03*
D781*
X008790Y019201D03*
X008730Y019841D03*
X008633Y019985D03*
X008366Y020065D03*
X008730Y020792D03*
D782*
X008670Y021410D03*
X008733Y019706D03*
X008786Y019336D03*
X008730Y019229D03*
D783*
X008783Y019800D03*
X008343Y020070D03*
X008783Y020753D03*
X006772Y020070D03*
D784*
X008636Y020710D03*
X008783Y019333D03*
X008636Y019283D03*
D785*
X008550Y020162D03*
X008710Y020402D03*
X008713Y020402D03*
X008703Y020879D03*
X008780Y021525D03*
D786*
X008773Y021519D03*
X008363Y021299D03*
X008273Y020985D03*
X008726Y020788D03*
X008273Y020378D03*
X008636Y020081D03*
X008636Y019988D03*
X008636Y019898D03*
X006752Y020065D03*
X006752Y021299D03*
D787*
X006749Y021299D03*
X008366Y021299D03*
X008770Y021515D03*
X008540Y020152D03*
D788*
X008646Y019758D03*
X008646Y019521D03*
X008770Y019318D03*
D789*
X008766Y021641D03*
D790*
X008326Y020075D03*
X008766Y019314D03*
X006789Y020075D03*
D791*
X008763Y020715D03*
D792*
X008240Y020355D03*
X008763Y019765D03*
D793*
X008763Y019311D03*
X008230Y020345D03*
D794*
X008656Y019520D03*
X008656Y019283D03*
X008760Y019306D03*
D795*
X008653Y020472D03*
X008656Y020708D03*
X008756Y020685D03*
D796*
X008306Y020078D03*
X008750Y021622D03*
X006809Y020078D03*
D797*
X008740Y019243D03*
X008750Y019266D03*
D798*
X008746Y020673D03*
D799*
X008740Y021611D03*
D800*
X008630Y019981D03*
X008733Y019845D03*
D801*
X008723Y019833D03*
D802*
X008716Y020402D03*
X008706Y020402D03*
X008706Y020879D03*
D803*
X008716Y019214D03*
D804*
X008663Y020708D03*
X008643Y021355D03*
X008643Y021606D03*
X008643Y021856D03*
X008643Y022106D03*
D805*
X008663Y020225D03*
D806*
X008660Y019758D03*
X008660Y019521D03*
X008660Y020708D03*
D807*
X008660Y020473D03*
X008660Y019283D03*
D808*
X008650Y020218D03*
X008650Y020962D03*
D809*
X008650Y020710D03*
D810*
X008650Y020473D03*
X008650Y019520D03*
X008650Y019283D03*
D811*
X008650Y019758D03*
D812*
X008646Y020472D03*
X008646Y020708D03*
D813*
X008640Y019520D03*
X008640Y019283D03*
D814*
X008320Y021289D03*
X008636Y021355D03*
X008636Y021606D03*
X008636Y021856D03*
X008636Y022106D03*
X006796Y021289D03*
D815*
X008636Y020949D03*
D816*
X008636Y020472D03*
X008636Y020235D03*
X008636Y019758D03*
X008636Y019521D03*
D817*
X008633Y021355D03*
X008633Y021606D03*
X008633Y021856D03*
X008633Y022106D03*
D818*
X008633Y019521D03*
D819*
X008330Y020073D03*
X008626Y021357D03*
X008626Y021607D03*
X008626Y022107D03*
X006786Y020073D03*
D820*
X008626Y021856D03*
D821*
X008546Y020158D03*
D822*
X008536Y021004D03*
D823*
X008536Y020148D03*
D824*
X008346Y021294D03*
X006769Y021294D03*
D825*
X006786Y021290D03*
X008330Y021290D03*
D826*
X008316Y020076D03*
X006799Y020076D03*
D827*
X006806Y020078D03*
X008310Y020078D03*
D828*
X008306Y021285D03*
X006809Y021285D03*
D829*
X006819Y021282D03*
X006819Y020081D03*
X008296Y020081D03*
X008296Y021282D03*
D830*
X008293Y021282D03*
X006822Y021282D03*
D831*
X006822Y020081D03*
X008293Y020081D03*
D832*
X008286Y021280D03*
X006829Y021280D03*
D833*
X006829Y020083D03*
X008286Y020083D03*
D834*
X008283Y021280D03*
X006832Y021280D03*
D835*
X008283Y020085D03*
D836*
X008280Y020085D03*
X008280Y021279D03*
X006836Y021279D03*
X006836Y020085D03*
D837*
X006839Y020085D03*
X006839Y021279D03*
X008276Y021279D03*
X008276Y020085D03*
D838*
X008273Y020086D03*
X008273Y021277D03*
X006842Y021277D03*
X006842Y020086D03*
D839*
X006846Y020086D03*
X006846Y021277D03*
X008270Y021277D03*
X008270Y020086D03*
D840*
X008266Y021275D03*
X006849Y021275D03*
D841*
X006849Y020088D03*
X008266Y020088D03*
D842*
X008263Y021275D03*
X006852Y021275D03*
D843*
X006852Y020088D03*
X008263Y020088D03*
D844*
X008260Y020090D03*
X008260Y021274D03*
X006856Y021274D03*
X006856Y020090D03*
D845*
X006859Y020090D03*
X006565Y020683D03*
X006859Y021274D03*
X008256Y021274D03*
X008256Y020090D03*
D846*
X008253Y020091D03*
X008253Y021272D03*
X006862Y020091D03*
X006599Y020682D03*
X006595Y020682D03*
X006589Y020682D03*
X006585Y020682D03*
D847*
X006615Y020682D03*
X006866Y020091D03*
X006866Y021272D03*
X008250Y021272D03*
X008250Y020091D03*
D848*
X008250Y020362D03*
X008250Y021002D03*
D849*
X008246Y021272D03*
X006869Y021272D03*
X006632Y020682D03*
X006629Y020682D03*
X006622Y020682D03*
D850*
X006869Y020093D03*
X008246Y020093D03*
D851*
X008243Y021270D03*
X006872Y021270D03*
D852*
X006655Y020683D03*
X006872Y020093D03*
X008243Y020093D03*
D853*
X008240Y021270D03*
X006876Y021270D03*
X006672Y020683D03*
D854*
X006876Y020093D03*
X008240Y020093D03*
D855*
X008236Y021269D03*
X006879Y021269D03*
X006702Y020682D03*
X006699Y020682D03*
X006692Y020682D03*
D856*
X008236Y020353D03*
D857*
X008236Y020095D03*
X006879Y020095D03*
D858*
X006882Y020095D03*
X006726Y020682D03*
X006722Y020682D03*
X006719Y020682D03*
X006712Y020682D03*
X006882Y021269D03*
X008233Y021269D03*
X008233Y020095D03*
D859*
X008230Y021265D03*
D860*
X008230Y021019D03*
D861*
X008230Y020098D03*
X006752Y020682D03*
D862*
X008226Y021200D03*
D863*
X008226Y020163D03*
D864*
X008223Y021202D03*
D865*
X008223Y020162D03*
X006846Y020682D03*
D866*
X008220Y021202D03*
D867*
X008220Y020162D03*
D868*
X008216Y020160D03*
X007956Y021097D03*
X007966Y021100D03*
X008216Y021204D03*
D869*
X008213Y021205D03*
X007983Y021109D03*
X007976Y021105D03*
X007969Y021102D03*
X007953Y021095D03*
X007949Y021095D03*
X007949Y020268D03*
X007953Y020268D03*
X007976Y020258D03*
X007983Y020255D03*
X006849Y020682D03*
D870*
X007946Y020270D03*
X007993Y020250D03*
X007996Y020247D03*
X008213Y020160D03*
X007946Y021097D03*
X007986Y021110D03*
X007993Y021114D03*
X008003Y021120D03*
D871*
X008006Y021122D03*
X008210Y021205D03*
X007939Y020268D03*
X008210Y020158D03*
D872*
X008023Y020233D03*
X008013Y021127D03*
X008206Y021207D03*
D873*
X008206Y020157D03*
D874*
X007929Y021094D03*
X008033Y021137D03*
X008039Y021140D03*
X008203Y021207D03*
D875*
X008043Y021144D03*
X007929Y020270D03*
X008033Y020227D03*
X008039Y020223D03*
X008203Y020157D03*
D876*
X008049Y020218D03*
X007926Y021095D03*
X008059Y021152D03*
X008200Y021209D03*
D877*
X008053Y021149D03*
X008049Y021145D03*
X007926Y020268D03*
X008043Y020222D03*
X008053Y020215D03*
X008200Y020155D03*
D878*
X008076Y020203D03*
X008066Y020210D03*
X008063Y020210D03*
X008059Y020213D03*
X008063Y021154D03*
X008196Y021210D03*
D879*
X008073Y021159D03*
X008066Y021155D03*
X007919Y020268D03*
X007916Y020268D03*
X008073Y020205D03*
X008086Y020198D03*
X008196Y020155D03*
X007363Y021155D03*
D880*
X008193Y021210D03*
X008193Y020153D03*
X007366Y020207D03*
D881*
X007746Y020198D03*
X007753Y020205D03*
X007756Y020208D03*
X008110Y020185D03*
X008190Y020152D03*
X007906Y021095D03*
X007759Y021155D03*
X008096Y021172D03*
X008110Y021179D03*
X008190Y021212D03*
X006856Y020682D03*
D882*
X007766Y020215D03*
X007903Y020268D03*
X008116Y020182D03*
X008123Y020178D03*
X008133Y021192D03*
X008186Y021212D03*
D883*
X008123Y021185D03*
X007903Y021095D03*
X007766Y021149D03*
X007346Y021142D03*
X007346Y020222D03*
X008130Y020175D03*
X008133Y020172D03*
X008186Y020152D03*
D884*
X008136Y020170D03*
X008136Y021194D03*
X008183Y021214D03*
D885*
X008183Y020150D03*
D886*
X008180Y020151D03*
X008153Y020162D03*
X008146Y020165D03*
X007893Y020268D03*
X007779Y020225D03*
X007373Y020192D03*
X007373Y021172D03*
X007779Y021139D03*
X007893Y021095D03*
X008146Y021199D03*
X008153Y021202D03*
X008156Y021205D03*
X008180Y021212D03*
D887*
X008176Y021214D03*
X008170Y021210D03*
X008166Y021210D03*
X007783Y021137D03*
X007889Y020270D03*
X008156Y020160D03*
X008163Y020157D03*
X008166Y020153D03*
X008170Y020153D03*
X007332Y020233D03*
X006859Y020683D03*
D888*
X007332Y021130D03*
X007889Y021094D03*
X008163Y021207D03*
X008176Y020150D03*
D889*
X008160Y020157D03*
X008173Y021214D03*
D890*
X008160Y021207D03*
X008173Y020150D03*
D891*
X008150Y020162D03*
X007776Y020222D03*
X007776Y021142D03*
X008150Y021202D03*
D892*
X008143Y021197D03*
X008140Y021197D03*
X007896Y021094D03*
X007743Y021174D03*
X007773Y020220D03*
X007336Y020230D03*
D893*
X007339Y020227D03*
X007743Y020190D03*
X007769Y020217D03*
X007896Y020270D03*
X008140Y020170D03*
X008143Y020167D03*
X008130Y021190D03*
X007773Y021144D03*
X007769Y021147D03*
X007339Y021137D03*
X007336Y021134D03*
D894*
X007342Y021139D03*
X007899Y021095D03*
X008126Y021189D03*
X008126Y020175D03*
D895*
X008106Y020187D03*
X007759Y020210D03*
X007349Y020220D03*
X007349Y021144D03*
X007746Y021167D03*
X008106Y021177D03*
X008116Y021184D03*
X008120Y021184D03*
D896*
X007906Y020270D03*
X008120Y020180D03*
D897*
X007763Y020213D03*
X008113Y021180D03*
D898*
X007763Y021150D03*
X007352Y020217D03*
X008113Y020183D03*
D899*
X008103Y020188D03*
X007909Y020268D03*
X007909Y021095D03*
X007749Y021162D03*
X008103Y021175D03*
X007352Y021149D03*
D900*
X007356Y021150D03*
X007359Y021154D03*
X007369Y021164D03*
X007753Y021160D03*
X007913Y021094D03*
X008083Y021164D03*
X008100Y021174D03*
X008090Y020197D03*
X007359Y020210D03*
D901*
X007369Y020202D03*
X008096Y020192D03*
X008100Y020192D03*
D902*
X008093Y020193D03*
X008093Y021170D03*
D903*
X008090Y021167D03*
X008086Y021167D03*
X007756Y021157D03*
X007913Y020270D03*
X008083Y020200D03*
X007356Y020213D03*
D904*
X008079Y021162D03*
D905*
X007366Y021159D03*
X008079Y020202D03*
D906*
X007363Y020208D03*
X007916Y021095D03*
X007919Y021095D03*
X008076Y021162D03*
D907*
X008069Y021157D03*
X007923Y020270D03*
X008069Y020207D03*
D908*
X008056Y020215D03*
X008056Y021149D03*
X006852Y020682D03*
D909*
X008046Y021144D03*
D910*
X008046Y020220D03*
D911*
X007933Y020268D03*
X007933Y021095D03*
X008023Y021132D03*
X008036Y021139D03*
D912*
X008036Y020225D03*
D913*
X008029Y020228D03*
X008026Y020232D03*
X008019Y020235D03*
X007936Y020268D03*
X007936Y021095D03*
X008026Y021132D03*
X008029Y021135D03*
D914*
X008019Y021130D03*
X008016Y021127D03*
X008009Y020240D03*
D915*
X008016Y020237D03*
X008009Y021124D03*
D916*
X007943Y020268D03*
X008013Y020238D03*
D917*
X008006Y020242D03*
X008003Y020245D03*
X007939Y021095D03*
D918*
X007943Y021095D03*
X007999Y021119D03*
X007999Y020245D03*
D919*
X007986Y020253D03*
X007996Y021117D03*
D920*
X007989Y021114D03*
X007989Y020250D03*
D921*
X007979Y020255D03*
X007979Y021109D03*
D922*
X007973Y021104D03*
X007963Y021100D03*
X007959Y021097D03*
X007973Y020260D03*
D923*
X007969Y020263D03*
X007963Y020267D03*
X007959Y020267D03*
D924*
X007956Y020267D03*
X007966Y020263D03*
D925*
X007923Y021095D03*
D926*
X007899Y020268D03*
X007342Y020225D03*
D927*
X007886Y020268D03*
X007886Y021095D03*
X007329Y021129D03*
D928*
X007326Y021125D03*
X007883Y021095D03*
X007883Y020268D03*
X007783Y020228D03*
D929*
X007789Y020233D03*
X007879Y020270D03*
X007879Y021094D03*
X007789Y021130D03*
D930*
X007739Y021185D03*
X007876Y021095D03*
X007376Y021182D03*
X007319Y021119D03*
X007876Y020268D03*
X007376Y020182D03*
D931*
X007793Y021127D03*
X007873Y021094D03*
D932*
X007873Y020270D03*
X007793Y020237D03*
D933*
X007799Y020242D03*
X007866Y021095D03*
X007869Y021095D03*
D934*
X007799Y021122D03*
X007316Y021115D03*
X006862Y020682D03*
X007316Y020248D03*
X007869Y020268D03*
D935*
X007866Y020270D03*
X007312Y021110D03*
D936*
X007863Y021094D03*
X007863Y020270D03*
D937*
X007859Y021095D03*
X007803Y021119D03*
X007736Y021195D03*
D938*
X007379Y021192D03*
X007803Y020245D03*
X007859Y020268D03*
X007736Y020168D03*
X007379Y020172D03*
D939*
X007809Y020250D03*
X007856Y021094D03*
X007809Y021114D03*
D940*
X007856Y020270D03*
D941*
X007853Y020268D03*
X007853Y021095D03*
X006866Y020682D03*
D942*
X007306Y021104D03*
X007846Y021094D03*
X007849Y021094D03*
D943*
X007849Y020270D03*
X007846Y020270D03*
X007306Y020260D03*
D944*
X007843Y021095D03*
D945*
X007843Y020268D03*
D946*
X007839Y021094D03*
D947*
X007383Y021204D03*
X007839Y020270D03*
X007733Y020160D03*
X007383Y020160D03*
D948*
X007299Y020268D03*
X007833Y020268D03*
X007836Y020268D03*
X007836Y021095D03*
X007833Y021095D03*
X007826Y021099D03*
X007823Y021099D03*
X007299Y021095D03*
D949*
X007829Y021095D03*
X007829Y020268D03*
D950*
X007826Y020265D03*
X007823Y020265D03*
D951*
X007819Y020260D03*
X007819Y021104D03*
D952*
X007816Y021105D03*
X007302Y020265D03*
D953*
X007816Y020258D03*
X007733Y021205D03*
X007302Y021099D03*
D954*
X007813Y021109D03*
X007813Y020255D03*
D955*
X007806Y021115D03*
D956*
X007309Y021109D03*
X007806Y020248D03*
D957*
X007319Y020247D03*
X007796Y021124D03*
D958*
X007796Y020240D03*
D959*
X007786Y020230D03*
X007786Y021134D03*
D960*
X007749Y020202D03*
D961*
X007739Y020180D03*
D962*
X007729Y021215D03*
D963*
X007729Y020148D03*
D964*
X007726Y021225D03*
D965*
X007726Y020138D03*
X007389Y020142D03*
D966*
X007723Y021235D03*
D967*
X007723Y020128D03*
D968*
X007396Y020120D03*
X007396Y021244D03*
X007719Y021247D03*
D969*
X007279Y020308D03*
X007719Y020118D03*
D970*
X007716Y020108D03*
X007399Y020108D03*
X007399Y021255D03*
X007716Y021255D03*
D971*
X007713Y021267D03*
X007403Y021264D03*
X007403Y020100D03*
D972*
X007713Y020098D03*
D973*
X007709Y021275D03*
X007406Y021275D03*
D974*
X007709Y020088D03*
D975*
X007706Y021285D03*
D976*
X007706Y020078D03*
D977*
X007633Y020036D03*
X007629Y020036D03*
X007623Y020036D03*
X007619Y020036D03*
X007496Y020036D03*
X007493Y020036D03*
X007703Y021297D03*
X007633Y021327D03*
X007629Y021327D03*
X007623Y021327D03*
X007619Y021327D03*
X007496Y021327D03*
X007493Y021327D03*
X007486Y021327D03*
D978*
X007503Y021329D03*
X007506Y021329D03*
X007509Y021329D03*
X007516Y021329D03*
X007606Y021329D03*
X007609Y021329D03*
X007613Y021329D03*
X006896Y020682D03*
X007503Y020035D03*
X007506Y020035D03*
X007509Y020035D03*
X007516Y020035D03*
X007519Y020035D03*
X007606Y020035D03*
X007609Y020035D03*
X007613Y020035D03*
X007703Y020068D03*
D979*
X007699Y020058D03*
X007676Y020045D03*
X007446Y020045D03*
X007416Y020058D03*
X007416Y021305D03*
X007446Y021319D03*
X007676Y021319D03*
X007699Y021305D03*
D980*
X007696Y021310D03*
D981*
X007689Y021314D03*
X007679Y021317D03*
X007439Y021317D03*
X007436Y021317D03*
X007426Y021314D03*
X007429Y020050D03*
X007436Y020046D03*
X007439Y020046D03*
X007679Y020046D03*
X007686Y020050D03*
X007689Y020050D03*
X007696Y020053D03*
D982*
X007693Y020051D03*
X007423Y020051D03*
X006899Y020682D03*
X007423Y021312D03*
X007693Y021312D03*
D983*
X007686Y021315D03*
X007429Y021315D03*
X007419Y021309D03*
X007419Y020055D03*
X007426Y020051D03*
D984*
X007683Y020046D03*
X007683Y021317D03*
X007433Y021317D03*
D985*
X007443Y021319D03*
X007673Y021319D03*
X007673Y020045D03*
X007443Y020045D03*
D986*
X007449Y021320D03*
X007453Y021320D03*
X007666Y021320D03*
X007669Y021320D03*
D987*
X007669Y020043D03*
X007666Y020043D03*
X007453Y020043D03*
X007449Y020043D03*
D988*
X007459Y020041D03*
X007463Y020041D03*
X007656Y020041D03*
X007663Y020041D03*
X007663Y021322D03*
X007656Y021322D03*
X007463Y021322D03*
X007459Y021322D03*
D989*
X007456Y021322D03*
X007659Y021322D03*
X007659Y020041D03*
X007456Y020041D03*
D990*
X007469Y020040D03*
X007473Y020040D03*
X007646Y020040D03*
X007653Y020040D03*
X007653Y021324D03*
X007646Y021324D03*
X007473Y021324D03*
X007469Y021324D03*
D991*
X007466Y021324D03*
X007649Y021324D03*
X007649Y020040D03*
X007466Y020040D03*
D992*
X007476Y021325D03*
X007483Y021325D03*
X007639Y021325D03*
X007643Y021325D03*
D993*
X007643Y020038D03*
X007639Y020038D03*
X007486Y020038D03*
X007483Y020038D03*
X007476Y020038D03*
D994*
X007479Y021325D03*
X007636Y021325D03*
D995*
X007636Y020038D03*
X007479Y020038D03*
D996*
X007489Y020036D03*
X007499Y020036D03*
X007413Y020070D03*
X007626Y020036D03*
X007413Y021294D03*
X007489Y021327D03*
X007626Y021327D03*
D997*
X007616Y021329D03*
X007603Y021329D03*
X007513Y021329D03*
X007499Y021329D03*
X007513Y020035D03*
X007603Y020035D03*
X007616Y020035D03*
D998*
X007599Y020033D03*
X007596Y020033D03*
X007589Y020033D03*
X007586Y020033D03*
X007583Y020033D03*
X007576Y020033D03*
X007573Y020033D03*
X007566Y020033D03*
X007563Y020033D03*
X007559Y020033D03*
X007553Y020033D03*
X007549Y020033D03*
X007543Y020033D03*
X007539Y020033D03*
X007533Y020033D03*
X007529Y020033D03*
X007526Y020033D03*
X007526Y021330D03*
X007529Y021330D03*
X007533Y021330D03*
X007539Y021330D03*
X007543Y021330D03*
X007549Y021330D03*
X007553Y021330D03*
X007563Y021330D03*
X007566Y021330D03*
X007573Y021330D03*
X007576Y021330D03*
X007583Y021330D03*
X007586Y021330D03*
X007589Y021330D03*
X007596Y021330D03*
X007599Y021330D03*
X007519Y021330D03*
D999*
X007523Y021330D03*
X007536Y021330D03*
X007546Y021330D03*
X007569Y021330D03*
X007579Y021330D03*
X007593Y021330D03*
X007593Y020033D03*
X007579Y020033D03*
X007569Y020033D03*
X007556Y020033D03*
X007546Y020033D03*
X007536Y020033D03*
X007523Y020033D03*
D1000*
X007559Y021332D03*
D1001*
X007556Y021332D03*
D1002*
X007433Y020048D03*
D1003*
X006892Y020682D03*
X007409Y021285D03*
D1004*
X007409Y020080D03*
D1005*
X007406Y020090D03*
D1006*
X007393Y020130D03*
X007282Y020297D03*
X007282Y021067D03*
X007393Y021234D03*
D1007*
X007389Y021224D03*
D1008*
X007386Y021214D03*
X007386Y020150D03*
D1009*
X007329Y020235D03*
D1010*
X007326Y020238D03*
D1011*
X007322Y021122D03*
D1012*
X007322Y020242D03*
D1013*
X007312Y020253D03*
D1014*
X007309Y020257D03*
D1015*
X007296Y020273D03*
X007296Y021090D03*
D1016*
X007292Y021085D03*
X007292Y020278D03*
D1017*
X007289Y020285D03*
X006872Y020682D03*
X007289Y021079D03*
D1018*
X007286Y021074D03*
X007286Y020290D03*
D1019*
X007279Y021055D03*
D1020*
X007276Y020682D03*
X007099Y020682D03*
D1021*
X007272Y020682D03*
D1022*
X007269Y020682D03*
X007106Y020682D03*
D1023*
X007109Y020682D03*
X007266Y020682D03*
D1024*
X007262Y020682D03*
D1025*
X007259Y020683D03*
X007112Y020683D03*
D1026*
X007252Y020682D03*
X007256Y020682D03*
D1027*
X007249Y020682D03*
D1028*
X007246Y020682D03*
X007119Y020682D03*
D1029*
X007122Y020682D03*
X007242Y020682D03*
D1030*
X007239Y020682D03*
X007126Y020682D03*
D1031*
X007236Y020683D03*
D1032*
X007232Y020682D03*
X007129Y020682D03*
D1033*
X007229Y020682D03*
D1034*
X007226Y020682D03*
X007222Y020682D03*
X007132Y020682D03*
D1035*
X007139Y020682D03*
X007219Y020682D03*
D1036*
X007216Y020682D03*
D1037*
X007212Y020683D03*
D1038*
X007209Y020682D03*
X007146Y020682D03*
X007142Y020682D03*
D1039*
X007206Y020682D03*
D1040*
X007202Y020682D03*
X007199Y020682D03*
D1041*
X007196Y020682D03*
X007152Y020682D03*
D1042*
X007192Y020682D03*
D1043*
X007189Y020683D03*
X007156Y020683D03*
D1044*
X007159Y020682D03*
X007186Y020682D03*
D1045*
X007182Y020682D03*
D1046*
X007179Y020682D03*
X007176Y020682D03*
X007169Y020682D03*
X007166Y020682D03*
D1047*
X007162Y020682D03*
X007172Y020682D03*
D1048*
X007149Y020682D03*
D1049*
X007136Y020682D03*
D1050*
X007116Y020682D03*
D1051*
X007102Y020683D03*
D1052*
X007096Y020682D03*
D1053*
X007092Y020682D03*
D1054*
X007089Y020682D03*
D1055*
X007086Y020682D03*
D1056*
X007082Y020682D03*
D1057*
X007079Y020682D03*
D1058*
X007076Y020682D03*
D1059*
X007072Y020682D03*
D1060*
X007069Y020682D03*
D1061*
X007066Y020682D03*
D1062*
X007062Y020682D03*
D1063*
X007059Y020682D03*
D1064*
X007056Y020682D03*
D1065*
X007052Y020682D03*
D1066*
X007049Y020683D03*
D1067*
X007046Y020682D03*
D1068*
X007042Y020682D03*
D1069*
X007039Y020683D03*
D1070*
X007036Y020682D03*
D1071*
X007032Y020682D03*
D1072*
X007029Y020682D03*
X007026Y020682D03*
D1073*
X007022Y020682D03*
D1074*
X007019Y020682D03*
X007016Y020682D03*
D1075*
X007012Y020682D03*
D1076*
X007009Y020682D03*
X007006Y020682D03*
D1077*
X007002Y020682D03*
D1078*
X006999Y020682D03*
D1079*
X006996Y020683D03*
D1080*
X006992Y020682D03*
X006902Y020682D03*
D1081*
X006989Y020682D03*
D1082*
X006986Y020683D03*
D1083*
X006982Y020682D03*
D1084*
X006979Y020682D03*
D1085*
X006976Y020682D03*
X006972Y020682D03*
X006916Y020682D03*
D1086*
X006919Y020682D03*
X006969Y020682D03*
D1087*
X006966Y020682D03*
X006922Y020682D03*
D1088*
X006962Y020682D03*
D1089*
X006959Y020682D03*
X006926Y020682D03*
D1090*
X006956Y020682D03*
D1091*
X006952Y020682D03*
X006929Y020682D03*
D1092*
X006936Y020682D03*
X006946Y020682D03*
X006949Y020682D03*
D1093*
X006942Y020682D03*
D1094*
X006939Y020682D03*
D1095*
X006932Y020682D03*
D1096*
X006912Y020682D03*
D1097*
X006909Y020682D03*
D1098*
X006906Y020682D03*
D1099*
X006899Y021262D03*
D1100*
X006899Y020101D03*
D1101*
X006896Y021265D03*
D1102*
X006812Y020682D03*
X006806Y020682D03*
X006802Y020682D03*
X006896Y020098D03*
D1103*
X006892Y021265D03*
D1104*
X006792Y020682D03*
X006789Y020682D03*
X006782Y020682D03*
X006892Y020098D03*
D1105*
X006889Y020096D03*
X006889Y021267D03*
D1106*
X006889Y020683D03*
D1107*
X006886Y020096D03*
X006886Y021267D03*
D1108*
X006886Y020682D03*
D1109*
X006882Y020682D03*
D1110*
X006879Y020682D03*
D1111*
X006876Y020682D03*
D1112*
X006869Y020682D03*
D1113*
X006582Y020683D03*
X006862Y021274D03*
D1114*
X006842Y020682D03*
D1115*
X006839Y020682D03*
D1116*
X006836Y020682D03*
D1117*
X006832Y020682D03*
D1118*
X006832Y020083D03*
D1119*
X006829Y020683D03*
D1120*
X006826Y021282D03*
D1121*
X006826Y020683D03*
D1122*
X006822Y020682D03*
D1123*
X006819Y020682D03*
D1124*
X006816Y020682D03*
D1125*
X006809Y020682D03*
D1126*
X006799Y020683D03*
D1127*
X006796Y020682D03*
X006786Y020682D03*
D1128*
X006796Y020075D03*
D1129*
X006779Y020682D03*
X006776Y020682D03*
X006769Y020682D03*
X006766Y020682D03*
D1130*
X006772Y020682D03*
D1131*
X006762Y020683D03*
D1132*
X006759Y020682D03*
X006756Y020682D03*
X006749Y020682D03*
D1133*
X006746Y020683D03*
D1134*
X006742Y020682D03*
X006736Y020682D03*
X006732Y020682D03*
D1135*
X006729Y020682D03*
X006739Y020682D03*
D1136*
X006716Y020682D03*
D1137*
X006709Y020683D03*
D1138*
X006706Y020682D03*
X006696Y020682D03*
D1139*
X006689Y020682D03*
X006685Y020682D03*
X006679Y020682D03*
X006675Y020682D03*
D1140*
X006682Y020682D03*
D1141*
X006669Y020682D03*
X006665Y020682D03*
X006662Y020682D03*
D1142*
X006659Y020682D03*
D1143*
X006652Y020682D03*
X006645Y020682D03*
X006642Y020682D03*
X006639Y020682D03*
D1144*
X006649Y020682D03*
D1145*
X006635Y020682D03*
X006625Y020682D03*
D1146*
X006619Y020683D03*
D1147*
X006612Y020682D03*
X006609Y020682D03*
X006605Y020682D03*
D1148*
X006602Y020683D03*
D1149*
X006592Y020682D03*
D1150*
X006579Y020682D03*
X006569Y020682D03*
D1151*
X006572Y020682D03*
X006575Y020682D03*
D1152*
X006562Y020682D03*
X006555Y020682D03*
D1153*
X006559Y020682D03*
D1154*
X006552Y020682D03*
X006549Y020682D03*
D1155*
X006545Y020682D03*
D1156*
X007325Y010893D02*
X007325Y010668D01*
X007400Y010593D01*
X007550Y010593D01*
X007625Y010668D01*
X007625Y010893D01*
X007625Y010743D02*
X007775Y010593D01*
X007775Y010433D02*
X007775Y010133D01*
X007775Y010283D02*
X007325Y010283D01*
X007475Y010433D01*
X007325Y010893D02*
X007775Y010893D01*
M02*
